<svg width="140" height="140" viewBox="0 0 140 140" fill="none" xmlns="http://www.w3.org/2000/svg">
<circle cx="70" cy="70" r="70" fill="#D7FB00"/>
<path fill-rule="evenodd" clip-rule="evenodd" d="M79.8425 57.5669C76.3947 61.0147 69.9804 60.8852 66.3874 57.2923L64.9143 55.8191L62.0859 58.6475L63.559 60.1207C66.1723 62.734 69.7239 64.0851 73.2509 64.1585L55.8009 81.6085L58.7472 84.5548L76.1971 67.1048C76.2706 70.6317 77.6216 74.1833 80.2349 76.7966L81.7081 78.2698L84.5365 75.4413L83.0634 73.9682C79.4704 70.3752 79.3409 63.961 82.7888 60.5131L84.203 59.0989L81.2567 56.1526L79.8425 57.5669Z" fill="#171E2E"/>
<path d="M74.9784 17.4417L73.5891 17.3451C72.9178 17.2984 72.4118 17.0838 72.0713 16.7014C71.7307 16.319 71.5837 15.792 71.6304 15.1204L71.9112 11.0784C71.9579 10.4069 72.1763 9.90527 72.5665 9.57365C72.9567 9.24203 73.4875 9.09957 74.1588 9.14625L75.5481 9.24286C76.2109 9.28895 76.7123 9.50746 77.0523 9.89839C77.4014 10.2814 77.5529 10.8045 77.5068 11.4675L77.4652 12.0668C77.4522 12.2538 77.3522 12.3408 77.1653 12.3278L76.0946 12.2534C75.9162 12.241 75.8334 12.1412 75.8464 11.9542L75.8828 11.4314C75.9017 11.1594 75.8555 10.964 75.7442 10.8452C75.642 10.7186 75.4549 10.6458 75.183 10.6268L74.3163 10.5666C74.0528 10.5483 73.8575 10.5945 73.7303 10.7052C73.6121 10.808 73.5436 10.9955 73.5247 11.2675L73.2545 15.1565C73.2356 15.4285 73.2772 15.6279 73.3794 15.7546C73.4907 15.8733 73.678 15.9419 73.9415 15.9602L74.8082 16.0205C75.0801 16.0394 75.2752 15.9974 75.3933 15.8946C75.5206 15.7839 75.5936 15.5925 75.6125 15.3205L75.6488 14.7977C75.6618 14.6107 75.7576 14.5234 75.936 14.5358L77.0067 14.6102C77.1936 14.6232 77.2806 14.7232 77.2676 14.9103L77.226 15.5095C77.1799 16.1726 76.9572 16.6739 76.5579 17.0134C76.1677 17.345 75.6412 17.4878 74.9784 17.4417Z" fill="#171E2E"/>
<path d="M81.4322 16.9431L82.3196 17.1315C82.5862 17.1881 82.7852 17.1737 82.9165 17.0883C83.0579 16.9964 83.1569 16.817 83.2135 16.5503L84.0222 12.7367C84.0788 12.47 84.0602 12.2701 83.9665 12.1369C83.883 11.9973 83.7079 11.8991 83.4412 11.8425L82.5538 11.6542C82.2872 11.5976 82.0873 11.6162 81.9542 11.7099C81.8229 11.7952 81.729 11.9713 81.6724 12.238L80.8637 16.0516C80.8071 16.3183 80.8206 16.5215 80.9042 16.6612C80.9895 16.7926 81.1655 16.8865 81.4322 16.9431ZM82.2904 18.5625L80.8905 18.2655C80.2322 18.1258 79.7611 17.8428 79.477 17.4167C79.193 16.9906 79.1208 16.4482 79.2604 15.7897L80.101 11.8261C80.2406 11.1676 80.5267 10.7013 80.9593 10.4273C81.3918 10.1532 81.9372 10.0861 82.5955 10.2258L83.9954 10.5229C84.6537 10.6626 85.1248 10.9455 85.4089 11.3716C85.6929 11.7978 85.7651 12.3401 85.6255 12.9986L84.7849 16.9622C84.6453 17.6207 84.3592 18.087 83.9266 18.361C83.4941 18.6351 82.9487 18.7023 82.2904 18.5625Z" fill="#171E2E"/>
<path d="M87.5872 20.0306L86.593 19.6612C86.4253 19.5989 86.3726 19.4839 86.4349 19.3161L89.1082 12.1149C89.1705 11.9472 89.2855 11.8944 89.4532 11.9567L90.3515 12.2905C90.5192 12.3528 90.6102 12.4502 90.6246 12.5828L91.3583 18.0229L91.4062 18.0407L93.0609 13.5833C93.1232 13.4156 93.2381 13.3629 93.4058 13.4252L94.4 13.7945C94.5677 13.8568 94.6204 13.9718 94.5581 14.1396L91.8848 21.3408C91.8225 21.5086 91.7075 21.5613 91.5398 21.499L90.6654 21.1742C90.4898 21.1089 90.3917 20.9815 90.3711 20.7921L89.6303 15.4448L89.5824 15.427L87.9321 19.8724C87.8698 20.0401 87.7548 20.0929 87.5872 20.0306Z" fill="#171E2E"/>
<path d="M95.871 23.6675L94.9213 23.1675C94.7555 23.0801 94.7142 22.9573 94.7975 22.799L97.7789 17.1323C97.8225 17.0493 97.8029 16.986 97.72 16.9424L96.431 16.2637C96.2727 16.1804 96.2352 16.0595 96.3185 15.9012L96.7232 15.1321C96.8065 14.9737 96.9273 14.9362 97.0856 15.0195L101.359 17.2698C101.518 17.3531 101.555 17.474 101.472 17.6323L101.067 18.4014C100.984 18.5598 100.863 18.5973 100.705 18.514L99.4159 17.8353C99.3255 17.7877 99.2584 17.8054 99.2148 17.8883L96.2335 23.555C96.1501 23.7133 96.0293 23.7509 95.871 23.6675Z" fill="#171E2E"/>
<path d="M99.4089 25.7375L98.4012 25.038C98.2752 24.9505 98.2842 24.8479 98.4282 24.73L104.465 19.5703C104.616 19.4573 104.772 19.4567 104.933 19.5684L106.329 20.5376C106.504 20.6591 106.558 20.8054 106.491 20.9767L103.771 28.4392C103.711 28.6153 103.618 28.6597 103.492 28.5722L102.485 27.8727C102.408 27.8192 102.365 27.7688 102.356 27.7214C102.352 27.6669 102.373 27.5928 102.417 27.4991L102.924 26.14L100.877 24.719L99.7823 25.67C99.71 25.7443 99.6442 25.7868 99.585 25.7975C99.5376 25.8061 99.4789 25.7861 99.4089 25.7375ZM104.733 21.3127L101.872 23.8228L103.426 24.9013L104.775 21.3418L104.733 21.3127Z" fill="#171E2E"/>
<path d="M107.092 31.8009L106.067 30.8574C105.572 30.4016 105.311 29.9179 105.284 29.4065C105.257 28.895 105.471 28.3916 105.927 27.8963L108.669 24.9149C109.125 24.4195 109.609 24.1643 110.12 24.149C110.632 24.1338 111.136 24.3541 111.631 24.81L112.656 25.7534C113.145 26.2035 113.4 26.6874 113.421 27.2051C113.455 27.7224 113.247 28.2255 112.797 28.7146L112.39 29.1566C112.263 29.2946 112.131 29.3001 111.993 29.1731L111.203 28.4461C111.071 28.3249 111.069 28.1953 111.196 28.0574L111.551 27.6718C111.735 27.4711 111.821 27.2897 111.808 27.1274C111.808 26.9646 111.707 26.7909 111.506 26.6062L110.867 26.0176C110.673 25.8388 110.491 25.7528 110.323 25.7598C110.166 25.7663 109.996 25.8699 109.811 26.0705L107.172 28.9391C106.988 29.1397 106.896 29.3214 106.897 29.4842C106.909 29.6465 107.013 29.8171 107.207 29.996L107.847 30.5846C108.047 30.7692 108.226 30.8583 108.382 30.8518C108.551 30.8448 108.727 30.741 108.912 30.5403L109.266 30.1547C109.393 30.0168 109.523 30.0084 109.654 30.1296L110.444 30.8566C110.582 30.9836 110.587 31.116 110.46 31.254L110.054 31.696C109.604 32.1851 109.117 32.4375 108.593 32.4532C108.081 32.4684 107.581 32.251 107.092 31.8009Z" fill="#171E2E"/>
<path d="M111.546 36.5569L110.851 35.7386C110.73 35.5958 110.737 35.4664 110.873 35.3506L115.752 31.2048C115.823 31.1441 115.829 31.078 115.768 31.0066L114.825 29.8961C114.709 29.7597 114.72 29.6336 114.856 29.5177L115.518 28.955C115.654 28.8392 115.781 28.8494 115.896 28.9858L119.023 32.6681C119.139 32.8045 119.129 32.9306 118.992 33.0464L118.33 33.6091C118.194 33.725 118.068 33.7147 117.952 33.5783L117.009 32.4678C116.943 32.3899 116.874 32.3813 116.803 32.4419L111.924 36.5877C111.788 36.7036 111.662 36.6933 111.546 36.5569Z" fill="#171E2E"/>
<path d="M124.893 41.7918L125.418 42.7285C125.51 42.8921 125.481 43.0155 125.332 43.0988L120.205 45.9724C119.625 46.2973 119.084 46.3857 118.581 46.2377C118.09 46.0929 117.682 45.7306 117.357 45.1508L116.671 43.9242C116.342 43.3369 116.244 42.7959 116.377 42.3014C116.51 41.8068 116.87 41.395 117.457 41.066L122.574 38.1986C122.73 38.1111 122.851 38.1454 122.939 38.3016L123.47 39.2494C123.557 39.4055 123.523 39.5273 123.367 39.6148L118.317 42.4447C118.079 42.5779 117.935 42.722 117.885 42.877C117.847 43.0352 117.893 43.2295 118.022 43.46L118.452 44.2294C118.586 44.4673 118.728 44.6075 118.878 44.65C119.041 44.6958 119.241 44.652 119.479 44.5188L124.528 41.6888C124.684 41.6014 124.806 41.6357 124.893 41.7918Z" fill="#171E2E"/>
<path d="M121.117 47.8568L121.356 47.765C121.523 47.7008 121.638 47.7522 121.703 47.9192L122.092 48.9333C122.157 49.1003 122.105 49.2159 121.938 49.2801L121.843 49.3168C121.541 49.4331 121.357 49.5722 121.292 49.7343C121.226 49.8964 121.254 50.1366 121.377 50.4547L121.592 51.0154C121.712 51.3256 121.854 51.5174 122.019 51.5908C122.187 51.6722 122.434 51.6502 122.76 51.5248L122.903 51.4698C123.134 51.3811 123.272 51.2184 123.318 50.9816C123.375 50.7497 123.362 50.49 123.278 50.2025C123.195 49.915 123.123 49.5959 123.061 49.2454C123.01 48.8997 122.983 48.5678 122.98 48.2497C122.984 47.9285 123.104 47.6128 123.341 47.3027C123.589 46.9974 123.959 46.75 124.452 46.5604L124.869 46.3998C125.49 46.1613 126.038 46.1512 126.514 46.3696C126.991 46.5881 127.348 47.0075 127.586 47.6279L128.045 48.8209C128.287 49.4492 128.304 50.0041 128.096 50.4855C127.889 50.967 127.475 51.327 126.855 51.5655L126.628 51.6527C126.461 51.7169 126.346 51.6655 126.282 51.4985L125.892 50.4844C125.828 50.3174 125.879 50.2018 126.046 50.1376L126.118 50.11C126.428 49.9908 126.615 49.8501 126.681 49.688C126.746 49.5258 126.718 49.2857 126.596 48.9676L126.417 48.5023C126.291 48.1762 126.142 47.978 125.969 47.9076C125.807 47.8421 125.547 47.8782 125.189 48.0158L124.963 48.103C124.589 48.2467 124.5 48.6554 124.695 49.329C124.899 50.0264 124.995 50.6789 124.982 51.2864C124.97 51.6107 124.844 51.9239 124.604 52.2261C124.375 52.5332 124.022 52.7785 123.545 52.962L123.14 53.1179C122.52 53.3565 121.971 53.3665 121.495 53.1481C121.018 52.9296 120.661 52.5102 120.423 51.8899L119.923 50.5895C119.684 49.9691 119.669 49.4182 119.876 48.9368C120.083 48.4553 120.497 48.0953 121.117 47.8568Z" fill="#171E2E"/>
<path d="M122.929 60.9128L122.77 59.8639C122.743 59.687 122.818 59.5851 122.995 59.5583L130.587 58.4065C130.764 58.3796 130.866 58.4547 130.893 58.6316L131.036 59.5794C131.063 59.7563 131.022 59.8832 130.913 59.9601L126.513 63.2391L126.52 63.2897L131.219 62.5767C131.396 62.5499 131.498 62.6249 131.525 62.8019L131.684 63.8508C131.711 64.0277 131.636 64.1295 131.459 64.1564L123.867 65.3082C123.69 65.335 123.588 65.26 123.561 65.0831L123.421 64.1606C123.393 63.9752 123.457 63.8276 123.613 63.7178L127.929 60.4775L127.921 60.4269L123.235 61.1379C123.058 61.1648 122.956 61.0897 122.929 60.9128Z" fill="#171E2E"/>
<path d="M125.171 69.6898L125.176 70.5973C125.178 70.8699 125.234 71.0613 125.345 71.1714C125.465 71.29 125.662 71.3485 125.934 71.3469L129.831 71.324C130.104 71.3224 130.295 71.2616 130.405 71.1417C130.524 71.0302 130.582 70.8381 130.581 70.5655L130.575 69.658C130.574 69.3853 130.513 69.1939 130.393 69.0839C130.282 68.9738 130.09 68.9195 129.817 68.9211L125.92 68.944C125.648 68.9456 125.452 69.0022 125.333 69.1136C125.223 69.225 125.169 69.4171 125.171 69.6898ZM123.772 70.8739L123.764 69.4424C123.76 68.7692 123.936 68.2484 124.291 67.8799C124.647 67.5114 125.161 67.3252 125.834 67.3212L129.884 67.2974C130.557 67.2934 131.073 67.4736 131.433 67.8379C131.793 68.2022 131.975 68.7209 131.979 69.3941L131.988 70.8256C131.992 71.4988 131.816 72.0196 131.46 72.3881C131.105 72.7566 130.59 72.9429 129.917 72.9468L125.867 72.9706C125.194 72.9746 124.678 72.7944 124.318 72.4301C123.958 72.0658 123.776 71.5471 123.772 70.8739Z" fill="#171E2E"/>
<path d="M123.274 77.9538L123.57 76.189C123.601 76.0041 123.706 75.9138 123.887 75.9181L131.686 75.8378C131.867 75.8421 131.94 75.9452 131.907 76.1469L131.687 77.4579C131.655 77.6512 131.55 77.7373 131.372 77.7161L125.037 77.4067L125.022 77.495L131.07 79.7521C131.217 79.8026 131.278 79.9035 131.253 80.0548L131.016 81.4667C130.99 81.6264 130.903 81.7068 130.756 81.7081L124.286 81.8945L124.269 81.9954L130.349 83.7524C130.532 83.7918 130.608 83.9081 130.575 84.1014L130.356 85.4124C130.322 85.6141 130.215 85.6869 130.034 85.6307L122.701 83.0028C122.529 82.9481 122.457 82.8366 122.485 82.6686L122.783 80.8911C122.812 80.7146 122.917 80.6285 123.098 80.6329L129.198 80.4882L129.206 80.4378L123.488 78.3007C123.317 78.2375 123.246 78.1219 123.274 77.9538Z" fill="#171E2E"/>
<path d="M127.32 93.1088L127.426 93.1526C127.576 93.2141 127.618 93.3237 127.553 93.4813L127.31 94.0724C127.246 94.23 127.138 94.2781 126.989 94.2165L126.882 94.1728C126.567 94.0432 126.269 93.8378 125.989 93.5567C125.936 93.5071 125.882 93.4575 125.829 93.408C125.784 93.3616 125.744 93.313 125.709 93.262C125.68 93.2222 125.65 93.1824 125.62 93.1425C125.595 93.1138 125.573 93.0906 125.552 93.073C125.725 93.3927 125.837 93.6233 125.89 93.7646C126.004 94.0695 126.045 94.441 126.012 94.879C125.996 95.0292 125.905 95.1066 125.737 95.1113L125.097 95.0554C124.928 95.0411 124.85 94.9494 124.865 94.7802C124.875 94.4623 124.939 94.1614 125.056 93.8777C125.2 93.5499 125.336 93.2973 125.464 93.1197C124.999 93.6469 124.489 93.9578 123.934 94.0522C123.773 94.087 123.673 94.0275 123.635 93.8737L123.491 93.2481C123.464 93.0896 123.525 92.9857 123.674 92.9365C124.287 92.7461 124.908 92.7805 125.538 93.0397C125.044 92.8087 124.711 92.5982 124.541 92.4083C124.396 92.2661 124.237 92.0715 124.062 91.8246C123.984 91.7004 124.018 91.5852 124.163 91.479L124.712 91.1519C124.852 91.0346 124.966 91.0586 125.055 91.224C125.233 91.509 125.339 91.7323 125.374 91.894C125.416 92.059 125.449 92.1922 125.472 92.2937C125.491 92.4031 125.502 92.4997 125.505 92.5836C125.515 92.6707 125.522 92.7428 125.526 92.7998C125.535 92.868 125.539 92.9479 125.538 93.0397C125.628 92.2841 125.831 91.7227 126.147 91.3555L126.227 91.2636C126.329 91.1491 126.445 91.1462 126.576 91.2551L127.07 91.6657C127.2 91.7745 127.207 91.8925 127.09 92.0195C126.762 92.4373 126.278 92.7635 125.638 92.9979L125.572 93.0257C125.602 93.0197 125.637 93.0113 125.679 93.0007C125.725 93.0011 125.774 92.9936 125.826 92.9783C125.886 92.9662 125.95 92.9558 126.018 92.9469C126.091 92.9492 126.166 92.9475 126.242 92.9419C126.325 92.9396 126.413 92.9388 126.505 92.9397C126.593 92.9484 126.682 92.9572 126.77 92.9659C126.947 92.9834 127.131 93.0311 127.32 93.1088Z" fill="#171E2E"/>
<path d="M114.661 100.327L115.426 99.163C115.796 98.6004 116.231 98.2644 116.731 98.1548C117.231 98.0452 117.762 98.1753 118.325 98.545L121.709 100.771C122.272 101.14 122.602 101.577 122.699 102.079C122.797 102.582 122.661 103.115 122.292 103.677L121.527 104.842C121.162 105.397 120.726 105.727 120.218 105.832C119.714 105.949 119.184 105.825 118.628 105.459L118.127 105.13C117.97 105.027 117.943 104.897 118.046 104.74L118.636 103.843C118.734 103.693 118.861 103.67 119.018 103.773L119.456 104.061C119.683 104.211 119.876 104.266 120.034 104.227C120.195 104.2 120.35 104.073 120.5 103.845L120.977 103.119C121.122 102.898 121.177 102.705 121.143 102.54C121.112 102.386 120.982 102.235 120.754 102.085L117.498 99.9436C117.27 99.7938 117.076 99.7325 116.915 99.7595C116.757 99.7983 116.606 99.9281 116.461 100.149L115.983 100.875C115.834 101.103 115.775 101.294 115.806 101.447C115.84 101.612 115.971 101.77 116.199 101.92L116.637 102.207C116.794 102.31 116.823 102.437 116.724 102.586L116.135 103.483C116.032 103.64 115.902 103.667 115.746 103.564L115.244 103.234C114.689 102.869 114.361 102.429 114.261 101.914C114.163 101.412 114.297 100.883 114.661 100.327Z" fill="#171E2E"/>
<path d="M111.907 106.23L111.308 106.912C111.128 107.116 111.043 107.297 111.053 107.453C111.064 107.622 111.172 107.796 111.376 107.976L114.303 110.551C114.507 110.731 114.691 110.813 114.852 110.796C115.015 110.792 115.186 110.687 115.366 110.482L115.966 109.801C116.146 109.596 116.227 109.413 116.211 109.251C116.201 109.095 116.094 108.926 115.889 108.746L112.963 106.172C112.758 105.992 112.574 105.904 112.412 105.908C112.255 105.918 112.087 106.026 111.907 106.23ZM110.076 106.185L111.021 105.11C111.465 104.604 111.943 104.332 112.453 104.293C112.964 104.255 113.472 104.458 113.977 104.902L117.018 107.578C117.523 108.023 117.79 108.501 117.816 109.012C117.843 109.524 117.634 110.032 117.19 110.538L116.245 111.613C115.8 112.118 115.323 112.39 114.812 112.429C114.302 112.468 113.794 112.265 113.288 111.82L110.247 109.144C109.742 108.7 109.476 108.222 109.449 107.71C109.422 107.199 109.631 106.69 110.076 106.185Z" fill="#171E2E"/>
<path d="M106.224 110.067L107.032 109.379C107.168 109.263 107.294 109.273 107.41 109.409L112.388 115.259C112.504 115.395 112.493 115.521 112.357 115.637L111.628 116.258C111.491 116.374 111.362 116.406 111.239 116.354L106.135 114.339L106.096 114.372L109.177 117.993C109.293 118.129 109.283 118.255 109.147 118.371L108.339 119.059C108.203 119.175 108.077 119.165 107.961 119.028L102.983 113.179C102.867 113.043 102.877 112.917 103.014 112.801L103.724 112.196C103.866 112.074 104.025 112.051 104.201 112.125L109.228 114.089L109.266 114.056L106.194 110.445C106.078 110.309 106.088 110.183 106.224 110.067Z" fill="#171E2E"/>
<path d="M99.0098 115.529L99.9091 114.943C100.066 114.841 100.193 114.865 100.291 115.015L103.785 120.38C103.837 120.459 103.901 120.472 103.98 120.421L105.2 119.626C105.35 119.528 105.474 119.554 105.572 119.704L106.046 120.432C106.144 120.582 106.117 120.706 105.968 120.804L101.921 123.441C101.771 123.539 101.647 123.513 101.55 123.363L101.075 122.635C100.978 122.485 101.004 122.361 101.154 122.263L102.374 121.468C102.46 121.412 102.477 121.345 102.426 121.266L98.9315 115.901C98.8339 115.751 98.86 115.627 99.0098 115.529Z" fill="#171E2E"/>
<path d="M95.475 117.615L96.5768 117.075C96.7145 117.008 96.7997 117.066 96.8324 117.249L98.3938 125.037C98.4188 125.224 98.3434 125.36 98.1674 125.446L96.641 126.193C96.4497 126.287 96.2956 126.263 96.1787 126.121L90.9906 120.108C90.8661 119.97 90.8727 119.867 91.0104 119.8L92.1122 119.26C92.1964 119.219 92.2613 119.206 92.3068 119.222C92.3562 119.245 92.4109 119.299 92.4712 119.384L93.4102 120.489L95.6482 119.394L95.3519 117.974C95.3223 117.874 95.3172 117.796 95.3368 117.739C95.3524 117.693 95.3985 117.652 95.475 117.615ZM96.742 124.422L95.9455 120.7L94.2469 121.531L96.696 124.445L96.742 124.422Z" fill="#171E2E"/>
<path d="M86.4462 121.361L87.7697 120.927C88.4092 120.718 88.9587 120.726 89.4181 120.952C89.8775 121.178 90.212 121.611 90.4215 122.251L91.6823 126.101C91.8917 126.741 91.8781 127.288 91.6414 127.742C91.4047 128.196 90.9666 128.528 90.3271 128.738L89.0036 129.171C88.3722 129.378 87.8255 129.365 87.3634 129.13C86.8958 128.907 86.5587 128.479 86.3518 127.848L86.1649 127.277C86.1066 127.099 86.1665 126.981 86.3445 126.922L87.3645 126.588C87.5345 126.532 87.6486 126.593 87.707 126.772L87.87 127.27C87.9549 127.529 88.0712 127.692 88.219 127.761C88.3614 127.839 88.5621 127.836 88.8211 127.752L89.6468 127.481C89.8977 127.399 90.0613 127.282 90.1375 127.132C90.2082 126.992 90.2012 126.793 90.1163 126.534L88.9033 122.829C88.8184 122.57 88.7048 122.401 88.5625 122.322C88.4147 122.254 88.2153 122.261 87.9644 122.343L87.1387 122.614C86.8797 122.698 86.7148 122.811 86.644 122.95C86.5678 123.101 86.5721 123.306 86.657 123.565L86.82 124.063C86.8784 124.241 86.8225 124.358 86.6525 124.414L85.6326 124.748C85.4545 124.806 85.3363 124.746 85.278 124.568L85.091 123.997C84.8842 123.366 84.9019 122.817 85.144 122.353C85.3808 121.898 85.8148 121.568 86.4462 121.361Z" fill="#171E2E"/>
<path d="M80.0907 122.925L81.1443 122.72C81.3282 122.684 81.4373 122.754 81.4713 122.93L82.691 129.216C82.7089 129.308 82.7638 129.345 82.8558 129.327L84.2857 129.05C84.4613 129.016 84.5661 129.087 84.6002 129.262L84.7658 130.115C84.7999 130.291 84.7291 130.396 84.5535 130.43L79.8123 131.351C79.6367 131.385 79.5318 131.314 79.4977 131.138L79.3322 130.285C79.2981 130.109 79.3689 130.005 79.5445 129.97L80.9744 129.693C81.0747 129.673 81.116 129.618 81.0981 129.526L79.8784 123.239C79.8443 123.064 79.9151 122.959 80.0907 122.925Z" fill="#171E2E"/>
<path d="M68.9659 131.993L67.8926 131.992C67.7052 131.991 67.6117 131.906 67.6119 131.736L67.621 125.856C67.622 125.191 67.8102 124.676 68.1856 124.31C68.5524 123.953 69.068 123.775 69.7324 123.776L71.1379 123.778C71.8108 123.779 72.3301 123.959 72.6958 124.317C73.0616 124.676 73.2439 125.192 73.2429 125.865L73.2338 131.732C73.2335 131.911 73.144 132 72.9651 132L71.879 131.998C71.7002 131.998 71.6109 131.908 71.6111 131.729L71.6201 125.939C71.6205 125.666 71.5654 125.47 71.4549 125.351C71.3358 125.24 71.1442 125.184 70.8802 125.184L69.9986 125.182C69.726 125.182 69.5342 125.237 69.4233 125.348C69.3039 125.467 69.244 125.663 69.2435 125.935L69.2346 131.725C69.2343 131.904 69.1448 131.994 68.9659 131.993Z" fill="#171E2E"/>
<path d="M65.4984 125.728L65.4617 125.981C65.436 126.158 65.3347 126.234 65.1576 126.208L64.0828 126.052C63.9058 126.027 63.8301 125.925 63.8558 125.748L63.8705 125.647C63.9169 125.327 63.8855 125.098 63.7761 124.962C63.6668 124.825 63.4435 124.733 63.1063 124.684L62.512 124.598C62.1833 124.55 61.9465 124.58 61.8017 124.688C61.6485 124.795 61.5468 125.022 61.4967 125.367L61.4747 125.519C61.4393 125.764 61.5136 125.964 61.6975 126.12C61.8719 126.283 62.1047 126.398 62.3961 126.466C62.6875 126.534 63.0011 126.627 63.3369 126.745C63.6631 126.87 63.9658 127.008 64.245 127.161C64.5229 127.322 64.7392 127.581 64.8938 127.939C65.0388 128.305 65.0734 128.749 64.9977 129.272L64.9335 129.715C64.8382 130.372 64.5787 130.856 64.1553 131.164C63.7318 131.473 63.1913 131.58 62.5338 131.485L61.2693 131.301C60.6033 131.205 60.1112 130.948 59.7928 130.532C59.4745 130.115 59.363 129.578 59.4583 128.92L59.4931 128.68C59.5188 128.503 59.6201 128.427 59.7972 128.453L60.872 128.609C61.049 128.635 61.1247 128.736 61.099 128.913L61.088 128.989C61.0404 129.318 61.0712 129.55 61.1805 129.687C61.2899 129.823 61.5131 129.916 61.8503 129.965L62.3435 130.036C62.6891 130.086 62.9349 130.053 63.0809 129.937C63.2173 129.827 63.3129 129.583 63.3679 129.203L63.4028 128.963C63.4602 128.567 63.1476 128.289 62.4649 128.13C61.7569 127.967 61.1412 127.731 60.6179 127.423C60.3412 127.253 60.1297 126.99 59.9835 126.633C59.8276 126.283 59.7863 125.855 59.8597 125.349L59.922 124.919C60.0173 124.262 60.2767 123.778 60.7002 123.469C61.1237 123.161 61.6642 123.054 62.3217 123.149L63.7 123.349C64.3575 123.445 64.8455 123.7 65.1638 124.117C65.4822 124.533 65.5937 125.07 65.4984 125.728Z" fill="#171E2E"/>
<path d="M53.229 120.925L54.2213 121.299C54.3887 121.362 54.4408 121.477 54.3777 121.645L51.6689 128.833C51.6058 129 51.4905 129.052 51.3232 128.989L50.4265 128.651C50.2591 128.588 50.1686 128.49 50.1548 128.357L49.4481 122.914L49.4002 122.896L47.7235 127.345C47.6604 127.512 47.5452 127.564 47.3778 127.501L46.3855 127.127C46.2181 127.064 46.166 126.949 46.2291 126.781L48.938 119.593C49.0011 119.426 49.1163 119.374 49.2837 119.437L50.1564 119.766C50.3318 119.832 50.4293 119.96 50.4489 120.149L51.1633 125.5L51.2111 125.518L52.8833 121.081C52.9464 120.914 53.0616 120.862 53.229 120.925Z" fill="#171E2E"/>
<path d="M44.5074 118.598L43.7141 118.158C43.4757 118.026 43.2813 117.982 43.1307 118.025C42.9686 118.071 42.8214 118.214 42.6892 118.452L40.7994 121.861C40.6672 122.1 40.6264 122.297 40.677 122.451C40.716 122.609 40.8547 122.754 41.093 122.887L41.8864 123.327C42.1248 123.459 42.3213 123.5 42.476 123.449C42.6265 123.406 42.7679 123.265 42.9001 123.027L44.7899 119.618C44.9221 119.379 44.9687 119.181 44.9297 119.023C44.8866 118.872 44.7458 118.731 44.5074 118.598ZM44.161 116.799L45.4125 117.493C46.001 117.819 46.3687 118.228 46.5155 118.719C46.6623 119.209 46.5726 119.749 46.2462 120.338L44.282 123.881C43.9556 124.47 43.5456 124.832 43.0517 124.967C42.5579 125.102 42.0168 125.007 41.4283 124.68L40.1768 123.986C39.5883 123.66 39.2206 123.251 39.0738 122.76C38.927 122.27 39.0167 121.73 39.3431 121.141L41.3073 117.598C41.6337 117.009 42.0437 116.647 42.5376 116.512C43.0314 116.377 43.5725 116.472 44.161 116.799Z" fill="#171E2E"/>
<path d="M38.2739 112.915L39.6667 114.038C39.8127 114.156 39.8394 114.292 39.7471 114.448L35.9936 121.287C35.9013 121.443 35.7756 121.456 35.6164 121.328L34.5817 120.494C34.4291 120.371 34.4056 120.237 34.5112 120.092L37.8864 114.721L37.8168 114.664L32.8854 118.831C32.7693 118.935 32.6515 118.938 32.5321 118.842L31.4178 117.944C31.2918 117.842 31.2643 117.727 31.3352 117.598L34.3445 111.866L34.2649 111.801L29.7536 116.241C29.6294 116.382 29.491 116.391 29.3385 116.268L28.3038 115.434C28.1446 115.305 28.1337 115.176 28.2712 115.046L34.1557 109.941C34.2878 109.817 34.4202 109.809 34.5529 109.916L35.9557 111.047C36.095 111.159 36.1185 111.293 36.0261 111.448L33.1617 116.838L33.2015 116.87L37.8667 112.932C38.0055 112.814 38.1412 112.808 38.2739 112.915Z" fill="#171E2E"/>
<path d="M23.0865 109.034L22.9964 109.106C22.8697 109.206 22.7533 109.19 22.6474 109.056L22.2502 108.556C22.1443 108.422 22.1547 108.305 22.2815 108.205L22.3715 108.133C22.6384 107.921 22.9629 107.761 23.3451 107.654C23.4144 107.631 23.4836 107.609 23.5529 107.587C23.6155 107.57 23.6774 107.559 23.7386 107.553C23.7878 107.547 23.8371 107.541 23.8863 107.534C23.9236 107.526 23.9549 107.518 23.9802 107.508C23.617 107.503 23.361 107.489 23.2121 107.466C22.8904 107.417 22.5464 107.271 22.1801 107.029C22.0567 106.942 22.0339 106.824 22.1116 106.675L22.4728 106.143C22.5677 106.003 22.6856 105.98 22.8262 106.075C23.0983 106.24 23.3297 106.442 23.5203 106.682C23.7361 106.968 23.8902 107.21 23.9826 107.409C23.7496 106.745 23.7272 106.148 23.9154 105.618C23.9639 105.46 24.0646 105.401 24.2174 105.443L24.8333 105.623C24.9848 105.677 25.0456 105.781 25.0157 105.935C24.883 106.563 24.5498 107.089 24.0161 107.513C24.4589 107.194 24.8049 107.006 25.0538 106.95C25.2483 106.893 25.4959 106.849 25.7966 106.817C25.943 106.809 26.0272 106.895 26.0491 107.073L26.0667 107.712C26.1006 107.892 26.0238 107.98 25.8362 107.977C25.5009 107.993 25.2542 107.976 25.0961 107.928C24.9313 107.885 24.799 107.848 24.6994 107.819C24.5944 107.782 24.5048 107.745 24.4304 107.706C24.3494 107.672 24.283 107.643 24.2312 107.619C24.1674 107.594 24.0957 107.558 24.0161 107.513C24.6317 107.959 25.0224 108.411 25.1883 108.866L25.2298 108.98C25.2798 109.126 25.2256 109.229 25.067 109.289L24.4675 109.52C24.309 109.581 24.2028 109.529 24.1488 109.366C23.9445 108.875 23.8961 108.293 24.0037 107.62L24.012 107.548C24.0025 107.578 23.9924 107.613 23.9816 107.654C23.9589 107.694 23.9414 107.741 23.9292 107.794C23.9104 107.852 23.8882 107.913 23.8627 107.977C23.8252 108.04 23.7904 108.105 23.7582 108.174C23.7193 108.249 23.6771 108.326 23.6316 108.405C23.5808 108.478 23.53 108.551 23.4791 108.624C23.3775 108.77 23.2466 108.907 23.0865 109.034Z" fill="#171E2E"/>
<path d="M22.9649 94.4713L23.6085 95.7068C23.9194 96.3038 24.0009 96.8475 23.8529 97.3378C23.7049 97.8281 23.3325 98.2288 22.7357 98.5399L19.1438 100.412C18.5471 100.723 18.0054 100.799 17.5189 100.64C17.0324 100.48 16.6336 100.102 16.3227 99.5047L15.6791 98.2692C15.3721 97.6798 15.2963 97.1379 15.4519 96.6437C15.596 96.1458 15.9626 95.7433 16.5518 95.4361L17.0844 95.1585C17.2506 95.0719 17.377 95.1117 17.4636 95.278L17.9595 96.2301C18.0422 96.3888 18.0004 96.5115 17.8342 96.5981L17.3697 96.8402C17.1279 96.9663 16.9855 97.1077 16.9424 97.2647C16.8878 97.4181 16.9235 97.6157 17.0495 97.8575L17.451 98.6283C17.573 98.8625 17.7144 99.005 17.8753 99.0557C18.0247 99.1027 18.2202 99.0632 18.462 98.9372L21.9179 97.1358C22.1596 97.0098 22.3078 96.8701 22.3624 96.7167C22.4055 96.5597 22.366 96.3641 22.244 96.1298L21.8425 95.3591C21.7165 95.1172 21.5789 94.9728 21.4295 94.9258C21.2686 94.8751 21.0673 94.9128 20.8256 95.0388L20.361 95.2809C20.1948 95.3676 20.0704 95.3315 19.9878 95.1728L19.4918 94.2207C19.4052 94.0544 19.445 93.928 19.6112 93.8414L20.1437 93.5638C20.7329 93.2566 21.2766 93.1846 21.7746 93.3478C22.2611 93.5074 22.6579 93.8819 22.9649 94.4713Z" fill="#171E2E"/>
<path d="M19.1586 89.1922L18.8566 88.3364C18.7659 88.0793 18.6499 87.9169 18.5086 87.8493C18.3565 87.7766 18.1519 87.7855 17.8949 87.8763L14.2201 89.1738C13.963 89.2646 13.8021 89.3846 13.7374 89.534C13.6618 89.6782 13.6694 89.8788 13.7601 90.1359L14.062 90.9917C14.1528 91.2488 14.2728 91.4098 14.4221 91.4745C14.5634 91.5421 14.7625 91.5305 15.0196 91.4398L18.6944 90.1422C18.9514 90.0515 19.1177 89.934 19.1933 89.7899C19.2609 89.6485 19.2493 89.4493 19.1586 89.1922ZM20.0927 87.6153L20.569 88.9653C20.7929 89.6001 20.7972 90.1498 20.5817 90.6144C20.3663 91.079 19.9413 91.4234 19.3067 91.6474L15.4873 92.996C14.8528 93.2201 14.3059 93.2189 13.8466 92.9925C13.3873 92.7661 13.0457 92.3355 12.8218 91.7007L12.3455 90.3508C12.1215 89.716 12.1172 89.1663 12.3327 88.7017C12.5481 88.237 12.9731 87.8927 13.6077 87.6686L17.4271 86.32C18.0616 86.096 18.6085 86.0972 19.0678 86.3236C19.5271 86.55 19.8687 86.9806 20.0927 87.6153Z" fill="#171E2E"/>
<path d="M18.5837 82.3267L18.7869 83.368C18.8212 83.5436 18.7505 83.6485 18.575 83.6828L11.0382 85.1546C10.8627 85.1889 10.7578 85.1182 10.7235 84.9426L10.5399 84.0017C10.5056 83.8261 10.5413 83.6976 10.6469 83.6162L14.9052 80.154L14.8954 80.1038L10.2304 81.0148C10.0548 81.0491 9.94992 80.9784 9.91565 80.8028L9.71246 79.7616C9.67819 79.5859 9.74883 79.481 9.9244 79.4467L17.4611 77.9749C17.6367 77.9406 17.7416 78.0113 17.7759 78.1869L17.9546 79.1027C17.9905 79.2867 17.933 79.4368 17.7821 79.5531L13.6067 82.9731L13.6165 83.0233L18.269 82.1147C18.4445 82.0804 18.5494 82.1511 18.5837 82.3267Z" fill="#171E2E"/>
<path d="M17.3668 73.394L17.4369 74.4653C17.4491 74.6524 17.366 74.7518 17.1875 74.7635L10.7999 75.1814C10.7064 75.1876 10.6627 75.2374 10.6688 75.3309L10.7639 76.7849C10.7755 76.9635 10.6921 77.0586 10.5136 77.0703L9.64665 77.127C9.46815 77.1387 9.37307 77.0553 9.36139 76.8767L9.04615 72.0555C9.03448 71.877 9.11789 71.7818 9.29639 71.7702L10.1634 71.7134C10.3419 71.7017 10.437 71.7852 10.4486 71.9637L10.5437 73.4177C10.5504 73.5198 10.6005 73.5677 10.694 73.5616L17.0816 73.1437C17.2601 73.132 17.3552 73.2154 17.3668 73.394Z" fill="#171E2E"/>
<path d="M17.2819 69.1961L17.2121 70.4212C17.2034 70.5743 17.1112 70.6203 16.9355 70.559L9.3838 68.1059C9.2086 68.0361 9.12658 67.9034 9.13772 67.7078L9.23438 66.0106C9.24649 65.7979 9.34305 65.6754 9.52406 65.643L17.3054 64.0637C17.4869 64.0228 17.5733 64.079 17.5646 64.2321L17.4948 65.4571C17.4895 65.5507 17.4689 65.6136 17.4329 65.6457C17.3884 65.6773 17.3147 65.6987 17.2117 65.7099L15.7881 65.9872L15.6464 68.4756L17.0293 68.9129C17.1304 68.9357 17.2009 68.9696 17.241 69.0146C17.2731 69.0505 17.2867 69.111 17.2819 69.1961ZM10.7285 66.9663L14.3627 68.0952L14.4703 66.2065L10.7314 66.9152L10.7285 66.9663Z" fill="#171E2E"/>
<path d="M18.4297 59.5087L18.1613 60.8758C18.0316 61.5363 17.7559 62.0119 17.3343 62.3025C16.9126 62.593 16.3717 62.6734 15.7114 62.5437L11.737 61.7628C11.0767 61.6331 10.6063 61.354 10.3258 60.9255C10.0454 60.497 9.96997 59.9524 10.0997 59.2919L10.3681 57.9248C10.4961 57.2726 10.7751 56.8021 11.2051 56.5131C11.6284 56.2142 12.166 56.1288 12.818 56.2569L13.4072 56.3726C13.5911 56.4088 13.665 56.5188 13.6289 56.7028L13.422 57.7563C13.3876 57.9319 13.2784 58.0016 13.0945 57.9655L12.5805 57.8645C12.313 57.8119 12.1134 57.8335 11.9818 57.9292C11.8434 58.0149 11.748 58.1916 11.6955 58.4591L11.528 59.312C11.4771 59.5712 11.4987 59.7708 11.5927 59.9109C11.6801 60.0409 11.8575 60.1322 12.1249 60.1848L15.9489 60.9361C16.2163 60.9886 16.4192 60.9721 16.5576 60.8863C16.6892 60.7906 16.7805 60.6132 16.8314 60.354L16.9988 59.5011C17.0514 59.2336 17.034 59.0347 16.9466 58.9047C16.8526 58.7646 16.6719 58.6683 16.4044 58.6158L15.8904 58.5148C15.7065 58.4787 15.6318 58.3728 15.6662 58.1972L15.8731 57.1437C15.9092 56.9597 16.0192 56.8858 16.2031 56.922L16.7923 57.0377C17.4443 57.1658 17.9139 57.4491 18.201 57.8876C18.4815 58.3162 18.5577 58.8565 18.4297 59.5087Z" fill="#171E2E"/>
<path d="M20.1712 53.195L19.8348 54.2146C19.776 54.3926 19.6617 54.4536 19.4919 54.3975L13.4132 52.3904C13.3242 52.361 13.265 52.3908 13.2356 52.4798L12.7791 53.8635C12.723 54.0335 12.6101 54.0904 12.4402 54.0343L11.6151 53.7619C11.4453 53.7058 11.3884 53.5928 11.4445 53.4228L12.9582 48.8348C13.0143 48.6649 13.1273 48.608 13.2971 48.6641L14.1222 48.9365C14.292 48.9926 14.3489 49.1056 14.2929 49.2755L13.8363 50.6592C13.8043 50.7563 13.8328 50.8195 13.9218 50.8489L20.0005 52.856C20.1703 52.9121 20.2272 53.0251 20.1712 53.195Z" fill="#171E2E"/>
<path d="M17.7032 39.0642L18.2307 38.1292C18.3227 37.9659 18.443 37.9262 18.5913 38.0099L23.71 40.8994C24.2887 41.226 24.6454 41.6426 24.7802 42.1492C24.9118 42.6442 24.8143 43.1811 24.4878 43.76L23.7971 44.9845C23.4664 45.5708 23.0552 45.9355 22.5637 46.0787C22.0721 46.222 21.5333 46.1282 20.9472 45.7973L15.8396 42.9141C15.6839 42.8262 15.6499 42.7043 15.7378 42.5485L16.2715 41.6023C16.3595 41.4464 16.4813 41.4125 16.6371 41.5004L21.6779 44.3459C21.9153 44.4799 22.1131 44.528 22.2714 44.4902C22.4264 44.4407 22.5689 44.3009 22.6986 44.0709L23.1319 43.3028C23.2658 43.0653 23.3118 42.8711 23.2698 42.7202C23.2245 42.5577 23.0832 42.4094 22.8458 42.2754L17.805 39.4299C17.6492 39.342 17.6153 39.2201 17.7032 39.0642Z" fill="#171E2E"/>
<path d="M24.8376 39.1513L24.6352 38.9953C24.4935 38.8861 24.4772 38.7607 24.5863 38.6189L25.249 37.7581C25.3581 37.6164 25.4836 37.6001 25.6253 37.7092L25.7063 37.7716C25.9627 37.9692 26.1772 38.0538 26.3496 38.0253C26.522 37.9968 26.7122 37.8475 26.9201 37.5775L27.2865 37.1015C27.4892 36.8382 27.5789 36.617 27.5557 36.4377C27.5376 36.2517 27.3902 36.0521 27.1135 35.839L26.992 35.7454C26.7963 35.5946 26.5855 35.5612 26.3595 35.6453C26.132 35.7173 25.9172 35.8637 25.715 36.0844C25.5129 36.3051 25.2782 36.5331 25.0112 36.7683C24.7425 36.9915 24.4734 37.1875 24.2038 37.3562C23.9274 37.5197 23.5952 37.5811 23.2073 37.5403C22.8178 37.4876 22.4138 37.3001 21.9954 36.9778L21.6411 36.7048C21.1147 36.2993 20.8208 35.8362 20.7593 35.3156C20.6978 34.7949 20.8697 34.2713 21.2751 33.7448L22.0547 32.7321C22.4653 32.1988 22.93 31.8953 23.4489 31.8219C23.9678 31.7484 24.4904 31.9144 25.0168 32.3199L25.2091 32.4681C25.3508 32.5773 25.3671 32.7028 25.258 32.8446L24.5953 33.7053C24.4862 33.8471 24.3608 33.8634 24.219 33.7542L24.1583 33.7074C23.8951 33.5047 23.6773 33.4175 23.5048 33.446C23.3324 33.4745 23.1422 33.6237 22.9343 33.8938L22.6303 34.2887C22.4172 34.5655 22.3257 34.7961 22.3557 34.9806C22.3842 35.1531 22.5502 35.3563 22.8539 35.5903L23.0463 35.7385C23.3634 35.9828 23.7587 35.8464 24.2322 35.3292C24.7212 34.7918 25.2283 34.3704 25.7535 34.0652C26.0367 33.9069 26.3696 33.8515 26.7524 33.899C27.1335 33.9346 27.5266 34.1083 27.9315 34.4203L28.2757 34.6855C28.8021 35.091 29.096 35.5541 29.1575 36.0747C29.219 36.5953 29.0471 37.1189 28.6417 37.6455L27.7919 38.7493C27.3866 39.2759 26.9244 39.5759 26.4055 39.6494C25.8867 39.7229 25.364 39.5569 24.8376 39.1513Z" fill="#171E2E"/>
<path d="M35.0346 30.7974L34.2237 31.4812C34.0869 31.5965 33.9609 31.5858 33.8456 31.4489L28.8966 25.5754C28.7813 25.4385 28.792 25.3125 28.9288 25.1971L29.6615 24.5793C29.7983 24.464 29.9279 24.4327 30.0503 24.4855L35.1447 26.5254L35.1838 26.4925L32.1205 22.8569C32.0052 22.7201 32.0159 22.594 32.1527 22.4787L32.9636 21.795C33.1003 21.6796 33.2264 21.6904 33.3417 21.8272L38.2907 27.7008C38.406 27.8376 38.3952 27.9637 38.2585 28.079L37.5453 28.6804C37.402 28.8012 37.2429 28.8239 37.068 28.7485L32.0508 26.7605L32.0117 26.7934L35.0668 30.4192C35.1821 30.556 35.1713 30.6821 35.0346 30.7974Z" fill="#171E2E"/>
<path d="M41.3133 24.3172L42.084 23.8384C42.3155 23.6945 42.4491 23.5463 42.4848 23.3938C42.5232 23.2295 42.4705 23.0315 42.3267 22.7999L40.2707 19.4882C40.1269 19.2565 39.9751 19.1251 39.8154 19.094C39.6584 19.0511 39.4641 19.1016 39.2326 19.2454L38.4619 19.7242C38.2304 19.8681 38.099 20.0199 38.0679 20.1797C38.0322 20.3322 38.0863 20.5243 38.2301 20.7559L40.2861 24.0677C40.4299 24.2993 40.5803 24.4366 40.7373 24.4795C40.8898 24.5151 41.0818 24.461 41.3133 24.3172ZM43.0534 24.8912L41.8378 25.6464C41.2661 26.0016 40.7303 26.1238 40.2304 26.0131C39.7305 25.9024 39.3031 25.5611 38.9481 24.9892L36.8112 21.5472C36.4562 20.9754 36.3398 20.4408 36.4622 19.9434C36.5847 19.4461 36.9317 19.0198 37.5033 18.6647L38.719 17.9094C39.2906 17.5543 39.8264 17.432 40.3263 17.5428C40.8262 17.6535 41.2537 17.9948 41.6087 18.5666L43.7456 22.0086C44.1006 22.5805 44.2169 23.1151 44.0945 23.6124C43.9721 24.1098 43.6251 24.536 43.0534 24.8912Z" fill="#171E2E"/>
<path d="M49.3229 21.6365L47.6636 22.3048C47.4897 22.3748 47.3576 22.3316 47.2671 22.1751L43.131 15.5599C43.0405 15.4035 43.0901 15.287 43.2797 15.2107L44.5124 14.7142C44.6941 14.641 44.8223 14.6858 44.897 14.8487L47.937 20.4172L48.0199 20.3838L46.791 14.0445C46.7574 13.8927 46.8118 13.7882 46.954 13.7309L48.2815 13.1962C48.4316 13.1358 48.5456 13.168 48.6233 13.2928L52.1565 18.7179L52.2513 18.6797L50.5792 12.574C50.5171 12.3969 50.5769 12.2718 50.7587 12.1986L51.9913 11.7021C52.181 11.6258 52.2989 11.6793 52.3452 11.8628L53.9282 19.4924C53.9713 19.668 53.9138 19.7875 53.7558 19.8512L52.0846 20.5243C51.9186 20.5911 51.7904 20.5463 51.6999 20.3898L48.3952 15.2586L48.3478 15.2777L49.5072 21.2729C49.5424 21.4517 49.481 21.5728 49.3229 21.6365Z" fill="#171E2E"/>
<path d="M60.1382 10.2813L60.1201 10.1677C60.0945 10.0078 60.1658 9.91441 60.3341 9.88749L60.9649 9.78651C61.1331 9.75958 61.23 9.82605 61.2556 9.98592L61.2737 10.0995C61.3276 10.4361 61.3077 10.7974 61.2142 11.1834C61.1997 11.2548 61.1853 11.3261 61.1708 11.3975C61.155 11.4604 61.1343 11.5198 61.1087 11.5757C61.0902 11.6218 61.0717 11.6679 61.0532 11.714C61.0418 11.7504 61.0339 11.7818 61.0295 11.8084C61.2122 11.4944 61.3501 11.2782 61.4433 11.1597C61.6438 10.9032 61.9394 10.6747 62.33 10.4741C62.4663 10.4091 62.5801 10.447 62.6717 10.5877L62.9578 11.1632C63.0338 11.315 62.996 11.4289 62.8443 11.505C62.5674 11.6615 62.2775 11.764 61.9747 11.8124C61.6201 11.8606 61.3336 11.8762 61.1153 11.8594C61.8077 11.9816 62.3388 12.2547 62.7085 12.6787C62.8226 12.7986 62.8239 12.9148 62.7126 13.0276L62.2538 13.4764C62.1327 13.5821 62.0123 13.5841 61.8925 13.4825C61.4107 13.0591 61.116 12.5108 61.0083 11.8377C61.0692 12.3802 61.0632 12.7739 60.9902 13.0185C60.9441 13.2158 60.8613 13.4534 60.7419 13.7314C60.6766 13.8626 60.5609 13.8941 60.3947 13.8258L59.8294 13.5279C59.6562 13.4694 59.617 13.3592 59.7118 13.1973C59.8622 12.897 59.9973 12.6899 60.1171 12.5758C60.2355 12.4533 60.3321 12.3558 60.4068 12.2835C60.4899 12.2098 60.5666 12.15 60.6369 12.1043C60.7058 12.0501 60.7635 12.0063 60.81 11.973C60.8635 11.9299 60.9296 11.8848 61.0083 11.8377C60.3173 12.1554 59.7325 12.2749 59.2541 12.1962L59.1345 12.1765C58.9834 12.1489 58.9204 12.0511 58.9453 11.8832L59.0376 11.2471C59.0625 11.0791 59.1596 11.0118 59.3288 11.0451C59.8563 11.1074 60.3869 11.3504 60.9205 11.7741L60.979 11.8165C60.9582 11.7939 60.9324 11.7679 60.9018 11.7382C60.8783 11.6989 60.8463 11.6608 60.8059 11.6242C60.7642 11.5791 60.7218 11.5297 60.6788 11.4762C60.6428 11.413 60.6026 11.3504 60.5581 11.2884C60.5124 11.2181 60.466 11.1435 60.4189 11.0648C60.3802 10.9847 60.3415 10.9046 60.3028 10.8245C60.2254 10.6643 60.1705 10.4832 60.1382 10.2813Z" fill="#171E2E"/>
</svg>
