<svg width="60" height="61" viewBox="0 0 60 61" fill="none" xmlns="http://www.w3.org/2000/svg">
<g clip-path="url(#clip0_377_1137)">
<path d="M3.48633 21.2358C3.72557 21.2353 3.96454 21.231 4.20373 21.2266C5.23331 21.2235 5.91316 21.2821 6.70747 21.9782C6.77061 22.0545 6.83376 22.1308 6.89882 22.2094C6.99625 22.3234 6.99625 22.3234 7.09565 22.4396C7.40667 22.891 7.52895 23.2978 7.52601 23.8435C7.52599 23.9537 7.52597 24.064 7.52596 24.1775C7.52475 24.295 7.52354 24.4124 7.52229 24.5334C7.52196 24.6549 7.52163 24.7763 7.52129 24.9014C7.51998 25.2883 7.51703 25.6751 7.51405 26.0619C7.51287 26.3246 7.51181 26.5873 7.51085 26.85C7.50827 27.4931 7.50422 28.1361 7.4994 28.7792C8.11815 28.7792 8.7369 28.7792 9.3744 28.7792C9.3744 28.4698 9.3744 28.1605 9.3744 27.8417C9.64585 26.7288 10.2727 25.9731 11.2348 25.3858C12.2094 24.9074 13.363 24.8701 14.4158 25.1098C15.4581 25.494 16.1352 26.1606 16.64 27.1386C16.9088 27.7529 16.8744 28.0459 16.8744 28.7792C19.3494 28.7792 21.8244 28.7792 24.3744 28.7792C24.3744 27.7737 24.3744 26.7683 24.3744 25.7323C25.0077 23.8323 25.8644 22.5305 27.6557 21.6308C28.8857 21.0391 30.6588 21.075 31.9476 21.4623C33.4003 22.0442 34.6112 23.1402 35.2728 24.5605C35.6244 25.7323 35.6244 25.7323 35.6244 28.7792C38.0994 28.7792 40.5744 28.7792 43.1244 28.7792C43.1244 28.4698 43.1244 28.1605 43.1244 27.8417C43.3958 26.7288 44.0227 25.9731 44.9848 25.3858C45.9594 24.9074 47.113 24.8701 48.1658 25.1098C49.2081 25.494 49.8852 26.1606 50.39 27.1386C50.6588 27.7529 50.6244 28.0459 50.6244 28.7792C51.2432 28.7792 51.8619 28.7792 52.4994 28.7792C52.4969 28.6173 52.4945 28.4553 52.492 28.2885C52.4834 27.6848 52.4781 27.0812 52.4737 26.4775C52.4713 26.2168 52.4681 25.956 52.464 25.6953C52.4583 25.3195 52.4557 24.9437 52.4536 24.5678C52.4512 24.4521 52.4488 24.3365 52.4463 24.2174C52.446 23.3529 52.6234 22.7273 53.1984 22.0711C53.2747 22.008 53.351 21.9448 53.4296 21.8798C53.5056 21.8148 53.5815 21.7499 53.6598 21.683C54.3872 21.1818 55.1319 21.2356 55.9863 21.2358C56.2256 21.2353 56.4645 21.231 56.7037 21.2266C57.7333 21.2235 58.4132 21.2821 59.2075 21.9782C59.2706 22.0545 59.3338 22.1308 59.3988 22.2094C59.4638 22.2854 59.5287 22.3614 59.5957 22.4396C60.0536 23.1043 60.0342 23.7247 60.0334 24.5064C60.0346 24.6928 60.0346 24.6928 60.0358 24.883C60.0381 25.2939 60.0385 25.7047 60.0388 26.1155C60.0395 26.4014 60.0403 26.6873 60.0411 26.9733C60.0425 27.5727 60.043 28.1721 60.0428 28.7716C60.0428 29.5388 60.046 30.306 60.05 31.0732C60.0527 31.6638 60.0531 32.2545 60.053 32.8451C60.0533 33.1279 60.0543 33.4107 60.0561 33.6935C60.0584 34.0896 60.0577 34.4855 60.0563 34.8816C60.0577 34.9978 60.059 35.1141 60.0603 35.2338C60.0526 36.0876 59.8683 36.7142 59.3004 37.3623C59.2241 37.4254 59.1478 37.4886 59.0692 37.5536C58.9932 37.6186 58.9173 37.6835 58.839 37.7505C58.1116 38.2516 57.3669 38.1978 56.5125 38.1976C56.2732 38.1981 56.0343 38.2024 55.7951 38.2068C54.7655 38.2099 54.0856 38.1513 53.2913 37.4552C53.2282 37.3789 53.165 37.3026 53.1 37.224C53.035 37.148 52.9701 37.0721 52.9031 36.9938C52.5921 36.5424 52.4699 36.1356 52.4728 35.5899C52.4728 35.4797 52.4728 35.3694 52.4728 35.2559C52.4741 35.1384 52.4753 35.021 52.4765 34.9C52.477 34.7178 52.477 34.7178 52.4775 34.532C52.4788 34.1452 52.4818 33.7583 52.4848 33.3715C52.4859 33.1088 52.487 32.8461 52.488 32.5835C52.4905 31.9404 52.4946 31.2973 52.4994 30.6542C51.8807 30.6542 51.2619 30.6542 50.6244 30.6542C50.6254 30.7882 50.6265 30.9223 50.6276 31.0603C50.6371 32.3226 50.6441 33.5848 50.6487 34.847C50.6511 35.496 50.6545 36.1449 50.6598 36.7938C50.6649 37.4199 50.6677 38.046 50.6689 38.6721C50.6697 38.9112 50.6714 39.1502 50.674 39.3893C50.6774 39.7237 50.6778 40.0581 50.6776 40.3926C50.6793 40.4917 50.681 40.5908 50.6827 40.6929C50.678 41.3644 50.678 41.3644 50.4013 41.7311C50.1356 41.9183 50.0085 41.9678 49.6869 41.9628C49.5709 41.9646 49.5709 41.9646 49.4525 41.9665C49.0881 41.8697 48.9739 41.7424 48.7494 41.4355C48.6783 41.0367 48.687 40.6412 48.691 40.2372C48.69 40.0544 48.69 40.0544 48.689 39.868C48.688 39.6034 48.6879 39.3388 48.6889 39.0742C48.6904 38.655 48.689 38.2358 48.687 37.8165C48.6839 37.0769 48.6832 36.3374 48.6834 35.5978C48.6836 34.4161 48.682 33.2344 48.6769 32.0527C48.6757 31.6406 48.6767 31.2285 48.6779 30.8163C48.6772 30.562 48.6764 30.3076 48.6754 30.0533C48.6768 29.8826 48.6768 29.8826 48.6782 29.7084C48.673 29.0036 48.5932 28.365 48.2807 27.7245C47.7291 27.1865 47.335 27.097 46.5865 27.1056C46.1488 27.154 45.9088 27.3154 45.5853 27.6073C45.0747 28.294 45.0994 29.0076 45.1 29.828C45.0996 29.9325 45.0992 30.0369 45.0987 30.1446C45.0979 30.3709 45.0972 30.5972 45.0968 30.8235C45.096 31.1815 45.0941 31.5396 45.092 31.8976C45.0858 32.9154 45.0802 33.9332 45.0784 34.951C45.0772 35.574 45.0738 36.197 45.0689 36.82C45.0674 37.0574 45.0668 37.2948 45.0671 37.5322C45.0674 37.8638 45.0648 38.1953 45.0615 38.5269C45.0623 38.6251 45.0631 38.7233 45.0639 38.8245C45.0574 39.2273 45.0295 39.5104 44.8202 39.8589C44.4093 40.1006 44.0463 40.0689 43.5866 40.0374C43.3895 40.0282 43.1925 40.0191 42.9954 40.01C42.8909 40.0044 42.7864 39.9988 42.6787 39.993C42.1179 39.9655 41.5566 39.9542 40.9953 39.9404C40.284 39.9223 39.5739 39.8999 38.8636 39.8569C35.7841 39.6345 35.7841 39.6345 33.108 40.9421C32.3163 41.667 31.6194 42.479 30.967 43.3299C30.6348 43.7471 30.571 43.765 30.0433 43.8378C29.489 43.8261 29.2503 43.5917 28.8526 43.2301C28.5633 42.9277 28.3218 42.607 28.0728 42.2708C27.2256 41.168 26.3399 40.1711 24.9076 39.9478C23.555 39.8028 22.1903 39.8635 20.8344 39.9263C20.119 39.9565 19.4031 39.9681 18.6872 39.9811C18.1315 39.9913 17.5767 40.0046 17.0214 40.028C16.9202 40.0315 16.819 40.035 16.7147 40.0385C16.5263 40.045 16.3379 40.0533 16.1497 40.0637C15.7649 40.075 15.5121 40.0552 15.1777 39.8578C14.9197 39.4275 14.9353 39.0214 14.941 38.5343C14.9404 38.4308 14.9397 38.3272 14.939 38.2206C14.938 37.9959 14.9379 37.7712 14.9389 37.5465C14.9404 37.1902 14.939 36.8341 14.937 36.4778C14.9339 35.8492 14.9332 35.2206 14.9334 34.592C14.9336 33.5879 14.932 32.5839 14.9269 31.5799C14.9257 31.23 14.9267 30.8803 14.9279 30.5304C14.9272 30.314 14.9264 30.0976 14.9254 29.8812C14.9263 29.7849 14.9273 29.6886 14.9282 29.5894C14.9225 28.9272 14.8167 28.3272 14.5307 27.7245C13.9791 27.1865 13.585 27.097 12.8365 27.1056C12.3988 27.154 12.1588 27.3154 11.8353 27.6073C11.4358 28.1446 11.3523 28.6692 11.3512 29.327C11.3507 29.4336 11.3503 29.5402 11.3498 29.6501C11.3498 29.7656 11.3499 29.8811 11.35 30.0001C11.3494 30.1843 11.3494 30.1843 11.3487 30.3721C11.3479 30.6383 11.3472 30.9045 11.3468 31.1707C11.346 31.5918 11.3441 32.0128 11.342 32.4339C11.3358 33.6309 11.3302 34.8279 11.3284 36.0249C11.3272 36.7574 11.3238 37.4897 11.3189 38.2221C11.3174 38.5014 11.3168 38.7807 11.3171 39.0599C11.3174 39.4499 11.3148 39.8398 11.3115 40.2297C11.3127 40.4033 11.3127 40.4033 11.3139 40.5805C11.3031 41.362 11.3031 41.362 11.0258 41.7413C10.7612 41.9171 10.6269 41.9677 10.3119 41.9628C10.1959 41.9646 10.1959 41.9646 10.0775 41.9665C9.72002 41.8715 9.59778 41.7315 9.3744 41.4355C9.30608 41.088 9.31518 40.7457 9.32119 40.3926C9.32112 40.2873 9.32105 40.1821 9.32098 40.0737C9.32131 39.7262 9.32495 39.3788 9.32863 39.0313C9.3295 38.7902 9.33017 38.5492 9.33064 38.3081C9.33243 37.6739 9.33703 37.0397 9.34222 36.4055C9.34701 35.7582 9.34915 35.111 9.35151 34.4637C9.35654 33.1939 9.36454 31.924 9.3744 30.6542C8.75565 30.6542 8.1369 30.6542 7.4994 30.6542C7.50308 30.8971 7.50308 30.8971 7.50684 31.1449C7.51536 31.7486 7.52072 32.3522 7.52515 32.9559C7.5275 33.2166 7.53069 33.4774 7.53476 33.7381C7.54048 34.114 7.54312 34.4897 7.54518 34.8656C7.5476 34.9813 7.55002 35.0969 7.55251 35.2161C7.55279 36.0805 7.37539 36.7061 6.8004 37.3623C6.72411 37.4254 6.64782 37.4886 6.56923 37.5536C6.49324 37.6186 6.41726 37.6835 6.33897 37.7505C5.61165 38.2516 4.86686 38.1978 4.01247 38.1976C3.77324 38.1981 3.53426 38.2024 3.29507 38.2068C2.2655 38.2099 1.58565 38.1513 0.791333 37.4552C0.696617 37.3408 0.696617 37.3408 0.599988 37.224C0.535031 37.148 0.470075 37.0721 0.40315 36.9938C-0.0547936 36.3291 -0.035354 35.7087 -0.0346441 34.9271C-0.0354313 34.8027 -0.0362185 34.6784 -0.0370295 34.5504C-0.0392552 34.1395 -0.0397137 33.7288 -0.0399656 33.3179C-0.0407188 33.032 -0.0415073 32.7461 -0.0423295 32.4601C-0.043733 31.8607 -0.0441671 31.2613 -0.0440283 30.6618C-0.0440045 29.8946 -0.0472034 29.1274 -0.0512405 28.3602C-0.0538495 27.7696 -0.0543218 27.179 -0.0541979 26.5883C-0.0544741 26.3055 -0.0555087 26.0227 -0.0573227 25.7399C-0.0596251 25.3438 -0.0589429 24.9479 -0.0575323 24.5518C-0.0588494 24.4356 -0.0601665 24.3194 -0.0615234 24.1996C-0.0538169 23.3459 0.130512 22.7192 0.698407 22.0711C0.774693 22.008 0.85098 21.9448 0.929578 21.8798C1.00556 21.8148 1.08155 21.7499 1.15983 21.683C1.88715 21.1818 2.63195 21.2356 3.48633 21.2358ZM2.10878 23.5058C1.80737 24.0398 1.84052 24.5842 1.84222 25.1798C1.84162 25.2885 1.84102 25.3971 1.8404 25.5091C1.83877 25.8678 1.83888 26.2265 1.83915 26.5851C1.8387 26.8349 1.83819 27.0846 1.83763 27.3343C1.83676 27.8574 1.83679 28.3806 1.83741 28.9038C1.83809 29.5738 1.8361 30.2438 1.83338 30.9139C1.83166 31.4295 1.83156 31.9451 1.83192 32.4608C1.83186 32.7078 1.83125 32.9548 1.83007 33.2018C1.82862 33.5474 1.82941 33.8929 1.83077 34.2385C1.82988 34.3402 1.82898 34.442 1.82806 34.5468C1.83313 35.1322 1.89873 35.5386 2.22596 36.0448C2.6959 36.3355 3.2038 36.3183 3.74208 36.3158C3.86342 36.3187 3.86342 36.3187 3.98721 36.3215C4.54106 36.3221 4.93124 36.2415 5.39003 35.9276C5.69143 35.3936 5.65828 34.8492 5.65659 34.2536C5.65719 34.1449 5.65779 34.0363 5.6584 33.9243C5.66003 33.5656 5.65992 33.207 5.65965 32.8483C5.66011 32.5986 5.66061 32.3489 5.66117 32.0991C5.66205 31.576 5.66201 31.0528 5.6614 30.5296C5.66072 29.8596 5.6627 29.1896 5.66542 28.5195C5.66715 28.0039 5.66725 27.4883 5.66688 26.9726C5.66694 26.7256 5.66756 26.4786 5.66874 26.2316C5.67018 25.886 5.66939 25.5405 5.66803 25.1949C5.66893 25.0932 5.66982 24.9915 5.67075 24.8866C5.66567 24.3012 5.60008 23.8948 5.27284 23.3886C4.8029 23.0979 4.295 23.1151 3.75673 23.1176C3.67583 23.1157 3.59494 23.1138 3.51159 23.1119C2.95775 23.1113 2.56756 23.1919 2.10878 23.5058ZM54.6088 23.5058C54.3074 24.0398 54.3405 24.5842 54.3422 25.1798C54.3416 25.2885 54.341 25.3971 54.3404 25.5091C54.3388 25.8678 54.3389 26.2265 54.3392 26.5851C54.3387 26.8349 54.3382 27.0846 54.3376 27.3343C54.3368 27.8574 54.3368 28.3806 54.3374 28.9038C54.3381 29.5738 54.3361 30.2438 54.3334 30.9139C54.3317 31.4295 54.3316 31.9451 54.3319 32.4608C54.3319 32.7078 54.3312 32.9548 54.3301 33.2018C54.3286 33.5474 54.3294 33.8929 54.3308 34.2385C54.3299 34.3402 54.329 34.442 54.3281 34.5468C54.3331 35.1322 54.3987 35.5386 54.726 36.0448C55.1959 36.3355 55.7038 36.3183 56.2421 36.3158C56.3634 36.3187 56.3634 36.3187 56.4872 36.3215C57.0411 36.3221 57.4312 36.2415 57.89 35.9276C58.1914 35.3936 58.1583 34.8492 58.1566 34.2536C58.1572 34.1449 58.1578 34.0363 58.1584 33.9243C58.16 33.5656 58.1599 33.207 58.1596 32.8483C58.1601 32.5986 58.1606 32.3489 58.1612 32.0991C58.162 31.576 58.162 31.0528 58.1614 30.5296C58.1607 29.8596 58.1627 29.1896 58.1654 28.5195C58.1671 28.0039 58.1673 27.4883 58.1669 26.9726C58.1669 26.7256 58.1676 26.4786 58.1687 26.2316C58.1702 25.886 58.1694 25.5405 58.168 25.1949C58.1689 25.0932 58.1698 24.9915 58.1707 24.8866C58.1657 24.3012 58.1001 23.8948 57.7728 23.3886C57.3029 23.0979 56.795 23.1151 56.2567 23.1176C56.1758 23.1157 56.0949 23.1138 56.0116 23.1119C55.4577 23.1113 55.0676 23.1919 54.6088 23.5058ZM27.0697 24.5605C26.1994 25.7319 26.2103 27.1282 26.2188 28.5328C26.2201 28.7789 26.2189 29.0248 26.2174 29.2708C26.2155 30.8232 26.315 32.1238 27.3741 33.328C28.1236 34.0349 28.9812 34.3124 29.9994 34.3456C31.097 34.3087 31.9252 33.9887 32.7236 33.2291C33.786 32.0342 33.7892 30.5502 33.78 29.0256C33.7787 28.7796 33.78 28.5336 33.7814 28.2876C33.7833 26.7352 33.6838 25.4346 32.6247 24.2304C31.8752 23.5235 31.0176 23.246 29.9994 23.2128C28.7943 23.2533 27.8753 23.6544 27.0697 24.5605ZM16.8744 30.6542C16.8744 33.1292 16.8744 35.6042 16.8744 38.1542C17.924 38.1526 17.924 38.1526 18.9948 38.151C19.4391 38.1522 19.8834 38.1535 20.3278 38.1558C21.0324 38.1594 21.737 38.1621 22.4417 38.1594C23.0101 38.1574 23.5784 38.1593 24.1468 38.164C24.3632 38.1651 24.5796 38.1648 24.796 38.163C26.7047 38.1486 26.7047 38.1486 27.291 38.6527C27.417 38.7952 27.5392 38.9413 27.6557 39.0917C27.7582 39.1899 27.8608 39.2881 27.9665 39.3892C28.099 39.5227 28.099 39.5227 28.2343 39.6589C28.3317 39.7567 28.4291 39.8545 28.5295 39.9553C28.6279 40.0546 28.7262 40.1539 28.8275 40.2563C28.9295 40.3588 29.0315 40.4612 29.1365 40.5668C29.3854 40.8171 29.6339 41.0675 29.8822 41.3183C30.3381 41.1334 30.6412 40.8219 30.9781 40.4755C31.0367 40.4163 31.0953 40.3571 31.1557 40.2961C31.3421 40.1076 31.5277 39.9183 31.7133 39.7289C31.8997 39.5392 32.0864 39.3497 32.2734 39.1605C32.3895 39.0429 32.5053 38.925 32.6208 38.8068C33.149 38.2709 33.4797 38.2527 34.2109 38.2473C34.3069 38.2462 34.403 38.245 34.5019 38.2438C34.8202 38.2401 35.1385 38.2372 35.4569 38.2343C35.6772 38.2319 35.8976 38.2294 36.118 38.2269C36.6986 38.2205 37.2793 38.2147 37.8599 38.209C38.5563 38.2021 39.2526 38.1943 39.949 38.1867C41.0074 38.1752 42.0659 38.1648 43.1244 38.1542C43.1244 35.6792 43.1244 33.2042 43.1244 30.6542C40.6494 30.6542 38.1744 30.6542 35.6244 30.6542C35.5471 31.1956 35.4697 31.737 35.39 32.2948C34.9194 33.7764 33.9573 34.9504 32.5702 35.6713C31.2218 36.3287 29.4892 36.4146 28.0512 35.9789C26.6 35.3943 25.4894 34.3396 24.8386 32.9201C24.5177 32.1401 24.4612 31.5218 24.3744 30.6542C21.8994 30.6542 19.4244 30.6542 16.8744 30.6542Z" fill="#D7FB00"/>
<path d="M20.625 43.7205C20.7024 43.7193 20.7797 43.718 20.8594 43.7168C21.2002 43.8073 21.3391 43.9791 21.5625 44.2478C21.6202 44.5324 21.6202 44.5324 21.6189 44.8558C21.6196 44.9785 21.6202 45.1012 21.6209 45.2275C21.6192 45.362 21.6175 45.4964 21.6158 45.6349C21.6158 45.779 21.6159 45.9231 21.6159 46.0716C21.6156 46.4611 21.6133 46.8504 21.61 47.2398C21.6074 47.6054 21.6072 47.9709 21.6069 48.3365C21.6044 49.4052 21.5979 50.474 21.5918 51.5427C21.5822 53.9307 21.5725 56.3187 21.5625 58.7791C27.1313 58.7791 32.7 58.7791 38.4375 58.7791C38.419 54.0179 38.419 54.0179 38.3953 49.2568C38.3932 48.3365 38.3932 48.3365 38.3928 47.9058C38.3921 47.6047 38.3906 47.3036 38.3881 47.0024C38.3842 46.5466 38.3842 46.0908 38.3843 45.6349C38.3826 45.5005 38.381 45.366 38.3792 45.2275C38.3799 45.1049 38.3805 44.9822 38.3812 44.8558C38.3807 44.7491 38.3803 44.6424 38.3799 44.5324C38.4558 44.1579 38.6144 44.0172 38.9063 43.7791C39.1407 43.7168 39.1407 43.7168 39.375 43.7205C39.4524 43.7193 39.5297 43.718 39.6094 43.7168C39.9519 43.8078 40.0892 43.9763 40.3125 44.2478C40.3715 44.5531 40.3715 44.5531 40.3721 44.9061C40.3734 45.0401 40.3747 45.1742 40.3761 45.3123C40.3751 45.4589 40.3742 45.6055 40.3732 45.7566C40.3738 45.9129 40.3747 46.0692 40.3757 46.2256C40.3778 46.6498 40.377 47.0739 40.3755 47.4981C40.3743 47.9421 40.3754 48.3861 40.3762 48.83C40.377 49.5756 40.3759 50.3211 40.3737 51.0667C40.3711 51.9286 40.3719 52.7905 40.3745 53.6524C40.3766 54.3924 40.3769 55.1325 40.3757 55.8726C40.375 56.3145 40.3749 56.7565 40.3764 57.1985C40.3778 57.6141 40.3769 58.0295 40.3741 58.4451C40.3732 58.6703 40.3746 58.8955 40.3761 59.1208C40.3748 59.2548 40.3734 59.3889 40.3721 59.527C40.3719 59.6435 40.3717 59.76 40.3715 59.88C40.2933 60.2847 40.1803 60.418 39.8438 60.6541C39.48 60.713 39.48 60.713 39.0432 60.7136C38.9627 60.7143 38.8822 60.715 38.7993 60.7158C38.5298 60.7177 38.2603 60.7162 37.9908 60.7147C37.7975 60.7153 37.6042 60.7162 37.411 60.7172C36.886 60.7193 36.3612 60.7185 35.8362 60.717C35.2872 60.7158 34.7381 60.7169 34.189 60.7177C33.2669 60.7185 32.3449 60.7174 31.4228 60.7152C30.3564 60.7126 29.29 60.7134 28.2236 60.716C27.3084 60.7181 26.3931 60.7184 25.4779 60.7172C24.9311 60.7165 24.3844 60.7164 23.8376 60.7179C23.3235 60.7193 22.8096 60.7184 22.2955 60.7156C22.1067 60.715 21.918 60.7152 21.7292 60.7162C21.4717 60.7175 21.2144 60.7159 20.9569 60.7136C20.8128 60.7134 20.6686 60.7132 20.5201 60.713C20.1563 60.6541 20.1563 60.6541 19.8756 60.4571C19.643 60.121 19.6286 59.9339 19.628 59.527C19.6267 59.393 19.6254 59.2589 19.624 59.1208C19.625 58.9742 19.6259 58.8276 19.6269 58.6765C19.6263 58.5202 19.6254 58.3639 19.6244 58.2075C19.6223 57.7833 19.6231 57.3592 19.6246 56.935C19.6258 56.491 19.6247 56.0471 19.6239 55.6031C19.6231 54.8575 19.6242 54.112 19.6264 53.3665C19.629 52.5045 19.6282 51.6427 19.6256 50.7807C19.6235 50.0407 19.6232 49.3006 19.6244 48.5606C19.6251 48.1186 19.6252 47.6766 19.6237 47.2346C19.6223 46.819 19.6232 46.4036 19.626 45.988C19.6269 45.7628 19.6255 45.5376 19.624 45.3123C19.6253 45.1783 19.6267 45.0442 19.628 44.9061C19.6282 44.7896 19.6284 44.6731 19.6286 44.5531C19.7327 44.0143 20.0765 43.7119 20.625 43.7205Z" fill="#D7FB00"/>
<path d="M33.2013 1.51117C34.4606 2.46217 35.2727 3.55102 35.6256 5.10736C35.6737 5.574 35.6777 6.03653 35.6764 6.50537C35.677 6.63564 35.6776 6.7659 35.6783 6.90011C35.679 7.17409 35.6789 7.44808 35.6779 7.72205C35.6769 8.13764 35.6803 8.55303 35.684 8.9686C35.6842 9.23639 35.6841 9.50418 35.6837 9.77198C35.6851 9.89434 35.6864 10.0167 35.6877 10.1428C35.6725 11.7772 35.0471 13.0345 33.9484 14.2187C32.711 15.3897 31.3578 15.7145 29.7041 15.7034C28.0491 15.6553 26.7511 14.9702 25.6171 13.7719C24.6313 12.5735 24.3205 11.3296 24.3248 9.8031C24.3242 9.67284 24.3236 9.54258 24.3229 9.40837C24.3222 9.13439 24.3223 8.8604 24.3233 8.58643C24.3243 8.17084 24.321 7.75544 24.3172 7.33988C24.317 7.07209 24.3171 6.80429 24.3175 6.5365C24.3161 6.41414 24.3148 6.29178 24.3135 6.16572C24.3287 4.53127 24.9541 3.27401 26.0528 2.08979C27.9625 0.282466 31.0234 0.0657834 33.2013 1.51117ZM27.0709 3.93549C26.2006 5.10698 26.2115 6.5032 26.22 7.90785C26.2213 8.15389 26.2201 8.39984 26.2186 8.64588C26.2167 10.1982 26.3162 11.4989 27.3753 12.703C28.1248 13.41 28.9824 13.6875 30.0006 13.7206C31.0982 13.6837 31.9264 13.3638 32.7248 12.6042C33.7872 11.4092 33.7904 9.92527 33.7812 8.40063C33.7799 8.15459 33.7812 7.90864 33.7826 7.6626C33.7845 6.11026 33.685 4.80963 32.6259 3.60544C31.8764 2.89853 31.0188 2.621 30.0006 2.58783C28.7955 2.62835 27.8765 3.02945 27.0709 3.93549Z" fill="#D7FB00"/>
<path d="M20.2948 17.4687C20.5303 17.4681 20.7659 17.4672 21.0015 17.4662C21.6373 17.4641 22.2731 17.4649 22.9089 17.4664C23.5767 17.4676 24.2444 17.4665 24.9122 17.4657C26.0332 17.4649 27.1542 17.466 28.2752 17.4682C29.5683 17.4708 30.8613 17.47 32.1544 17.4674C33.2678 17.4652 34.3812 17.465 35.4946 17.4662C36.1582 17.4669 36.8217 17.467 37.4853 17.4655C38.1094 17.4641 38.7334 17.4651 39.3575 17.4678C39.5855 17.4684 39.8136 17.4682 40.0416 17.4672C42.2921 17.4578 44.1077 17.8944 45.7936 19.4945C46.8899 20.5909 46.8899 20.5909 46.9924 21.3965C46.7527 22.0437 46.7527 22.0437 46.4065 22.2168C45.5733 22.2988 45.5733 22.2988 45.1614 21.9751C45.0179 21.7977 44.8747 21.6199 44.7366 21.4382C43.7935 20.2513 42.5071 19.726 41.0364 19.5466C40.6443 19.5081 40.2531 19.505 39.8596 19.5059C39.7718 19.5056 39.6839 19.5053 39.5934 19.5051C39.3016 19.5043 39.0098 19.5044 38.718 19.5045C38.5077 19.5042 38.2974 19.5038 38.0871 19.5033C37.5177 19.5023 36.9482 19.502 36.3787 19.5019C36.0223 19.5019 35.666 19.5016 35.3096 19.5013C34.0649 19.5002 32.8202 19.4997 31.5755 19.4998C30.4178 19.4999 29.2601 19.4987 28.1024 19.4968C27.1063 19.4953 26.1103 19.4946 25.1142 19.4947C24.5202 19.4947 23.9263 19.4944 23.3323 19.4932C22.7733 19.492 22.2142 19.492 21.6552 19.4929C21.4509 19.493 21.2467 19.4927 21.0424 19.492C19.5524 19.4872 18.0982 19.4888 16.7581 20.2247C16.6702 20.2727 16.5822 20.3207 16.4917 20.3702C15.8375 20.7654 15.4098 21.2443 14.9568 21.8566C14.7659 22.0997 14.7659 22.0997 14.5315 22.2168C13.7051 22.2835 13.7051 22.2835 13.301 22.0411C13.0515 21.6251 13.0153 21.2739 13.1253 20.8106C13.3143 20.4547 13.5586 20.1708 13.8284 19.8731C13.8936 19.7958 13.9589 19.7184 14.0261 19.6387C15.7083 17.7826 17.9321 17.4579 20.2948 17.4687Z" fill="#D7FB00"/>
<path d="M47.7996 42.2256C48.7667 42.8023 49.4061 43.6187 49.6875 44.7167C49.7267 45.1614 49.7308 45.6035 49.7314 46.0498C49.7343 46.1673 49.7371 46.2848 49.7401 46.4059C49.7436 47.3046 49.5857 47.9307 48.9885 48.6123C48.9122 48.6755 48.8359 48.7386 48.7573 48.8037C48.6433 48.9011 48.6433 48.9011 48.527 49.0005C47.7997 49.5016 47.0549 49.4479 46.2005 49.4477C45.9613 49.4482 45.7223 49.4524 45.4831 49.4569C44.4536 49.4599 43.7737 49.4013 42.9794 48.7052C42.9162 48.629 42.8531 48.5527 42.788 48.4741C42.7231 48.3981 42.6581 48.3221 42.5912 48.2438C42.1214 47.562 42.1445 46.9001 42.1435 46.101C42.1406 45.9849 42.1378 45.8688 42.1348 45.7492C42.1305 44.6572 42.403 43.7143 43.1597 42.904C44.4016 41.7875 46.2817 41.4972 47.7996 42.2256ZM44.6484 44.3652C44.1013 45.0601 43.968 45.7144 44.0625 46.5917C44.2431 47.1086 44.2431 47.1086 44.6621 47.429C45.0875 47.5552 45.4905 47.5679 45.9301 47.5659C46.0515 47.5687 46.0515 47.5687 46.1753 47.5716C46.7299 47.5721 47.1086 47.4717 47.5781 47.1777C47.9223 46.63 47.8799 45.9938 47.758 45.38C47.5707 44.7141 47.3279 44.4018 46.7578 44.0136C46.0436 43.6566 45.2161 43.8515 44.6484 44.3652Z" fill="#D7FB00"/>
<path d="M15.9246 42.2256C16.8917 42.8023 17.5311 43.6187 17.8125 44.7167C17.8517 45.1614 17.8558 45.6035 17.8564 46.0498C17.8593 46.1673 17.8621 46.2848 17.8651 46.4059C17.8686 47.3046 17.7107 47.9307 17.1135 48.6123C17.0372 48.6755 16.9609 48.7386 16.8823 48.8037C16.7683 48.9011 16.7683 48.9011 16.652 49.0005C15.9247 49.5016 15.1799 49.4479 14.3255 49.4477C14.0863 49.4482 13.8473 49.4524 13.6081 49.4569C12.5786 49.4599 11.8987 49.4013 11.1044 48.7052C11.0412 48.629 10.9781 48.5527 10.913 48.4741C10.8481 48.3981 10.7831 48.3221 10.7162 48.2438C10.2464 47.562 10.2695 46.9001 10.2685 46.101C10.2656 45.9849 10.2628 45.8688 10.2598 45.7492C10.2555 44.6572 10.528 43.7143 11.2847 42.904C12.5266 41.7875 14.4067 41.4972 15.9246 42.2256ZM12.7734 44.3652C12.2263 45.0601 12.093 45.7144 12.1875 46.5917C12.3681 47.1086 12.3681 47.1086 12.7871 47.429C13.2125 47.5552 13.6155 47.5679 14.0551 47.5659C14.1765 47.5687 14.1765 47.5687 14.3003 47.5716C14.8549 47.5721 15.2336 47.4717 15.7031 47.1777C16.0473 46.63 16.0049 45.9938 15.883 45.38C15.6957 44.7141 15.4529 44.4018 14.8828 44.0136C14.1686 43.6566 13.3411 43.8515 12.7734 44.3652Z" fill="#D7FB00"/>
</g>
<defs>
<clipPath id="clip0_377_1137">
<rect width="60" height="60" fill="white" transform="translate(0 0.654297)"/>
</clipPath>
</defs>
</svg>
