<svg width="30" height="31" viewBox="0 0 30 31" fill="none" xmlns="http://www.w3.org/2000/svg">
<path d="M14.2059 2.3574C14.467 2.5529 14.7058 2.77138 14.9413 2.99666C15.1163 2.91779 15.2389 2.82871 15.3771 2.69637C16.5824 1.62471 18.0604 1.32989 19.6195 1.40156C21.1205 1.50761 22.3722 2.28403 23.3861 3.36288C24.5766 4.74773 24.8418 6.50711 24.7137 8.27022C24.6306 9.12434 24.4672 9.99302 24.1405 10.7896C24.1752 10.7891 24.2099 10.7886 24.2457 10.7881C24.6069 10.7829 24.9681 10.7793 25.3293 10.7768C25.4641 10.7756 25.5989 10.774 25.7337 10.772C25.9274 10.7691 26.1211 10.7678 26.3149 10.7667C26.3752 10.7655 26.4355 10.7643 26.4976 10.7631C26.9158 10.7629 26.9158 10.7629 27.1081 10.9009C27.1934 11.0333 27.2191 11.1022 27.2167 11.2584C27.2176 11.3164 27.2176 11.3164 27.2185 11.3756C27.1731 11.5466 27.0885 11.6155 26.953 11.7271C26.8025 11.7553 26.8025 11.7553 26.6306 11.7537C26.5661 11.7537 26.5016 11.7537 26.4351 11.7537C26.3658 11.7525 26.2965 11.7513 26.2252 11.75C26.154 11.7497 26.0828 11.7494 26.0094 11.749C25.7819 11.7477 25.5545 11.7448 25.327 11.7418C25.1728 11.7406 25.0186 11.7395 24.8645 11.7386C24.4864 11.736 24.1084 11.7321 23.7303 11.7271C23.7129 11.7814 23.6954 11.8357 23.6775 11.8916C23.3344 12.8899 22.5508 13.8208 21.8553 14.5982C21.8281 14.6287 21.8009 14.6593 21.7729 14.6907C21.2834 15.2374 20.7846 15.7587 20.2101 16.2173C20.0633 16.3363 19.9208 16.459 19.7789 16.5838C19.3136 16.9897 18.8102 17.332 18.2966 17.6735C18.1785 17.7526 18.0614 17.8329 17.9447 17.914C17.5036 18.2187 17.0473 18.4924 16.5819 18.7584C16.5245 18.7915 16.4671 18.8245 16.4079 18.8586C15.9419 19.1212 15.5484 19.2482 15.0145 19.2491C14.9715 19.2505 14.9284 19.252 14.8841 19.2535C14.1944 19.257 13.6278 18.8971 13.0553 18.5496C12.9851 18.5075 12.9149 18.4654 12.8447 18.4233C12.3183 18.1059 11.805 17.7732 11.3085 17.4107C11.2768 17.3877 11.2451 17.3647 11.2124 17.3411C10.7825 17.0281 10.3685 16.6973 9.96082 16.356C9.92955 16.3302 9.89829 16.3043 9.86609 16.2776C9.10412 15.6456 8.40035 14.9722 7.79285 14.1881C7.74609 14.1299 7.69934 14.0718 7.65117 14.0118C6.26941 12.279 6.26941 12.279 6.26941 11.7271C6.17439 11.7279 6.17439 11.7279 6.07746 11.7287C5.48084 11.7335 4.88423 11.737 4.2876 11.7393C3.98085 11.7405 3.67412 11.7422 3.36739 11.7448C3.07143 11.7474 2.77549 11.7488 2.47953 11.7494C2.36655 11.7498 2.25357 11.7507 2.1406 11.7519C1.98248 11.7536 1.82443 11.7538 1.66631 11.7537C1.61949 11.7546 1.57266 11.7554 1.52442 11.7563C1.31348 11.7547 1.19579 11.7455 1.0256 11.6156C0.930092 11.4826 0.905552 11.4202 0.908081 11.2584C0.907175 11.2004 0.907175 11.2004 0.90625 11.1412C0.953014 10.9651 1.02803 10.9011 1.17175 10.7896C1.33215 10.7677 1.46858 10.7599 1.62866 10.763C1.67441 10.763 1.72017 10.763 1.76731 10.7629C1.91824 10.7631 2.06911 10.7649 2.22003 10.7667C2.32479 10.7672 2.42955 10.7675 2.53431 10.7677C2.80982 10.7686 3.0853 10.7709 3.36079 10.7735C3.642 10.7759 3.92322 10.777 4.20444 10.7782C4.75606 10.7807 5.30765 10.7847 5.85925 10.7896C5.83901 10.7301 5.81876 10.6705 5.7979 10.6091C5.77114 10.5298 5.74438 10.4504 5.71763 10.3711C5.70431 10.332 5.69099 10.2928 5.67727 10.2525C5.56932 9.9314 5.49247 9.61108 5.43445 9.27718C5.42508 9.22737 5.41572 9.17756 5.40607 9.12623C5.08937 7.391 5.1719 5.51018 6.15222 3.99276C7.07035 2.68855 8.27869 1.81061 9.84363 1.47323C9.88857 1.46301 9.93352 1.4528 9.97983 1.44227C11.4555 1.18212 12.9695 1.53377 14.2059 2.3574ZM7.77271 3.60686C6.80025 4.55358 6.27421 5.78192 6.25526 7.14074C6.25157 8.39198 6.4182 9.6329 6.91394 10.7896C7.53269 10.7896 8.15144 10.7896 8.78894 10.7896C9.0661 10.2398 9.0661 10.2398 9.31834 9.68207C9.36225 9.58039 9.36225 9.58039 9.40704 9.47665C9.46678 9.33735 9.52613 9.19788 9.58511 9.05826C9.6143 8.991 9.64349 8.92374 9.67357 8.85444C9.7121 8.76403 9.7121 8.76403 9.7514 8.6718C9.8895 8.42125 10.0379 8.2444 10.3124 8.15291C10.6396 8.13146 10.853 8.13799 11.1327 8.3287C11.3688 8.62793 11.4769 8.95529 11.5975 9.3138C11.6186 9.37509 11.6397 9.43637 11.6614 9.49951C11.7286 9.69502 11.795 9.89075 11.8615 10.0865C11.9058 10.2163 11.9503 10.3461 11.9948 10.4758C12.0164 10.539 12.0381 10.6022 12.0604 10.6672C12.0817 10.7294 12.103 10.7915 12.1249 10.8556C12.1665 10.9772 12.2082 11.0988 12.2498 11.2204C12.2692 11.2769 12.2886 11.3334 12.3085 11.3916C12.343 11.4924 12.3774 11.5933 12.4116 11.6941C12.4519 11.8127 12.4927 11.9311 12.5337 12.0494C12.555 12.1116 12.5763 12.1739 12.5982 12.238C12.6431 12.3808 12.6431 12.3808 12.7733 12.4303C12.7904 12.3635 12.8075 12.2968 12.8251 12.228C12.9865 11.5984 13.1485 10.9691 13.3112 10.3399C13.3949 10.0165 13.4783 9.69295 13.5611 9.36928C13.641 9.05683 13.7216 8.74457 13.8027 8.43241C13.8335 8.31337 13.864 8.19428 13.8944 8.07513C13.9369 7.90804 13.9803 7.7412 14.0239 7.57439C14.0362 7.52524 14.0485 7.4761 14.0612 7.42547C14.1458 7.10616 14.2449 6.80799 14.5259 6.60865C14.83 6.51486 15.1726 6.52578 15.4686 6.6368C15.7603 6.91023 15.818 7.29571 15.8962 7.67096C15.9084 7.72771 15.9206 7.78445 15.9332 7.84291C15.9734 8.03015 16.013 8.21753 16.0525 8.40491C16.0805 8.53603 16.1086 8.66714 16.1368 8.79823C16.2108 9.14367 16.2842 9.48923 16.3576 9.83481C16.4604 10.3191 16.564 10.8032 16.6675 11.2873C16.7226 11.5447 16.7774 11.8022 16.8321 12.0597C16.9751 12.7321 17.1238 13.4026 17.285 14.0709C17.4186 13.8706 17.488 13.667 17.5643 13.441C17.5801 13.3947 17.5959 13.3484 17.6122 13.3008C17.6646 13.1474 17.7165 12.9939 17.7684 12.8404C17.8048 12.7336 17.8412 12.6268 17.8776 12.5199C18.0737 11.9424 18.2656 11.3636 18.453 10.7832C18.4716 10.7258 18.4902 10.6684 18.5093 10.6092C18.5992 10.3307 18.6886 10.0521 18.7773 9.77317C18.8099 9.67162 18.8425 9.57007 18.8751 9.46853C18.8895 9.42255 18.9039 9.37657 18.9188 9.3292C19.012 9.04033 19.1054 8.78285 19.3358 8.57406C19.6032 8.46822 19.8732 8.45463 20.1561 8.50448C20.4853 8.67916 20.6058 8.87127 20.7579 9.19547C20.7793 9.23922 20.8008 9.28297 20.8229 9.32804C20.8909 9.46692 20.9575 9.60639 21.024 9.74593C21.0919 9.88595 21.1601 10.0258 21.2283 10.1657C21.2705 10.2526 21.3126 10.3396 21.3543 10.4267C21.4384 10.6213 21.4384 10.6213 21.5624 10.7896C21.6753 10.7948 21.7883 10.7959 21.9014 10.7954C21.9699 10.7952 22.0384 10.795 22.1091 10.7948C22.1812 10.7943 22.2534 10.7938 22.3278 10.7933C22.4002 10.793 22.4726 10.7928 22.5471 10.7925C22.7267 10.7918 22.9063 10.7908 23.0858 10.7896C23.7211 9.12245 24.0975 7.09212 23.4191 5.3807C23.368 5.26897 23.3155 5.15786 23.2616 5.04745C23.237 4.99405 23.2125 4.94064 23.1872 4.88563C22.9564 4.41933 22.6292 4.06403 22.2655 3.69979C22.2226 3.65621 22.1797 3.61263 22.1355 3.56772C21.2907 2.76228 20.1387 2.37169 18.9843 2.35213C17.8948 2.38059 16.884 2.75666 16.0546 3.46541C16.0129 3.50001 15.9712 3.5346 15.9282 3.57024C15.7428 3.72727 15.5795 3.87707 15.4357 4.07332C15.2928 4.22713 15.2928 4.22713 15.0878 4.28939C14.8541 4.28522 14.7781 4.24187 14.5897 4.10995C14.4833 3.99596 14.4833 3.99596 14.381 3.86825C13.9243 3.34132 13.3515 2.97733 12.7147 2.7037C12.6615 2.68081 12.6082 2.65792 12.5534 2.63434C10.9085 2.00981 9.07931 2.48088 7.77271 3.60686ZM14.9413 8.03573C14.8183 8.35042 14.7176 8.66123 14.6354 8.98872C14.6236 9.03461 14.6119 9.0805 14.5998 9.12778C14.5746 9.2265 14.5494 9.32526 14.5244 9.42404C14.4848 9.58052 14.4447 9.73691 14.4046 9.89327C14.2907 10.3375 14.1773 10.782 14.0644 11.2265C13.995 11.4991 13.9252 11.7717 13.8552 12.0441C13.8286 12.1477 13.8023 12.2513 13.7761 12.355C13.7396 12.4998 13.7024 12.6444 13.6652 12.7891C13.6546 12.8317 13.644 12.8743 13.633 12.9181C13.5569 13.2101 13.4681 13.4449 13.2421 13.6497C12.9221 13.7764 12.5745 13.7713 12.2496 13.6607C11.9462 13.3665 11.8268 12.9084 11.6937 12.517C11.6755 12.4644 11.6573 12.4118 11.6385 12.3575C11.5807 12.1902 11.5233 12.0228 11.4659 11.8553C11.2438 11.2094 11.0215 10.5635 10.7896 9.92103C10.7728 9.87344 10.7559 9.82585 10.7386 9.77682C10.6678 9.53685 10.6678 9.53685 10.4882 9.38338C10.4631 9.44042 10.438 9.49746 10.4121 9.55623C10.3184 9.76893 10.2237 9.98123 10.1287 10.1934C10.0879 10.2851 10.0472 10.3769 10.0069 10.4688C9.94858 10.6013 9.88944 10.7333 9.83012 10.8654C9.81241 10.9062 9.7947 10.947 9.77645 10.989C9.64608 11.276 9.49147 11.5224 9.1991 11.6685C9.063 11.6776 8.92666 11.6832 8.79031 11.6871C8.75016 11.6883 8.71001 11.6895 8.66864 11.6908C8.54029 11.6946 8.41193 11.6981 8.28357 11.7015C8.19659 11.704 8.10962 11.7066 8.02264 11.7092C7.80933 11.7154 7.59602 11.7214 7.38269 11.7271C7.93969 13.1647 9.25089 14.5224 10.4465 15.468C10.6095 15.5976 10.7663 15.733 10.924 15.869C11.6485 16.4709 12.436 16.984 13.2421 17.4693C13.3014 17.5051 13.3608 17.5409 13.422 17.5777C14.3238 18.1602 14.3238 18.1602 15.3514 18.231C15.6829 18.1061 15.9839 17.9413 16.2889 17.7623C16.3612 17.7199 16.3612 17.7199 16.435 17.6767C17.624 16.9717 18.7725 16.1827 19.7913 15.2453C19.9109 15.1356 20.0328 15.0296 20.1561 14.9242C20.6565 14.4862 21.0933 14.0071 21.5038 13.4849C21.5515 13.4258 21.5993 13.3667 21.6484 13.3057C21.9201 12.9655 22.1653 12.6167 22.39 12.2435C22.4129 12.2055 22.4358 12.1675 22.4594 12.1284C22.5783 11.9405 22.5783 11.9405 22.6171 11.7271C22.5745 11.7266 22.532 11.726 22.4882 11.7255C22.2943 11.7223 22.1005 11.7174 21.9066 11.7125C21.8062 11.7112 21.8062 11.7112 21.7038 11.71C21.6389 11.7081 21.5739 11.7062 21.507 11.7042C21.4475 11.703 21.3879 11.7018 21.3266 11.7005C21.099 11.6588 20.978 11.5826 20.8007 11.4342C20.7125 11.2968 20.6424 11.1729 20.5741 11.0268C20.5551 10.9881 20.536 10.9494 20.5165 10.9095C20.4565 10.787 20.3978 10.6638 20.3392 10.5406C20.2986 10.4569 20.2578 10.3733 20.217 10.2898C20.1176 10.0858 20.0194 9.88123 19.9218 9.67635C19.7809 9.73037 19.7809 9.73037 19.7279 9.93236C19.6981 10.0221 19.6689 10.1121 19.6399 10.2021C19.6238 10.2511 19.6077 10.3001 19.5911 10.3505C19.556 10.4572 19.5211 10.564 19.4864 10.6709C19.4314 10.8402 19.3758 11.0094 19.32 11.1786C19.1615 11.6596 19.0042 12.141 18.847 12.6225C18.7509 12.9168 18.6542 13.2109 18.5571 13.5049C18.5203 13.6168 18.4837 13.7287 18.4474 13.8408C18.3964 13.9982 18.3447 14.1553 18.2927 14.3124C18.2781 14.3583 18.2634 14.4041 18.2483 14.4514C18.002 15.188 18.002 15.188 17.6945 15.3718C17.4671 15.463 17.232 15.4489 16.9921 15.4185C16.6923 15.2768 16.5914 15.1324 16.4647 14.8326C16.4038 14.6133 16.357 14.3915 16.3103 14.1688C16.296 14.1024 16.2817 14.0361 16.2669 13.9677C16.2199 13.7491 16.1735 13.5303 16.1271 13.3115C16.0946 13.1596 16.062 13.0077 16.0293 12.8558C15.9524 12.4973 15.8759 12.1387 15.7996 11.7801C15.7127 11.3716 15.6253 10.9633 15.5378 10.5549C15.3579 9.71532 15.1786 8.87557 14.9999 8.03573C14.9805 8.03573 14.9612 8.03573 14.9413 8.03573Z" fill="#D7FB00"/>
<path d="M4.67986 17.3349C4.71916 17.3345 4.75845 17.3341 4.79894 17.3337C4.92826 17.3326 5.05756 17.3324 5.18688 17.3323C5.2773 17.3319 5.36771 17.3315 5.45813 17.3311C5.64751 17.3304 5.83688 17.3302 6.02626 17.3302C6.26801 17.3303 6.50971 17.3287 6.75144 17.3266C6.93819 17.3253 7.12493 17.3251 7.31169 17.3252C7.40076 17.325 7.48983 17.3245 7.5789 17.3236C8.12632 17.3185 8.54894 17.3244 8.97922 17.7015C9.0108 17.7396 9.04237 17.7777 9.0749 17.817C9.10737 17.855 9.13985 17.893 9.17332 17.9322C9.77842 18.8104 9.37519 20.3135 9.37519 21.102C13.0877 21.102 16.8002 21.102 20.6252 21.102C20.6252 20.1932 20.6252 19.2844 20.6252 18.3481C20.8903 17.8177 20.8903 17.8177 21.0903 17.6523C21.1283 17.6198 21.1663 17.5873 21.2054 17.5538C21.4724 17.3698 21.7024 17.337 22.0236 17.3349C22.0826 17.3343 22.0826 17.3343 22.1427 17.3337C22.272 17.3326 22.4013 17.3324 22.5306 17.3323C22.621 17.3319 22.7115 17.3315 22.8019 17.3311C22.9913 17.3304 23.1806 17.3302 23.37 17.3302C23.6118 17.3303 23.8535 17.3287 24.0952 17.3266C24.2819 17.3253 24.4687 17.3251 24.6554 17.3252C24.7445 17.325 24.8336 17.3245 24.9226 17.3236C25.4701 17.3185 25.8927 17.3244 26.323 17.7015C26.3545 17.7396 26.3861 17.7777 26.4186 17.817C26.4511 17.855 26.4836 17.893 26.5171 17.9322C26.7131 18.2167 26.7347 18.467 26.7263 18.8058C26.7257 18.8464 26.7252 18.887 26.7247 18.9288C26.7233 19.0282 26.7212 19.1276 26.7189 19.227C26.7765 19.2251 26.7765 19.2251 26.8352 19.2232C27.0113 19.2183 27.1873 19.2153 27.3635 19.2123C27.4238 19.2103 27.4842 19.2084 27.5463 19.2064C28.0057 19.2005 28.3181 19.2709 28.6667 19.5765C28.6983 19.6146 28.7299 19.6527 28.7624 19.692C28.7949 19.73 28.8274 19.768 28.8608 19.8072C29.0898 20.1395 29.0801 20.4497 29.0797 20.8405C29.0801 20.9027 29.0805 20.9648 29.0809 21.0289C29.082 21.2343 29.0822 21.4397 29.0824 21.6451C29.0827 21.7881 29.0831 21.931 29.0836 22.074C29.0843 22.3737 29.0845 22.6734 29.0844 22.9731C29.0844 23.3568 29.086 23.7403 29.088 24.124C29.0893 24.4193 29.0896 24.7146 29.0895 25.0099C29.0896 25.1513 29.0901 25.2927 29.091 25.4341C29.0922 25.6321 29.0919 25.8301 29.0912 26.0281C29.0918 26.0863 29.0925 26.1444 29.0932 26.2043C29.0893 26.6311 28.9971 26.9445 28.7132 27.2685C28.675 27.3001 28.6369 27.3316 28.5976 27.3642C28.5596 27.3966 28.5216 27.4291 28.4825 27.4626C28.2421 27.6282 28.0331 27.6791 27.7432 27.6759C27.6534 27.6753 27.6534 27.6753 27.5618 27.6748C27.4691 27.6733 27.4691 27.6733 27.3745 27.6718C27.3115 27.6713 27.2485 27.6707 27.1837 27.6702C27.0288 27.6688 26.8739 27.6669 26.7189 27.6645C26.7217 27.7225 26.7244 27.7805 26.7272 27.8402C26.7553 28.6818 26.7553 28.6818 26.4846 29.0121C26.2061 29.3039 25.9494 29.5206 25.5351 29.5551C25.4643 29.5556 25.3935 29.556 25.3205 29.5565C25.2812 29.5569 25.2419 29.5573 25.2014 29.5577C25.0721 29.5588 24.9428 29.559 24.8135 29.5591C24.7231 29.5595 24.6327 29.5599 24.5422 29.5603C24.3529 29.561 24.1635 29.5612 23.9741 29.5612C23.7324 29.5612 23.4907 29.5628 23.2489 29.5648C23.0622 29.5661 22.8754 29.5663 22.6887 29.5663C22.5996 29.5664 22.5105 29.5669 22.4215 29.5678C21.8741 29.5729 21.4514 29.567 21.0212 29.19C20.9896 29.1518 20.958 29.1137 20.9255 29.0744C20.893 29.0364 20.8605 28.9984 20.8271 28.9592C20.222 28.081 20.6252 26.5779 20.6252 25.7895C16.9127 25.7895 13.2002 25.7895 9.37519 25.7895C9.37519 26.6982 9.37519 27.607 9.37519 28.5434C9.11003 29.0737 9.11003 29.0737 8.9101 29.2392C8.87211 29.2716 8.83412 29.3041 8.79497 29.3376C8.52795 29.5216 8.298 29.5545 7.97676 29.5565C7.93747 29.5569 7.89817 29.5573 7.85769 29.5577C7.72837 29.5588 7.59907 29.559 7.46975 29.5591C7.37933 29.5595 7.28891 29.5599 7.1985 29.5603C7.00912 29.561 6.81975 29.5612 6.63037 29.5612C6.38862 29.5612 6.14692 29.5628 5.90518 29.5648C5.71843 29.5661 5.53169 29.5663 5.34494 29.5663C5.25587 29.5664 5.1668 29.5669 5.07773 29.5678C4.53031 29.5729 4.10768 29.567 3.6774 29.19C3.63005 29.1327 3.63005 29.1327 3.58173 29.0744C3.54925 29.0364 3.51678 28.9984 3.48331 28.9592C3.28727 28.6747 3.26569 28.4244 3.27411 28.0856C3.27464 28.045 3.27517 28.0044 3.27572 27.9626C3.27709 27.8632 3.27919 27.7638 3.28144 27.6645C3.24307 27.6657 3.2047 27.6669 3.16517 27.6682C2.98909 27.6731 2.81303 27.6761 2.63691 27.6791C2.57656 27.6811 2.51621 27.683 2.45403 27.6851C1.99464 27.6909 1.6823 27.6205 1.33365 27.315C1.2863 27.2577 1.2863 27.2577 1.23798 27.1994C1.2055 27.1614 1.17303 27.1234 1.13956 27.0842C0.910591 26.7519 0.920311 26.4417 0.920666 26.0509C0.920273 25.9887 0.919879 25.9266 0.919474 25.8625C0.918361 25.6571 0.918131 25.4517 0.918005 25.2463C0.917629 25.1034 0.917235 24.9604 0.916824 24.8174C0.916122 24.5177 0.915905 24.218 0.915974 23.9183C0.915986 23.5347 0.914386 23.1511 0.912368 22.7675C0.911063 22.4721 0.910828 22.1768 0.91089 21.8815C0.910751 21.7401 0.910234 21.5987 0.909327 21.4573C0.908176 21.2593 0.908517 21.0613 0.909222 20.8633C0.908564 20.8052 0.907905 20.747 0.907227 20.6871C0.91108 20.2603 1.00324 19.947 1.28719 19.6229C1.32533 19.5914 1.36348 19.5598 1.40278 19.5273C1.45977 19.4785 1.45977 19.4785 1.5179 19.4288C1.75831 19.2632 1.96724 19.2123 2.25719 19.2155C2.34698 19.2161 2.34698 19.2161 2.43858 19.2167C2.5004 19.2176 2.56223 19.2186 2.62592 19.2196C2.68888 19.2202 2.75183 19.2207 2.81669 19.2212C2.97162 19.2226 3.12652 19.2245 3.28144 19.227C3.27872 19.1689 3.276 19.1109 3.2732 19.0512C3.24506 18.2096 3.24506 18.2096 3.51581 17.8793C3.87048 17.5076 4.1576 17.3382 4.67986 17.3349ZM4.33613 18.4652C4.21764 18.6957 4.20412 18.89 4.20366 19.147C4.20344 19.1853 4.20322 19.2236 4.20298 19.263C4.20238 19.3908 4.20261 19.5187 4.20285 19.6465C4.20259 19.7383 4.20229 19.8302 4.20194 19.922C4.20115 20.1711 4.20112 20.4203 4.20127 20.6694C4.20133 20.8775 4.20104 21.0856 4.20076 21.2937C4.20011 21.7846 4.20009 22.2755 4.20044 22.7664C4.2008 23.2727 4.20007 23.779 4.19883 24.2852C4.19779 24.7201 4.19744 25.155 4.19763 25.5899C4.19774 25.8495 4.19759 26.1091 4.19677 26.3688C4.19604 26.613 4.19615 26.8571 4.19691 27.1013C4.19705 27.1908 4.19689 27.2803 4.19641 27.3698C4.19579 27.4922 4.19627 27.6146 4.19701 27.737C4.197 27.8054 4.19699 27.8738 4.19698 27.9444C4.22198 28.1594 4.28246 28.3006 4.39472 28.4848C4.6 28.6041 4.78209 28.6169 5.01658 28.6181C5.08111 28.6186 5.14565 28.6192 5.21214 28.6197C5.2813 28.6197 5.35046 28.6196 5.42171 28.6196C5.4933 28.6198 5.56488 28.6201 5.63863 28.6203C5.78988 28.6207 5.94113 28.6207 6.09238 28.6205C6.32359 28.6203 6.55476 28.6216 6.78596 28.6231C6.93302 28.6233 7.08008 28.6233 7.22713 28.6232C7.33069 28.6241 7.33069 28.6241 7.43634 28.6249C7.90688 28.629 7.90688 28.629 8.3205 28.4262C8.43898 28.1957 8.45251 28.0014 8.45296 27.7444C8.45319 27.7061 8.45341 27.6679 8.45364 27.6284C8.45425 27.5006 8.45402 27.3728 8.45378 27.2449C8.45404 27.1531 8.45434 27.0613 8.45469 26.9694C8.45547 26.7203 8.45551 26.4711 8.45536 26.222C8.4553 26.0139 8.45558 25.8058 8.45586 25.5978C8.45651 25.1068 8.45654 24.6159 8.45619 24.125C8.45583 23.6187 8.45655 23.1124 8.4578 22.6062C8.45883 22.1713 8.45919 21.7364 8.45899 21.3016C8.45889 21.0419 8.45904 20.7823 8.45986 20.5226C8.46059 20.2785 8.46048 20.0343 8.45971 19.7901C8.45958 19.7006 8.45974 19.6111 8.46022 19.5216C8.46083 19.3992 8.46036 19.2768 8.45962 19.1544C8.45963 19.086 8.45964 19.0176 8.45965 18.9471C8.43465 18.732 8.37417 18.5908 8.26191 18.4066C8.05663 18.2874 7.87454 18.2745 7.64005 18.2734C7.54325 18.2725 7.54325 18.2725 7.44449 18.2717C7.37533 18.2717 7.30617 18.2718 7.23491 18.2718C7.12754 18.2715 7.12754 18.2715 7.018 18.2711C6.86675 18.2707 6.7155 18.2707 6.56425 18.271C6.33304 18.2711 6.10187 18.2698 5.87066 18.2683C5.72361 18.2682 5.57655 18.2681 5.42949 18.2682C5.36046 18.2676 5.29142 18.2671 5.22028 18.2665C4.74975 18.2624 4.74975 18.2624 4.33613 18.4652ZM21.6799 18.4652C21.5614 18.6957 21.5479 18.89 21.5474 19.147C21.5472 19.1853 21.547 19.2236 21.5467 19.263C21.5461 19.3908 21.5464 19.5187 21.5466 19.6465C21.5463 19.7383 21.546 19.8302 21.5457 19.922C21.5449 20.1711 21.5449 20.4203 21.545 20.6694C21.5451 20.8775 21.5448 21.0856 21.5445 21.2937C21.5439 21.7846 21.5438 22.2755 21.5442 22.7664C21.5445 23.2727 21.5438 23.779 21.5426 24.2852C21.5415 24.7201 21.5412 25.155 21.5414 25.5899C21.5415 25.8495 21.5413 26.1091 21.5405 26.3688C21.5398 26.613 21.5399 26.8571 21.5407 27.1013C21.5408 27.1908 21.5406 27.2803 21.5402 27.3698C21.5395 27.4922 21.54 27.6146 21.5408 27.737C21.5408 27.8054 21.5407 27.8738 21.5407 27.9444C21.5657 28.1594 21.6262 28.3006 21.7385 28.4848C21.9437 28.6041 22.1258 28.6169 22.3603 28.6181C22.4249 28.6186 22.4894 28.6192 22.5559 28.6197C22.625 28.6197 22.6942 28.6196 22.7655 28.6196C22.837 28.6198 22.9086 28.6201 22.9824 28.6203C23.1336 28.6207 23.2849 28.6207 23.4361 28.6205C23.6673 28.6203 23.8985 28.6216 24.1297 28.6231C24.2768 28.6233 24.4238 28.6233 24.5709 28.6232C24.6744 28.6241 24.6744 28.6241 24.7801 28.6249C25.2506 28.629 25.2506 28.629 25.6642 28.4262C25.7827 28.1957 25.7963 28.0014 25.7967 27.7444C25.7969 27.7061 25.7972 27.6679 25.7974 27.6284C25.798 27.5006 25.7978 27.3728 25.7975 27.2449C25.7978 27.1531 25.7981 27.0613 25.7984 26.9694C25.7992 26.7203 25.7993 26.4711 25.7991 26.222C25.799 26.0139 25.7993 25.8058 25.7996 25.5978C25.8003 25.1068 25.8003 24.6159 25.7999 24.125C25.7996 23.6187 25.8003 23.1124 25.8015 22.6062C25.8026 22.1713 25.8029 21.7364 25.8027 21.3016C25.8026 21.0419 25.8028 20.7823 25.8036 20.5226C25.8043 20.2785 25.8042 20.0343 25.8035 19.7901C25.8033 19.7006 25.8035 19.6111 25.804 19.5216C25.8046 19.3992 25.8041 19.2768 25.8034 19.1544C25.8034 19.086 25.8034 19.0176 25.8034 18.9471C25.7784 18.732 25.7179 18.5908 25.6057 18.4066C25.4004 18.2874 25.2183 18.2745 24.9838 18.2734C24.887 18.2725 24.887 18.2725 24.7882 18.2717C24.7191 18.2717 24.6499 18.2718 24.5787 18.2718C24.4713 18.2715 24.4713 18.2715 24.3617 18.2711C24.2105 18.2707 24.0592 18.2707 23.908 18.271C23.6768 18.2711 23.4456 18.2698 23.2144 18.2683C23.0674 18.2682 22.9203 18.2681 22.7732 18.2682C22.7042 18.2676 22.6352 18.2671 22.564 18.2665C22.0935 18.2624 22.0935 18.2624 21.6799 18.4652ZM1.99238 20.3402C1.83024 20.5919 1.85827 20.8875 1.8591 21.1772C1.8588 21.2316 1.8585 21.2859 1.85819 21.3419C1.85738 21.5213 1.85743 21.7006 1.85757 21.8799C1.85734 22.0048 1.85708 22.1296 1.8568 22.2545C1.85637 22.5161 1.85638 22.7777 1.85669 23.0393C1.85703 23.3743 1.85604 23.7093 1.85468 24.0443C1.85382 24.3021 1.85377 24.5599 1.85395 24.8177C1.85392 24.9412 1.85361 25.0648 1.85302 25.1883C1.8523 25.3611 1.8527 25.5338 1.85337 25.7066C1.85293 25.7575 1.85248 25.8083 1.85202 25.8608C1.85453 26.1508 1.87815 26.3648 2.05097 26.6098C2.43642 26.785 2.43642 26.785 3.28144 26.727C3.28144 24.5613 3.28144 22.3957 3.28144 20.1645C2.41818 20.0946 2.41818 20.0946 1.99238 20.3402ZM26.7189 20.1645C26.7189 22.3301 26.7189 24.4957 26.7189 26.727C27.5822 26.7968 27.5822 26.7968 28.008 26.5512C28.1701 26.2996 28.1421 26.0039 28.1413 25.7142C28.1416 25.6598 28.1419 25.6055 28.1422 25.5495C28.143 25.3702 28.1429 25.1908 28.1428 25.0115C28.143 24.8866 28.1433 24.7618 28.1436 24.6369C28.144 24.3753 28.144 24.1138 28.1437 23.8522C28.1433 23.5171 28.1443 23.1821 28.1457 22.8471C28.1466 22.5893 28.1466 22.3315 28.1464 22.0737C28.1465 21.9502 28.1468 21.8267 28.1474 21.7032C28.1481 21.5304 28.1477 21.3576 28.147 21.1848C28.1475 21.134 28.1479 21.0831 28.1484 21.0307C28.1458 20.7406 28.1222 20.5267 27.9494 20.2816C27.564 20.1064 27.564 20.1064 26.7189 20.1645ZM9.37519 22.0395C9.37519 22.9676 9.37519 23.8957 9.37519 24.852C13.0877 24.852 16.8002 24.852 20.6252 24.852C20.6252 23.9238 20.6252 22.9957 20.6252 22.0395C16.9127 22.0395 13.2002 22.0395 9.37519 22.0395Z" fill="#D7FB00"/>
<path d="M28.8282 10.7897C28.9747 10.8775 28.9747 10.8775 29.0626 11.024C29.109 11.2596 29.099 11.4321 28.9747 11.6393C28.7675 11.7636 28.5951 11.7735 28.3595 11.7272C28.213 11.6393 28.213 11.6393 28.1251 11.4928C28.0788 11.2572 28.0887 11.0847 28.213 10.8775C28.4202 10.7532 28.5926 10.7433 28.8282 10.7897Z" fill="#D7FB00"/>
</svg>
