<svg width="21" height="20" viewBox="0 0 21 20" fill="none" xmlns="http://www.w3.org/2000/svg">
<g clip-path="url(#clip0_377_2288)">
<path d="M10.0459 20C15.5673 20 20.0459 15.5214 20.0459 10C20.0459 4.47856 15.5673 0 10.0459 0C4.52446 0 0.0458984 4.47856 0.0458984 10C0.0458984 15.5214 4.52446 20 10.0459 20ZM9.33159 4.28572C9.33159 3.89285 9.65303 3.57142 10.0459 3.57142C10.4388 3.57142 10.7602 3.89285 10.7602 4.28572V9.65715L14.0638 12.3C14.3709 12.5464 14.4209 12.9964 14.1745 13.3036C14.0352 13.4786 13.8281 13.5714 13.6173 13.5714C13.4602 13.5714 13.303 13.5214 13.1709 13.4143L9.59949 10.5572C9.43164 10.4214 9.33165 10.2179 9.33165 10V4.28572H9.33159Z" fill="white"/>
</g>
<defs>
<clipPath id="clip0_377_2288">
<rect width="20" height="20" fill="white" transform="translate(0.0458984)"/>
</clipPath>
</defs>
</svg>
