<svg width="21" height="20" viewBox="0 0 21 20" fill="none" xmlns="http://www.w3.org/2000/svg">
<g clip-path="url(#clip0_434_692)">
<path d="M10.5223 -0.00935003C10.5508 -0.00973083 10.5793 -0.0101116 10.6087 -0.010504C11.4842 -0.0197862 12.2787 0.0576371 13.1088 0.35152C13.1721 0.373047 13.1721 0.373047 13.2367 0.395008C14.7766 0.948215 16.009 2.1509 16.7416 3.59371C16.7612 3.63167 16.7807 3.66964 16.8008 3.70876C17.3958 4.94008 17.5758 6.52045 17.2495 7.85152C17.2378 7.90019 17.2378 7.90019 17.2259 7.94984C17.0028 8.85731 16.5911 9.65487 16.0689 10.4242C15.9427 10.6108 15.8222 10.8009 15.7016 10.9912C15.6787 11.0272 15.6559 11.0633 15.6323 11.1004C15.5844 11.1759 15.5365 11.2515 15.4886 11.327C15.3574 11.5336 15.2256 11.7397 15.0937 11.9458C15.0672 11.9872 15.0407 12.0286 15.0134 12.0713C14.8491 12.3277 14.684 12.5836 14.5183 12.8391C14.3727 13.0637 14.2289 13.2896 14.0854 13.5156C13.9253 13.7677 13.7646 14.0194 13.602 14.27C13.3183 14.7072 13.038 15.1467 12.7573 15.5859C12.0186 16.7415 12.0186 16.7415 11.7486 17.1556C11.7033 17.2254 11.6585 17.2955 11.6138 17.3657C11.5731 17.4285 11.5731 17.4285 11.5317 17.4926C11.5088 17.5283 11.486 17.564 11.4624 17.6008C11.354 17.7423 11.2472 17.8341 11.0776 17.8906C10.8592 17.9049 10.7155 17.9031 10.5307 17.7734C10.3037 17.5368 10.1414 17.2422 9.9704 16.9644C9.86983 16.8012 9.76615 16.6401 9.66157 16.4795C9.4982 16.2281 9.3365 15.9757 9.17573 15.7226C8.7844 15.1068 8.39203 14.4917 7.99482 13.8796C7.82533 13.6181 7.65838 13.3549 7.49129 13.0918C7.35307 12.8744 7.214 12.6575 7.07368 12.4414C6.8855 12.1516 6.7 11.8601 6.51475 11.5684C6.37652 11.3509 6.2374 11.1341 6.09711 10.9179C6.06267 10.8647 6.02824 10.8114 5.99381 10.7582C5.93463 10.6666 5.87529 10.5752 5.81568 10.4839C5.52267 10.035 5.24574 9.58959 5.02289 9.10152C5.0018 9.05691 4.9807 9.01229 4.95896 8.96633C4.79474 8.6048 4.68555 8.23653 4.59321 7.85152C4.5867 7.82603 4.58019 7.80054 4.57349 7.77427C4.3498 6.87075 4.40066 5.77805 4.63227 4.88277C4.63958 4.85319 4.6469 4.82362 4.65443 4.79314C4.75971 4.37448 4.91316 3.9819 5.10102 3.59371C5.11305 3.56883 5.12509 3.54396 5.13749 3.51833C5.38471 3.01569 5.69205 2.56729 6.07453 2.1574C6.14908 2.07739 6.21962 1.99526 6.28998 1.91158C7.29047 0.774665 9.01167 0.00743657 10.5223 -0.00935003ZM8.81196 4.45308C8.78879 4.47559 8.76563 4.4981 8.74177 4.52129C8.20537 5.0712 8.01929 5.79892 8.02125 6.5447C8.03107 7.29099 8.32241 7.91543 8.82661 8.45943C8.86044 8.49085 8.89428 8.52227 8.92914 8.55465C8.95165 8.57781 8.97416 8.60097 8.99735 8.62484C9.54726 9.16123 10.275 9.34731 11.0208 9.34536C11.7671 9.33553 12.3915 9.0442 12.9355 8.54C12.9669 8.50616 12.9983 8.47232 13.0307 8.43746C13.0539 8.41495 13.077 8.39244 13.1009 8.36925C13.6373 7.81935 13.8234 7.09162 13.8214 6.34584C13.8116 5.59955 13.5203 4.97511 13.0161 4.43111C12.9822 4.39969 12.9484 4.36827 12.9135 4.3359C12.891 4.31273 12.8685 4.28957 12.8453 4.26571C12.2954 3.72931 11.5677 3.54323 10.8219 3.54519C10.0414 3.55546 9.3443 3.87979 8.81196 4.45308Z" fill="white"/>
<path d="M6.39076 13.4766C6.45152 13.5551 6.45152 13.5551 6.51695 13.6597C6.54155 13.6986 6.56615 13.7375 6.59149 13.7775C6.63111 13.8413 6.63111 13.8413 6.67152 13.9063C6.69944 13.9506 6.72739 13.9949 6.75537 14.0392C6.81354 14.1314 6.87155 14.2236 6.92945 14.3159C7.06097 14.5253 7.19472 14.7333 7.32826 14.9414C7.3801 15.0224 7.43193 15.1033 7.48375 15.1843C7.5095 15.2246 7.53525 15.2648 7.56178 15.3062C7.64251 15.4324 7.7232 15.5586 7.80388 15.6848C8.04688 16.0648 8.28996 16.4448 8.53578 16.823C8.66007 17.0146 8.78222 17.2074 8.90406 17.4006C9.51809 18.3803 9.51809 18.3803 10.5296 18.885C11.0458 18.977 11.516 18.8698 11.9691 18.6148C12.214 18.4431 12.3853 18.26 12.5455 18.0078C12.5654 17.9774 12.5852 17.9469 12.6056 17.9155C12.6699 17.8164 12.7335 17.7168 12.797 17.6172C12.8183 17.5839 12.8396 17.5506 12.8616 17.5163C12.9747 17.3397 13.0873 17.1627 13.1995 16.9855C13.3494 16.7488 13.5004 16.5128 13.6515 16.2769C13.6776 16.2361 13.7036 16.1954 13.7305 16.1535C13.7835 16.0707 13.8365 15.988 13.8895 15.9052C13.9942 15.7417 14.0989 15.5782 14.2035 15.4146C14.2552 15.3338 14.307 15.253 14.3587 15.1722C14.4794 14.9838 14.5999 14.7953 14.7201 14.6066C14.7622 14.5404 14.8044 14.4742 14.8466 14.408C14.8993 14.3254 14.9519 14.2427 15.0044 14.16C15.161 13.9146 15.3234 13.6745 15.4923 13.4375C16.9125 13.7165 18.5993 14.2755 19.4538 15.5231C19.7275 15.9735 19.7785 16.455 19.6871 16.9713C19.4456 17.7808 18.6916 18.2913 17.9864 18.6728C17.5611 18.8977 17.122 19.0719 16.6642 19.2188C16.6134 19.2351 16.6134 19.2351 16.5616 19.2517C15.5769 19.5631 14.5633 19.7568 13.5392 19.8828C13.4934 19.8887 13.4475 19.8946 13.4003 19.9007C11.7429 20.1052 9.96035 20.0991 8.30482 19.8828C8.25123 19.876 8.19764 19.8693 8.14405 19.8625C6.18853 19.6116 3.77343 19.1749 2.45049 17.5674C2.13841 17.1363 2.07649 16.6505 2.13295 16.1328C2.27094 15.4616 2.79972 14.9587 3.34648 14.59C4.09455 14.1047 4.92671 13.8167 5.77797 13.5693C5.8255 13.5555 5.87303 13.5416 5.922 13.5273C5.98825 13.5087 5.98825 13.5087 6.05583 13.4897C6.09507 13.4786 6.13431 13.4676 6.17475 13.4562C6.27357 13.4375 6.27357 13.4375 6.39076 13.4766Z" fill="white"/>
</g>
<defs>
<clipPath id="clip0_434_692">
<rect width="20" height="20" fill="white" transform="translate(0.921875)"/>
</clipPath>
</defs>
</svg>
