<svg width="30" height="30" viewBox="0 0 30 30" fill="none" xmlns="http://www.w3.org/2000/svg">
<path d="M15.1756 1.46489C15.3715 1.53562 15.4069 1.57742 15.5272 1.75786C15.5424 1.88299 15.5424 1.88299 15.5432 2.03061C15.5438 2.08664 15.5444 2.14266 15.545 2.20038C15.5451 2.26175 15.5451 2.32311 15.5451 2.38634C15.5456 2.45105 15.5461 2.51575 15.5466 2.58242C15.548 2.79692 15.5485 3.01141 15.5489 3.22591C15.5494 3.37472 15.55 3.52352 15.5505 3.67233C15.5515 3.98452 15.5519 4.29671 15.5521 4.6089C15.5523 4.96953 15.5541 5.33014 15.5565 5.69077C15.5588 6.03788 15.5595 6.38498 15.5595 6.7321C15.5598 6.8797 15.5605 7.0273 15.5617 7.17489C15.5633 7.38126 15.563 7.58754 15.5623 7.7939C15.5636 7.8856 15.5636 7.8856 15.5649 7.97915C15.5607 8.39388 15.5607 8.39388 15.386 8.62137C15.1699 8.77681 15.0046 8.79386 14.7449 8.81017C12.9366 8.9406 11.4626 9.60723 10.2501 10.99C9.72661 11.6376 9.33949 12.3929 9.08187 13.1836C9.06955 13.2215 9.05723 13.2593 9.04453 13.2982C8.54434 14.9216 8.82949 16.5874 9.59113 18.0632C10.3742 19.4748 11.7265 20.5515 13.2776 20.9999C14.992 21.4312 16.6977 21.155 18.2225 20.2735C19.7306 19.3124 20.7133 17.8731 21.1009 16.1316C21.1376 15.9414 21.1589 15.7527 21.1748 15.5599C21.179 15.513 21.1832 15.4662 21.1875 15.4179C21.1955 15.3243 21.2024 15.2305 21.2079 15.1366C21.2117 15.093 21.2154 15.0494 21.2192 15.0044C21.2232 14.946 21.2232 14.946 21.2272 14.8865C21.2975 14.6851 21.3929 14.6031 21.5623 14.4727C21.7742 14.4289 21.983 14.4333 22.1987 14.4357C22.295 14.4351 22.295 14.4351 22.3931 14.4345C22.6051 14.4335 22.817 14.4346 23.029 14.4359C23.1763 14.4358 23.3237 14.4357 23.471 14.4354C23.7797 14.4353 24.0884 14.4361 24.3972 14.4377C24.7538 14.4396 25.1103 14.4396 25.4669 14.4386C25.8104 14.4377 26.1538 14.4381 26.4973 14.4391C26.6433 14.4394 26.7892 14.4393 26.9352 14.439C27.1392 14.4387 27.3431 14.4398 27.547 14.4414C27.6376 14.4409 27.6376 14.4409 27.7301 14.4403C27.9898 14.4438 28.1408 14.4466 28.366 14.5845C28.4992 14.7323 28.532 14.7903 28.5496 14.9891C28.533 15.2017 28.4894 15.3014 28.3592 15.4688C28.1953 15.5685 28.0739 15.6005 27.8831 15.5993C27.8362 15.5993 27.7893 15.5993 27.7409 15.5993C27.6659 15.5984 27.6659 15.5984 27.5893 15.5974C27.5376 15.5973 27.4859 15.5971 27.4326 15.5969C27.2678 15.5963 27.1031 15.5948 26.9383 15.5933C26.8265 15.5927 26.7146 15.5922 26.6028 15.5917C26.3289 15.5904 26.055 15.5884 25.7811 15.586C25.7755 15.6281 25.77 15.6702 25.7642 15.7135C25.4912 17.7455 24.9556 19.6485 23.7303 21.3282C23.6863 21.3895 23.6424 21.4508 23.5971 21.514C22.6071 22.855 21.3271 23.8903 19.8631 24.668C19.8262 24.6878 19.7892 24.7075 19.7512 24.7279C19.2692 24.981 18.7659 25.1626 18.2518 25.3382C18.1916 25.359 18.1314 25.3798 18.0693 25.4012C17.7586 25.5037 17.4955 25.5819 17.1678 25.5469C16.995 25.4568 16.9014 25.391 16.8378 25.2029C16.8022 25.0031 16.8063 24.8717 16.8748 24.679C17.1129 24.4186 17.4992 24.341 17.8281 24.2376C18.4424 24.0438 19.0068 23.807 19.5702 23.4961C19.6326 23.4624 19.6951 23.4286 19.7594 23.3938C21.9602 22.1611 23.5336 20.0474 24.2389 17.6425C24.4201 16.9769 24.5596 16.2768 24.5506 15.586C24.2607 15.5845 23.9708 15.5835 23.6809 15.5828C23.5822 15.5825 23.4835 15.5821 23.3849 15.5816C23.2432 15.5809 23.1016 15.5805 22.9599 15.5803C22.9156 15.58 22.8714 15.5797 22.8258 15.5793C22.5967 15.5747 22.5967 15.5747 22.3827 15.6446C22.3434 15.766 22.3434 15.766 22.3174 15.9142C22.3061 15.9703 22.2948 16.0264 22.2832 16.0842C22.2713 16.1446 22.2594 16.2049 22.2472 16.2671C21.83 18.2583 20.8106 20.0016 19.0877 21.1439C18.1135 21.7694 17.0826 22.1325 15.9411 22.3272C15.7467 22.3469 15.7467 22.3469 15.5858 22.4415C15.5797 22.6203 15.5774 22.798 15.5775 22.9769C15.5773 23.0331 15.5771 23.0893 15.5768 23.1472C15.5764 23.2697 15.5761 23.3923 15.5759 23.5148C15.5755 23.7085 15.5746 23.9023 15.5735 24.0961C15.5704 24.6472 15.5676 25.1983 15.5667 25.7494C15.5661 26.0861 15.5644 26.4228 15.5619 26.7594C15.5612 26.8879 15.5609 27.0165 15.561 27.145C15.5612 27.3247 15.5599 27.5044 15.5582 27.6841C15.5586 27.7374 15.559 27.7907 15.5594 27.8456C15.554 28.2066 15.554 28.2066 15.4154 28.3906C15.2066 28.5371 15.0795 28.5505 14.8241 28.5352C14.6282 28.4645 14.5928 28.4227 14.4725 28.2422C14.4597 28.0696 14.4534 27.9021 14.4524 27.7293C14.4515 27.6791 14.4506 27.6289 14.4498 27.5772C14.4461 27.3623 14.4438 27.1475 14.4413 26.9326C14.4394 26.7758 14.4367 26.619 14.434 26.4622C14.4337 26.4134 14.4334 26.3646 14.4331 26.3143C14.4399 26.0493 14.4399 26.0493 14.2967 25.8399C14.1582 25.8075 14.1582 25.8075 13.9953 25.7895C13.9332 25.7812 13.8711 25.7728 13.8072 25.7642C13.7403 25.7553 13.6735 25.7465 13.6046 25.7374C10.8226 25.3382 8.20256 23.8794 6.49779 21.6189C5.74928 20.5966 5.16767 19.4844 4.77889 18.2776C4.76441 18.233 4.74993 18.1885 4.73502 18.1425C4.50395 17.3904 4.50395 17.3904 4.63973 17.0545C4.75655 16.9216 4.80941 16.8626 4.98031 16.8165C5.31513 16.8165 5.31513 16.8165 5.44906 16.875C5.67775 17.1481 5.75713 17.4364 5.84823 17.7759C6.5105 20.101 8.0873 22.1732 10.1988 23.368C10.3527 23.452 10.5079 23.5333 10.6639 23.6133C10.6997 23.632 10.7356 23.6506 10.7725 23.6698C11.5661 24.0777 12.4064 24.3343 13.2786 24.5142C13.3258 24.524 13.3729 24.5339 13.4215 24.544C13.7374 24.6048 14.0336 24.6227 14.3553 24.6094C14.4582 24.5065 14.4214 24.3716 14.422 24.2345C14.4219 24.1903 14.4218 24.1461 14.4217 24.1006C14.4217 24.0555 14.4218 24.0103 14.4219 23.9638C14.4219 23.8681 14.4218 23.7724 14.4215 23.6767C14.4212 23.5299 14.4215 23.3832 14.4219 23.2365C14.4219 23.1437 14.4218 23.0509 14.4217 22.958C14.4219 22.8919 14.4219 22.8919 14.422 22.8245C14.4254 22.5962 14.4254 22.5962 14.3553 22.3829C14.232 22.3455 14.232 22.3455 14.0811 22.3217C13.9948 22.3057 13.9948 22.3057 13.9067 22.2893C13.8133 22.2722 13.8133 22.2722 13.7181 22.2547C11.7562 21.8681 10.0458 20.8271 8.90609 19.1602C8.25577 18.1781 7.89036 17.1157 7.70949 15.9581C7.68676 15.77 7.68676 15.77 7.61703 15.6446C7.4588 15.5918 7.36819 15.5786 7.20591 15.5783C7.15819 15.5781 7.11046 15.5778 7.06129 15.5776C6.98307 15.5776 6.98307 15.5776 6.90327 15.5777C6.84819 15.5775 6.7931 15.5773 6.73635 15.5771C6.61665 15.5766 6.49695 15.5763 6.37724 15.5761C6.18789 15.5757 5.99854 15.5748 5.80919 15.5737C5.27078 15.5706 4.73238 15.5678 4.19397 15.5669C3.86475 15.5663 3.53555 15.5646 3.20634 15.5621C3.08078 15.5614 2.95521 15.5611 2.82964 15.5612C2.65413 15.5614 2.4787 15.5601 2.3032 15.5584C2.25118 15.5588 2.19915 15.5592 2.14555 15.5596C1.79311 15.5542 1.79311 15.5542 1.61003 15.4156C1.46271 15.2074 1.43509 15.0807 1.46468 14.8243C1.66646 14.498 1.66646 14.498 1.87353 14.4406C2.01434 14.4283 2.15146 14.4271 2.29278 14.4297C2.34397 14.4291 2.39516 14.4286 2.4479 14.4281C2.61092 14.4267 2.77382 14.4276 2.93685 14.4288C3.10026 14.4287 3.26365 14.4281 3.42706 14.4269C3.52859 14.4263 3.63013 14.4264 3.73166 14.4273C4.02166 14.4278 4.02166 14.4278 4.27718 14.2969C4.313 14.1761 4.313 14.1761 4.3225 14.0339C4.32833 13.9798 4.33417 13.9257 4.34018 13.87C4.34598 13.8115 4.35178 13.753 4.35775 13.6927C4.61373 11.4854 5.47186 9.38851 6.97249 7.73442C7.0197 7.68087 7.06691 7.62732 7.11555 7.57215C7.24205 7.42937 7.3703 7.28851 7.49984 7.14849C7.53118 7.11397 7.56253 7.07945 7.59482 7.04389C8.64048 5.94086 10.0844 5.14001 11.4952 4.62163C11.5568 4.59874 11.6184 4.57585 11.6818 4.55226C12.0197 4.43311 12.2975 4.35681 12.6561 4.39458C12.8402 4.5135 12.9278 4.59787 12.979 4.81412C12.9981 5.06798 12.9981 5.06798 12.9491 5.21489C12.7042 5.46653 12.4688 5.56719 12.1324 5.66167C11.1998 5.94918 10.2712 6.38067 9.49202 6.9727C9.4421 7.01047 9.39217 7.04823 9.34073 7.08714C8.98567 7.36421 8.64943 7.66172 8.32015 7.9688C8.27612 8.00966 8.23208 8.05052 8.18671 8.09262C7.5988 8.65781 7.14361 9.31508 6.73812 10.0196C6.71864 10.0529 6.69916 10.0863 6.6791 10.1206C5.97365 11.3377 5.3907 12.9304 5.50765 14.3555C5.60727 14.4551 5.73181 14.4216 5.86468 14.4223C5.90631 14.4221 5.94793 14.422 5.99082 14.4219C6.03338 14.4219 6.07593 14.422 6.11978 14.4221C6.20997 14.4221 6.30016 14.422 6.39035 14.4217C6.52859 14.4214 6.66682 14.4217 6.80507 14.4221C6.89254 14.4221 6.98001 14.422 7.06748 14.4219C7.10899 14.422 7.15049 14.4221 7.19326 14.4223C7.41246 14.4245 7.41246 14.4245 7.61703 14.3555C7.65539 14.2293 7.65539 14.2293 7.6802 14.0751C7.69121 14.0167 7.70221 13.9582 7.71356 13.898C7.72521 13.8351 7.73686 13.7722 7.74886 13.7073C8.12471 11.8118 9.14904 10.0363 10.7781 8.93589C11.767 8.29333 12.7932 7.88895 13.9573 7.69591C14.0081 7.68725 14.059 7.67858 14.1113 7.66965C14.157 7.66231 14.2026 7.65497 14.2496 7.6474C14.2845 7.63745 14.3194 7.62749 14.3553 7.61724C14.4559 7.41608 14.4223 7.18473 14.4222 6.96335C14.4224 6.9077 14.4226 6.85205 14.4228 6.79472C14.4233 6.67361 14.4236 6.5525 14.4238 6.43139C14.4242 6.23982 14.4251 6.04827 14.4262 5.8567C14.4293 5.31195 14.4321 4.7672 14.433 4.22243C14.4336 3.88948 14.4353 3.55655 14.4378 3.22361C14.4385 3.09657 14.4388 2.96953 14.4387 2.84249C14.4385 2.66488 14.4398 2.48733 14.4414 2.30972C14.4411 2.25706 14.4407 2.20439 14.4403 2.15013C14.4456 1.79341 14.4456 1.79341 14.5843 1.60984C14.793 1.46282 14.92 1.44955 15.1756 1.46489Z" fill="#202737"/>
<path d="M23.4958 3.57412C23.6975 3.6986 23.7721 3.75861 23.8474 3.98428C23.8557 4.15202 23.861 4.3186 23.8638 4.48645C23.8649 4.53548 23.866 4.58451 23.8671 4.63503C23.8717 4.84494 23.8757 5.05486 23.8797 5.26479C23.8827 5.41794 23.8861 5.57109 23.8895 5.72424C23.8907 5.79601 23.8907 5.79601 23.8919 5.86924C23.8762 6.08724 23.8762 6.08724 23.9645 6.26944C24.1258 6.27665 24.2857 6.28034 24.447 6.2818C24.547 6.28344 24.6469 6.28512 24.7469 6.28683C24.9049 6.28924 25.0629 6.29141 25.2209 6.29295C25.3731 6.29457 25.5253 6.29726 25.6775 6.30011C25.748 6.30039 25.748 6.30039 25.8199 6.30068C26.0884 6.30656 26.2664 6.33009 26.4841 6.50381C26.6342 6.72899 26.6407 6.82221 26.6013 7.08975C26.2835 7.55879 25.8027 7.95649 25.4031 8.35638C25.3267 8.43293 25.2503 8.50949 25.174 8.58605C25.0148 8.74561 24.8554 8.90506 24.696 9.06443C24.4918 9.26864 24.288 9.47325 24.0843 9.67797C23.9271 9.8358 23.7697 9.99337 23.6121 10.1509C23.5368 10.2262 23.4616 10.3017 23.3865 10.3772C23.2818 10.4825 23.1767 10.5875 23.0715 10.6923C23.0407 10.7235 23.0098 10.7547 22.9781 10.7868C22.7892 10.974 22.642 11.1176 22.3723 11.1463C22.3264 11.1458 22.2804 11.1454 22.2331 11.1449C22.1807 11.1447 22.1282 11.1446 22.0742 11.1444C22.018 11.1438 21.9617 11.1432 21.9037 11.1426C21.7838 11.1429 21.6638 11.1433 21.5439 11.1438C21.3554 11.1441 21.1669 11.1437 20.9784 11.1418C20.7961 11.1402 20.6139 11.1412 20.4315 11.1426C20.3478 11.1408 20.3478 11.1408 20.2624 11.1389C19.8893 11.1443 19.7013 11.23 19.4365 11.4938C19.4032 11.5293 19.3699 11.5649 19.3356 11.6015C19.3011 11.6348 19.2665 11.6682 19.2308 11.7025C19.0622 11.8654 18.9048 12.0342 18.7533 12.2131C18.4479 12.5634 18.116 12.8881 17.7873 13.2162C17.7172 13.2863 17.6471 13.3565 17.577 13.4266C17.4311 13.5726 17.2851 13.7185 17.139 13.8644C16.9515 14.0515 16.7644 14.2388 16.5773 14.4263C16.4331 14.5707 16.2887 14.715 16.1443 14.8592C16.0752 14.9283 16.0061 14.9974 15.9371 15.0666C15.841 15.1628 15.7448 15.2588 15.6485 15.3548C15.5938 15.4094 15.5391 15.4641 15.4827 15.5204C15.2886 15.7035 15.1538 15.7276 14.885 15.7227C14.7653 15.703 14.7653 15.703 14.5895 15.5858C14.4689 15.4049 14.4213 15.2817 14.4377 15.0626C14.5732 14.5885 15.208 14.1403 15.5536 13.7971C15.6666 13.6848 15.7794 13.5724 15.8922 13.4599C16.1722 13.1807 16.4525 12.9018 16.7327 12.6229C16.9702 12.3866 17.2076 12.1502 17.4448 11.9136C17.5553 11.8035 17.6659 11.6936 17.7765 11.5837C18.0845 11.277 18.3899 10.9716 18.6703 10.6389C18.7519 10.5442 18.8321 10.4543 18.9255 10.371C18.9642 10.371 19.0028 10.371 19.0427 10.371C19.0413 10.3208 19.0413 10.3208 19.0399 10.2696C19.0308 9.9198 19.0246 9.57004 19.0201 9.22015C19.0181 9.08977 19.0153 8.9594 19.0117 8.82905C19.0067 8.6411 19.0044 8.45329 19.0026 8.26529C18.9994 8.17856 18.9994 8.17856 18.9962 8.09008C18.996 7.80793 19.0139 7.61304 19.1999 7.39393C19.2832 7.31099 19.3677 7.2293 19.4528 7.14834C19.5105 7.08924 19.5678 7.02985 19.6249 6.97023C20.0317 6.5459 20.4464 6.1292 20.8603 5.71178C21.0699 5.50034 21.2791 5.28845 21.4871 5.07544C21.6895 4.86833 21.8929 4.66239 22.0972 4.45722C22.1746 4.37913 22.2515 4.30063 22.3281 4.22173C22.4351 4.11162 22.5434 4.00308 22.6522 3.89479C22.6833 3.8621 22.7144 3.82942 22.7465 3.79574C22.9998 3.54853 23.1594 3.53364 23.4958 3.57412ZM22.4411 5.74209C22.052 6.06809 21.6923 6.42143 21.3337 6.78007C21.2366 6.87706 21.139 6.97357 21.0414 7.07006C20.8874 7.2229 20.7361 7.37795 20.5865 7.53503C20.5162 7.60803 20.4441 7.67923 20.3718 7.75016C20.0208 8.1307 20.0453 8.51809 20.0644 9.01602C20.0653 9.09321 20.0661 9.1704 20.067 9.24994C20.06 9.65755 20.06 9.65755 20.2145 10.0194C20.8021 10.2236 21.5681 10.2654 22.1481 10.0194C22.6047 9.73426 22.9796 9.34466 23.3493 8.95742C23.3975 8.90709 23.4457 8.85675 23.4953 8.80489C23.6336 8.65827 23.7695 8.51 23.9041 8.36004C23.9656 8.29161 23.9656 8.29161 24.0283 8.2218C24.229 7.98801 24.3668 7.82176 24.3747 7.4999C24.2031 7.4021 24.0791 7.36826 23.8821 7.3667C23.8337 7.36549 23.7853 7.36428 23.7354 7.36303C23.6343 7.36151 23.5331 7.36044 23.4319 7.35983C23.0616 7.34943 23.0616 7.34943 22.8787 7.21563C22.7549 7.03449 22.7262 6.88014 22.7155 6.66609C22.7131 6.61907 22.7106 6.57205 22.7081 6.52361C22.7058 6.47478 22.7035 6.42595 22.7011 6.37564C22.6986 6.32613 22.6961 6.27662 22.6934 6.2256C22.6872 6.10351 22.6813 5.98139 22.6755 5.85928C22.5981 5.82061 22.5208 5.78194 22.4411 5.74209Z" fill="#202737"/>
<path d="M15.3429 10.7723C15.4692 10.8984 15.4692 10.8984 15.5278 11.0669C15.5278 11.2922 15.4723 11.4125 15.352 11.6015C15.1641 11.7268 15.0329 11.7425 14.8125 11.7676C13.859 11.8793 13.0494 12.2586 12.4363 13.0185C11.896 13.7819 11.6783 14.612 11.803 15.5387C11.9693 16.391 12.433 17.1524 13.1474 17.655C13.9951 18.1754 14.8429 18.3604 15.8208 18.1311C16.6366 17.9208 17.2843 17.448 17.7324 16.7333C18.015 16.2026 18.1458 15.6596 18.2032 15.0661C18.2327 14.8291 18.268 14.6919 18.4522 14.5319C18.6601 14.3966 18.7426 14.3636 18.9848 14.414C19.1312 14.5092 19.2293 14.5744 19.3364 14.707C19.3706 14.88 19.3815 14.9971 19.373 15.1684C19.3717 15.2122 19.3704 15.256 19.3691 15.3011C19.3209 16.3164 18.8986 17.2368 18.2231 17.9882C18.1927 18.024 18.1624 18.0598 18.1311 18.0967C17.3997 18.9017 16.2971 19.3159 15.2348 19.3945C15.1968 19.3977 15.1587 19.4008 15.1195 19.4041C14.0261 19.4504 12.9337 19.0336 12.1184 18.3178C12.0234 18.2285 11.9293 18.1382 11.8364 18.0468C11.7996 18.0108 11.7628 17.9748 11.7249 17.9377C10.9457 17.1125 10.5888 15.9904 10.6082 14.8695C10.671 13.665 11.1623 12.5754 12.0376 11.7405C12.7525 11.1137 14.4234 10.1749 15.3429 10.7723Z" fill="#202737"/>
</svg>
