<svg width="21" height="20" viewBox="0 0 21 20" fill="none" xmlns="http://www.w3.org/2000/svg">
<g clip-path="url(#clip0_377_2278)">
<path d="M2.32966 2.95392C2.40062 2.95378 2.47157 2.95359 2.54252 2.95336C2.73685 2.95287 2.93118 2.95311 3.12551 2.95348C3.33533 2.95374 3.54516 2.95333 3.75499 2.95301C4.16579 2.95249 4.57658 2.9526 4.98738 2.95294C5.32127 2.95321 5.65515 2.95324 5.98904 2.95311C6.03658 2.9531 6.08411 2.95308 6.13309 2.95306C6.22966 2.95302 6.32623 2.95298 6.4228 2.95295C7.32817 2.95261 8.23353 2.953 9.1389 2.95363C9.9156 2.95415 10.6923 2.95406 11.469 2.95352C12.3712 2.95289 13.2733 2.95264 14.1754 2.953C14.2717 2.95304 14.3679 2.95308 14.4641 2.95311C14.5114 2.95313 14.5588 2.95315 14.6075 2.95317C14.941 2.95327 15.2744 2.9531 15.6079 2.95282C16.0143 2.9525 16.4207 2.95258 16.8271 2.95321C17.0345 2.95352 17.2418 2.95364 17.4491 2.95325C17.639 2.9529 17.8288 2.95309 18.0187 2.95372C18.0873 2.95385 18.1559 2.95378 18.2245 2.9535C18.5676 2.95218 18.8879 2.9529 19.2109 3.08598C19.153 3.20734 19.0948 3.28914 18.9981 3.38322C18.958 3.42265 18.958 3.42265 18.9171 3.46288C18.8752 3.50351 18.8752 3.50351 18.8325 3.54497C18.7777 3.59837 18.7231 3.65188 18.6685 3.70549C18.6321 3.74082 18.6321 3.74082 18.595 3.77686C18.5222 3.85236 18.454 3.92922 18.3857 4.00874C18.235 4.18134 18.0759 4.34402 17.9139 4.50597C17.8827 4.53728 17.8515 4.5686 17.8194 4.60087C17.7157 4.70507 17.6117 4.80914 17.5078 4.9132C17.4331 4.98815 17.3584 5.06313 17.2837 5.1381C17.0603 5.36231 16.8366 5.58633 16.613 5.81034C16.5075 5.91597 16.4021 6.02161 16.2966 6.12726C15.946 6.47853 15.5954 6.82975 15.2446 7.18083C15.1538 7.27169 15.063 7.36256 14.9722 7.45343C14.9384 7.4873 14.9384 7.4873 14.9038 7.52186C14.5376 7.88842 14.1717 8.25531 13.8059 8.62234C13.43 8.99952 13.0539 9.37641 12.6774 9.75301C12.4662 9.96432 12.2551 10.1758 12.0443 10.3875C11.865 10.5677 11.6854 10.7476 11.5055 10.9271C11.4138 11.0187 11.3222 11.1104 11.2308 11.2024C11.1318 11.3021 11.0323 11.4013 10.9327 11.5005C10.9039 11.5296 10.8752 11.5588 10.8455 11.5889C10.6295 11.8022 10.4668 11.8807 10.1571 11.8892C9.8521 11.8394 9.67695 11.66 9.46776 11.4478C9.43565 11.4159 9.40355 11.3839 9.37048 11.351C9.28181 11.2626 9.19351 11.1739 9.10535 11.085C9.01004 10.9891 8.91428 10.8937 8.81857 10.7982C8.63127 10.6111 8.44438 10.4236 8.25763 10.236C8.03997 10.0174 7.82187 9.7992 7.60376 9.58101C7.21443 9.19153 6.82547 8.80169 6.43672 8.41163C6.05987 8.03352 5.6828 7.65562 5.30547 7.27798C5.28224 7.25474 5.25902 7.23149 5.23509 7.20754C5.14171 7.1141 5.04834 7.02065 4.95497 6.9272C4.59494 6.56688 4.23507 6.20639 3.87523 5.84588C3.76666 5.7371 3.65808 5.62834 3.54949 5.51958C3.32115 5.29089 3.09287 5.06214 2.86476 4.83322C2.77047 4.7386 2.67615 4.644 2.58175 4.54949C2.47922 4.4468 2.37681 4.344 2.27443 4.24116C2.23008 4.19682 2.23008 4.19682 2.18483 4.15159C2.02762 3.99338 1.87687 3.83181 1.73191 3.66227C1.62225 3.53718 1.50172 3.42342 1.38158 3.30846C1.33372 3.26173 1.28776 3.21306 1.24219 3.16411C1.24219 3.13833 1.24219 3.11255 1.24219 3.08598C1.59641 2.94004 1.95411 2.95236 2.32966 2.95392Z" fill="white"/>
<path d="M7.21875 10.8203C7.34973 10.8824 7.43477 10.9494 7.53652 11.0536C7.56797 11.0855 7.59942 11.1175 7.63182 11.1504C7.68242 11.2024 7.68242 11.2024 7.73404 11.2553C7.78781 11.3098 7.84158 11.3643 7.89537 11.4188C8.02756 11.5528 8.15932 11.6872 8.29084 11.8218C8.36464 11.8973 8.43865 11.9725 8.51289 12.0476C8.58253 12.1181 8.65186 12.1888 8.72081 12.2599C9.14704 12.6897 9.59904 12.9602 10.2119 12.9785C11.0332 12.9684 11.5187 12.4654 12.0652 11.9151C12.0968 11.8835 12.1283 11.852 12.1608 11.8194C12.26 11.72 12.359 11.6205 12.458 11.521C12.5258 11.453 12.5937 11.3849 12.6616 11.3169C12.8266 11.1515 12.9915 10.9859 13.1562 10.8203C13.3093 10.8825 13.4125 10.9876 13.5267 11.103C13.5478 11.124 13.569 11.1451 13.5908 11.1668C13.6617 11.2374 13.7322 11.3083 13.8028 11.3793C13.8536 11.43 13.9043 11.4807 13.9551 11.5313C14.0931 11.6691 14.2308 11.8071 14.3684 11.9452C14.5126 12.0897 14.657 12.234 14.8014 12.3784C15.0441 12.6211 15.2866 12.8639 15.5289 13.1068C15.8087 13.3873 16.0888 13.6675 16.3689 13.9476C16.6674 14.2461 16.9658 14.5448 17.2642 14.8435C17.3499 14.9293 17.4357 15.0151 17.5215 15.1009C17.6568 15.2362 17.7919 15.3716 17.927 15.507C17.9764 15.5566 18.0258 15.6061 18.0753 15.6556C18.5287 16.1088 18.5287 16.1088 18.7274 16.344C18.8342 16.4675 18.9536 16.5787 19.0715 16.6916C19.1194 16.7383 19.1654 16.787 19.2109 16.8359C19.2109 16.8617 19.2109 16.8875 19.2109 16.9141C18.8567 17.06 18.499 17.0477 18.1235 17.0461C18.0525 17.0463 17.9816 17.0465 17.9106 17.0467C17.7163 17.0472 17.5219 17.0469 17.3276 17.0466C17.1178 17.0463 16.908 17.0467 16.6981 17.047C16.2873 17.0476 15.8765 17.0474 15.4657 17.0471C15.1319 17.0468 14.798 17.0468 14.4641 17.0469C14.4165 17.0469 14.369 17.047 14.32 17.047C14.2235 17.047 14.1269 17.0471 14.0303 17.0471C13.125 17.0474 12.2196 17.0471 11.3142 17.0464C10.5375 17.0459 9.76082 17.046 8.98412 17.0465C8.08197 17.0472 7.17983 17.0474 6.27768 17.047C6.18147 17.047 6.08526 17.047 5.98904 17.0469C5.9417 17.0469 5.89437 17.0469 5.84559 17.0469C5.51214 17.0468 5.17868 17.0469 4.84523 17.0472C4.43881 17.0476 4.0324 17.0475 3.62598 17.0468C3.41866 17.0465 3.21134 17.0464 3.00401 17.0468C2.81414 17.0471 2.62428 17.047 2.43441 17.0463C2.36581 17.0462 2.2972 17.0463 2.2286 17.0466C1.88552 17.0479 1.5652 17.0471 1.24219 16.9141C1.29647 16.8011 1.34767 16.7213 1.43796 16.6339C1.46115 16.6112 1.48433 16.5884 1.50822 16.5649C1.53242 16.5416 1.55661 16.5182 1.58154 16.4941C1.72043 16.3593 1.85693 16.2251 1.98181 16.077C2.18885 15.8391 2.41462 15.6193 2.63782 15.3968C2.6879 15.3467 2.73797 15.2967 2.78803 15.2466C2.92319 15.1114 3.05847 14.9764 3.19377 14.8413C3.33544 14.6999 3.47699 14.5584 3.61855 14.4169C3.8863 14.1492 4.15414 13.8817 4.42203 13.6142C4.72714 13.3095 5.03214 13.0048 5.33714 12.7C5.96422 12.0733 6.59144 11.4468 7.21875 10.8203Z" fill="white"/>
<path d="M0.381897 3.94531C0.54536 4.02038 0.657113 4.13175 0.782348 4.25824C0.806727 4.28256 0.831107 4.30687 0.856225 4.33192C0.93798 4.41354 1.01945 4.49545 1.10093 4.57735C1.15943 4.63588 1.21795 4.69438 1.27649 4.75288C1.43548 4.91185 1.59423 5.07106 1.75294 5.23031C1.9188 5.39665 2.08487 5.56278 2.25093 5.72892C2.56539 6.04363 2.87966 6.35854 3.19386 6.67352C3.55155 7.03208 3.90946 7.39042 4.26738 7.74874C5.00372 8.48589 5.73978 9.22332 6.47565 9.96094C6.41111 10.1271 6.28719 10.2384 6.16324 10.3614C6.13899 10.3858 6.11473 10.4101 6.08974 10.4353C6.00829 10.517 5.92657 10.5985 5.84485 10.68C5.78645 10.7385 5.72807 10.797 5.6697 10.8555C5.51106 11.0145 5.35217 11.1733 5.19322 11.332C5.02715 11.4979 4.86126 11.6639 4.69535 11.83C4.41675 12.1087 4.138 12.3873 3.85915 12.6657C3.53633 12.9881 3.21379 13.3108 2.8914 13.6336C2.61493 13.9105 2.33832 14.1871 2.06158 14.4637C1.89614 14.629 1.73075 14.7944 1.5655 14.9599C1.41024 15.1153 1.25479 15.2706 1.09919 15.4258C1.04196 15.4829 0.984794 15.5401 0.9277 15.5974C0.850079 15.6752 0.772225 15.7528 0.694302 15.8303C0.67148 15.8533 0.648659 15.8763 0.625146 15.9C0.46894 16.0547 0.46894 16.0547 0.381897 16.0547C0.248187 15.7461 0.203044 15.4838 0.205806 15.1491C0.205562 15.1031 0.205319 15.0571 0.205068 15.0097C0.204556 14.8832 0.204735 14.7568 0.205222 14.6303C0.205577 14.4934 0.205029 14.3566 0.2046 14.2197C0.203907 13.9521 0.204054 13.6844 0.204508 13.4168C0.204862 13.1992 0.204908 12.9815 0.204739 12.7639C0.204715 12.7329 0.204691 12.7018 0.204666 12.6699C0.204616 12.6068 0.204566 12.5437 0.204514 12.4806C0.204069 11.89 0.20458 11.2994 0.20542 10.7088C0.206119 10.2026 0.205997 9.69649 0.205277 9.19033C0.20444 8.60174 0.204112 8.01316 0.204591 7.42457C0.204641 7.36174 0.20469 7.29891 0.204739 7.23608C0.204763 7.20517 0.204787 7.17427 0.204812 7.14242C0.204946 6.9252 0.20472 6.70797 0.204351 6.49075C0.203912 6.22582 0.204034 5.9609 0.204864 5.69598C0.205273 5.56095 0.205438 5.42594 0.204919 5.29091C0.20449 5.14422 0.205029 4.99756 0.205806 4.85087C0.205458 4.80865 0.205109 4.76642 0.20475 4.72291C0.207678 4.43705 0.268354 4.20733 0.381897 3.94531Z" fill="white"/>
<path d="M20.0703 3.94531C20.204 4.25387 20.2492 4.51617 20.2464 4.85087C20.2466 4.89688 20.2469 4.94288 20.2471 4.99028C20.2477 5.11676 20.2475 5.24321 20.247 5.36968C20.2466 5.50655 20.2472 5.64342 20.2476 5.78028C20.2483 6.04793 20.2482 6.31556 20.2477 6.5832C20.2473 6.80083 20.2473 7.01846 20.2475 7.23608C20.2475 7.26712 20.2475 7.29816 20.2475 7.33015C20.2476 7.39322 20.2476 7.45628 20.2477 7.51935C20.2481 8.10997 20.2476 8.70059 20.2468 9.29121C20.2461 9.79736 20.2462 10.3035 20.2469 10.8097C20.2478 11.3983 20.2481 11.9868 20.2476 12.5754C20.2476 12.6383 20.2475 12.7011 20.2475 12.7639C20.2474 12.8103 20.2474 12.8103 20.2474 12.8576C20.2473 13.0748 20.2475 13.292 20.2479 13.5092C20.2483 13.7742 20.2482 14.0391 20.2473 14.304C20.2469 14.4391 20.2468 14.5741 20.2473 14.7091C20.2477 14.8558 20.2472 15.0024 20.2464 15.1491C20.2468 15.1914 20.2471 15.2336 20.2475 15.2771C20.2445 15.563 20.1839 15.7927 20.0703 16.0547C19.9069 15.9796 19.7951 15.8683 19.6699 15.7418C19.6455 15.7174 19.6211 15.6931 19.596 15.6681C19.5142 15.5865 19.4328 15.5046 19.3513 15.4226C19.2928 15.3641 19.2343 15.3056 19.1757 15.2471C19.0167 15.0882 18.858 14.9289 18.6993 14.7697C18.5334 14.6033 18.3673 14.4372 18.2013 14.2711C17.8868 13.9564 17.5725 13.6415 17.2584 13.3265C16.9007 12.9679 16.5428 12.6096 16.1848 12.2513C15.4485 11.5141 14.7124 10.7767 13.9766 10.0391C14.0705 9.86258 14.1909 9.73562 14.3312 9.59634C14.3554 9.57208 14.3795 9.54783 14.4044 9.52284C14.4852 9.44175 14.5662 9.36093 14.6473 9.28012C14.7053 9.22199 14.7633 9.16385 14.8213 9.1057C14.9787 8.94791 15.1364 8.79037 15.2941 8.63288C15.459 8.4682 15.6237 8.30334 15.7884 8.1385C16.0649 7.86183 16.3416 7.58534 16.6184 7.30893C16.9388 6.98895 17.2589 6.6687 17.5789 6.34829C17.8534 6.07347 18.128 5.79879 18.4027 5.52424C18.5669 5.36015 18.7311 5.196 18.8951 5.03171C19.0492 4.87741 19.2035 4.7233 19.3579 4.56934C19.4147 4.51266 19.4714 4.4559 19.5281 4.39908C19.6051 4.32185 19.6823 4.24486 19.7597 4.16793C19.7823 4.14511 19.8049 4.12229 19.8283 4.09878C19.9833 3.94531 19.9833 3.94531 20.0703 3.94531Z" fill="white"/>
</g>
<defs>
<clipPath id="clip0_377_2278">
<rect width="20" height="20" fill="white" transform="translate(0.226562)"/>
</clipPath>
</defs>
</svg>
