<svg width="30" height="30" viewBox="0 0 30 30" fill="none" xmlns="http://www.w3.org/2000/svg">
<path d="M21.8922 14.2234C22.1094 14.3413 22.2735 14.4669 22.4415 14.6483C22.6668 14.542 22.8634 14.4057 23.0675 14.2637C23.4651 14.017 23.8583 14.0065 24.3165 14.0623C24.6864 14.1916 24.987 14.3599 25.254 14.6483C25.4418 14.5644 25.5783 14.4605 25.7301 14.3223C25.9679 14.1065 26.0865 14.0517 26.4112 14.044C26.4713 14.0418 26.5315 14.0396 26.5934 14.0374C27.0147 14.0945 27.2971 14.4468 27.5831 14.7361C27.6224 14.775 27.6618 14.8139 27.7023 14.854C27.7589 14.9108 27.7589 14.9108 27.8166 14.9687C27.8505 15.0028 27.8845 15.0369 27.9195 15.072C28.1477 15.3394 28.1566 15.5927 28.1516 15.9346C28.1095 16.2176 27.97 16.3825 27.7735 16.5818C27.7276 16.6302 27.6817 16.6785 27.6344 16.7283C27.5872 16.7718 27.5872 16.7718 27.5391 16.8162C27.6404 17.0348 27.7744 17.2088 27.9237 17.3964C28.203 17.804 28.1631 18.2771 28.1251 18.7498C28.0308 19.1034 27.7851 19.3664 27.5391 19.6287C27.6404 19.8473 27.7744 20.0213 27.9237 20.2089C28.2035 20.6172 28.1618 21.0889 28.1251 21.5623C28.0071 22.0637 27.5276 22.5279 27.107 22.7964C26.6857 23.04 26.1056 23.0441 25.636 22.9347C25.0303 22.66 24.5339 22.0219 24.0748 21.5587C24.0182 21.5018 23.9616 21.4449 23.905 21.388C23.7686 21.2509 23.6323 21.1137 23.4962 20.9764C23.2656 21.0697 23.1109 21.2287 22.9394 21.4027C22.9079 21.4341 22.8764 21.4656 22.844 21.498C22.7404 21.6017 22.6372 21.7058 22.534 21.81C22.4621 21.8821 22.3901 21.9542 22.3182 22.0262C22.1291 22.2157 21.9404 22.4056 21.7518 22.5955C21.5592 22.7893 21.3662 22.9829 21.1733 23.1764C20.7949 23.556 20.4169 23.936 20.0391 24.3162C20.148 24.5529 20.3051 24.7114 20.4907 24.8903C20.5585 24.9568 20.6262 25.0233 20.6939 25.0898C20.8002 25.1936 20.9066 25.2972 21.0132 25.4007C22.0309 26.3902 22.0309 26.3902 22.0485 27.0435C22.0548 27.7436 21.885 28.0673 21.4092 28.5775C20.955 29.0109 20.5295 29.0897 19.9197 29.0786C19.4383 29.0449 19.1509 28.7972 18.8087 28.4764C18.5901 28.5776 18.4161 28.7116 18.2285 28.8609C17.8209 29.1402 17.3478 29.1003 16.8751 29.0623C16.5215 28.968 16.2585 28.7223 15.9962 28.4764C15.8084 28.5602 15.6718 28.6641 15.5201 28.8023C15.2822 29.0182 15.1636 29.073 14.839 29.0806C14.7788 29.0828 14.7187 29.085 14.6568 29.0873C14.2355 29.0302 13.9531 28.6778 13.6671 28.3885C13.6277 28.3496 13.5884 28.3107 13.5478 28.2706C13.4913 28.2139 13.4913 28.2139 13.4336 28.1559C13.3996 28.1218 13.3657 28.0877 13.3307 28.0526C13.1024 27.7852 13.0935 27.5319 13.0985 27.1901C13.1406 26.907 13.2802 26.7422 13.4766 26.5428C13.5226 26.4944 13.5685 26.4461 13.6158 26.3963C13.6629 26.3528 13.6629 26.3528 13.711 26.3084C13.6098 26.0898 13.4758 25.9159 13.3265 25.7282C13.0472 25.3206 13.0871 24.8476 13.1251 24.3748C13.2194 24.0212 13.4651 23.7582 13.711 23.4959C13.6098 23.2773 13.4758 23.1034 13.3265 22.9157C13.0467 22.5074 13.0884 22.0357 13.1251 21.5623C13.1698 21.3725 13.2406 21.2469 13.3595 21.0936C13.3952 21.0455 13.4309 20.9975 13.4677 20.948C13.8259 20.5085 14.2251 20.2162 14.7925 20.1226C15.3392 20.0949 15.7939 20.2422 16.2172 20.5939C16.4825 20.8342 16.7298 21.0919 16.9776 21.3499C17.0534 21.4274 17.1292 21.5049 17.2051 21.5822C17.3891 21.77 17.5718 21.9588 17.754 22.1483C17.9845 22.0549 18.1393 21.8959 18.3108 21.7219C18.3423 21.6905 18.3737 21.659 18.4062 21.6266C18.5098 21.5229 18.613 21.4188 18.7162 21.3147C18.7881 21.2426 18.86 21.1705 18.932 21.0984C19.121 20.9089 19.3097 20.719 19.4984 20.5291C19.691 20.3353 19.884 20.1418 20.0769 19.9482C20.4553 19.5686 20.8333 19.1886 21.211 18.8084C21.1022 18.5717 20.9451 18.4132 20.7594 18.2344C20.6917 18.1679 20.624 18.1013 20.5563 18.0348C20.45 17.931 20.3436 17.8274 20.2369 17.724C19.2193 16.7345 19.2193 16.7345 19.2017 16.0811C19.1949 15.333 19.1949 15.333 19.4532 14.9998C19.4889 14.9518 19.5247 14.9037 19.5615 14.8542C20.1625 14.1168 20.9982 13.7971 21.8922 14.2234ZM20.2149 15.7029C20.176 15.9366 20.1525 16.0814 20.2896 16.2797C20.3225 16.3155 20.3554 16.3512 20.3892 16.3881C20.4266 16.4289 20.464 16.4697 20.5025 16.5118C20.7166 16.7365 20.9341 16.9576 21.1539 17.1768C21.2052 17.2282 21.2565 17.2796 21.3093 17.3326C21.4487 17.4721 21.5881 17.6116 21.7277 17.7509C21.8741 17.8972 22.0204 18.0436 22.1667 18.19C22.4119 18.4353 22.6572 18.6805 22.9026 18.9256C23.1864 19.2091 23.47 19.4928 23.7535 19.7766C23.9974 20.0207 24.2414 20.2648 24.4854 20.5087C24.631 20.6542 24.7766 20.7997 24.922 20.9454C25.0837 21.1073 25.2457 21.2689 25.4076 21.4306C25.4559 21.4789 25.5041 21.5273 25.5538 21.5771C25.5978 21.6209 25.6417 21.6647 25.687 21.7098C25.7252 21.748 25.7635 21.7862 25.8029 21.8256C25.971 21.9808 26.126 22.0025 26.3538 22.0009C26.6843 21.9291 26.9503 21.6011 27.129 21.3279C27.1679 21.0942 27.1914 20.9494 27.0543 20.7512C27.0214 20.7154 26.9885 20.6796 26.9547 20.6428C26.9173 20.602 26.8799 20.5611 26.8414 20.5191C26.6273 20.2943 26.4098 20.0733 26.19 19.8541C26.1387 19.8027 26.0874 19.7513 26.0346 19.6983C25.8952 19.5587 25.7558 19.4193 25.6162 19.28C25.4698 19.1337 25.3235 18.9873 25.1772 18.8409C24.932 18.5956 24.6867 18.3504 24.4413 18.1052C24.1575 17.8218 23.8739 17.5381 23.5904 17.2543C23.3466 17.0101 23.1026 16.7661 22.8585 16.5222C22.7129 16.3767 22.5673 16.2311 22.4219 16.0855C22.2602 15.9236 22.0982 15.7619 21.9363 15.6003C21.888 15.5519 21.8398 15.5036 21.7901 15.4537C21.7461 15.41 21.7022 15.3662 21.6569 15.3211C21.6187 15.2829 21.5804 15.2446 21.541 15.2053C21.3729 15.0501 21.2179 15.0284 20.9902 15.03C20.6596 15.1018 20.3937 15.4298 20.2149 15.7029ZM23.2618 15.41C23.3556 15.6429 23.5179 15.799 23.6935 15.9722C23.7415 16.0202 23.7415 16.0202 23.7905 16.0692C23.8962 16.1748 24.0022 16.2799 24.1082 16.385C24.1816 16.4582 24.255 16.5314 24.3284 16.6047C24.5214 16.7972 24.7147 16.9894 24.9081 17.1815C25.1055 17.3777 25.3025 17.5742 25.4996 17.7707C25.8861 18.156 26.2731 18.5409 26.6602 18.9256C26.8819 18.8222 26.9994 18.7284 27.129 18.5154C27.1715 18.2799 27.1938 18.1402 27.0555 17.9407C27.0231 17.9052 26.9907 17.8698 26.9573 17.8334C26.92 17.7926 26.8827 17.7517 26.8442 17.7097C26.6145 17.4683 26.3805 17.2313 26.1446 16.9959C26.0908 16.9421 26.037 16.8883 25.9816 16.8328C25.8688 16.7199 25.7559 16.6071 25.6429 16.4944C25.498 16.3498 25.3534 16.205 25.2089 16.0601C25.0705 15.9215 24.9319 15.783 24.7933 15.6446C24.7413 15.5925 24.6894 15.5405 24.6359 15.4868C24.5879 15.4391 24.54 15.3913 24.4906 15.3421C24.4484 15.2999 24.4062 15.2578 24.3627 15.2143C24.1874 15.0515 24.0381 15.0326 23.7994 15.033C23.5676 15.0792 23.4204 15.2434 23.2618 15.41ZM26.3432 15.1353C26.3113 15.1679 26.2793 15.2006 26.2464 15.2342C26.2143 15.2668 26.1822 15.2994 26.1491 15.3331C26.1244 15.3584 26.0998 15.3838 26.0743 15.41C26.1609 15.6122 26.2757 15.741 26.4332 15.8934C26.4756 15.9348 26.5181 15.9762 26.5618 16.0188C26.5943 16.0499 26.6268 16.081 26.6602 16.1131C26.8826 16.0257 26.989 15.893 27.129 15.7029C27.023 15.5953 26.9167 15.4879 26.8104 15.3807C26.7801 15.3499 26.7499 15.3192 26.7187 15.2875C26.6417 15.21 26.5632 15.1341 26.4845 15.0584C26.4142 15.0518 26.4142 15.0518 26.3432 15.1353ZM21.7425 19.7272C21.7111 19.759 21.6798 19.7908 21.6475 19.8235C21.6143 19.8566 21.5811 19.8898 21.547 19.9239C21.437 20.034 21.3274 20.1445 21.2179 20.2549C21.1419 20.3312 21.0659 20.4074 20.9898 20.4835C20.7894 20.6844 20.5893 20.8856 20.3893 21.0869C20.1853 21.2921 19.9809 21.497 19.7766 21.7019C19.3755 22.1043 18.9748 22.507 18.5743 22.91C18.6684 23.1098 18.7738 23.2391 18.9332 23.3934C18.9969 23.4555 18.9969 23.4555 19.0618 23.5188C19.0943 23.5499 19.1268 23.581 19.1602 23.6131C19.3932 23.5193 19.5493 23.357 19.7224 23.1814C19.7705 23.1334 19.7705 23.1334 19.8195 23.0844C19.9251 22.9787 20.0302 22.8727 20.1353 22.7667C20.2085 22.6933 20.2817 22.6199 20.355 22.5465C20.5475 22.3535 20.7397 22.1602 20.9318 21.9668C21.1279 21.7694 21.3245 21.5724 21.5209 21.3753C21.9062 20.9888 22.2912 20.6018 22.6759 20.2147C22.5828 20.0178 22.4795 19.8853 22.3243 19.7313C22.2832 19.6899 22.2421 19.6485 22.1998 19.6058C21.9896 19.4254 21.9137 19.557 21.7425 19.7272ZM14.1212 21.7967C14.0822 22.0304 14.0588 22.1752 14.1959 22.3734C14.2288 22.4092 14.2616 22.445 14.2955 22.4819C14.3329 22.5227 14.3703 22.5635 14.4088 22.6055C14.6229 22.8303 14.8403 23.0513 15.0601 23.2706C15.1114 23.322 15.1627 23.3734 15.2156 23.4263C15.3549 23.5659 15.4944 23.7053 15.6339 23.8446C15.7803 23.9909 15.9266 24.1373 16.0729 24.2837C16.3181 24.5291 16.5635 24.7743 16.8089 25.0194C17.0927 25.3029 17.3763 25.5865 17.6597 25.8703C17.9036 26.1145 18.1476 26.3585 18.3917 26.6024C18.5373 26.748 18.6828 26.8935 18.8283 27.0391C18.99 27.201 19.1519 27.3627 19.3139 27.5243C19.3621 27.5727 19.4104 27.6211 19.4601 27.6709C19.504 27.7147 19.548 27.7584 19.5932 27.8035C19.6315 27.8418 19.6697 27.88 19.7091 27.9194C19.8772 28.0745 20.0322 28.0963 20.26 28.0946C20.5906 28.0228 20.8565 27.6949 21.0352 27.4217C21.0742 27.188 21.0977 27.0432 20.9605 26.8449C20.9277 26.8092 20.8948 26.7734 20.8609 26.7365C20.8235 26.6957 20.7862 26.6549 20.7477 26.6128C20.5335 26.3881 20.3161 26.167 20.0963 25.9478C20.045 25.8964 19.9937 25.845 19.9408 25.792C19.8015 25.6525 19.662 25.5131 19.5225 25.3737C19.3761 25.2275 19.2298 25.081 19.0835 24.9346C18.8383 24.6893 18.5929 24.4441 18.3475 24.199C18.0637 23.9155 17.7802 23.6318 17.4967 23.348C17.2528 23.1039 17.0088 22.8599 16.7647 22.6159C16.6191 22.4704 16.4736 22.3249 16.3281 22.1792C16.1664 22.0173 16.0045 21.8557 15.8425 21.694C15.7943 21.6457 15.746 21.5973 15.6963 21.5475C15.6524 21.5037 15.6085 21.4599 15.5632 21.4148C15.5249 21.3766 15.4867 21.3384 15.4473 21.299C15.2792 21.1439 15.1242 21.1221 14.8964 21.1238C14.5659 21.1956 14.2999 21.5235 14.1212 21.7967ZM14.3844 24.2723C14.2218 24.4483 14.0954 24.595 14.0736 24.8399C14.1293 25.3471 14.7648 25.7887 15.1056 26.1287C15.1594 26.1826 15.2131 26.2364 15.2685 26.2918C15.3813 26.4047 15.4943 26.5175 15.6073 26.6303C15.7521 26.7748 15.8968 26.9196 16.0413 27.0645C16.1797 27.2032 16.3183 27.3416 16.4569 27.4801C16.5348 27.5581 16.5348 27.5581 16.6143 27.6378C16.6622 27.6856 16.7102 27.7333 16.7596 27.7825C16.8018 27.8247 16.844 27.8669 16.8875 27.9103C17.0628 28.0731 17.2121 28.0921 17.4507 28.0916C17.6825 28.0454 17.8297 27.8812 17.9884 27.7147C17.8946 27.4824 17.7332 27.3258 17.5585 27.1525C17.5267 27.1204 17.4949 27.0884 17.4621 27.0554C17.357 26.9498 17.2516 26.8447 17.1461 26.7396C17.0729 26.6664 16.9998 26.5932 16.9267 26.5199C16.7736 26.3667 16.6203 26.2136 16.4669 26.0607C16.2698 25.8643 16.0733 25.6674 15.8769 25.4704C15.7262 25.3191 15.5751 25.1682 15.424 25.0174C15.3514 24.9449 15.2788 24.8722 15.2064 24.7995C15.1054 24.6982 15.0041 24.5973 14.9026 24.4965C14.8725 24.4662 14.8424 24.4359 14.8114 24.4047C14.619 24.1861 14.619 24.1861 14.3844 24.2723ZM14.4727 27.0115C14.3803 27.1028 14.3803 27.1028 14.2896 27.2166C14.234 27.2843 14.1785 27.352 14.1212 27.4217C14.3339 27.6344 14.5466 27.8471 14.7657 28.0662C14.9011 27.9502 15.0364 27.8342 15.1759 27.7147C15.0702 27.5033 14.988 27.3938 14.8243 27.2313C14.7832 27.1899 14.7421 27.1485 14.6998 27.1058C14.5992 26.9988 14.5992 26.9988 14.4727 27.0115Z" fill="black"/>
<path d="M12.5646 1.26003C12.9978 1.57205 13.3139 1.94212 13.4893 2.44884C13.5094 2.50615 13.5294 2.56346 13.5501 2.62251C13.5649 2.66581 13.5796 2.7091 13.5948 2.75371C13.6474 2.75426 13.7 2.75481 13.7541 2.75537C13.9512 2.75797 14.1481 2.76159 14.3451 2.76587C14.43 2.76752 14.5149 2.76876 14.5998 2.76959C15.147 2.77525 15.5809 2.78399 16.0134 3.16387C16.0455 3.20254 16.0776 3.24121 16.1107 3.28106C16.1438 3.31973 16.177 3.3584 16.2112 3.39825C16.2922 3.51854 16.3177 3.60987 16.3487 3.74981C16.4199 3.74858 16.4911 3.74735 16.5644 3.74609C16.8312 3.74181 17.0979 3.73914 17.3647 3.73693C17.4797 3.73576 17.5947 3.73417 17.7096 3.73213C18.5996 3.71672 19.3052 3.74865 19.9815 4.39434C20.5144 4.95253 20.6618 5.55207 20.6564 6.30801C20.657 6.41474 20.657 6.41474 20.6576 6.52363C20.6585 6.7167 20.6583 6.90974 20.6575 7.10282C20.657 7.30564 20.6575 7.50846 20.6579 7.71127C20.6583 8.05126 20.6577 8.39123 20.6566 8.73121C20.6553 9.124 20.6558 9.51677 20.6571 9.90957C20.6581 10.2478 20.6583 10.5859 20.6577 10.9241C20.6573 11.1257 20.6572 11.3273 20.658 11.5289C20.6588 11.7532 20.6577 11.9774 20.6564 12.2017C20.6569 12.2683 20.6573 12.335 20.6578 12.4036C20.6572 12.4646 20.6565 12.5257 20.6558 12.5885C20.6557 12.668 20.6557 12.668 20.6556 12.749C20.6167 12.9353 20.5369 13.0061 20.3917 13.1248C20.2745 13.1559 20.2745 13.1559 20.1573 13.1541C20.0993 13.155 20.0993 13.155 20.0401 13.1559C19.8559 13.107 19.8012 13.0471 19.6886 12.8904C19.6524 12.6768 19.6568 12.4645 19.6584 12.2483C19.6578 12.15 19.6578 12.15 19.6572 12.0498C19.656 11.833 19.6565 11.6161 19.657 11.3993C19.6564 11.2485 19.6557 11.0977 19.6549 10.9469C19.6532 10.59 19.6524 10.2331 19.6522 9.87616C19.6518 9.20027 19.6497 8.52439 19.6467 7.84851C19.646 7.62687 19.646 7.40523 19.6462 7.18358C19.6458 7.04693 19.6454 6.91029 19.6449 6.77364C19.6452 6.71235 19.6454 6.65105 19.6457 6.5879C19.6427 6.03794 19.6054 5.53892 19.1953 5.13225C18.7899 4.77374 18.3615 4.74202 17.8378 4.72736C17.7761 4.72554 17.7761 4.72554 17.7132 4.72367C17.5831 4.71987 17.453 4.7164 17.3228 4.71294C17.2341 4.71041 17.1454 4.70785 17.0567 4.70528C16.8402 4.69903 16.6238 4.69309 16.4073 4.68731C16.4085 4.72568 16.4098 4.76405 16.411 4.80358C16.4159 4.97966 16.419 5.15572 16.422 5.33184C16.4239 5.39219 16.4259 5.45254 16.4279 5.51472C16.4338 5.97411 16.3633 6.28644 16.0578 6.63509C16.0197 6.66666 15.9815 6.69824 15.9422 6.73076C15.9042 6.76324 15.8662 6.79572 15.8271 6.82918C15.5786 7.00038 15.3625 7.04576 15.0633 7.04673C14.9587 7.04748 14.9587 7.04748 14.852 7.04824C14.776 7.04819 14.6999 7.04814 14.6216 7.04808C14.5404 7.04843 14.4591 7.04883 14.3779 7.04927C14.1575 7.05031 13.9372 7.05058 13.7168 7.05066C13.579 7.05074 13.4412 7.05099 13.3034 7.0513C12.8223 7.05239 12.3412 7.05287 11.8601 7.05277C11.4122 7.0527 10.9644 7.05394 10.5166 7.05579C10.1316 7.05732 9.74655 7.05795 9.36154 7.05788C9.13182 7.05785 8.90212 7.05818 8.67241 7.05942C8.45622 7.06056 8.24006 7.06056 8.02387 7.05971C7.90724 7.05953 7.79062 7.06051 7.674 7.06152C7.19208 7.05815 6.86346 7.00814 6.49078 6.68156C6.45921 6.64341 6.42764 6.60527 6.39511 6.56597C6.36263 6.52798 6.33015 6.48999 6.29669 6.45084C6.13105 6.21043 6.08013 6.00151 6.08337 5.71155C6.08375 5.6517 6.08413 5.59184 6.08452 5.53017C6.08599 5.43743 6.08599 5.43743 6.08749 5.34283C6.08802 5.27987 6.08855 5.21692 6.0891 5.15205C6.09047 4.99712 6.0924 4.84222 6.09482 4.68731C5.83743 4.69284 5.58006 4.69907 5.3227 4.7059C5.23537 4.70813 5.14803 4.71018 5.06069 4.71203C4.08107 4.70767 4.08107 4.70767 3.25852 5.18055C2.93207 5.5497 2.86499 5.93953 2.86463 6.42085C2.86444 6.4849 2.86425 6.54896 2.86405 6.61496C2.86414 6.6847 2.86423 6.75445 2.86433 6.82631C2.86419 6.90089 2.86406 6.97547 2.86393 7.05232C2.86357 7.25894 2.86357 7.46556 2.86364 7.67218C2.86366 7.89518 2.86333 8.11818 2.86305 8.34118C2.86257 8.77793 2.86241 9.21467 2.86237 9.65142C2.86235 10.0065 2.86223 10.3615 2.86204 10.7166C2.86152 11.7235 2.86125 12.7304 2.8613 13.7373C2.8613 13.8187 2.8613 13.8187 2.8613 13.9017C2.86131 13.956 2.86131 14.0104 2.86131 14.0664C2.86134 14.9469 2.86078 15.8275 2.85995 16.708C2.85911 17.6124 2.8587 18.5168 2.85875 19.4212C2.85877 19.9289 2.85861 20.4365 2.85798 20.9442C2.85745 21.3764 2.85732 21.8086 2.85772 22.2409C2.85791 22.4613 2.85791 22.6817 2.8574 22.9022C2.85686 23.1414 2.85722 23.3805 2.85768 23.6197C2.85737 23.6891 2.85707 23.7584 2.85676 23.8299C2.85914 24.398 2.88185 24.9147 3.30681 25.3361C3.67829 25.6646 4.07012 25.7295 4.55415 25.7302C4.65198 25.7305 4.65198 25.7305 4.75179 25.7309C4.82248 25.7308 4.89317 25.7308 4.966 25.7308C5.0813 25.7311 5.19659 25.7314 5.31188 25.7317C5.43532 25.732 5.55876 25.7322 5.6822 25.7323C5.93975 25.7327 6.19729 25.7337 6.45483 25.7348C6.54312 25.7351 6.63141 25.7355 6.7197 25.7359C6.78599 25.7362 6.78599 25.7362 6.85363 25.7364C7.45286 25.7389 8.0521 25.7408 8.65134 25.7416C9.05611 25.7421 9.46087 25.7434 9.86564 25.7456C10.0797 25.7468 10.2937 25.7475 10.5078 25.7472C10.7463 25.7469 10.9847 25.7484 11.2232 25.75C11.3296 25.7494 11.3296 25.7494 11.4381 25.7488C11.503 25.7496 11.5679 25.7503 11.6347 25.751C11.7193 25.7513 11.7193 25.7513 11.8055 25.7515C11.9972 25.7896 12.0674 25.8655 12.1886 26.0154C12.2197 26.1326 12.2197 26.1326 12.2179 26.2498C12.2185 26.2885 12.2191 26.3272 12.2197 26.367C12.1741 26.5385 12.0904 26.6069 11.9542 26.7186C11.7981 26.7481 11.7981 26.7481 11.6167 26.7483C11.5133 26.7493 11.5133 26.7493 11.4079 26.7503C11.3325 26.7498 11.2571 26.7494 11.1794 26.7489C11.099 26.7492 11.0186 26.7496 10.9383 26.7501C10.72 26.7512 10.5017 26.7508 10.2834 26.75C10.0545 26.7494 9.82557 26.75 9.59666 26.7504C9.21181 26.7508 8.82698 26.7502 8.44213 26.7491C7.99846 26.7478 7.55482 26.7482 7.11115 26.7495C6.72952 26.7506 6.34789 26.7508 5.96626 26.7501C5.73867 26.7498 5.51109 26.7497 5.28349 26.7505C5.06903 26.7512 4.8546 26.7507 4.64015 26.7494C4.52489 26.7489 4.40962 26.7496 4.29436 26.7503C3.58892 26.7437 3.03592 26.566 2.5206 26.074C1.96619 25.4933 1.84069 24.8786 1.84631 24.0949C1.84604 24.0151 1.84566 23.9352 1.8452 23.8554C1.84423 23.6376 1.8447 23.4198 1.84543 23.2021C1.84596 22.9666 1.84514 22.7311 1.8445 22.4956C1.84346 22.0349 1.84368 21.5742 1.84436 21.1135C1.84489 20.739 1.84496 20.3645 1.84471 19.9899C1.84467 19.9365 1.84463 19.8831 1.8446 19.8281C1.84452 19.7197 1.84445 19.6112 1.84437 19.5027C1.8437 18.4865 1.84447 17.4703 1.84573 16.4541C1.84678 15.583 1.84659 14.7118 1.84551 13.8406C1.84426 12.828 1.84377 11.8153 1.84448 10.8026C1.84456 10.6946 1.84463 10.5865 1.84471 10.4784C1.84474 10.4253 1.84478 10.3721 1.84482 10.3173C1.84502 9.94342 1.84468 9.56951 1.84412 9.1956C1.84347 8.73966 1.84365 8.28374 1.84489 7.82781C1.84551 7.59536 1.84575 7.36294 1.84498 7.1305C1.84427 6.91739 1.84467 6.70431 1.84591 6.49121C1.84629 6.3783 1.84553 6.26539 1.84472 6.15249C1.85098 5.45418 2.03415 4.90391 2.5206 4.39434C3.24456 3.70322 4.01895 3.71838 4.96323 3.73516C5.07885 3.73634 5.19447 3.73741 5.3101 3.73836C5.59123 3.74093 5.87231 3.74496 6.15341 3.74981C6.17973 3.68116 6.17973 3.68116 6.20658 3.61113C6.27271 3.45176 6.3455 3.3457 6.45737 3.21514C6.48962 3.17632 6.52187 3.13749 6.5551 3.09749C6.84719 2.84318 7.15037 2.79017 7.52831 2.78232C7.56804 2.78127 7.60778 2.78022 7.64872 2.77914C7.77406 2.77599 7.89939 2.77399 8.02475 2.77202C8.11039 2.77008 8.19603 2.76806 8.28167 2.76596C8.49021 2.76101 8.69875 2.75708 8.90732 2.75371C8.92207 2.71042 8.93682 2.66712 8.95202 2.62251C8.97209 2.5652 8.99216 2.50789 9.01283 2.44884C9.03242 2.39225 9.05201 2.33566 9.07219 2.27735C9.3082 1.70634 9.81005 1.27345 10.3685 1.02886C11.0878 0.795165 11.9232 0.860079 12.5646 1.26003ZM10.0865 2.48638C9.94027 2.75096 9.87355 3.04591 9.80628 3.33872C9.78323 3.43748 9.75577 3.53519 9.72763 3.63262C9.54508 3.72389 9.35043 3.70164 9.14993 3.70357C9.05579 3.70522 8.96164 3.7069 8.86749 3.70861C8.71912 3.71102 8.57076 3.71318 8.42238 3.71473C8.27913 3.71636 8.13593 3.71904 7.99271 3.72188C7.94875 3.72207 7.90479 3.72227 7.8595 3.72246C7.5813 3.72892 7.38051 3.76724 7.14951 3.92559C6.97311 4.23022 7.01298 4.57634 7.01401 4.91802C7.01306 4.98082 7.01212 5.04363 7.01115 5.10834C7.00742 5.57003 7.00742 5.57003 7.2081 5.97637C7.41694 6.08035 7.58687 6.10832 7.81866 6.10883C7.88166 6.10925 7.94466 6.10966 8.00957 6.11009C8.0781 6.10995 8.14662 6.1098 8.21723 6.10965C8.28986 6.10995 8.36248 6.11025 8.43732 6.11056C8.6361 6.11123 8.83488 6.11138 9.03366 6.11123C9.1998 6.11117 9.36594 6.11145 9.53208 6.11173C9.92412 6.11238 10.3162 6.11241 10.7082 6.11205C11.1122 6.1117 11.5163 6.11242 11.9203 6.11367C12.2676 6.1147 12.6149 6.11505 12.9622 6.11486C13.1694 6.11476 13.3766 6.11491 13.5839 6.11573C13.815 6.1166 14.0462 6.11605 14.2773 6.11537C14.3457 6.11582 14.4141 6.11627 14.4846 6.11673C14.9435 6.11442 14.9435 6.11442 15.3526 5.91778C15.529 5.61315 15.4892 5.26703 15.4881 4.92534C15.4891 4.86254 15.49 4.79974 15.491 4.73503C15.4947 4.27334 15.4947 4.27334 15.294 3.867C15.043 3.73178 14.7956 3.73252 14.5172 3.73173C14.4228 3.73025 14.3285 3.72877 14.2341 3.72726C14.0861 3.72557 13.9381 3.72417 13.7901 3.72307C13.6467 3.72181 13.5034 3.7195 13.36 3.71708C13.3157 3.71707 13.2714 3.71706 13.2257 3.71706C12.9207 3.71128 12.9207 3.71128 12.7774 3.61216C12.6849 3.46668 12.6658 3.3217 12.6353 3.15288C12.5302 2.67253 12.3949 2.36799 11.9872 2.07989C11.3283 1.7225 10.5301 1.874 10.0865 2.48638Z" fill="black"/>
<path d="M5.24729 20.1258C5.31221 20.125 5.37713 20.1243 5.44401 20.1235C5.51384 20.124 5.58367 20.1245 5.65561 20.125C5.72756 20.1247 5.7995 20.1245 5.87362 20.1243C6.02571 20.1241 6.17781 20.1246 6.3299 20.1255C6.56294 20.1268 6.79587 20.1256 7.0289 20.1241C7.17661 20.1242 7.32431 20.1245 7.47202 20.125C7.54185 20.1245 7.61168 20.124 7.68362 20.1235C7.781 20.1246 7.781 20.1246 7.88034 20.1258C7.93741 20.126 7.99447 20.1261 8.05326 20.1263C8.25196 20.1655 8.3202 20.2278 8.43882 20.3905C8.46858 20.5417 8.46858 20.5417 8.46914 20.7146C8.46988 20.7795 8.47062 20.8444 8.47138 20.9113C8.47091 20.9811 8.47043 21.051 8.46994 21.1229C8.47028 21.2308 8.47028 21.2308 8.47062 21.3409C8.47078 21.493 8.47035 21.6451 8.46937 21.7972C8.46812 22.0302 8.46936 22.2632 8.47086 22.4962C8.4707 22.6439 8.4704 22.7916 8.46994 22.9393C8.47042 23.0091 8.47089 23.079 8.47138 23.1509C8.47064 23.2158 8.4699 23.2807 8.46914 23.3476C8.46896 23.4047 8.46877 23.4618 8.46858 23.5205C8.42946 23.7192 8.36713 23.7875 8.20444 23.9061C8.05326 23.9359 8.05326 23.9359 7.88034 23.9364C7.81542 23.9372 7.75051 23.9379 7.68362 23.9387C7.61379 23.9382 7.54396 23.9377 7.47202 23.9372C7.3641 23.9376 7.3641 23.9376 7.25401 23.9379C7.10192 23.9381 6.94982 23.9376 6.79773 23.9367C6.56469 23.9354 6.33176 23.9366 6.09873 23.9381C5.95102 23.938 5.80332 23.9377 5.65561 23.9372C5.55087 23.9379 5.55087 23.9379 5.44401 23.9387C5.37909 23.9379 5.31417 23.9372 5.24729 23.9364C5.19022 23.9362 5.13316 23.9361 5.07437 23.9359C4.87567 23.8967 4.80743 23.8344 4.68882 23.6717C4.65905 23.5205 4.65905 23.5205 4.65849 23.3476C4.65775 23.2827 4.65701 23.2178 4.65625 23.1509C4.65672 23.0811 4.6572 23.0112 4.65769 22.9393C4.65746 22.8674 4.65724 22.7954 4.65701 22.7213C4.65685 22.5692 4.65728 22.4171 4.65826 22.265C4.65951 22.032 4.65827 21.799 4.65677 21.566C4.65693 21.4183 4.65723 21.2706 4.65769 21.1229C4.65721 21.0531 4.65674 20.9832 4.65625 20.9113C4.65699 20.8464 4.65773 20.7815 4.65849 20.7146C4.65868 20.6575 4.65886 20.6004 4.65905 20.5417C4.7248 20.2077 4.93107 20.1268 5.24729 20.1258ZM5.62632 21.0936C5.62632 21.7124 5.62632 22.3311 5.62632 22.9686C6.24507 22.9686 6.86382 22.9686 7.50132 22.9686C7.50132 22.3499 7.50132 21.7311 7.50132 21.0936C6.88257 21.0936 6.26382 21.0936 5.62632 21.0936Z" fill="black"/>
<path d="M5.24729 14.5008C5.31221 14.5 5.37713 14.4993 5.44401 14.4985C5.51384 14.499 5.58367 14.4995 5.65561 14.5C5.72756 14.4997 5.7995 14.4995 5.87362 14.4993C6.02571 14.4991 6.17781 14.4996 6.3299 14.5005C6.56294 14.5018 6.79587 14.5006 7.0289 14.4991C7.17661 14.4992 7.32431 14.4995 7.47202 14.5C7.54185 14.4995 7.61168 14.499 7.68362 14.4985C7.781 14.4996 7.781 14.4996 7.88034 14.5008C7.93741 14.501 7.99447 14.5011 8.05326 14.5013C8.25196 14.5405 8.3202 14.6028 8.43882 14.7655C8.46858 14.9167 8.46858 14.9167 8.46914 15.0896C8.46988 15.1545 8.47062 15.2194 8.47138 15.2863C8.47091 15.3561 8.47043 15.426 8.46994 15.4979C8.47028 15.6058 8.47028 15.6058 8.47062 15.7159C8.47078 15.868 8.47035 16.0201 8.46937 16.1722C8.46812 16.4052 8.46936 16.6382 8.47086 16.8712C8.4707 17.0189 8.4704 17.1666 8.46994 17.3143C8.47042 17.3841 8.47089 17.454 8.47138 17.5259C8.47064 17.5908 8.4699 17.6557 8.46914 17.7226C8.46896 17.7797 8.46877 17.8368 8.46858 17.8955C8.42946 18.0942 8.36713 18.1625 8.20444 18.2811C8.05326 18.3109 8.05326 18.3109 7.88034 18.3114C7.81542 18.3122 7.75051 18.3129 7.68362 18.3137C7.61379 18.3132 7.54396 18.3127 7.47202 18.3122C7.3641 18.3126 7.3641 18.3126 7.25401 18.3129C7.10192 18.3131 6.94982 18.3126 6.79773 18.3117C6.56469 18.3104 6.33176 18.3116 6.09873 18.3131C5.95102 18.313 5.80332 18.3127 5.65561 18.3122C5.55087 18.3129 5.55087 18.3129 5.44401 18.3137C5.37909 18.3129 5.31417 18.3122 5.24729 18.3114C5.19022 18.3112 5.13316 18.3111 5.07437 18.3109C4.87567 18.2717 4.80743 18.2094 4.68882 18.0467C4.65905 17.8955 4.65905 17.8955 4.65849 17.7226C4.65775 17.6577 4.65701 17.5928 4.65625 17.5259C4.65672 17.4561 4.6572 17.3862 4.65769 17.3143C4.65746 17.2424 4.65724 17.1704 4.65701 17.0963C4.65685 16.9442 4.65728 16.7921 4.65826 16.64C4.65951 16.407 4.65827 16.174 4.65677 15.941C4.65693 15.7933 4.65723 15.6456 4.65769 15.4979C4.65721 15.4281 4.65674 15.3582 4.65625 15.2863C4.65699 15.2214 4.65773 15.1565 4.65849 15.0896C4.65868 15.0325 4.65886 14.9754 4.65905 14.9167C4.7248 14.5827 4.93107 14.5018 5.24729 14.5008ZM5.62632 15.4686C5.62632 16.0874 5.62632 16.7061 5.62632 17.3436C6.24507 17.3436 6.86382 17.3436 7.50132 17.3436C7.50132 16.7249 7.50132 16.1061 7.50132 15.4686C6.88257 15.4686 6.26382 15.4686 5.62632 15.4686Z" fill="black"/>
<path d="M5.24729 8.87577C5.31221 8.87504 5.37713 8.8743 5.44401 8.87354C5.51384 8.87401 5.58367 8.87448 5.65561 8.87497C5.72756 8.87475 5.7995 8.87452 5.87362 8.87429C6.02571 8.87413 6.17781 8.87457 6.3299 8.87555C6.56294 8.8768 6.79587 8.87556 7.0289 8.87406C7.17661 8.87421 7.32431 8.87451 7.47202 8.87497C7.54185 8.8745 7.61168 8.87402 7.68362 8.87354C7.781 8.87464 7.781 8.87464 7.88034 8.87577C7.93741 8.87596 7.99447 8.87615 8.05326 8.87634C8.25196 8.91546 8.3202 8.97778 8.43882 9.14048C8.46858 9.29165 8.46858 9.29165 8.46914 9.46457C8.46988 9.52949 8.47062 9.59441 8.47138 9.6613C8.47091 9.73112 8.47043 9.80095 8.46994 9.8729C8.47028 9.98081 8.47028 9.98081 8.47062 10.0909C8.47078 10.243 8.47035 10.3951 8.46937 10.5472C8.46812 10.7802 8.46936 11.0132 8.47086 11.2462C8.4707 11.3939 8.4704 11.5416 8.46994 11.6893C8.47042 11.7591 8.47089 11.829 8.47138 11.9009C8.47064 11.9658 8.4699 12.0307 8.46914 12.0976C8.46896 12.1547 8.46877 12.2118 8.46858 12.2705C8.42946 12.4692 8.36713 12.5375 8.20444 12.6561C8.05326 12.6859 8.05326 12.6859 7.88034 12.6864C7.81542 12.6872 7.75051 12.6879 7.68362 12.6887C7.61379 12.6882 7.54396 12.6877 7.47202 12.6872C7.3641 12.6876 7.3641 12.6876 7.25401 12.6879C7.10192 12.6881 6.94982 12.6876 6.79773 12.6867C6.56469 12.6854 6.33176 12.6866 6.09873 12.6881C5.95102 12.688 5.80332 12.6877 5.65561 12.6872C5.55087 12.6879 5.55087 12.6879 5.44401 12.6887C5.37909 12.6879 5.31417 12.6872 5.24729 12.6864C5.19022 12.6862 5.13316 12.6861 5.07437 12.6859C4.87567 12.6467 4.80743 12.5844 4.68882 12.4217C4.65905 12.2705 4.65905 12.2705 4.65849 12.0976C4.65775 12.0327 4.65701 11.9678 4.65625 11.9009C4.65672 11.8311 4.6572 11.7612 4.65769 11.6893C4.65746 11.6174 4.65724 11.5454 4.65701 11.4713C4.65685 11.3192 4.65728 11.1671 4.65826 11.015C4.65951 10.782 4.65827 10.549 4.65677 10.316C4.65693 10.1683 4.65723 10.0206 4.65769 9.8729C4.65721 9.80307 4.65674 9.73324 4.65625 9.6613C4.65699 9.59638 4.65773 9.53146 4.65849 9.46457C4.65868 9.40751 4.65886 9.35045 4.65905 9.29165C4.7248 8.95769 4.93107 8.87681 5.24729 8.87577ZM5.62632 9.8436C5.62632 10.4624 5.62632 11.0811 5.62632 11.7186C6.24507 11.7186 6.86382 11.7186 7.50132 11.7186C7.50132 11.0999 7.50132 10.4811 7.50132 9.8436C6.88257 9.8436 6.26382 9.8436 5.62632 9.8436Z" fill="black"/>
<path d="M10.3893 14.5015C10.4524 14.5008 10.5155 14.5002 10.5805 14.4995C10.6839 14.5002 10.6839 14.5002 10.7894 14.5009C10.8986 14.5003 10.8986 14.5003 11.01 14.4997C11.2095 14.4988 11.409 14.499 11.6085 14.4998C11.8174 14.5003 12.0262 14.4998 12.235 14.4994C12.5858 14.499 12.9364 14.4996 13.2872 14.5007C13.6926 14.502 14.0979 14.5015 14.5033 14.5003C14.8515 14.4992 15.1996 14.499 15.5477 14.4997C15.7556 14.5 15.9635 14.5001 16.1714 14.4993C16.4032 14.4985 16.6349 14.4996 16.8666 14.5009C16.9356 14.5004 17.0045 14.5 17.0755 14.4995C17.1701 14.5005 17.1701 14.5005 17.2667 14.5015C17.3215 14.5016 17.3762 14.5017 17.4327 14.5017C17.6219 14.5401 17.6923 14.6179 17.8124 14.7656C17.8435 14.8828 17.8435 14.8828 17.8417 15C17.8426 15.058 17.8426 15.058 17.8435 15.1172C17.7982 15.2878 17.7127 15.357 17.578 15.4687C17.4327 15.4982 17.4327 15.4982 17.2667 15.4985C17.2036 15.4992 17.1405 15.4998 17.0755 15.5005C16.9721 15.4998 16.9721 15.4998 16.8666 15.4991C16.7574 15.4997 16.7574 15.4997 16.646 15.5003C16.4465 15.5012 16.247 15.501 16.0475 15.5002C15.8386 15.4996 15.6298 15.5002 15.421 15.5005C15.0703 15.501 14.7196 15.5004 14.3689 15.4993C13.9634 15.498 13.5581 15.4984 13.1527 15.4997C12.8045 15.5008 12.4564 15.5009 12.1083 15.5003C11.9004 15.5 11.6925 15.4999 11.4846 15.5007C11.2528 15.5015 11.0211 15.5004 10.7894 15.4991C10.7204 15.4995 10.6515 15.5 10.5805 15.5005C10.4859 15.4995 10.4859 15.4995 10.3893 15.4985C10.3346 15.4984 10.2798 15.4983 10.2233 15.4982C10.0341 15.4598 9.96371 15.3821 9.84363 15.2344C9.8125 15.1172 9.8125 15.1172 9.81433 15C9.81342 14.942 9.81342 14.942 9.8125 14.8828C9.89179 14.5843 10.1039 14.5019 10.3893 14.5015Z" fill="black"/>
<path d="M10.3893 8.87648C10.4524 8.87582 10.5155 8.87516 10.5805 8.87447C10.6839 8.87519 10.6839 8.87519 10.7894 8.87591C10.8986 8.8753 10.8986 8.8753 11.01 8.87467C11.2095 8.87381 11.409 8.87401 11.6085 8.87476C11.8174 8.87535 12.0262 8.8748 12.235 8.87443C12.5858 8.874 12.9364 8.87457 13.2872 8.87568C13.6926 8.87696 14.0979 8.87655 14.5033 8.87525C14.8515 8.87419 15.1996 8.87404 15.5477 8.87465C15.7556 8.87502 15.9635 8.87507 16.1714 8.87429C16.4032 8.87349 16.6349 8.8746 16.8666 8.87591C16.9356 8.87544 17.0045 8.87496 17.0755 8.87447C17.1701 8.87547 17.1701 8.87547 17.2667 8.87648C17.3215 8.87657 17.3762 8.87665 17.4327 8.87674C17.6219 8.91514 17.6923 8.99285 17.8124 9.14061C17.8435 9.2578 17.8435 9.2578 17.8417 9.37499C17.8426 9.433 17.8426 9.433 17.8435 9.49218C17.7982 9.66281 17.7127 9.732 17.578 9.84374C17.4327 9.87323 17.4327 9.87323 17.2667 9.8735C17.2036 9.87416 17.1405 9.87482 17.0755 9.8755C16.9721 9.87479 16.9721 9.87479 16.8666 9.87407C16.7574 9.87468 16.7574 9.87468 16.646 9.87531C16.4465 9.87616 16.247 9.87596 16.0475 9.87522C15.8386 9.87463 15.6298 9.87518 15.421 9.87555C15.0703 9.87597 14.7196 9.87541 14.3689 9.87429C13.9634 9.87302 13.5581 9.87343 13.1527 9.87472C12.8045 9.87579 12.4564 9.87594 12.1083 9.87532C11.9004 9.87496 11.6925 9.87491 11.4846 9.87568C11.2528 9.87649 11.0211 9.87537 10.7894 9.87407C10.7204 9.87454 10.6515 9.87501 10.5805 9.8755C10.4859 9.87451 10.4859 9.87451 10.3893 9.8735C10.3346 9.87341 10.2798 9.87332 10.2233 9.87323C10.0341 9.83483 9.96371 9.75712 9.84363 9.60936C9.8125 9.49218 9.8125 9.49218 9.81433 9.37499C9.81342 9.31698 9.81342 9.31698 9.8125 9.2578C9.89179 8.95931 10.1039 8.87694 10.3893 8.87648Z" fill="black"/>
<path d="M10.5312 17.3136C10.5766 17.3132 10.6219 17.3128 10.6687 17.3123C10.8185 17.3113 10.9682 17.312 11.118 17.3128C11.2222 17.3126 11.3264 17.3124 11.4306 17.3121C11.6489 17.3117 11.8672 17.3122 12.0855 17.3133C12.3653 17.3147 12.6451 17.3139 12.9249 17.3125C13.14 17.3117 13.3551 17.3119 13.5703 17.3125C13.6735 17.3127 13.7766 17.3125 13.8798 17.312C14.024 17.3114 14.1681 17.3123 14.3123 17.3136C14.3549 17.3131 14.3976 17.3126 14.4415 17.3121C14.6432 17.3155 14.7477 17.3301 14.9091 17.4557C15.0076 17.5887 15.0317 17.6492 15.0292 17.8126C15.0301 17.8707 15.0301 17.8707 15.031 17.9298C14.9843 18.1057 14.9088 18.1698 14.7655 18.2814C14.6065 18.3045 14.4712 18.3135 14.3123 18.3117C14.2443 18.3123 14.2443 18.3123 14.1748 18.313C14.025 18.314 13.8753 18.3133 13.7255 18.3125C13.6213 18.3127 13.5171 18.3129 13.4129 18.3132C13.1946 18.3136 12.9763 18.313 12.758 18.312C12.4782 18.3106 12.1984 18.3114 11.9186 18.3128C11.7035 18.3136 11.4884 18.3134 11.2732 18.3128C11.1701 18.3126 11.0669 18.3128 10.9637 18.3133C10.8195 18.3139 10.6754 18.313 10.5312 18.3117C10.4886 18.3122 10.4459 18.3127 10.402 18.3132C10.2003 18.3098 10.0958 18.2952 9.93444 18.1696C9.83591 18.0366 9.81178 17.9761 9.81433 17.8126C9.81342 17.7546 9.81342 17.7546 9.8125 17.6955C9.91012 17.328 10.2025 17.3099 10.5312 17.3136Z" fill="black"/>
<path d="M10.5312 11.6886C10.5766 11.6882 10.6219 11.6878 10.6687 11.6873C10.8185 11.6863 10.9682 11.687 11.118 11.6878C11.2222 11.6876 11.3264 11.6874 11.4306 11.6871C11.6489 11.6867 11.8672 11.6872 12.0855 11.6883C12.3653 11.6897 12.6451 11.6889 12.9249 11.6875C13.14 11.6867 13.3551 11.6869 13.5703 11.6875C13.6735 11.6877 13.7766 11.6875 13.8798 11.687C14.024 11.6864 14.1681 11.6873 14.3123 11.6886C14.3549 11.6881 14.3976 11.6876 14.4415 11.6871C14.6432 11.6905 14.7477 11.7051 14.9091 11.8307C15.0076 11.9637 15.0317 12.0242 15.0292 12.1876C15.0301 12.2457 15.0301 12.2457 15.031 12.3048C14.9843 12.4807 14.9088 12.5448 14.7655 12.6564C14.6065 12.6795 14.4712 12.6885 14.3123 12.6867C14.2443 12.6873 14.2443 12.6873 14.1748 12.688C14.025 12.689 13.8753 12.6883 13.7255 12.6875C13.6213 12.6877 13.5171 12.6879 13.4129 12.6882C13.1946 12.6886 12.9763 12.688 12.758 12.687C12.4782 12.6856 12.1984 12.6864 11.9186 12.6878C11.7035 12.6886 11.4884 12.6884 11.2732 12.6878C11.1701 12.6876 11.0669 12.6878 10.9637 12.6883C10.8195 12.6889 10.6754 12.688 10.5312 12.6867C10.4886 12.6872 10.4459 12.6877 10.402 12.6882C10.2003 12.6848 10.0958 12.6702 9.93444 12.5446C9.83591 12.4116 9.81178 12.3511 9.81433 12.1876C9.81342 12.1296 9.81342 12.1296 9.8125 12.0705C9.91012 11.703 10.2025 11.6849 10.5312 11.6886Z" fill="black"/>
<path d="M10.5028 22.9377C10.5639 22.9373 10.5639 22.9373 10.6262 22.937C10.7121 22.9368 10.798 22.9373 10.8839 22.9383C11.0151 22.9395 11.1461 22.9383 11.2773 22.9368C11.361 22.9369 11.4446 22.9372 11.5282 22.9377C11.6419 22.9381 11.6419 22.9381 11.758 22.9385C11.9828 22.9735 12.0521 23.0241 12.1874 23.2032C12.2185 23.3204 12.2185 23.3204 12.2167 23.4376C12.2173 23.4762 12.2179 23.5149 12.2185 23.5547C12.1721 23.7294 12.0945 23.7948 11.953 23.9063C11.758 23.9366 11.758 23.9366 11.5282 23.9374C11.4875 23.9377 11.4467 23.9379 11.4048 23.9381C11.3189 23.9383 11.233 23.9378 11.1471 23.9369C11.0159 23.9356 10.8849 23.9369 10.7537 23.9384C10.67 23.9382 10.5864 23.9379 10.5028 23.9374C10.427 23.9372 10.3511 23.9369 10.273 23.9366C10.0482 23.9017 9.97894 23.8511 9.84363 23.6719C9.8125 23.5547 9.8125 23.5547 9.81433 23.4376C9.81342 23.3796 9.81342 23.3796 9.8125 23.3204C9.90747 22.9628 10.1761 22.9388 10.5028 22.9377Z" fill="black"/>
<path d="M10.5028 20.1252C10.5639 20.1248 10.5639 20.1248 10.6262 20.1245C10.7121 20.1243 10.798 20.1248 10.8839 20.1258C11.0151 20.127 11.1461 20.1258 11.2773 20.1243C11.361 20.1244 11.4446 20.1247 11.5282 20.1252C11.6419 20.1256 11.6419 20.1256 11.758 20.126C11.9828 20.161 12.0521 20.2116 12.1874 20.3907C12.2185 20.5079 12.2185 20.5079 12.2167 20.6251C12.2173 20.6637 12.2179 20.7024 12.2185 20.7422C12.1721 20.9169 12.0945 20.9823 11.953 21.0938C11.758 21.1241 11.758 21.1241 11.5282 21.1249C11.4875 21.1252 11.4467 21.1254 11.4048 21.1256C11.3189 21.1258 11.233 21.1253 11.1471 21.1244C11.0159 21.1231 10.8849 21.1244 10.7537 21.1259C10.67 21.1257 10.5864 21.1254 10.5028 21.1249C10.427 21.1247 10.3511 21.1244 10.273 21.1241C10.0482 21.0892 9.97894 21.0386 9.84363 20.8594C9.8125 20.7422 9.8125 20.7422 9.81433 20.6251C9.81342 20.5671 9.81342 20.5671 9.8125 20.5079C9.90747 20.1503 10.1761 20.1263 10.5028 20.1252Z" fill="black"/>
</svg>
