<svg width="61" height="61" viewBox="0 0 61 61" fill="none" xmlns="http://www.w3.org/2000/svg">
<path d="M21.1094 3.57674C21.5092 3.86026 21.8588 4.14995 22.1788 4.52157C22.1788 4.59891 22.1788 4.67626 22.1788 4.75594C22.7484 4.79829 23.0211 4.7133 23.4825 4.38241C25.6501 2.93048 28.215 2.63101 30.7335 3.11532C32.5514 3.56231 34.0855 4.6227 35.117 6.19424C36.0409 7.77484 36.5002 9.42415 36.4903 11.2525C36.4908 11.336 36.4912 11.4194 36.4917 11.5054C36.4909 11.9271 36.4676 12.3207 36.3942 12.7361C36.3518 13.2793 36.4601 13.5345 36.71 14.0138C36.7636 14.1169 36.7636 14.1169 36.8183 14.2222C36.9649 14.5029 37.1129 14.7826 37.2662 15.0597C37.4352 15.3828 37.533 15.6071 37.5125 15.9748C37.3368 16.4445 37.0201 16.8366 36.58 17.0803C36.2378 17.4119 36.2737 17.8028 36.2486 18.2545C36.1305 19.6666 35.8216 21.0655 34.9522 22.2169C34.5417 22.4222 34.0011 22.3915 33.5588 22.2764C32.8909 22.1156 32.159 22.158 31.4952 22.3121C31.0174 22.7302 30.8855 23.2541 30.7335 23.8575C30.7105 23.946 30.6875 24.0345 30.6639 24.1258C30.6115 24.3974 30.6115 24.3974 30.7335 24.795C31.8407 25.8585 33.8119 26.219 35.2525 26.6114C37.7162 27.2855 40.0602 28.1715 41.4268 30.4859C42.5281 32.4574 42.7227 34.6114 42.7324 36.8319C42.7508 37.7586 42.8942 38.4818 43.2725 39.3263C43.3323 39.4608 43.3921 39.5953 43.4538 39.7339C43.6522 40.174 43.8575 40.6108 44.0635 41.0474C44.1349 41.1996 44.2061 41.3518 44.2773 41.5041C44.4496 41.8722 44.6226 42.2399 44.796 42.6075C45.0619 42.6341 45.0619 42.6341 45.294 42.3617C46.8504 40.7158 47.9051 38.8252 48.7803 36.7481C48.6557 36.7436 48.5311 36.7391 48.4027 36.7344C47.6594 36.6405 47.0373 36.2618 46.3853 35.9132C46.2587 35.8479 46.132 35.7827 46.0015 35.7154C44.8477 35.1081 43.8344 34.5263 43.2826 33.3053C43.0496 32.5284 43.0427 31.7458 43.0399 30.9395C43.0382 30.6625 43.0303 30.3864 43.0208 30.1096C42.9822 28.7392 43.0802 27.7551 44.0305 26.7141C44.5228 26.2521 45.0818 25.9108 45.6611 25.5679C45.8669 25.4459 46.071 25.3213 46.275 25.1962C47.3766 24.5311 48.4003 24.0572 49.7178 24.3263C50.1722 24.4962 50.6008 24.7129 51.0231 24.9508C51.5209 25.2314 51.5209 25.2314 52.0781 25.1777C52.2439 25.1043 52.2439 25.1043 52.4132 25.0294C52.7482 24.99 52.7482 24.99 53.087 24.9854C53.1976 24.9821 53.3081 24.9788 53.4221 24.9754C54.4631 25.1169 55.4017 25.6944 56.3096 26.1939C56.4214 26.254 56.5332 26.314 56.6484 26.3759C57.8041 27.0075 58.5558 27.5972 58.9757 28.8966C59.0832 29.5375 59.0884 30.1846 59.0906 30.833C59.0928 31.1191 59.1027 31.404 59.1144 31.6898C59.157 32.9845 59.0696 34.104 58.1553 35.1075C57.8943 35.3056 57.6385 35.4869 57.3643 35.6641C57.2882 35.7149 57.2121 35.7657 57.1336 35.818C56.7295 36.083 56.3236 36.3227 55.8899 36.5362C54.9399 37.0064 54.341 37.3525 53.9609 38.3965C53.9135 38.5501 53.8664 38.7038 53.8194 38.8575C53.7567 39.0442 53.6937 39.2308 53.6304 39.4174C53.3244 40.3363 53.0477 41.2635 52.7798 42.1941C51.5788 46.3607 49.9196 50.2871 47.8428 54.0919C47.7877 54.1935 47.7325 54.2952 47.6756 54.3999C47.5237 54.6771 47.3692 54.9524 47.213 55.2271C47.1698 55.305 47.1266 55.383 47.0822 55.4632C46.6992 56.1179 46.2022 56.6191 45.5137 56.9483C44.3179 57.1875 43.3084 56.8883 42.2764 56.2525C40.8613 55.2346 39.9613 53.9118 39.0538 52.4513C38.9665 52.3113 38.9665 52.3113 38.8775 52.1685C37.9393 50.6549 37.0815 49.0991 36.2413 47.5294C36.3088 48.5951 36.4613 49.6346 36.6441 50.6861C36.6953 50.985 36.7464 51.2839 36.7975 51.5829C36.8222 51.7275 36.8469 51.8721 36.8723 52.021C37.3505 54.8742 37.3505 54.8742 37.0227 55.3942C35.2608 57.3045 32.3787 58.1196 29.8619 58.2383C27.8395 58.2923 25.9018 58.0515 23.9442 57.549C21.9095 57.0276 20.4107 56.7833 18.3734 57.5097C15.8289 58.3502 12.717 58.2084 10.0549 58.2282C9.81745 58.23 9.57999 58.2331 9.34254 58.2363C6.53549 58.2344 6.53549 58.2344 5.53815 57.4903C5.40815 57.1557 5.40815 57.1557 5.33308 56.7652C5.2941 56.5742 5.2941 56.5742 5.25434 56.3793C4.45064 51.4865 5.68686 46.7029 7.26507 42.0987C8.08416 39.8168 8.08416 39.8168 8.35386 37.4265C8.35141 37.2236 8.35141 37.2236 8.34891 37.0166C8.34707 36.8749 8.34523 36.7331 8.34333 36.587C8.32955 33.7385 8.69541 31.219 10.7452 29.0582C12.2501 27.6632 14.0431 27.0358 15.9825 26.4869C18.2562 25.8404 20.2089 25.1193 21.4775 22.9928C22.1766 21.6607 22.7281 19.8357 22.296 18.3497C21.9475 17.4864 21.491 16.6732 20.9923 15.8888C19.8727 14.0626 19.4462 11.8479 19.8959 9.74465C19.9464 9.5639 20.0063 9.3858 20.0694 9.20907C19.644 9.20907 19.2186 9.20907 18.7803 9.20907C18.5964 9.94485 18.6349 10.6954 18.6339 11.4503C18.6336 11.535 18.6334 11.6197 18.6331 11.707C18.6324 12.8629 18.698 13.9697 18.9277 15.1046C19.5224 18.0625 18.406 21.0494 16.8124 23.5247C16.3587 24.2047 15.8743 24.8589 15.3508 25.4871C15.2248 25.6393 15.1029 25.7951 14.9882 25.9559C14.7285 26.3135 14.5719 26.4324 14.1441 26.5675C13.7413 26.5528 13.7413 26.5528 13.4556 26.3697C13.2071 25.9821 13.1878 25.8383 13.2725 25.3809C13.4359 25.0849 13.6161 24.802 13.7962 24.5158C14.682 23.0019 14.5535 21.059 14.1574 19.4107C13.9892 18.7833 13.7506 18.1832 13.5065 17.5825C12.0829 14.0782 12.0829 14.0782 11.7491 12.2559C11.727 12.1499 11.705 12.0439 11.6823 11.9346C11.3576 9.47298 11.6439 7.08091 13.1412 5.04205C15.0882 2.70948 18.4989 1.92868 21.1094 3.57674ZM14.7621 5.58861C14.2004 6.18296 13.812 6.8115 13.5069 7.56844C13.4694 7.65893 13.432 7.74942 13.3934 7.84264C12.3855 10.7963 13.7313 14.1496 14.8765 16.8556C15.4094 18.1191 15.7891 19.3747 15.9239 20.7447C15.9242 21.1677 15.9242 21.1677 16.2022 21.3966C17.2352 19.1885 17.7792 17.2265 17.3155 14.7974C17.1229 13.7541 17.0932 12.7128 17.0838 11.6547C17.082 11.4666 17.0793 11.2785 17.0754 11.0905C17.0523 9.8393 17.1124 8.79826 18.0186 7.84676C18.6531 7.59752 19.279 7.64967 19.9522 7.68563C19.9833 7.56282 20.0145 7.44 20.0465 7.31347C20.0883 7.15187 20.1301 6.99028 20.1719 6.8287C20.1923 6.7478 20.2127 6.66691 20.2337 6.58356C20.3351 6.19515 20.4306 5.91343 20.6553 5.57626C20.6517 5.33347 20.6517 5.33347 20.5382 5.10751C20.3433 4.93299 20.3433 4.93299 20.0987 4.79989C20.0195 4.75245 19.9404 4.70502 19.8588 4.65615C18.0732 3.72534 16.194 4.27156 14.7621 5.58861ZM23.38 6.42586C22.0609 7.81795 21.3601 9.51751 21.2047 11.4137C21.2627 12.9185 21.8167 14.1309 22.5303 15.42C22.5774 15.5052 22.6245 15.5903 22.6729 15.6781C22.9008 16.0886 23.1311 16.4976 23.3644 16.905C23.5248 17.1886 23.6786 17.4702 23.8194 17.7638C24.638 17.6955 25.3581 17.4681 25.9141 16.8336C26.3587 16.1929 26.4195 15.7535 26.3389 14.9879C26.2624 14.0588 26.2887 13.2858 26.7198 12.439C27.2603 11.8235 27.8457 11.7318 28.6241 11.67C28.7224 11.6822 28.8208 11.6945 28.9221 11.7071C29.0646 11.6887 29.0646 11.6887 29.21 11.67C29.4254 11.3991 29.4254 11.3991 29.5909 11.0401C29.9998 10.2864 30.481 9.69704 31.085 9.09188C31.1861 8.98878 31.1861 8.98878 31.2892 8.8836C32.0389 8.17876 33.0275 7.80977 34.0147 7.56844C33.6292 6.43987 32.581 5.54607 31.5538 4.99032C28.8214 3.82183 25.5313 4.391 23.38 6.42586ZM31.671 10.4981C30.6091 11.7787 30.6091 11.7787 30.1475 13.3106C29.4194 13.4301 28.919 13.5016 28.2725 13.0763C27.9026 13.3627 27.8075 13.5297 27.6939 13.9918C27.6557 14.506 27.7758 14.8543 28.0382 15.3028C28.2127 15.462 28.2127 15.462 28.4044 15.6031C28.7413 15.8888 28.7413 15.8888 28.8731 16.2476C28.8585 16.5919 28.8585 16.5919 28.6827 16.8775C28.3897 17.0606 28.3897 17.0606 27.9503 17.0313C27.7617 16.9878 27.7617 16.9878 27.5694 16.9434C27.5238 17.0199 27.4782 17.0963 27.4312 17.1751C26.6486 18.3976 25.7314 18.8179 24.3573 19.1979C24.0646 19.2577 24.0646 19.2577 23.9366 19.4044C23.9115 19.604 23.8872 19.8038 23.8669 20.0039C23.6177 22.4461 22.6834 24.5281 20.7652 26.106C20.5734 26.2563 20.3809 26.4057 20.1866 26.5528C20.2985 27.3653 20.6061 28.0822 20.9117 28.838C20.9423 28.9141 20.973 28.9902 21.0045 29.0687C21.4654 30.2107 21.9489 31.3423 22.4622 32.4618C22.5312 32.6125 22.5997 32.7634 22.6677 32.9145C23.2381 34.1772 23.8688 35.0916 25.0206 35.8692C25.0899 35.9209 25.1593 35.9726 25.2307 36.0258C25.8825 36.4695 26.4494 36.4557 27.2178 36.3966C27.3465 36.3875 27.4753 36.3784 27.6079 36.3691C28.0207 36.3357 28.432 36.294 28.8438 36.2501C28.984 36.2372 29.1242 36.2244 29.2686 36.2112C29.4712 36.1896 29.4712 36.1896 29.6779 36.1677C29.7991 36.1554 29.9204 36.1431 30.0454 36.1305C30.5289 36.0077 30.8451 35.7578 31.1235 35.346C31.732 34.0439 31.5885 32.966 31.1802 31.6212C31.1045 31.3613 31.0291 31.1013 30.9541 30.8411C30.9167 30.7117 30.8793 30.5822 30.8407 30.4488C30.6819 29.8856 30.5396 29.3192 30.4039 28.7501C30.3798 28.6494 30.3556 28.5488 30.3308 28.4451C30.1978 27.8737 30.1015 27.3108 30.0303 26.7286C29.9724 26.294 29.9278 26.0236 29.6129 25.7105C29.5186 25.6404 29.4243 25.5703 29.3272 25.4981C28.9384 24.7205 29.1997 23.5406 29.4467 22.7451C29.7958 21.8523 30.2598 21.26 31.145 20.8582C31.7304 20.6438 32.2848 20.654 32.9014 20.6715C33.0628 20.6738 33.0628 20.6738 33.2274 20.6763C33.4899 20.6804 33.7523 20.6861 34.0147 20.6934C34.4722 19.7341 34.7358 18.9284 34.7325 17.8625C34.7324 16.6179 34.7324 16.6179 35.0506 16.1739C35.2868 16.0017 35.4995 15.8742 35.7725 15.7716C35.676 15.438 35.5744 15.1292 35.3957 14.8301C34.8797 13.9578 34.8898 13.1981 34.9302 12.2047C34.9625 11.1826 34.9886 10.2044 34.7178 9.20907C34.5933 9.06051 34.5933 9.06051 34.3077 9.05526C33.2628 9.14855 32.4 9.77591 31.671 10.4981ZM47.1397 26.5528C46.9788 26.6486 46.8178 26.7442 46.6568 26.8398C46.488 26.9417 46.3194 27.0438 46.151 27.1461C46.0705 27.1942 45.9901 27.2424 45.9072 27.292C45.2419 27.7047 44.8094 28.1363 44.5616 28.8966C44.5279 29.4119 44.5457 29.9256 44.5618 30.4414C44.5689 30.689 44.5716 30.9365 44.5742 31.1842C44.5865 32.2936 44.5865 32.2936 45.0497 33.2721C45.5299 33.7072 46.1029 33.984 46.6783 34.2725C46.8697 34.3722 46.8697 34.3722 47.0649 34.474C47.4011 34.6486 47.7386 34.8204 48.0772 34.9903C48.159 35.0346 48.2408 35.0789 48.3251 35.1245C48.7935 35.3369 49.2603 35.3011 49.7348 35.1386C50.4165 34.8181 51.0516 34.4029 51.6881 34.0015C51.7736 33.9483 51.859 33.8951 51.9471 33.8403C52.5739 33.4356 53.1065 33.0276 53.3507 32.295C53.3901 31.3351 53.3598 30.3687 53.314 29.4093C53.3072 29.2603 53.3004 29.1114 53.2934 28.9579C53.2177 28.4366 53.0791 28.0291 52.691 27.6606C51.8691 27.1492 51.0242 26.6771 50.1765 26.21C50.0967 26.1659 50.0169 26.1219 49.9347 26.0766C48.845 25.5252 48.0874 25.969 47.1397 26.5528ZM53.9366 26.7872C54.3296 27.7192 54.6975 28.1893 55.6134 28.6242C56.1895 28.9076 56.6026 29.2793 56.9761 29.7974C57.4419 31.2494 56.8067 32.8792 56.3975 34.2872C56.9807 33.9794 57.358 33.6324 57.5694 32.9981C57.6089 32.0382 57.5786 31.0719 57.5328 30.1124C57.526 29.9634 57.5192 29.8145 57.5122 29.661C57.4298 29.0938 57.2714 28.7128 56.8603 28.3088C56.364 27.9748 55.8461 27.6881 55.3209 27.4024C55.2137 27.3431 55.1065 27.2837 54.9961 27.2225C54.4938 26.9105 54.4938 26.9105 53.9366 26.7872ZM31.5538 27.1388C31.6921 28.1023 31.9054 29.0141 32.191 29.9439C32.2645 30.1907 32.3377 30.4376 32.4107 30.6846C32.4452 30.8011 32.4796 30.9176 32.5151 31.0376C33.0033 32.71 33.2306 34.2766 32.4492 35.909C31.9767 36.7382 31.5425 37.1761 30.6163 37.4513C30.3758 37.4914 30.134 37.5244 29.8916 37.551C29.6863 37.5738 29.6863 37.5738 29.4768 37.597C29.2614 37.6191 29.2614 37.6191 29.0416 37.6417C28.8945 37.6568 28.7474 37.6719 28.5958 37.6875C26.5655 37.8872 25.3511 37.9064 23.6876 36.6676C23.6083 36.6114 23.529 36.5553 23.4472 36.4975C22.3911 35.714 21.8899 34.5862 21.3365 33.4229C21.2384 33.218 21.2384 33.218 21.1383 33.0089C20.2492 31.1351 19.4769 29.2091 18.7803 27.2559C18.2583 27.43 18.2583 27.43 17.7257 27.6075C18.0131 29.0214 18.3834 30.3751 18.8536 31.7384C18.9154 31.9205 18.9771 32.1026 19.0387 32.2848C19.1638 32.6546 19.2895 33.0243 19.4157 33.3937C19.6741 34.1502 19.9299 34.9075 20.1839 35.6654C20.2576 35.8847 20.3321 36.1037 20.4066 36.3228C20.976 38.0159 21.4368 39.9147 20.6856 41.6325C20.1068 42.7002 19.2463 43.3836 18.3116 44.1309C20.9387 44.3674 23.5656 44.6035 26.1998 44.7462C26.2847 44.751 26.3697 44.7557 26.4572 44.7606C28.7956 44.8902 31.0967 44.8251 33.4288 44.5997C33.5839 44.5855 33.5839 44.5855 33.7421 44.5711C34.7152 44.4872 34.7152 44.4872 35.556 44.0362C35.7554 43.7628 35.8815 43.5074 36.0069 43.1934C36.0516 43.0924 36.0963 42.9913 36.1424 42.8872C37.077 40.5807 36.8018 38.1411 35.9414 35.8578C35.546 34.9243 35.0391 34.0682 34.4908 33.2179C33.3842 31.4335 32.7626 29.426 32.3741 27.3731C32.1034 27.2958 31.8327 27.2184 31.5538 27.1388ZM34.0147 27.9591C34.4287 29.8764 35.1517 31.526 36.1941 33.1776C37.8642 35.8497 38.5939 39.075 37.8888 42.179C37.6363 43.0512 37.3328 43.9585 36.8272 44.7169C36.8491 45.4026 37.1883 45.9788 37.4937 46.5772C37.5509 46.6899 37.608 46.8027 37.6669 46.9188C38.6231 48.7795 39.6955 50.5695 40.8409 52.3194C40.9507 52.4896 40.9507 52.4896 41.0628 52.6631C41.9464 53.9889 42.9301 55.0299 44.481 55.4981C44.9081 55.4981 45.0417 55.4116 45.3819 55.1466C45.6351 54.7925 45.8405 54.4152 46.0484 54.0333C46.1099 53.9226 46.1714 53.8118 46.2347 53.6977C46.4208 53.3612 46.6045 53.0235 46.7882 52.6856C46.8876 52.5062 46.9871 52.3267 47.0866 52.1473C48.735 49.1351 50.0702 45.9195 51.0335 42.6258C51.0664 42.5132 51.0993 42.4006 51.1333 42.2846C51.2967 41.7233 51.4574 41.1615 51.6144 40.5984C52.1454 38.7165 52.7925 36.9702 53.9512 35.3785C54.866 34.0617 55.5388 32.7491 55.6944 31.1231C55.7042 31.0227 55.714 30.9222 55.7242 30.8187C55.7198 30.528 55.7198 30.528 55.5191 30.3262C55.444 30.2677 55.3689 30.2092 55.2916 30.149C55.1794 30.0591 55.1794 30.0591 55.065 29.9673C54.8969 29.8229 54.8969 29.8229 54.7569 29.8341C54.7594 29.9054 54.7618 29.9768 54.7643 30.0503C54.8565 33.1315 54.8565 33.1315 53.827 34.3038C53.3672 34.7177 52.8099 34.9819 52.2698 35.2774C50.8572 36.0229 50.8572 36.0229 50.0548 37.3341C49.9959 37.5668 49.9437 37.7995 49.8957 38.0346C49.7851 38.4665 49.578 38.8516 49.3736 39.2457C49.3336 39.324 49.2935 39.4024 49.2522 39.4831C48.469 40.9917 47.4773 42.2573 46.3121 43.4864C45.1248 44.7463 44.2919 46.0992 43.6223 47.696C43.5069 47.8809 43.5069 47.8809 43.1041 47.9835C42.6866 47.9981 42.6866 47.9981 42.335 47.7638C42.335 46.6498 42.8861 45.4339 43.603 44.58C43.7676 44.373 43.7676 44.373 43.7185 44.1184C43.5914 43.6619 43.3943 43.2535 43.1892 42.8272C43.1004 42.6385 43.0116 42.4498 42.9228 42.261C42.7835 41.9666 42.6438 41.6724 42.5031 41.3787C41.6746 39.6443 41.2402 38.1777 41.2218 36.2354C41.1676 34.0407 40.8971 31.8002 39.2827 30.1458C37.9428 29.0069 35.8059 27.9591 34.0147 27.9591ZM11.837 30.1344C10.0375 32.0381 9.84721 34.1808 9.88897 36.6891C9.90061 38.0406 9.77694 39.3411 9.38337 40.6373C9.34583 40.7615 9.34583 40.7615 9.30752 40.8882C9.11742 41.5026 8.89455 42.102 8.6656 42.7027C7.74693 45.1341 7.11595 47.6592 6.71003 50.2247C6.69682 50.308 6.68361 50.3914 6.67 50.4772C6.56026 51.2958 6.57103 52.1225 6.57113 52.9468C6.57087 53.2047 6.56873 53.4625 6.56652 53.7204C6.50502 55.0576 6.50502 55.0576 6.82722 56.3184C7.30668 56.6001 7.82996 56.6048 8.37308 56.6279C8.51204 56.6346 8.51204 56.6346 8.6538 56.6414C9.64504 56.6838 10.6332 56.6709 11.6246 56.6407C11.7176 56.6381 11.8106 56.6354 11.9065 56.6327C15.1875 56.5352 18.2589 56.0982 21.374 55.0497C23.4376 54.3587 25.1311 54.3926 27.2787 54.7296C27.5085 54.7652 27.7385 54.7989 27.9686 54.8325C28.1031 54.8534 28.2376 54.8743 28.3762 54.8958C28.7709 54.9135 28.9823 54.8656 29.3272 54.6778C29.5255 54.4368 29.6856 54.2162 29.8472 53.9527C29.8927 53.88 29.9381 53.8072 29.9849 53.7323C30.7293 52.5009 31.7692 50.4053 31.5538 48.9356C31.3768 48.7464 31.3768 48.7464 31.129 48.6207C31.0501 48.5743 30.9713 48.5279 30.89 48.4802C29.7665 47.9447 28.3795 47.936 27.1885 48.2838C25.9431 48.77 24.9554 49.6123 24.0565 50.5799C23.467 51.1535 22.4495 50.9506 21.6734 50.9498C21.5858 50.9499 21.4981 50.95 21.4078 50.9501C20.3595 50.9499 19.3253 50.9262 18.2823 50.8106C17.2709 50.7002 16.2675 50.6635 15.2501 50.6568C15.0395 50.6538 15.0395 50.6538 14.8247 50.6506C13.7563 50.6512 12.7421 50.7816 11.7711 51.2501C11.3216 51.4264 11.0424 51.3838 10.5772 51.2794C10.4966 50.8912 10.4966 50.8912 10.46 50.4591C10.6911 50.1546 10.9551 50.0206 11.3023 49.8731C11.3951 49.8319 11.4878 49.7907 11.5834 49.7482C11.8663 49.6388 11.8663 49.6388 12.1272 49.5843C12.4034 49.5217 12.5786 49.4606 12.8038 49.2872C12.9473 48.9549 13.0235 48.62 13.1105 48.2687C13.2996 47.6042 13.6419 47.0108 13.961 46.4015C14.5774 45.2029 15.0611 44.034 15.3819 42.7247C15.4124 42.6051 15.4124 42.6051 15.4435 42.4831C15.7889 41.0669 15.7615 39.6355 15.7309 38.1877C15.727 37.9591 15.727 37.9591 15.7229 37.7259C15.7177 37.5196 15.7177 37.5196 15.7124 37.3091C15.7335 36.9825 15.7335 36.9825 15.9678 36.7481C16.3198 36.7164 16.6696 36.738 17.0225 36.7481C17.1157 37.3915 17.1451 38.0089 17.1347 38.6593C17.1335 38.7362 17.1323 38.8131 17.131 38.8923C17.1258 39.2126 17.12 39.5328 17.1108 39.8531C17.0833 40.8596 17.1282 41.7004 17.6085 42.6075C18.4381 42.2012 19.0901 41.6263 19.4761 40.7691C19.8042 39.6893 19.6177 38.6923 19.3077 37.6399C19.2768 37.5336 19.246 37.4273 19.2142 37.3178C18.7804 35.8505 18.2673 34.4089 17.7621 32.965C17.1983 31.3504 16.6995 29.7444 16.3194 28.0763C14.7547 28.0763 12.9448 29.1088 11.837 30.1344ZM16.4366 44.2481C16.4131 44.3093 16.3896 44.3705 16.3654 44.4335C15.9146 45.6009 15.4506 46.7484 14.8681 47.8571C14.6386 48.2963 14.4866 48.6918 14.3272 49.17C15.294 49.2087 16.2608 49.2473 17.2569 49.2872C17.2133 47.5558 16.9264 45.9376 16.5538 44.2481C16.5151 44.2481 16.4764 44.2481 16.4366 44.2481ZM18.4288 45.6544C18.4675 46.0798 18.5061 46.5052 18.546 46.9434C19.1054 47.115 19.6398 47.2293 20.2223 47.3032C20.3016 47.3134 20.381 47.3235 20.4627 47.3339C23.5059 47.855 23.5059 47.855 26.3943 47.1201C27.2054 46.7161 27.997 46.6636 28.8878 46.6651C29.05 46.6653 29.05 46.6653 29.2155 46.6654C30.1512 46.6816 31.0494 46.8049 31.8207 47.3751C32.2824 47.5984 32.6474 47.5181 33.1431 47.4415C33.2316 47.4297 33.32 47.4179 33.4112 47.4058C33.8158 47.3502 34.2041 47.277 34.6007 47.1778C34.6007 46.7524 34.6007 46.327 34.6007 45.8888C34.4769 45.9043 34.3532 45.9199 34.2257 45.9359C33.2263 46.0569 32.2299 46.1487 31.2242 46.1964C31.1279 46.201 31.0317 46.2057 30.9325 46.2105C29.4194 46.2753 27.9158 46.2243 26.4049 46.1451C26.2585 46.1376 26.2585 46.1376 26.1092 46.13C24.3793 46.041 22.6535 45.9152 20.9277 45.7675C20.0931 45.6968 19.2673 45.6334 18.4288 45.6544ZM18.7803 48.5841C18.7803 48.8548 18.7803 49.1255 18.7803 49.4044C19.5281 49.5469 20.2676 49.5476 21.0257 49.5497C21.2715 49.5509 21.5173 49.5545 21.7631 49.5582C21.9194 49.559 22.0756 49.5596 22.2319 49.56C22.3735 49.5611 22.515 49.5622 22.6609 49.5633C22.7725 49.5496 22.8841 49.5358 22.9991 49.5216C23.0764 49.4056 23.1538 49.2895 23.2335 49.17C22.8642 48.9854 22.4595 48.9819 22.0534 48.9388C21.96 48.9286 21.8667 48.9184 21.7706 48.9078C21.4721 48.8752 21.1736 48.8431 20.8751 48.8111C20.6729 48.7891 20.4707 48.7671 20.2685 48.745C19.7725 48.6909 19.2764 48.6373 18.7803 48.5841ZM33.6998 48.8184C33.5251 48.8511 33.5251 48.8511 33.3468 48.8844C33.2579 48.9013 33.1689 48.9182 33.0772 48.9356C33.0614 49.0438 33.0455 49.152 33.0292 49.2634C32.6521 51.624 31.8297 54.2952 30.0303 55.9669C29.6103 56.2469 29.3075 56.2415 28.8218 56.2379C28.7357 56.2377 28.6495 56.2376 28.5607 56.2374C27.7065 56.2233 26.87 56.1087 26.0273 55.9748C25.3242 55.8656 24.6479 55.829 23.9366 55.8497C23.9366 55.8884 23.9366 55.927 23.9366 55.9669C24.4223 56.0628 24.9082 56.1577 25.3941 56.2525C25.5306 56.2795 25.6671 56.3065 25.8077 56.3342C29.1832 56.9903 32.3883 56.7406 35.325 54.7806C35.5152 54.6295 35.5152 54.6295 35.6553 54.4434C35.6816 54.0977 35.6705 53.8779 35.6082 53.5467C35.595 53.4604 35.5819 53.3741 35.5683 53.2851C35.5252 53.0089 35.4768 52.7339 35.4283 52.4586C35.3995 52.2776 35.371 52.0965 35.3429 51.9154C35.1717 50.8358 34.9588 49.7675 34.7178 48.7013C34.3609 48.7013 34.0501 48.7525 33.6998 48.8184Z" fill="#D7FB00"/>
<path d="M50.0549 28.7354C50.6379 29.1785 50.8957 29.574 50.9998 30.2955C51.0444 31.0203 50.8457 31.4896 50.3699 32.0387C49.8063 32.5198 49.3743 32.5879 48.6432 32.5743C47.998 32.4869 47.5644 32.1643 47.1472 31.6798C46.8563 30.9269 46.8348 30.238 47.1399 29.4825C47.7427 28.5001 49.0337 28.2117 50.0549 28.7354ZM48.6633 30.0685C48.5229 30.3413 48.5229 30.3413 48.429 30.6544C48.545 30.8284 48.545 30.8284 48.6633 31.006C48.9661 31.0353 48.9661 31.0353 49.2493 31.006C49.3897 30.7331 49.3897 30.7331 49.4836 30.42C49.4063 30.304 49.329 30.188 49.2493 30.0685C48.9465 30.0391 48.9465 30.0391 48.6633 30.0685Z" fill="#D7FB00"/>
</svg>
