<svg width="58" height="59" viewBox="0 0 58 59" fill="none" xmlns="http://www.w3.org/2000/svg">
<path d="M11.3589 43.6147C8.94219 40.9564 7.49219 38.0563 7.49219 33.2229C7.49219 24.7647 13.5339 17.2729 21.9922 13.4062L24.1672 16.5479C16.1922 20.8979 14.5005 26.4564 14.0172 30.0814C15.2255 29.3564 16.9172 29.1146 18.6089 29.3563C22.9589 29.8396 26.3422 33.2231 26.3422 37.8148C26.3422 39.9898 25.3755 42.1647 23.9255 43.8563C22.2339 45.548 20.3005 46.2729 17.8839 46.2729C15.2255 46.2729 12.8089 45.0647 11.3589 43.6147ZM35.5255 43.6147C33.1089 40.9564 31.6589 38.0563 31.6589 33.2229C31.6589 24.7647 37.7005 17.2729 46.1589 13.4062L48.3339 16.5479C40.3589 20.8979 38.6672 26.4564 38.1839 30.0814C39.3922 29.3564 41.0839 29.1146 42.7755 29.3563C47.1255 29.8396 50.5089 33.2231 50.5089 37.8148C50.5089 39.9898 49.5422 42.1647 48.0922 43.8563C46.6422 45.548 44.4672 46.2729 42.0505 46.2729C39.3922 46.2729 36.9755 45.0647 35.5255 43.6147Z" fill="#171E2E"/>
</svg>
