<svg width="30" height="31" viewBox="0 0 30 31" fill="none" xmlns="http://www.w3.org/2000/svg">
<g clip-path="url(#clip0_224_68)">
<path d="M21.1301 0.305437C21.1689 0.303246 21.2076 0.301056 21.2476 0.298799C21.7423 0.290253 22.1368 0.537136 22.4885 0.868787C22.5853 0.96567 22.6814 1.06334 22.7767 1.16168C22.8279 1.21329 22.8791 1.2649 22.9318 1.31807C23.0937 1.48155 23.2545 1.64603 23.4153 1.81056C23.5254 1.92229 23.6357 2.03379 23.746 2.1453C24.015 2.41748 24.2831 2.69047 24.5506 2.96413C24.723 2.88157 24.8399 2.80434 24.9708 2.66429C25.022 2.61093 25.022 2.61093 25.0742 2.55649C25.1444 2.48227 25.2143 2.40781 25.2839 2.3331C25.683 1.91912 26.0888 1.72645 26.6673 1.71535C27.2488 1.71472 27.6037 1.88373 28.0243 2.27771C28.4286 2.68205 28.6067 3.06374 28.6228 3.63796C28.5941 4.56452 27.9898 5.04408 27.3631 5.65944C27.4469 5.85184 27.5495 5.97603 27.6996 6.12183C27.7446 6.16586 27.7896 6.20989 27.8359 6.25525C27.8846 6.30237 27.9332 6.34949 27.9833 6.39804C28.086 6.49899 28.1887 6.59997 28.2914 6.70097C28.4532 6.85954 28.6153 7.01788 28.7778 7.17574C28.9348 7.32844 29.0908 7.48207 29.2467 7.63584C29.2952 7.68236 29.3436 7.72889 29.3934 7.77683C29.734 8.11438 29.9921 8.45465 30.0288 8.94641C30.0168 9.75886 29.8691 10.1158 29.2966 10.6985C29.264 10.7323 29.2313 10.7661 29.1976 10.8009C29.0907 10.9113 28.9833 11.0211 28.8755 11.1306C28.8414 11.1655 28.8073 11.2004 28.7722 11.2363C28.5697 11.4391 28.3689 11.6028 28.1248 11.7532C28.1559 11.7845 28.187 11.8157 28.2191 11.8479C28.6258 12.277 28.8347 12.6496 28.8572 13.2473C28.8348 13.8613 28.6054 14.2552 28.1834 14.6829C28.1162 14.7543 28.0491 14.8257 27.9819 14.8971C27.4548 15.4501 27.0034 15.8742 26.2095 15.928C25.2669 15.9102 24.6899 15.1903 24.0745 14.5698C23.995 14.4902 23.9156 14.4105 23.8361 14.3309C23.6281 14.1225 23.4206 13.9138 23.2131 13.705C23.0008 13.4915 22.7881 13.2783 22.5755 13.0651C22.1593 12.6477 21.7435 12.2299 21.3279 11.8118C21.1629 11.887 21.0426 11.9653 20.9146 12.0935C20.8807 12.1272 20.8467 12.1609 20.8118 12.1956C20.7751 12.2327 20.7383 12.2697 20.7005 12.3079C20.6611 12.3472 20.6216 12.3866 20.581 12.4271C20.4487 12.5592 20.3167 12.6918 20.1848 12.8244C20.0901 12.9191 19.9954 13.0138 19.9007 13.1085C19.6433 13.3658 19.3863 13.6235 19.1293 13.8813C18.8609 14.1505 18.592 14.4194 18.3233 14.6883C17.8721 15.1398 17.4211 15.5915 16.9703 16.0434C16.5059 16.5088 16.0415 16.9741 15.5768 17.4392C15.5482 17.4679 15.5196 17.4966 15.49 17.5261C15.3464 17.6699 15.2027 17.8138 15.059 17.9576C13.867 19.1508 12.6754 20.3444 11.4841 21.5383C11.5946 21.7787 11.7559 21.9409 11.9435 22.1235C11.9784 22.158 12.0134 22.1926 12.0495 22.2281C12.1254 22.303 12.2014 22.3777 12.2776 22.4524C12.3983 22.5709 12.5187 22.6898 12.6389 22.8088C12.9807 23.1473 13.3231 23.4851 13.6664 23.8221C13.8765 24.0284 14.0858 24.2354 14.2948 24.4429C14.3742 24.5216 14.454 24.5999 14.534 24.678C15.0696 25.2007 15.5792 25.6989 15.604 26.4932C15.5922 27.1666 15.2854 27.5822 14.824 28.0423C14.7571 28.1124 14.6904 28.1827 14.6237 28.2531C14.5526 28.3269 14.4814 28.4007 14.4102 28.4744C14.3771 28.5093 14.3439 28.5441 14.3098 28.5801C13.9257 28.9691 13.5154 29.1616 12.9673 29.1702C12.3779 29.1616 12.0488 28.9926 11.6052 28.6074C11.4947 28.4988 11.4947 28.4988 11.367 28.511C11.292 28.5977 11.292 28.5977 11.2164 28.7115C11.0012 29.0077 10.7537 29.263 10.4954 29.5217C10.4506 29.568 10.4058 29.6142 10.3596 29.6618C9.92835 30.0953 9.52671 30.3337 8.90236 30.3457C8.82917 30.3479 8.75598 30.3501 8.68057 30.3524C8.06697 30.3173 7.67769 29.9687 7.2686 29.5446C7.21611 29.4916 7.16361 29.4387 7.10953 29.3841C6.97152 29.2444 6.83432 29.1041 6.69746 28.9633C6.55708 28.8193 6.41566 28.6763 6.27434 28.5332C5.99828 28.2533 5.72325 27.9724 5.44899 27.6907C5.27658 27.7732 5.15967 27.8505 5.02876 27.9905C4.99462 28.0261 4.96048 28.0617 4.92531 28.0983C4.85517 28.1726 4.78528 28.247 4.71565 28.3217C4.32184 28.7302 3.91424 28.9273 3.34328 28.9468C2.80786 28.9527 2.39953 28.7676 1.99196 28.4194C1.93395 28.3488 1.93395 28.3488 1.87477 28.2766C1.81495 28.2114 1.81495 28.2114 1.75392 28.1448C1.40095 27.6438 1.34153 27.1884 1.40602 26.5774C1.56839 25.9174 2.17166 25.4518 2.63649 24.9954C2.5526 24.803 2.45007 24.6788 2.29995 24.533C2.23247 24.4669 2.23247 24.4669 2.16363 24.3996C2.11498 24.3524 2.06634 24.3053 2.01622 24.2568C1.9135 24.1558 1.81081 24.0549 1.70815 23.9538C1.54631 23.7953 1.38425 23.6369 1.22171 23.4791C1.06474 23.3264 0.908718 23.1728 0.752792 23.019C0.704385 22.9725 0.655977 22.9259 0.606102 22.878C0.265547 22.5404 0.00742912 22.2002 -0.0292969 21.7084C-0.0172902 20.896 0.130416 20.5391 0.702896 19.9563C0.735582 19.9225 0.768268 19.8887 0.801945 19.8539C0.908812 19.7435 1.01628 19.6337 1.12404 19.5242C1.15813 19.4893 1.19221 19.4545 1.22734 19.4185C1.42983 19.2157 1.63063 19.052 1.87477 18.9016C1.84365 18.871 1.81253 18.8404 1.78047 18.8089C1.3704 18.3816 1.16683 17.9711 1.14235 17.3745C1.17592 16.5375 1.72405 16.0539 2.2776 15.4885C2.31605 15.4479 2.35449 15.4073 2.3941 15.3654C2.7801 14.9726 3.22579 14.7406 3.78273 14.7232C4.81301 14.7413 5.44671 15.6094 6.11961 16.2853C6.19364 16.3594 6.26769 16.4335 6.34174 16.5077C6.53471 16.7009 6.72751 16.8942 6.92026 17.0876C7.11775 17.2857 7.3154 17.4836 7.51305 17.6816C7.89941 18.0686 8.28559 18.4557 8.67165 18.843C8.91513 18.7473 9.07786 18.5698 9.25819 18.3874C9.29324 18.3524 9.32829 18.3174 9.3644 18.2813C9.4819 18.1639 9.59898 18.046 9.71606 17.9282C9.80016 17.844 9.88429 17.7597 9.96844 17.6756C10.1496 17.4942 10.3306 17.3126 10.5115 17.131C10.7973 16.8439 11.0834 16.5572 11.3697 16.2707C11.8221 15.8175 12.2743 15.3641 12.7264 14.9106C13.5365 14.0979 14.347 13.2855 15.1577 12.4734C15.4424 12.1882 15.727 11.9028 16.0114 11.6173C16.188 11.4401 16.3648 11.263 16.5415 11.0859C16.6237 11.0035 16.7059 10.921 16.788 10.8385C16.8997 10.7263 17.0115 10.6142 17.1234 10.5022C17.1562 10.4692 17.189 10.4361 17.2228 10.4021C17.5046 10.1207 17.5046 10.1207 17.7427 10.0943C17.9723 10.1168 18.0591 10.1883 18.2224 10.3469C18.3147 10.5314 18.3358 10.6776 18.281 10.8743C17.9018 11.3874 17.3919 11.83 16.9408 12.2798C16.8599 12.3607 16.779 12.4416 16.6981 12.5225C16.4801 12.7405 16.262 12.9583 16.0438 13.1761C15.8152 13.4043 15.5867 13.6327 15.3583 13.8611C14.9263 14.2928 14.4943 14.7244 14.0622 15.156C13.5699 15.6475 13.0778 16.1393 12.5858 16.6311C11.5742 17.642 10.5625 18.6528 9.55055 19.6633C9.60694 19.7294 9.66336 19.7955 9.7198 19.8615C9.75122 19.8983 9.78264 19.935 9.81501 19.9729C9.90335 20.0749 9.99431 20.1725 10.0903 20.2674C10.1208 20.2978 10.1514 20.3282 10.183 20.3595C10.2135 20.3896 10.2441 20.4197 10.2757 20.4507C10.3076 20.4824 10.3395 20.5141 10.3725 20.5467C10.4499 20.6235 10.5276 20.7001 10.6052 20.7766C10.8912 20.5383 11.1603 20.2885 11.4229 20.0247C11.4617 19.9858 11.5006 19.947 11.5407 19.907C11.6699 19.7779 11.7989 19.6485 11.9279 19.5192C12.0209 19.4262 12.1139 19.3332 12.2069 19.2402C12.4587 18.9884 12.7103 18.7365 12.9619 18.4845C13.2251 18.2209 13.4885 17.9575 13.7518 17.6941C14.1936 17.2522 14.6352 16.8102 15.0768 16.3681C15.5315 15.9129 15.9862 15.4577 16.4411 15.0026C16.4691 14.9745 16.4972 14.9465 16.5261 14.9175C16.6669 14.7766 16.8078 14.6357 16.9486 14.4948C18.1156 13.3272 19.2824 12.1594 20.449 10.9915C20.2577 10.7648 20.0658 10.5422 19.8547 10.3335C19.8098 10.2889 19.7648 10.2443 19.7186 10.1984C19.6704 10.151 19.6223 10.1035 19.5727 10.0546C19.4953 9.9779 19.4953 9.9779 19.4164 9.89966C19.3049 9.78918 19.1934 9.67875 19.0817 9.56839C18.9049 9.39346 18.7284 9.21818 18.552 9.04281C18.5221 9.0131 18.4922 8.98338 18.4614 8.95276C18.4003 8.89204 18.3392 8.83131 18.2781 8.77058C17.868 8.36294 17.4575 7.95557 17.0463 7.54905C16.768 7.27399 16.4903 6.99841 16.2132 6.72223C16.0669 6.57647 15.9203 6.431 15.7731 6.28617C15.6088 6.1245 15.4456 5.96168 15.2825 5.79876C15.2343 5.75165 15.186 5.70454 15.1363 5.65601C14.7195 5.23619 14.4145 4.76684 14.3955 4.16164C14.4081 3.30882 14.9623 2.81563 15.5235 2.24635C15.5624 2.20572 15.6013 2.16508 15.6414 2.12322C16.0447 1.71485 16.4459 1.49562 17.0249 1.48097C17.6928 1.48991 18.1093 1.74105 18.574 2.20241C18.5975 2.17067 18.621 2.13894 18.6452 2.10624C18.9109 1.75509 19.1997 1.4399 19.5115 1.12941C19.5565 1.08345 19.6015 1.03749 19.6479 0.990137C20.1086 0.529037 20.473 0.319049 21.1301 0.305437ZM20.3904 1.79225C20.325 1.85665 20.2595 1.92088 20.1938 1.98497C19.7399 2.37841 19.7399 2.37841 19.5408 2.91286C19.5462 3.14308 19.5871 3.24898 19.7436 3.41705C19.7811 3.45753 19.8185 3.49802 19.8571 3.53973C20.0739 3.76426 20.2928 3.9864 20.5144 4.20621C20.5663 4.25791 20.6182 4.30961 20.6716 4.36287C20.7835 4.47435 20.8955 4.58578 21.0075 4.69712C21.1847 4.87326 21.3617 5.04967 21.5386 5.22611C22.0414 5.72748 22.5445 6.2285 23.0479 6.72926C23.3266 7.00656 23.6051 7.28407 23.8834 7.5618C24.0592 7.73721 24.2353 7.91235 24.4115 8.0873C24.5466 8.22151 24.6813 8.35611 24.816 8.49065C24.8648 8.53893 24.9136 8.58721 24.9639 8.63695C25.0083 8.68146 25.0527 8.72597 25.0985 8.77183C25.1372 8.81033 25.1759 8.84882 25.2157 8.88848C25.3828 9.0802 25.432 9.18518 25.4185 9.4424C25.3524 9.72196 25.3524 9.72196 25.1951 9.8196C24.9961 9.88015 24.8927 9.90278 24.7042 9.80855C24.5347 9.69148 24.3982 9.5639 24.253 9.41774C24.2245 9.38925 24.196 9.36075 24.1667 9.33138C24.0718 9.23626 23.9773 9.14072 23.8828 9.04518C23.8147 8.97671 23.7465 8.90828 23.6783 8.83987C23.5317 8.69271 23.3853 8.54537 23.239 8.39789C23.0076 8.16464 22.7758 7.93188 22.5438 7.69919C21.9678 7.12119 21.3924 6.54266 20.8172 5.96384C20.3701 5.5139 19.9228 5.06415 19.4749 4.61502C19.2444 4.38381 19.0143 4.1522 18.7845 3.92028C18.6413 3.77601 18.4978 3.63212 18.3542 3.48832C18.2878 3.42165 18.2215 3.35484 18.1554 3.28785C18.065 3.1963 17.974 3.1053 17.8829 3.01442C17.8322 2.96339 17.7815 2.91236 17.7292 2.85979C17.5201 2.68007 17.3244 2.56828 17.0506 2.52834C16.6281 2.58995 16.3277 2.96419 16.0398 3.25343C15.9977 3.29464 15.9555 3.33584 15.9121 3.37829C15.8718 3.41859 15.8314 3.45888 15.7899 3.5004C15.7534 3.53665 15.717 3.5729 15.6795 3.61025C15.5231 3.80307 15.4695 3.96587 15.4649 4.21291C15.526 4.4252 15.5674 4.49242 15.7098 4.65002C15.7469 4.6911 15.784 4.73217 15.8222 4.77449C15.9975 4.96222 16.1766 5.14554 16.3583 5.32701C16.3987 5.36753 16.439 5.40804 16.4806 5.44978C16.6145 5.58423 16.7487 5.71847 16.8828 5.8527C16.9794 5.94955 17.076 6.04641 17.1725 6.14328C17.4338 6.40538 17.6954 6.66729 17.9569 6.92913C18.1204 7.09274 18.2838 7.25639 18.4472 7.42005C18.9001 7.87365 19.353 8.3272 19.8062 8.78055C19.8351 8.80948 19.864 8.83841 19.8938 8.86822C19.9228 8.89722 19.9518 8.92622 19.9816 8.95609C20.0404 9.01484 20.0991 9.0736 20.1578 9.13235C20.187 9.16149 20.2161 9.19064 20.2461 9.22066C20.7191 9.69386 21.1916 10.1674 21.664 10.6412C22.1496 11.1282 22.6356 11.6149 23.1218 12.1012C23.3946 12.3741 23.6673 12.647 23.9396 12.9204C24.1953 13.1771 24.4515 13.4334 24.708 13.6894C24.8021 13.7835 24.8961 13.8777 24.99 13.9721C25.1178 14.1008 25.2463 14.2289 25.3748 14.3568C25.4306 14.4133 25.4306 14.4133 25.4875 14.4709C25.7315 14.7121 25.912 14.8556 26.2681 14.8623C26.5719 14.7748 26.7313 14.6096 26.9529 14.3899C27.0135 14.3314 27.0742 14.273 27.1349 14.2146C27.1988 14.1523 27.2627 14.0899 27.3264 14.0274C27.3571 13.9974 27.3879 13.9675 27.4195 13.9367C27.6068 13.7496 27.7515 13.6009 27.7904 13.3348C27.7647 12.8204 27.4032 12.547 27.0542 12.211C26.9542 12.1146 26.8545 12.0179 26.755 11.9209C26.6537 11.8224 26.5515 11.7247 26.4484 11.628C26.0483 11.2404 26.0483 11.2404 26.0069 10.9972C26.0167 10.7873 26.0613 10.6863 26.1912 10.5227C26.3763 10.4301 26.5135 10.444 26.7185 10.4641C26.8181 10.5296 26.8181 10.5296 26.9163 10.6106C27.1169 10.7668 27.2709 10.8092 27.5249 10.7917C27.7872 10.7225 27.9412 10.5377 28.1248 10.3469C28.1901 10.2825 28.2557 10.2183 28.3214 10.1542C28.7752 9.76079 28.7752 9.76079 28.9744 9.22634C28.9681 9.00243 28.9336 8.89595 28.7813 8.73207C28.7438 8.69151 28.7063 8.65094 28.6676 8.60915C28.3959 8.32816 28.1214 8.05031 27.8448 7.77421C27.7756 7.70497 27.7065 7.63573 27.6374 7.56647C27.4508 7.37969 27.2641 7.19309 27.0774 7.00653C26.8817 6.81099 26.6861 6.6153 26.4906 6.41964C26.1626 6.09156 25.8345 5.76361 25.5063 5.43572C25.1267 5.05639 24.7473 4.67685 24.3679 4.2972C24.042 3.97095 23.7159 3.64482 23.3897 3.31878C23.1949 3.12415 23.0003 2.92949 22.8057 2.73472C22.6231 2.55197 22.4404 2.36937 22.2576 2.18688C22.1904 2.11977 22.1233 2.05262 22.0562 1.98541C21.9649 1.89398 21.8734 1.80272 21.7819 1.71152C21.7051 1.63473 21.7051 1.63473 21.6268 1.5564C21.4265 1.36818 21.2688 1.35024 21.0006 1.35578C20.7276 1.40658 20.5771 1.59838 20.3904 1.79225ZM25.7298 3.41823C25.695 3.4535 25.6603 3.48878 25.6245 3.52512C25.5397 3.61129 25.4552 3.69783 25.3709 3.78444C25.7122 4.20386 26.0997 4.57698 26.4841 4.95632C27.199 4.41618 27.199 4.41618 27.5608 3.64894C27.5306 3.35148 27.444 3.14017 27.212 2.9449C26.5864 2.54477 26.1614 2.97389 25.7298 3.41823ZM3.09151 16.1988C3.00285 16.2875 2.91467 16.3767 2.82692 16.4663C2.78198 16.5111 2.73704 16.5558 2.69073 16.6019C2.36575 16.9117 2.36575 16.9117 2.20917 17.3201C2.23479 17.8344 2.59637 18.1078 2.94531 18.4438C3.04534 18.5402 3.14508 18.6369 3.24454 18.7339C3.34588 18.8324 3.44809 18.9301 3.55119 19.0268C3.95124 19.4144 3.95124 19.4144 3.99261 19.6576C3.98282 19.8675 3.93827 19.9685 3.80836 20.1321C3.63651 20.218 3.53178 20.212 3.33961 20.1907C3.2309 20.1252 3.2309 20.1252 3.11623 20.0442C2.89902 19.9002 2.73412 19.8449 2.47261 19.8632C2.21176 19.933 2.05753 20.1181 1.87477 20.3079C1.80939 20.3723 1.74384 20.4365 1.67816 20.5006C1.22432 20.894 1.22432 20.894 1.02516 21.4285C1.03139 21.6524 1.06594 21.7589 1.21823 21.9227C1.25576 21.9633 1.29328 22.0039 1.33194 22.0457C1.60364 22.3267 1.87813 22.6045 2.15477 22.8806C2.22392 22.9498 2.29306 23.0191 2.36219 23.0884C2.54871 23.2751 2.73541 23.4617 2.92216 23.6483C3.11785 23.8438 3.31339 24.0395 3.50896 24.2352C3.83693 24.5633 4.16503 24.8912 4.49319 25.2191C4.87284 25.5984 5.25228 25.978 5.63161 26.3576C5.95759 26.6839 6.28369 27.01 6.60988 27.336C6.8046 27.5307 6.99928 27.7253 7.19385 27.9201C7.37643 28.1028 7.55915 28.2854 7.74198 28.4679C7.80916 28.535 7.87629 28.6022 7.94337 28.6694C8.03465 28.7608 8.1261 28.8521 8.2176 28.9433C8.26881 28.9945 8.32002 29.0457 8.37278 29.0984C8.57299 29.2866 8.73076 29.3046 8.99895 29.299C9.27199 29.2482 9.42249 29.0564 9.60915 28.8626C9.67452 28.7982 9.74008 28.7339 9.80576 28.6698C10.2596 28.2764 10.2596 28.2764 10.4588 27.742C10.4533 27.512 10.4127 27.4061 10.2563 27.2382C10.2001 27.1774 10.2001 27.1774 10.1428 27.1155C9.92395 26.8888 9.70324 26.6644 9.47976 26.4423C9.39925 26.3619 9.31875 26.2816 9.23825 26.2012C9.15262 26.1157 9.06692 26.0304 8.9812 25.9451C8.80203 25.7667 8.6231 25.5881 8.44419 25.4095C8.06486 25.0308 7.68528 24.6523 7.30568 24.2739C6.89475 23.8643 6.48387 23.4546 6.07328 23.0447C5.89542 22.8671 5.71742 22.6897 5.53931 22.5124C5.40286 22.3765 5.2666 22.2404 5.13031 22.1043C5.08097 22.0553 5.03163 22.0062 4.9808 21.9557C4.93587 21.9108 4.89094 21.8659 4.84466 21.8196C4.80555 21.7806 4.76643 21.7416 4.72614 21.7014C4.56663 21.5304 4.49568 21.4182 4.5005 21.1868C4.50088 21.1469 4.50126 21.107 4.50165 21.0659C4.51149 20.9524 4.51149 20.9524 4.57008 20.7766C4.65731 20.7554 4.74543 20.7378 4.83376 20.7217C4.90717 20.7064 4.90717 20.7064 4.98207 20.6908C5.48906 20.7702 5.94308 21.4398 6.29634 21.7959C6.36279 21.8626 6.42925 21.9294 6.49573 21.9961C6.63801 22.139 6.78021 22.2819 6.92234 22.4249C7.14722 22.6512 7.3724 22.8771 7.59763 23.103C8.23777 23.7451 8.87766 24.3875 9.51694 25.0304C9.87065 25.3861 10.2247 25.7416 10.579 26.0966C10.8029 26.321 11.0265 26.5457 11.2497 26.7708C11.3886 26.9106 11.5279 27.0501 11.6673 27.1895C11.7317 27.2541 11.796 27.3188 11.8601 27.3837C11.9479 27.4724 12.0361 27.5606 12.1245 27.6487C12.1737 27.6981 12.2229 27.7475 12.2735 27.7984C12.4814 27.9762 12.6774 28.0869 12.949 28.1265C13.3715 28.0649 13.6718 27.6906 13.9597 27.4014C14.0019 27.3602 14.044 27.319 14.0874 27.2765C14.1479 27.2161 14.1479 27.2161 14.2097 27.1544C14.2461 27.1182 14.2825 27.0819 14.32 27.0446C14.4765 26.8518 14.53 26.689 14.5347 26.4419C14.4735 26.2296 14.4322 26.1624 14.2898 26.0048C14.2527 25.9637 14.2156 25.9226 14.1773 25.8803C14.0021 25.6926 13.8229 25.5093 13.6412 25.3278C13.6009 25.2873 13.5605 25.2468 13.519 25.205C13.385 25.0706 13.2509 24.9364 13.1167 24.8021C13.0202 24.7053 12.9236 24.6084 12.827 24.5115C12.5657 24.2494 12.3042 23.9875 12.0426 23.7257C11.8792 23.5621 11.7157 23.3984 11.5523 23.2348C11.0995 22.7812 10.6465 22.3276 10.1934 21.8743C10.1644 21.8453 10.1355 21.8164 10.1057 21.7866C10.0767 21.7576 10.0478 21.7286 10.0179 21.6987C9.95917 21.64 9.90045 21.5812 9.84172 21.5225C9.81259 21.4933 9.78346 21.4642 9.75345 21.4342C9.28048 20.961 8.80792 20.4874 8.33552 20.0136C7.84991 19.5266 7.36397 19.0399 6.8777 18.5536C6.60491 18.2808 6.33227 18.0078 6.05998 17.7344C5.80422 17.4777 5.54805 17.2214 5.29154 16.9654C5.1974 16.8713 5.10342 16.7771 5.00959 16.6827C4.88169 16.554 4.75327 16.426 4.6247 16.298C4.58753 16.2604 4.55036 16.2227 4.51207 16.1839C4.01753 15.6949 3.59973 15.7135 3.09151 16.1988ZM3.02101 26.1233C2.98034 26.1633 2.93966 26.2032 2.89776 26.2444C2.85875 26.2833 2.81974 26.3222 2.77954 26.3623C2.74371 26.3979 2.70787 26.4334 2.67095 26.4701C2.51903 26.6453 2.46487 26.775 2.43874 27.0059C2.46899 27.3033 2.55553 27.5147 2.78755 27.7099C3.02816 27.8638 3.22761 27.9083 3.5154 27.8665C3.80971 27.6964 4.03398 27.4793 4.26979 27.2366C4.30453 27.2013 4.33928 27.166 4.37508 27.1297C4.45988 27.0435 4.54432 26.957 4.62868 26.8704C4.39394 26.582 4.14023 26.3169 3.87794 26.0537C3.84353 26.019 3.80911 25.9844 3.77365 25.9486C3.39951 25.5758 3.35601 25.7886 3.02101 26.1233Z" fill="white"/>
</g>
<defs>
<clipPath id="clip0_224_68">
<rect width="30" height="30" fill="white" transform="translate(0 0.327393)"/>
</clipPath>
</defs>
</svg>
