<svg width="25" height="24" viewBox="0 0 25 24" fill="none" xmlns="http://www.w3.org/2000/svg">
<g clip-path="url(#clip0_239_7512)">
<path d="M6.37075 1.82815C6.79151 2.18625 7.18031 2.58254 7.57137 2.97237C7.61498 3.01578 7.61498 3.01578 7.65946 3.06006C7.81285 3.21275 7.9661 3.36556 8.11924 3.5185C8.27609 3.67509 8.43337 3.83124 8.59075 3.9873C8.71313 4.10879 8.83518 4.23061 8.95715 4.35251C9.01498 4.4102 9.07293 4.46777 9.131 4.52522C9.78318 5.17091 10.2679 5.79458 10.3083 6.75002C10.2544 7.85309 9.41263 8.59214 8.67934 9.32229C8.61472 9.38718 8.61472 9.38718 8.54879 9.45339C8.50704 9.49508 8.46528 9.53678 8.42226 9.57973C8.38494 9.61701 8.34761 9.65428 8.30915 9.69269C8.19888 9.7969 8.08428 9.89137 7.9645 9.9844C7.99187 10.2201 8.09916 10.4022 8.21352 10.6055C8.23415 10.6424 8.25478 10.6792 8.27603 10.7172C8.60278 11.2891 8.99411 11.8242 9.41763 12.3281C9.44691 12.3633 9.44691 12.3633 9.47679 12.3992C10.0464 13.0815 10.6469 13.7637 11.3228 14.3429C11.4064 14.4145 11.4891 14.487 11.5715 14.56C12.197 15.1111 12.8651 15.6171 13.5895 16.0313C13.6165 16.0471 13.6434 16.0628 13.6712 16.0791C13.7539 16.1274 13.8371 16.1747 13.9206 16.2217C13.9694 16.2493 14.0183 16.2769 14.0687 16.3054C14.2135 16.3655 14.2446 16.3661 14.3864 16.3125C14.4713 16.2469 14.4713 16.2469 14.5508 16.1618C14.5821 16.13 14.6135 16.0982 14.6457 16.0655C14.6959 16.0136 14.6959 16.0136 14.7471 15.9606C14.7821 15.925 14.8172 15.8895 14.8533 15.8528C15.003 15.7007 15.152 15.5479 15.301 15.395C15.41 15.2834 15.5195 15.1723 15.6289 15.0612C15.6782 15.0101 15.6782 15.0101 15.7286 14.958C16.0374 14.6448 16.3789 14.371 16.7916 14.209C16.8369 14.1908 16.8822 14.1725 16.9288 14.1537C17.5236 13.9501 18.1537 14.045 18.7106 14.3115C18.9187 14.4351 19.0946 14.5791 19.2696 14.745C19.2991 14.7727 19.3285 14.8004 19.3588 14.8289C19.8402 15.2856 20.308 15.7566 20.7771 16.2258C20.9183 16.3671 21.0599 16.5079 21.2015 16.6488C21.3121 16.7589 21.4225 16.8692 21.5329 16.9796C21.585 17.0316 21.6371 17.0836 21.6894 17.1354C22.3389 17.7808 22.9082 18.4205 22.9323 19.374C22.9152 20.3859 22.3056 21.0625 21.6234 21.7491C21.5818 21.7912 21.5401 21.8333 21.4972 21.8766C21.4097 21.9648 21.3221 22.0528 21.2344 22.1407C21.1456 22.2297 21.0571 22.3191 20.9691 22.4089C20.026 23.3689 20.026 23.3689 19.4958 23.625C19.4474 23.6484 19.399 23.6719 19.3492 23.696C17.957 24.3392 16.2534 23.9883 14.8551 23.5313C14.8145 23.518 14.7738 23.5047 14.7319 23.491C11.9573 22.5677 9.34937 20.8723 7.2145 18.8906C7.16232 18.8428 7.11014 18.7949 7.05795 18.7471C5.8637 17.6474 5.8637 17.6474 5.39077 17.0435C5.28001 16.9063 5.16123 16.7779 5.04067 16.6494C4.76103 16.3487 4.51013 16.0296 4.26138 15.7031C4.23478 15.6686 4.20819 15.634 4.18079 15.5984C3.09879 14.1905 2.17275 12.6856 1.44888 11.0625C1.42664 11.0139 1.4044 10.9652 1.38149 10.9151C0.595986 9.14986 -0.0554068 7.0225 0.616845 5.12112C0.906296 4.4173 1.41606 3.91942 1.9472 3.3932C2.09094 3.25039 2.23226 3.1082 2.36294 2.95315C3.40656 1.72663 4.8306 0.7526 6.37075 1.82815ZM4.12075 3.2344C3.84515 3.49581 3.5763 3.76422 3.30682 4.03191C3.22062 4.11734 3.13416 4.20252 3.04746 4.28744C2.92112 4.41119 2.79558 4.53571 2.67019 4.66042C2.6318 4.69775 2.59342 4.73507 2.55387 4.77352C1.9788 5.35071 1.76422 6.03819 1.76544 6.84016C1.77712 7.60105 1.96768 8.32637 2.19888 9.0469C2.21274 9.09072 2.22661 9.13454 2.2409 9.1797C2.74718 10.7521 3.55575 12.2406 4.49575 13.5938C4.51567 13.6226 4.53559 13.6513 4.55611 13.681C5.00662 14.3292 5.48781 14.9584 5.99575 15.5625C6.02641 15.5992 6.02641 15.5992 6.05769 15.6365C6.70291 16.4057 7.38556 17.1768 8.1531 17.8268C8.26959 17.9267 8.38189 18.0308 8.49477 18.1348C8.74831 18.3652 9.00799 18.5848 9.277 18.7969C9.30971 18.8229 9.34243 18.8488 9.37613 18.8756C11.7193 20.7272 15.0078 22.8543 18.1364 22.5938C18.7643 22.5024 19.323 22.1206 19.7234 21.6398C19.8836 21.4549 20.0544 21.2829 20.2285 21.1114C20.2568 21.0834 20.2851 21.0555 20.3142 21.0268C20.4325 20.9102 20.5509 20.7938 20.6697 20.6778C20.7574 20.5922 20.8445 20.5061 20.9317 20.4199C20.9581 20.3943 20.9846 20.3687 21.0119 20.3424C21.274 20.0819 21.494 19.7985 21.526 19.4209C21.5087 18.7376 20.6641 18.1283 20.2104 17.6706C20.183 17.643 20.1556 17.6153 20.1274 17.5869C19.983 17.4412 19.8383 17.2956 19.6936 17.1502C19.575 17.0309 19.4567 16.9113 19.3387 16.7914C19.1945 16.645 19.0498 16.4991 18.9047 16.3536C18.85 16.2987 18.7956 16.2435 18.7414 16.1882C18.2713 15.685 18.2713 15.685 17.6442 15.4614C17.1805 15.4816 16.8888 15.8081 16.5857 16.1217C16.5034 16.2053 16.4212 16.2888 16.3389 16.3724C16.2107 16.5035 16.0827 16.6348 15.9548 16.7661C15.8305 16.8935 15.7057 17.0203 15.5808 17.1471C15.5244 17.2056 15.5244 17.2056 15.4669 17.2652C15.1936 17.5421 14.8994 17.797 14.5166 17.9C14.0356 17.9014 13.6734 17.7101 13.2614 17.4844C13.2075 17.4554 13.2075 17.4554 13.1525 17.4258C12.1583 16.8874 11.2516 16.1965 10.421 15.4311C10.3262 15.3445 10.2299 15.2605 10.1327 15.1767C9.92377 14.9944 9.72736 14.8011 9.53188 14.6045C9.49832 14.5711 9.46475 14.5377 9.43017 14.5033C9.21317 14.286 9.00833 14.0611 8.80825 13.8281C8.76486 13.779 8.72141 13.7299 8.67788 13.6809C6.45659 11.1533 6.45659 11.1533 6.4396 9.78756C6.50462 9.44478 6.69755 9.20804 6.94497 8.97366C6.98258 8.93672 6.98258 8.93672 7.02096 8.89904C7.15691 8.7668 7.29681 8.64043 7.44045 8.51662C7.66565 8.32104 7.87662 8.11215 8.08755 7.90139C8.12598 7.86353 8.16441 7.82568 8.204 7.78667C8.7073 7.30257 8.7073 7.30257 8.902 6.65627C8.83514 6.04373 8.10618 5.52403 7.69296 5.10958C7.66266 5.07916 7.63237 5.04873 7.60116 5.01739C7.4414 4.85693 7.28151 4.6966 7.12149 4.53638C6.95679 4.37142 6.79253 4.20602 6.62836 4.04052C6.50132 3.91261 6.37396 3.78501 6.24652 3.6575C6.1858 3.59663 6.12519 3.53565 6.06471 3.47455C5.98027 3.38932 5.8954 3.30454 5.81041 3.21985C5.78579 3.1948 5.76116 3.16974 5.73579 3.14392C5.16896 2.5834 4.6408 2.74992 4.12075 3.2344Z" fill="white"/>
<path d="M14.5301 0.123066C14.5811 0.135891 14.6322 0.148716 14.6847 0.16193C16.6613 0.667351 18.4644 1.5678 20.0115 2.90627C20.0512 2.93986 20.0908 2.97346 20.1317 3.00808C20.7143 3.51593 21.277 4.07235 21.7459 4.68752C21.7825 4.73326 21.8192 4.779 21.8569 4.82613C22.5992 5.75796 23.1781 6.8011 23.6228 7.90418C23.6627 8.00309 23.7037 8.10147 23.7449 8.19985C24.0516 8.96543 24.4993 10.086 24.3709 10.9219C24.2602 11.1477 24.128 11.2799 23.9022 11.3906C23.6375 11.4329 23.4244 11.402 23.199 11.25C23.0464 11.0845 22.9815 10.9542 22.9346 10.7349C22.9224 10.6801 22.9101 10.6254 22.8975 10.5689C22.8849 10.5104 22.8722 10.4519 22.8592 10.3916C22.4888 8.76484 21.8518 7.22241 20.8262 5.8962C20.7605 5.81116 20.6957 5.72546 20.631 5.63967C20.3685 5.29509 20.091 4.9869 19.7772 4.68752C19.6669 4.57829 19.5575 4.46867 19.4507 4.3561C18.0399 2.88666 15.9474 1.89928 13.9687 1.4991C13.9308 1.49132 13.8928 1.48354 13.8537 1.47552C13.7817 1.46109 13.7095 1.44742 13.6371 1.43471C13.389 1.38566 13.2544 1.30374 13.074 1.12502C12.9495 0.91205 12.9103 0.750893 12.9534 0.511982C13.0118 0.316392 13.1108 0.181574 13.2753 0.0634877C13.6525 -0.125178 14.1428 0.0229268 14.5301 0.123066Z" fill="white"/>
<path d="M17.0726 5.8429C17.3847 6.09179 17.667 6.37434 17.949 6.65626C17.9776 6.68272 18.0062 6.70919 18.0357 6.73646C19.0791 7.71545 19.9788 9.45524 20.032 10.8955C20.0253 11.1267 19.9877 11.2649 19.824 11.4375C19.6462 11.5768 19.4857 11.6132 19.2615 11.625C19.0343 11.5787 18.8443 11.48 18.699 11.2969C18.6315 11.1456 18.5961 10.9891 18.5583 10.8281C18.233 9.53968 17.6963 8.50256 16.7771 7.54688C16.7481 7.51437 16.7191 7.48186 16.6892 7.44837C15.8739 6.5639 14.6566 6.03747 13.5024 5.78683C13.2101 5.72319 13.0076 5.67563 12.8324 5.42267C12.7384 5.23595 12.7318 5.08138 12.7458 4.87501C12.8345 4.62858 12.958 4.50617 13.1677 4.35938C14.3582 4.01924 16.1719 5.15468 17.0726 5.8429Z" fill="white"/>
</g>
<defs>
<clipPath id="clip0_239_7512">
<rect width="24" height="24" fill="white" transform="translate(0.371094)"/>
</clipPath>
</defs>
</svg>
