<svg width="30" height="30" viewBox="0 0 30 30" fill="none" xmlns="http://www.w3.org/2000/svg">
<path d="M15.0003 4.78262C15.0601 4.78194 15.0601 4.78194 15.1211 4.78125C15.2712 4.81211 15.3166 4.86003 15.4104 4.98038C15.4316 5.11719 15.4316 5.11719 15.4304 5.28003C15.4304 5.34101 15.4304 5.402 15.4304 5.46484C15.4294 5.53058 15.4285 5.59632 15.4276 5.66405C15.4274 5.73143 15.4271 5.79881 15.4269 5.86823C15.4259 6.08377 15.4237 6.29927 15.4214 6.5148C15.4205 6.66079 15.4197 6.80678 15.419 6.95277C15.4171 7.31094 15.4141 7.66909 15.4104 8.02725C15.4931 8.02611 15.4931 8.02611 15.5775 8.02494C16.0587 8.02112 16.5286 8.03628 17.0071 8.09317C17.0712 8.10069 17.1353 8.10821 17.2014 8.11596C18.1732 8.23913 19.1387 8.4595 20.0741 8.75006C20.219 8.79676 20.219 8.79676 20.3909 8.78897C20.402 8.75732 20.4131 8.72567 20.4245 8.69307C20.5405 8.36287 20.6576 8.03311 20.7754 7.70357C20.8191 7.58063 20.8626 7.45759 20.9058 7.33444C20.968 7.15715 21.0312 6.98026 21.0947 6.80342C21.1232 6.7211 21.1232 6.7211 21.1523 6.63711C21.2632 6.33194 21.359 6.11614 21.6214 5.91788C21.8471 5.91399 21.9729 5.92536 22.1451 6.07535C22.2925 6.3962 22.1781 6.68266 22.0644 6.99532C22.0336 7.07718 22.0336 7.07718 22.0022 7.16071C21.9814 7.21743 21.9606 7.27416 21.9392 7.3326C21.8728 7.51308 21.8057 7.69326 21.7386 7.87344C21.6933 7.99603 21.6482 8.11863 21.6031 8.24126C21.4926 8.54124 21.3814 8.84097 21.2698 9.14053C21.3304 9.1708 21.3911 9.20107 21.4535 9.23226C21.6655 9.33813 21.8774 9.44412 22.0892 9.55019C22.1872 9.59919 22.2851 9.64813 22.383 9.69706C23.2799 10.1474 24.1625 10.6403 24.9186 11.3078C25.0164 11.376 25.0164 11.376 25.132 11.3703C25.3209 11.2748 25.4245 11.1129 25.5472 10.946C25.6041 10.8709 25.6611 10.796 25.7184 10.7212C25.7479 10.6826 25.7774 10.644 25.8077 10.6043C25.9541 10.4175 26.1092 10.2387 26.2649 10.0597C26.4985 9.79095 26.7231 9.51875 26.9356 9.23277C27.012 9.14053 27.012 9.14053 27.1292 9.08194C27.319 9.06544 27.4436 9.06389 27.6163 9.14786C27.754 9.30088 27.7696 9.40483 27.7737 9.60928C27.6347 9.88831 27.4269 10.1186 27.2281 10.3564C27.1924 10.3994 27.1568 10.4425 27.1201 10.4869C26.9287 10.7182 26.7356 10.9481 26.5412 11.1769C26.4846 11.2441 26.4846 11.2441 26.4269 11.3126C26.3542 11.3988 26.2811 11.4847 26.2074 11.5702C26.1746 11.6093 26.1417 11.6484 26.1079 11.6887C26.0788 11.7228 26.0496 11.757 26.0196 11.7922C25.937 11.9078 25.937 11.9078 25.9573 12.1288C26.0459 12.2479 26.0459 12.2479 26.1695 12.3598C26.2144 12.4033 26.2593 12.4468 26.3056 12.4917C26.3538 12.5375 26.402 12.5833 26.4517 12.6305C26.8442 13.0131 27.2064 13.3922 27.5393 13.828C27.5838 13.8825 27.6282 13.9369 27.6739 13.9931C27.987 14.3834 28.2604 14.7909 28.5245 15.216C28.556 15.2668 28.5876 15.3175 28.6202 15.3699C29.2529 16.4045 29.2529 16.4045 29.18 16.8163C29.1014 17.0102 29.0027 17.1885 28.898 17.3693C28.8544 17.4464 28.8544 17.4464 28.8099 17.525C28.1827 18.6159 27.4149 19.6025 26.5433 20.5077C26.5139 20.5384 26.4845 20.5691 26.4542 20.6007C26.0582 21.012 25.6478 21.3883 25.1956 21.7382C25.1618 21.7648 25.128 21.7913 25.0931 21.8187C23.7673 22.8582 22.2715 23.6916 20.6839 24.2577C20.6342 24.2754 20.5845 24.2932 20.5333 24.3114C19.6445 24.6223 18.7375 24.8448 17.8128 25.0194C17.7571 25.03 17.7015 25.0406 17.6441 25.0515C15.9128 25.3616 13.9142 25.3541 12.1878 25.0194C12.1336 25.0094 12.0795 24.9993 12.0237 24.989C9.37667 24.488 6.91508 23.4197 4.80497 21.7382C4.75444 21.698 4.75444 21.698 4.70289 21.6569C3.77908 20.9122 2.9239 20.0626 2.22685 19.1015C2.17675 19.0342 2.12663 18.9669 2.07647 18.8996C1.76859 18.4821 1.49039 18.0508 1.22984 17.6023C1.16022 17.4825 1.08924 17.3635 1.0156 17.2462C0.988714 17.2022 0.961825 17.1582 0.934121 17.1129C0.900472 17.0596 0.900472 17.0596 0.866143 17.0051C0.763674 16.7122 0.786015 16.4491 0.915353 16.1734C0.958311 16.0929 1.00247 16.013 1.04765 15.9337C1.07129 15.8908 1.09493 15.8479 1.11929 15.8037C1.3663 15.363 1.64187 14.9431 1.93388 14.5312C1.97595 14.4717 2.01802 14.4123 2.06136 14.351C2.65061 13.5442 3.32842 12.8244 4.04325 12.1288C3.76614 11.6926 3.45249 11.2918 3.13147 10.8877C2.99593 10.7164 2.86203 10.5439 2.72855 10.371C2.68271 10.3118 2.63686 10.2526 2.58962 10.1916C2.22685 9.70527 2.22685 9.70527 2.22685 9.45181C2.28544 9.25772 2.28544 9.25772 2.38432 9.1442C2.56173 9.06268 2.67734 9.06132 2.87138 9.08194C3.00253 9.18539 3.00253 9.18539 3.12406 9.33096C3.16923 9.38467 3.2144 9.43837 3.26093 9.4937C3.44117 9.72154 3.6171 9.95196 3.78942 10.1858C3.93534 10.3836 4.0839 10.579 4.23368 10.7738C4.27991 10.8341 4.32613 10.8944 4.37376 10.9565C4.5142 11.1355 4.65844 11.3102 4.80497 11.4843C4.84704 11.4501 4.88911 11.416 4.93246 11.3808C6.09498 10.4531 7.40654 9.80199 8.73075 9.14053C8.71901 9.10915 8.70726 9.07776 8.69516 9.04542C8.57271 8.71776 8.45119 8.38977 8.33021 8.06157C8.28498 7.93924 8.23951 7.817 8.1938 7.69484C8.12801 7.51893 8.06309 7.34272 7.99833 7.16643C7.97782 7.11215 7.95732 7.05787 7.93619 7.00195C7.82851 6.70602 7.76008 6.46765 7.79325 6.15225C7.8848 6.00943 7.8848 6.00943 8.02763 5.91788C8.23271 5.88492 8.23271 5.88492 8.43778 5.91788C8.69314 6.16386 8.78531 6.47688 8.90013 6.80342C8.9206 6.86023 8.94108 6.91704 8.96218 6.97557C9.02717 7.15627 9.09137 7.33723 9.15556 7.51822C9.1996 7.64111 9.2437 7.76398 9.28785 7.88683C9.39572 8.18733 9.50294 8.48806 9.60966 8.78897C9.70197 8.77094 9.79426 8.75279 9.88653 8.73458C9.93793 8.72449 9.98932 8.71439 10.0423 8.70399C10.2683 8.65651 10.4895 8.59444 10.712 8.53262C11.5018 8.32026 12.3012 8.16217 13.1143 8.0712C13.1548 8.0665 13.1953 8.0618 13.237 8.05696C13.6867 8.01223 14.1387 8.02351 14.5901 8.02725C14.5895 7.97058 14.5895 7.97058 14.5889 7.91276C14.5851 7.52023 14.5824 7.12769 14.5805 6.73514C14.5796 6.58856 14.5784 6.44198 14.5769 6.2954C14.5747 6.08495 14.5737 5.87451 14.573 5.66405C14.5716 5.56544 14.5716 5.56544 14.5702 5.46484C14.5702 5.37336 14.5702 5.37336 14.5702 5.28003C14.5696 5.19942 14.5696 5.19942 14.569 5.11719C14.6086 4.86085 14.7532 4.77982 15.0003 4.78262ZM12.305 9.08194C12.2534 9.09075 12.2018 9.09956 12.1486 9.10863C9.70054 9.53279 7.39604 10.5971 5.4495 12.1288C5.38976 12.1753 5.33001 12.2219 5.26846 12.2698C4.89221 12.5695 4.55372 12.8971 4.21903 13.2421C3.9564 13.5071 3.9564 13.5071 3.82169 13.6312C3.04865 14.355 2.12516 15.5168 1.7581 16.5233C1.81623 17.5164 3.10951 18.7986 3.73724 19.4855C3.86223 19.623 3.98386 19.763 4.10551 19.9035C4.32241 20.1472 4.55532 20.357 4.80497 20.5663C4.85905 20.6138 4.91313 20.6613 4.96885 20.7103C6.4793 22.0311 8.28353 23.0135 10.1956 23.6132C10.2454 23.6289 10.2953 23.6446 10.3466 23.6608C10.9091 23.8354 11.4741 23.984 12.0523 24.0966C12.0974 24.1054 12.1425 24.1143 12.1889 24.1234C13.1166 24.293 14.0372 24.3383 14.9783 24.3346C15.0349 24.3345 15.0915 24.3344 15.1498 24.3343C16.0098 24.3316 16.8483 24.2985 17.6956 24.1405C17.7472 24.1317 17.7988 24.1229 17.852 24.1138C20.268 23.6952 22.657 22.6527 24.5511 21.0937C24.6363 21.0262 24.6363 21.0262 24.7232 20.9575C25.6989 20.1647 26.5871 19.2554 27.305 18.2226C27.3322 18.1837 27.3594 18.1449 27.3875 18.1049C27.9629 17.3807 27.9629 17.3807 28.237 16.5627C28.1635 16.346 28.0552 16.155 27.9385 15.9594C27.9 15.8947 27.9 15.8947 27.8608 15.8286C27.3803 15.0378 26.8225 14.2965 26.1739 13.6362C26.1023 13.5634 26.0311 13.4901 25.9603 13.4165C25.4256 12.8617 24.8841 12.3447 24.2581 11.8944C24.2217 11.8681 24.1852 11.8417 24.1477 11.8145C21.4614 9.88346 18.3286 8.87485 15.0223 8.88785C14.9657 8.88796 14.9091 8.88806 14.8508 8.88817C13.9908 8.8909 13.1523 8.92401 12.305 9.08194Z" fill="#202737"/>
<path d="M14.8711 11.8804C14.9955 11.8798 15.1198 11.878 15.2441 11.8762C15.3232 11.8758 15.4022 11.8755 15.4812 11.8752C15.5891 11.8744 15.5891 11.8744 15.6993 11.8736C15.8787 11.8945 15.8787 11.8945 15.9878 11.9762C16.1206 12.1635 16.1194 12.2896 16.1168 12.517C16.1162 12.5758 16.1157 12.6346 16.1152 12.6951C16.1145 12.7403 16.1138 12.7854 16.1131 12.832C16.1562 12.8392 16.1994 12.8465 16.2438 12.8539C16.3979 12.8887 16.5165 12.9412 16.6588 13.0078C16.7938 13.0624 16.7938 13.0624 16.9334 13.0663C17.0739 12.9772 17.1779 12.8732 17.2948 12.7553C17.4022 12.6562 17.4022 12.6562 17.5779 12.6049C17.8571 12.6864 18.0185 12.8648 18.2225 13.0663C18.2838 13.1242 18.3453 13.1821 18.4067 13.2398C18.4711 13.3016 18.5354 13.3634 18.5997 13.4252C18.6309 13.4547 18.6621 13.4841 18.6942 13.5144C18.8701 13.6877 18.9757 13.8109 18.9842 14.0624C18.9066 14.2625 18.8351 14.3895 18.6766 14.5349C18.6427 14.5723 18.6089 14.6098 18.574 14.6484C18.6006 14.856 18.6629 15.0529 18.7242 15.2526C18.74 15.3044 18.7558 15.3561 18.772 15.4094C18.79 15.4678 18.79 15.4678 18.8084 15.5273C18.8564 15.5246 18.9045 15.5218 18.954 15.519C19.0171 15.5169 19.0803 15.5148 19.1453 15.5126C19.2079 15.5099 19.2704 15.5072 19.3348 15.5044C19.5578 15.5333 19.6098 15.5855 19.7459 15.7617C19.7762 15.9405 19.7762 15.9405 19.777 16.148C19.7775 16.2603 19.7775 16.2603 19.778 16.3748C19.7775 16.4137 19.777 16.4525 19.7765 16.4925C19.7752 16.6109 19.7765 16.7292 19.778 16.8477C19.7777 16.9226 19.7773 16.9974 19.777 17.0745C19.7768 17.143 19.7765 17.2115 19.7762 17.282C19.7399 17.4964 19.6839 17.5663 19.5115 17.6953C19.3348 17.7181 19.3348 17.7181 19.1453 17.7099C19.0822 17.7078 19.019 17.7057 18.954 17.7035C18.9059 17.7008 18.8579 17.6981 18.8084 17.6953C18.7802 17.7868 18.7521 17.8783 18.7242 17.9699C18.7085 18.0209 18.6929 18.0719 18.6768 18.1244C18.6622 18.1761 18.6476 18.2279 18.6326 18.2812C18.6101 18.3569 18.6101 18.3569 18.5871 18.4341C18.5596 18.5759 18.5596 18.5759 18.6432 18.6843C18.6759 18.7168 18.7087 18.7494 18.7425 18.7829C18.8822 18.9236 18.9669 19.0168 18.9842 19.2187C18.9114 19.4492 18.8129 19.5873 18.6418 19.7561C18.5977 19.7998 18.5537 19.8436 18.5083 19.8886C18.4623 19.9334 18.4163 19.9782 18.369 20.0244C18.323 20.0701 18.277 20.1158 18.2296 20.1628C17.8364 20.5506 17.8364 20.5506 17.5999 20.5956C17.3693 20.5615 17.3359 20.5125 17.1788 20.3503C17.0646 20.2337 17.0646 20.2337 16.9334 20.1562C16.7796 20.1673 16.6727 20.2083 16.5336 20.2734C16.3943 20.3374 16.2638 20.3652 16.1131 20.3906C16.1145 20.4344 16.1158 20.4782 16.1172 20.5233C16.1183 20.581 16.1193 20.6387 16.1204 20.6982C16.1218 20.7553 16.1231 20.8124 16.1245 20.8712C16.1126 21.0426 16.0977 21.1317 15.9959 21.2695C15.6716 21.4278 15.3571 21.406 15.0035 21.405C14.9407 21.4059 14.8779 21.4069 14.8132 21.4078C14.2182 21.4082 14.2182 21.4082 13.9451 21.2109C13.8836 21.0264 13.8806 20.8952 13.8829 20.7018C13.8834 20.6436 13.8839 20.5854 13.8845 20.5254C13.8852 20.4809 13.8858 20.4364 13.8865 20.3906C13.8104 20.3815 13.8104 20.3815 13.7327 20.3723C13.535 20.332 13.535 20.332 13.3519 20.2331C13.195 20.1403 13.195 20.1403 13.0662 20.1855C12.9367 20.2797 12.9367 20.2797 12.7806 20.4272C12.5975 20.5663 12.5975 20.5663 12.429 20.6103C12.1404 20.541 11.9852 20.3605 11.7772 20.1562C11.7152 20.1003 11.6531 20.0445 11.5909 19.9889C11.5259 19.9288 11.4611 19.8686 11.3963 19.8083C11.3646 19.7803 11.3329 19.7524 11.3003 19.7235C11.1333 19.5633 11.0519 19.4412 11.0411 19.213C11.0907 18.8684 11.2424 18.7574 11.4842 18.5156C11.3875 18.2642 11.2908 18.0128 11.1912 17.7538C11.08 17.749 10.9689 17.7442 10.8543 17.7392C10.5275 17.725 10.5275 17.725 10.3618 17.6C10.2195 17.4168 10.2235 17.3049 10.2226 17.0745C10.2223 16.9997 10.222 16.9248 10.2217 16.8477C10.2222 16.8089 10.2227 16.7701 10.2232 16.7301C10.2244 16.6116 10.2232 16.4933 10.2217 16.3748C10.222 16.3 10.2223 16.2251 10.2226 16.148C10.2229 16.0795 10.2231 16.0111 10.2234 15.9405C10.2598 15.726 10.3163 15.6569 10.4881 15.5273C10.7236 15.4797 10.9501 15.4792 11.1912 15.4687C11.2879 15.2173 11.3846 14.966 11.4842 14.707C11.4165 14.6381 11.3488 14.5692 11.2791 14.4982C11.1362 14.3323 11.0769 14.2496 11.0228 14.0331C11.0984 13.7305 11.2673 13.5762 11.4842 13.3593C11.5616 13.2747 11.5616 13.2747 11.6405 13.1883C11.6958 13.1293 11.7511 13.0703 11.8065 13.0114C11.8578 12.9565 11.9092 12.9016 11.9621 12.845C12.1615 12.6892 12.2879 12.6617 12.5389 12.6562C12.7471 12.7683 12.9024 12.8987 13.0662 13.0663C13.1009 13.0543 13.1356 13.0423 13.1713 13.03C13.2407 13.0063 13.2407 13.0063 13.3116 12.9821C13.3571 12.9665 13.4027 12.9509 13.4496 12.9347C13.5943 12.8903 13.7377 12.8592 13.8865 12.832C13.8852 12.7882 13.8838 12.7444 13.8824 12.6992C13.8814 12.6415 13.8803 12.5838 13.8792 12.5244C13.8779 12.4673 13.8765 12.4102 13.8751 12.3513C13.8867 12.1845 13.9126 12.0919 14.0037 11.9531C14.2557 11.8271 14.5913 11.8812 14.8711 11.8804ZM14.7654 12.7148C14.7633 12.7593 14.7611 12.8038 14.7588 12.8496C14.755 12.9078 14.7511 12.9661 14.7471 13.0261C14.742 13.1127 14.742 13.1127 14.7368 13.2012C14.7068 13.3593 14.7068 13.3593 14.643 13.4591C14.4776 13.5714 14.2959 13.6214 14.1063 13.6779C13.7496 13.7883 13.7496 13.7883 13.4214 13.9636C13.1755 14.0991 13.0516 14.1029 12.7733 14.0624C12.5975 13.916 12.5975 13.916 12.4803 13.7695C12.2951 13.8497 12.2463 13.886 12.1287 14.0624C12.1541 14.088 12.1795 14.1135 12.2056 14.1398C12.2383 14.1747 12.2709 14.2096 12.3045 14.2455C12.3371 14.2795 12.3698 14.3135 12.4034 14.3485C12.5104 14.5213 12.5052 14.6233 12.4803 14.8242C12.3967 15.0173 12.3967 15.0173 12.2862 15.2197C12.1297 15.5131 12.0108 15.7949 11.9355 16.1196C11.8943 16.2304 11.8943 16.2304 11.7186 16.3476C11.5732 16.3719 11.5732 16.3719 11.4146 16.3842C11.3618 16.3886 11.309 16.393 11.2546 16.3975C11.2144 16.4004 11.1741 16.4032 11.1326 16.4062C11.1326 16.5609 11.1326 16.7156 11.1326 16.8749C11.1771 16.8765 11.2216 16.878 11.2674 16.8795C11.3548 16.8845 11.3548 16.8845 11.4439 16.8896C11.5017 16.8923 11.5595 16.895 11.619 16.8978C11.7772 16.9335 11.7772 16.9335 11.877 17.0265C11.9945 17.2453 12.0596 17.478 12.1298 17.7149C12.2111 17.9761 12.3249 18.1748 12.4803 18.3984C12.5241 18.5999 12.5107 18.7014 12.4011 18.8763C12.3137 18.9939 12.2237 19.1073 12.1287 19.2187C12.2061 19.296 12.2834 19.3734 12.3631 19.4531C12.4936 19.3925 12.5959 19.3373 12.7037 19.2407C12.8906 19.1232 13.0236 19.1432 13.242 19.1601C13.4409 19.2436 13.4409 19.2436 13.6412 19.3542C13.9352 19.512 14.2183 19.6316 14.5432 19.7106C14.6483 19.746 14.6483 19.746 14.7068 19.8632C14.7202 19.9728 14.7308 20.0828 14.7398 20.1928C14.7447 20.2516 14.7496 20.3103 14.7547 20.3709C14.7582 20.4161 14.7618 20.4612 14.7654 20.5078C14.9201 20.5078 15.0748 20.5078 15.2342 20.5078C15.2357 20.4682 15.2372 20.4286 15.2388 20.3878C15.2438 20.3094 15.2438 20.3094 15.2488 20.2294C15.2516 20.1778 15.2543 20.1261 15.2571 20.0729C15.3033 19.8775 15.3695 19.8099 15.5272 19.6874C15.6853 19.6236 15.6853 19.6236 15.8604 19.5739C16.0977 19.5016 16.2976 19.4222 16.5086 19.2919C16.7673 19.141 16.9286 19.1105 17.2264 19.1601C17.4022 19.3066 17.4022 19.3066 17.5193 19.4531C17.7046 19.3728 17.7533 19.3365 17.8709 19.1601C17.8238 19.1202 17.7766 19.0803 17.7281 19.0392C17.5463 18.8308 17.5293 18.7307 17.5193 18.457C17.5972 18.2581 17.5972 18.2581 17.7098 18.0578C17.8684 17.767 17.9869 17.4917 18.0584 17.1672C18.1215 17.0105 18.1942 16.9586 18.3397 16.8749C18.4779 16.845 18.4779 16.845 18.618 16.8347C18.6648 16.8308 18.7116 16.827 18.7599 16.823C18.7952 16.8208 18.8306 16.8186 18.867 16.8163C18.867 16.681 18.867 16.5456 18.867 16.4062C18.8317 16.4026 18.7963 16.3991 18.7599 16.3954C18.7131 16.3905 18.6662 16.3856 18.618 16.3806C18.5718 16.3758 18.5255 16.371 18.4779 16.3661C18.35 16.349 18.2297 16.323 18.1053 16.289C18.0974 16.2478 18.0894 16.2065 18.0813 16.164C17.983 15.7135 17.8238 15.357 17.5972 14.9603C17.5034 14.7257 17.5144 14.5979 17.5779 14.3554C17.6613 14.2157 17.7575 14.123 17.8709 14.0038C17.7936 13.9265 17.7162 13.8492 17.6365 13.7695C17.4616 13.8476 17.4616 13.8476 17.3289 13.9819C17.1916 14.0898 17.0713 14.097 16.8998 14.0911C16.6585 14.0425 16.4561 13.9204 16.241 13.8043C15.9971 13.6821 15.7472 13.6041 15.4862 13.5269C15.3514 13.4765 15.3514 13.4765 15.2928 13.3593C15.2795 13.2497 15.2688 13.1398 15.2598 13.0297C15.2549 12.971 15.25 12.9122 15.2449 12.8517C15.2414 12.8065 15.2378 12.7613 15.2342 12.7148C15.0795 12.7148 14.9248 12.7148 14.7654 12.7148Z" fill="#202737"/>
<path d="M21.6793 17.2265C21.839 17.4661 21.8241 17.6537 21.7752 17.9348C21.7454 18.0697 21.7116 18.2028 21.6757 18.3361C21.656 18.409 21.656 18.409 21.636 18.4834C21.1664 20.1556 20.057 21.6591 18.5487 22.5379C17.7753 22.9693 16.9374 23.3164 16.0543 23.4374C15.9888 23.447 15.9888 23.447 15.922 23.4569C14.0783 23.6851 12.2603 23.1855 10.7832 22.0767C9.89598 21.3722 9.27416 20.5538 8.7301 19.5702C8.69634 19.6083 8.66258 19.6464 8.62779 19.6856C8.48674 19.8127 8.44215 19.8367 8.25769 19.8339C8.02698 19.8046 8.02698 19.8046 7.92428 19.7022C7.75077 19.3889 7.90564 18.9769 7.997 18.6513C8.03202 18.5387 8.06765 18.4263 8.10388 18.3141C8.12122 18.2568 8.13855 18.1994 8.15641 18.1403C8.1739 18.0853 8.19138 18.0304 8.2094 17.9738C8.23277 17.8997 8.23277 17.8997 8.25662 17.8242C8.33496 17.6647 8.39739 17.6031 8.55432 17.5194C8.7754 17.4853 8.86847 17.4925 9.05151 17.6242C9.09802 17.6722 9.14453 17.7202 9.19244 17.7696C9.26926 17.8477 9.26926 17.8477 9.34763 17.9274C9.40005 17.9825 9.45246 18.0376 9.50647 18.0944C9.5598 18.1488 9.61312 18.2032 9.66806 18.2593C10.1852 18.7906 10.1852 18.7906 10.2169 19.0392C10.1949 19.2187 10.1949 19.2187 10.0887 19.3542C9.96057 19.453 9.96057 19.453 9.78479 19.5116C10.7392 20.9864 11.9739 22.0104 13.7106 22.4413C15.2914 22.7751 16.9582 22.4712 18.3136 21.5894C18.6459 21.3599 18.9319 21.0837 19.2184 20.8007C19.256 20.7673 19.2936 20.7339 19.3324 20.6995C20.1862 19.9251 20.5954 18.7835 20.859 17.6952C20.9594 17.3009 20.9594 17.3009 21.1044 17.1642C21.3329 17.088 21.4601 17.1355 21.6793 17.2265Z" fill="#202737"/>
<path d="M19.823 11.6618C20.4241 12.235 20.8599 12.9371 21.2695 13.6524C21.304 13.6143 21.3384 13.5763 21.3739 13.537C21.5039 13.418 21.5039 13.418 21.709 13.3887C21.9141 13.418 21.9141 13.418 22.0605 13.5022C22.23 13.7917 22.095 14.1777 22.0175 14.4901C21.9884 14.5967 21.9588 14.7032 21.9287 14.8096C21.9147 14.8635 21.9006 14.9173 21.8861 14.9728C21.7976 15.2881 21.7149 15.4968 21.4453 15.7032C21.2732 15.7398 21.2732 15.7398 21.0937 15.7032C20.8341 15.5264 20.6445 15.3045 20.4419 15.0662C20.2886 14.8922 20.1236 14.7315 19.9571 14.5702C19.8296 14.4377 19.8065 14.372 19.7864 14.1871C19.8047 14.0039 19.8047 14.0039 19.9109 13.8685C20.0391 13.7696 20.0391 13.7696 20.2148 13.711C19.2086 12.1934 17.9037 11.1364 16.1 10.7644C15.8493 10.7171 15.6064 10.6753 15.3516 10.6641C15.278 10.6596 15.278 10.6596 15.203 10.6549C13.6835 10.6048 12.1309 11.1528 11.0156 12.1875C10.9355 12.2596 10.9355 12.2596 10.8538 12.3331C9.92139 13.2122 9.4379 14.3002 9.14062 15.5274C9.03722 15.9212 9.03722 15.9212 8.92456 16.0547C8.72226 16.1422 8.58851 16.1119 8.37891 16.0547C8.25493 15.9293 8.20672 15.8552 8.18848 15.6787C8.34056 13.9939 9.28895 12.4331 10.5469 11.3324C11.565 10.5158 12.7609 9.95523 14.0625 9.7852C14.1128 9.77802 14.1631 9.77085 14.2149 9.76345C16.3279 9.5224 18.2498 10.2826 19.823 11.6618Z" fill="#202737"/>
<path d="M16.3135 14.5611C16.905 14.9871 17.2839 15.5675 17.4023 16.2891C17.4586 16.9848 17.2999 17.6055 16.8749 18.1641C16.4544 18.6233 15.9267 18.9603 15.2964 18.9984C14.4638 19.0184 13.8672 18.8809 13.2497 18.2943C12.7409 17.7593 12.5771 17.1477 12.5852 16.4264C12.6251 15.795 12.9156 15.2376 13.374 14.806C14.195 14.1196 15.3929 13.987 16.3135 14.5611ZM13.7347 15.7558C13.5023 16.1031 13.4148 16.4596 13.4765 16.875C13.5772 17.2376 13.7073 17.5126 14.0039 17.754C14.0326 17.7798 14.0614 17.8056 14.0911 17.8322C14.4123 18.0975 14.7861 18.1779 15.1986 18.157C15.6108 18.0871 15.9702 17.8854 16.2224 17.5502C16.4696 17.1503 16.5749 16.8184 16.5234 16.3477C16.4029 15.8715 16.1712 15.5411 15.7598 15.2745C15.0206 14.8901 14.2381 15.1218 13.7347 15.7558Z" fill="#202737"/>
</svg>
