<svg width="21" height="20" viewBox="0 0 21 20" fill="none" xmlns="http://www.w3.org/2000/svg">
<path d="M4.07538 0.425122L2.33644 2.16406C0.913031 3.58747 0.52188 5.74453 1.35487 7.5771C3.77063 12.8918 8.0301 17.1512 13.3448 19.567C15.1773 20.4 17.3344 20.0088 18.7578 18.5854L20.4968 16.8465C21.0636 16.2797 21.0636 15.3607 20.4968 14.7938L18.1575 12.4546C17.7157 12.0128 17.0408 11.9033 16.482 12.1827L15.1838 12.8318C14.0662 13.3906 12.7165 13.1715 11.8329 12.288L8.63387 9.08896C7.75034 8.20542 7.5313 6.85565 8.09009 5.73806L8.7392 4.43984C9.0186 3.88104 8.90908 3.20616 8.46732 2.76439L6.12805 0.425122C5.56122 -0.141708 4.64221 -0.141707 4.07538 0.425122Z" fill="white"/>
</svg>
