<svg width="30" height="31" viewBox="0 0 30 31" fill="none" xmlns="http://www.w3.org/2000/svg">
<g clip-path="url(#clip0_224_70)">
<path d="M17.2572 0.862629C17.8053 1.11188 18.3182 1.20719 18.9146 1.25765C20.1605 1.365 21.1978 1.92026 22.0212 2.86326C22.1996 3.08727 22.3564 3.32268 22.5101 3.56409C22.6947 3.84346 22.873 4.04985 23.148 4.24227C23.2047 4.28253 23.2613 4.32279 23.3197 4.36426C23.4347 4.44476 23.5497 4.52518 23.6648 4.6055C24.7443 5.37075 25.327 6.3502 25.5698 7.65009C25.604 7.86099 25.6245 8.07217 25.644 8.28485C25.7019 8.91078 25.8637 9.42538 26.1656 9.98079C26.6708 10.9737 26.6846 12.2114 26.3559 13.2606C26.2463 13.5682 26.1089 13.8647 25.9671 14.1586C25.735 14.6407 25.6516 15.075 25.609 15.6058C25.5069 16.6926 25.1786 17.6158 24.4334 18.4329C24.4045 18.4672 24.3756 18.5015 24.3458 18.5369C24.0841 18.8264 23.7598 19.0322 23.4344 19.2433C23.1472 19.4326 22.9103 19.6466 22.6756 19.8978C23.009 20.6561 23.3601 21.4055 23.7156 22.1536C24.0587 22.8756 24.4004 23.598 24.7346 24.3241C24.8893 24.6594 25.046 24.9934 25.2067 25.3259C25.2941 25.5069 25.381 25.6881 25.4679 25.8694C25.5101 25.957 25.5526 26.0445 25.5954 26.1319C26.0235 27.0057 26.0235 27.0057 26.0155 27.4564C25.8517 27.7726 25.8517 27.7726 25.6639 27.8665C25.2212 27.8999 24.8051 27.8417 24.373 27.7512C24.3145 27.7395 24.256 27.7278 24.1957 27.7157C24.0112 27.6787 23.8268 27.6408 23.6424 27.6029C23.4563 27.5651 23.2702 27.5275 23.0841 27.49C22.9688 27.4668 22.8536 27.4433 22.7384 27.4196C22.6865 27.409 22.6346 27.3985 22.5812 27.3876C22.5356 27.3782 22.4901 27.3689 22.4432 27.3592C22.3153 27.3343 22.3153 27.3343 22.1483 27.3392C22.1232 27.3866 22.0982 27.434 22.0724 27.4829C21.2289 29.0791 21.2289 29.0791 20.8409 29.7562C20.8153 29.8014 20.7897 29.8466 20.7633 29.8932C20.6523 30.0846 20.5773 30.2029 20.3905 30.3275C20.2554 30.3513 20.2554 30.3513 20.1048 30.3568C20.0554 30.3598 20.006 30.3628 19.9551 30.3659C19.7259 30.3074 19.6321 30.168 19.5115 29.9759C19.3751 29.724 19.2524 29.4661 19.1307 29.2069C19.0944 29.1306 19.0581 29.0544 19.0218 28.9783C18.72 28.3438 18.4246 27.7063 18.13 27.0684C17.907 26.5862 17.6802 26.1058 17.4534 25.6253C17.0792 24.8319 16.7104 24.0363 16.3475 23.2376C16.2787 23.251 16.2099 23.2644 16.139 23.2781C15.3843 23.4161 14.7221 23.4088 13.96 23.324C13.9132 23.3188 13.8663 23.3135 13.818 23.3082C13.7826 23.3042 13.7472 23.3003 13.7108 23.2962C12.9388 24.9163 12.9388 24.9163 12.1763 26.5409C12.1113 26.6805 12.0463 26.8201 11.9813 26.9597C11.9651 26.9945 11.949 27.0292 11.9323 27.065C11.737 27.4844 11.5407 27.9033 11.3441 28.322C11.3041 28.4071 11.2641 28.4923 11.2242 28.5775C11.0971 28.8488 10.9689 29.1196 10.8397 29.39C10.8211 29.429 10.8026 29.4681 10.7834 29.5084C10.7288 29.623 10.6734 29.7372 10.6179 29.8514C10.5859 29.9177 10.5538 29.984 10.5208 30.0524C10.4295 30.2103 10.4295 30.2103 10.2537 30.3275C10.1208 30.3533 10.1208 30.3533 9.97175 30.3604C9.92303 30.3641 9.87432 30.3678 9.82412 30.3717C9.50924 30.2827 9.36444 29.9999 9.20807 29.732C9.08625 29.5115 8.97043 29.2879 8.85481 29.064C8.77585 28.9125 8.69658 28.7611 8.61723 28.6097C8.59787 28.5727 8.57851 28.5357 8.55857 28.4975C8.35257 28.1056 8.13244 27.722 7.90999 27.3392C7.66216 27.383 7.41437 27.427 7.16658 27.471C7.05504 27.4908 7.05504 27.4908 6.94126 27.5109C6.54202 27.5819 6.14386 27.6563 5.74641 27.7367C4.55814 27.9746 4.55814 27.9746 4.21125 27.7457C4.07786 27.5367 4.05392 27.4112 4.0428 27.1634C4.08801 26.9933 4.16302 26.8413 4.24055 26.6837C4.27508 26.6103 4.27508 26.6103 4.3103 26.5354C4.36429 26.4209 4.41877 26.3067 4.47361 26.1926C4.58365 25.9634 4.69212 25.7334 4.8004 25.5033C4.95014 25.1853 5.1002 24.8675 5.25068 24.5498C5.51677 23.9881 5.77976 23.425 6.04025 22.8606C6.21818 22.4758 6.39867 22.0923 6.58133 21.7096C6.64642 21.5728 6.71148 21.4361 6.77655 21.2993C6.81888 21.2105 6.86137 21.1219 6.90402 21.0333C6.96355 20.9096 7.02254 20.7857 7.08143 20.6618C7.09922 20.6252 7.117 20.5887 7.13532 20.551C7.23758 20.3343 7.30385 20.1372 7.32405 19.8978C7.10523 19.5324 6.6779 19.3061 6.32933 19.0809C5.68343 18.6411 5.20037 18.0768 4.8448 17.3856C4.82572 17.3491 4.80664 17.3125 4.78698 17.2749C4.5082 16.7061 4.4314 16.0975 4.37239 15.474C4.31554 14.9481 4.23112 14.5108 3.9842 14.0384C3.42261 12.8346 3.23583 11.5611 3.69124 10.2884C3.78329 10.0685 3.88689 9.85464 3.99201 9.64072C4.24694 9.12179 4.33998 8.64554 4.3907 8.07284C4.50964 6.73801 5.03902 5.6893 6.04185 4.7996C6.25498 4.62777 6.4781 4.48358 6.71408 4.34527C6.86083 4.2566 6.86083 4.2566 6.9837 4.12462C7.08967 4.01888 7.08967 4.01888 7.20686 4.01888C7.22174 3.98648 7.23662 3.95408 7.25195 3.92069C7.40024 3.64058 7.60398 3.39369 7.7928 3.13997C7.82626 3.09352 7.85972 3.04707 7.89419 2.99921C8.51889 2.1549 9.45029 1.53017 10.4881 1.32357C10.8108 1.27874 11.1349 1.2478 11.459 1.21566C11.9434 1.16449 12.3348 1.07371 12.7733 0.854818C14.3031 0.117721 15.7286 0.162491 17.2572 0.862629ZM13.443 1.92301C12.7671 2.24322 12.1314 2.38468 11.3927 2.46248C10.3652 2.57385 9.58189 2.89146 8.89601 3.70142C8.78261 3.85141 8.68279 4.00553 8.58381 4.16537C8.21019 4.76635 7.76026 5.14068 7.18555 5.53505C6.41705 6.06298 5.85404 6.73958 5.66511 7.67733C5.62931 7.91749 5.61564 8.15641 5.60286 8.39876C5.55241 9.14893 5.31417 9.78637 4.99048 10.456C4.63735 11.1969 4.57064 11.9992 4.79376 12.7956C4.87922 13.0274 4.98498 13.2455 5.09382 13.4671C5.42075 14.1356 5.56019 14.7714 5.62117 15.5106C5.70728 16.5281 6.09617 17.2871 6.87544 17.9605C7.08529 18.1235 7.30666 18.2617 7.5337 18.3993C7.70507 18.5107 7.82937 18.6363 7.96858 18.7845C8.00725 18.7845 8.04592 18.7845 8.08577 18.7845C8.10133 18.8183 8.11688 18.852 8.13292 18.8868C8.20585 19.0243 8.28861 19.1357 8.38606 19.2569C8.5455 19.4572 8.69415 19.6619 8.84016 19.8722C9.3449 20.5628 10.049 21.0318 10.8983 21.1868C11.0847 21.2095 11.2714 21.2237 11.4586 21.2381C12.2288 21.3087 12.8834 21.4953 13.5769 21.839C14.0842 22.0847 14.6661 22.2545 15.2342 22.1829C15.2901 22.1759 15.346 22.1689 15.4036 22.1617C15.9057 22.0758 16.3341 21.8974 16.7895 21.6739C17.3929 21.3834 18.0004 21.2862 18.6619 21.2235C19.6706 21.1129 20.4308 20.7749 21.103 19.9818C21.2585 19.776 21.3924 19.5587 21.5266 19.3386C21.6392 19.1668 21.765 19.0416 21.9139 18.9017C21.9139 18.863 21.9139 18.8244 21.9139 18.7845C21.9469 18.7697 21.9799 18.7549 22.0139 18.7396C22.167 18.6572 22.2892 18.5587 22.4229 18.4476C22.6126 18.2928 22.8022 18.1504 23.0089 18.0191C23.6867 17.5736 24.149 16.8841 24.3162 16.0892C24.3412 15.8882 24.3584 15.6868 24.3748 15.4849C24.4426 14.6587 24.6487 13.9724 25.0092 13.2262C25.3514 12.5086 25.445 11.7064 25.2059 10.9364C25.115 10.7014 25.0106 10.4736 24.9058 10.2445C24.572 9.51087 24.4261 8.83062 24.3619 8.03264C24.2877 7.18157 23.8987 6.41206 23.2615 5.83529C23.0698 5.69154 22.8707 5.55905 22.6716 5.4258C22.1339 5.06577 21.7554 4.68875 21.3973 4.15072C20.8522 3.33936 20.2017 2.77687 19.2396 2.53092C18.9869 2.48537 18.7346 2.46545 18.4788 2.44417C17.6511 2.37247 16.9333 2.13767 16.1932 1.766C15.2653 1.33865 14.3352 1.4959 13.443 1.92301ZM21.4854 21.3077C20.6402 22.0703 19.701 22.3132 18.5953 22.4129C18.5017 22.4217 18.5017 22.4217 18.4063 22.4306C18.3511 22.4352 18.296 22.4398 18.2391 22.4445C17.9717 22.4882 17.7186 22.5695 17.4608 22.6517C17.7845 23.3791 18.1167 24.1018 18.4603 24.8201C18.5813 25.0732 18.7018 25.3265 18.8224 25.5798C18.8462 25.6299 18.8701 25.68 18.8946 25.7316C19.1112 26.187 19.325 26.6437 19.5372 27.1012C19.5672 27.1659 19.5973 27.2306 19.6282 27.2973C19.7877 27.642 19.9446 27.9877 20.0975 28.3353C20.3136 28.1448 20.4362 27.9276 20.5644 27.674C20.608 27.5902 20.6515 27.5063 20.6951 27.4224C20.7628 27.2908 20.8302 27.1591 20.8976 27.0274C20.963 26.8997 21.0292 26.7723 21.0954 26.645C21.1153 26.6056 21.1351 26.5663 21.1555 26.5257C21.2635 26.3186 21.3531 26.1617 21.5623 26.0501C22.0516 25.9537 22.5946 26.1255 23.0748 26.2259C23.1973 26.2512 23.3199 26.2763 23.4426 26.3011C23.5531 26.3235 23.6636 26.3465 23.774 26.3694C23.9404 26.3976 24.0895 26.4084 24.2576 26.4017C24.1491 26.0537 24.0216 25.7255 23.8628 25.3976C23.8314 25.3317 23.8314 25.3317 23.7993 25.2645C23.7314 25.1222 23.6631 24.9801 23.5948 24.838C23.5234 24.6885 23.452 24.5391 23.3807 24.3896C23.3327 24.2888 23.2846 24.188 23.2364 24.0872C22.9806 23.5514 22.7303 23.0131 22.4811 22.4742C22.2617 22.0014 22.032 21.5347 21.7967 21.0697C21.6775 21.0697 21.5644 21.2322 21.4854 21.3077ZM8.26155 21.1283C7.5753 22.4816 6.92714 23.8531 6.29173 25.2308C6.2192 25.3874 6.14593 25.5436 6.07206 25.6995C6.05235 25.7412 6.03263 25.7829 6.01231 25.8259C5.96288 25.9301 5.91323 26.0343 5.86355 26.1385C5.79288 26.2759 5.79288 26.2759 5.80061 26.4017C6.32522 26.3627 6.83148 26.2597 7.34556 26.1514C8.34232 25.9503 8.34232 25.9503 8.65545 26.1538C8.85164 26.4321 9.00891 26.7262 9.16609 27.0279C9.39987 27.4715 9.63895 27.9083 9.90217 28.3353C10.0759 28.1268 10.1851 27.8927 10.2991 27.6486C10.3202 27.604 10.3412 27.5594 10.363 27.5134C10.4318 27.3675 10.5003 27.2215 10.5687 27.0755C10.6164 26.9742 10.6641 26.8729 10.7119 26.7715C10.8526 26.4727 10.9927 26.1736 11.1326 25.8743C11.152 25.8329 11.1714 25.7915 11.1914 25.7488C11.3975 25.308 11.6021 24.8666 11.8058 24.4247C11.8985 24.2249 11.9923 24.0257 12.0864 23.8265C12.1469 23.6974 12.2074 23.5682 12.2679 23.439C12.2962 23.3797 12.3245 23.3204 12.3537 23.2593C12.3917 23.1778 12.3917 23.1778 12.4304 23.0946C12.4641 23.0233 12.4641 23.0233 12.4985 22.9505C12.5554 22.8186 12.5554 22.8186 12.4803 22.6517C12.1009 22.4411 11.6351 22.4331 11.2132 22.3953C10.1197 22.2811 9.21937 21.9711 8.40162 21.2015C8.33114 21.1217 8.33114 21.1217 8.26155 21.1283Z" fill="white"/>
<path d="M12.7622 3.62333C12.902 3.73514 12.9556 3.78994 13.0076 3.96024C13.0346 4.25702 13.0201 4.43032 12.8318 4.66337C12.6599 4.76459 12.478 4.8373 12.2935 4.91239C11.4734 5.26476 10.7509 5.65184 10.0779 6.2454C10.041 6.27463 10.0041 6.30386 9.966 6.33398C9.64074 6.59256 9.39417 6.91474 9.14042 7.24149C9.08139 7.3157 9.08139 7.3157 9.02117 7.39141C7.88304 8.878 7.37327 10.8259 7.58746 12.6825C7.85961 14.6909 8.81064 16.4857 10.4295 17.7298C10.4794 17.7696 10.5293 17.8094 10.5808 17.8504C12.1446 19.0532 14.1221 19.4279 16.0539 19.2358C17.4824 19.0445 18.7621 18.4053 19.8631 17.4954C19.9082 17.4585 19.9534 17.4217 19.9999 17.3837C21.4449 16.1657 22.2827 14.2561 22.4412 12.3977C22.5529 10.4577 21.9794 8.48119 20.6739 7.01573C20.543 6.87346 20.4083 6.73525 20.2732 6.59696C20.23 6.55006 20.1867 6.50315 20.1421 6.45483C19.3895 5.65825 18.3281 5.09339 17.2996 4.73547C17.1285 4.64187 17.074 4.54531 16.992 4.3704C16.9608 4.07916 16.983 3.8982 17.1678 3.66728C17.3701 3.51549 17.5664 3.53391 17.8123 3.55009C17.9935 3.60271 18.1635 3.67531 18.336 3.7515C18.3846 3.77263 18.4332 3.79375 18.4833 3.81552C19.2952 4.17575 20.0085 4.61335 20.6834 5.19071C20.7148 5.21747 20.7463 5.24423 20.7786 5.27179C21.2041 5.63781 21.5748 6.03127 21.9139 6.47978C21.9376 6.5105 21.9613 6.54122 21.9857 6.57287C23.3627 8.36552 23.9447 10.6808 23.6849 12.9178C23.4535 14.6464 22.7784 16.2436 21.6209 17.554C21.5709 17.6118 21.5209 17.6696 21.4694 17.7291C20.2847 19.077 18.7227 19.934 16.992 20.3665C16.9178 20.3864 16.8436 20.4062 16.7672 20.4267C15.608 20.686 14.1538 20.6735 13.0076 20.3665C12.9635 20.3555 12.9194 20.3445 12.874 20.3331C11.81 20.0644 10.7823 19.622 9.90214 18.9602C9.85342 18.9238 9.8047 18.8873 9.75451 18.8497C7.90282 17.4121 6.6462 15.3853 6.32792 13.0423C6.04545 10.6989 6.62785 8.33362 8.08925 6.46697C8.86495 5.50263 11.3325 2.98789 12.7622 3.62333Z" fill="white"/>
<path d="M16.5786 6.2597C17.1484 6.7452 17.4699 7.28836 17.5619 8.03285C17.6371 8.98064 17.5446 9.73275 17.1094 10.5812C17.1422 10.5878 17.1749 10.5944 17.2087 10.6011C18.2601 10.8598 19.0776 11.6797 19.6289 12.5734C20.0712 13.3237 20.2241 14.1185 20.2368 14.9794C20.2401 15.0644 20.2401 15.0644 20.2435 15.1512C20.2467 15.4188 20.2491 15.6172 20.078 15.8325C19.8436 16.0418 19.6728 16.0379 19.3688 16.0387C19.3303 16.0388 19.2919 16.039 19.2522 16.0392C19.1231 16.0397 18.9939 16.0398 18.8648 16.0399C18.7723 16.0401 18.6798 16.0404 18.5873 16.0408C18.3359 16.0415 18.0844 16.0419 17.833 16.0422C17.6759 16.0423 17.5189 16.0426 17.3618 16.0428C16.8706 16.0436 16.3793 16.0442 15.888 16.0444C15.3207 16.0447 14.7534 16.0457 14.1861 16.0474C13.7477 16.0487 13.3093 16.0493 12.8709 16.0494C12.609 16.0494 12.3471 16.0498 12.0852 16.0508C11.8388 16.0518 11.5925 16.0519 11.3462 16.0514C11.2558 16.0513 11.1654 16.0516 11.075 16.0522C10.9515 16.0529 10.8281 16.0526 10.7047 16.052C10.6356 16.0521 10.5665 16.0521 10.4954 16.0522C10.2356 16.0213 10.0817 15.9287 9.9147 15.7297C9.81637 15.4969 9.81744 15.292 9.82177 15.0417C9.82233 14.9924 9.82288 14.9432 9.82345 14.8924C9.85421 13.5986 10.3481 12.4242 11.2745 11.5222C11.7659 11.0651 12.3377 10.788 12.9492 10.5226C12.9294 10.4851 12.9096 10.4475 12.8892 10.4089C12.8631 10.3582 12.837 10.3075 12.8101 10.2553C12.7713 10.1809 12.7713 10.1809 12.7318 10.1049C12.5189 9.63083 12.5194 9.20397 12.5207 8.68791C12.5198 8.61362 12.5189 8.53934 12.5179 8.4628C12.5175 7.67741 12.6987 7.06652 13.2353 6.4753C14.1546 5.61746 15.5528 5.50867 16.5786 6.2597ZM14.0039 7.47575C13.75 7.85665 13.7463 8.18299 13.7439 8.62931C13.742 8.69015 13.74 8.75099 13.7381 8.81368C13.735 9.2497 13.8143 9.57417 14.0625 9.93668C14.1891 10.0706 14.1891 10.0706 14.3298 10.1454C14.3952 10.1854 14.3952 10.1854 14.4619 10.2262C14.7767 10.3788 15.1086 10.4077 15.4413 10.2979C15.8894 10.0967 16.1348 9.83291 16.311 9.37638C16.4254 8.7872 16.4203 8.11454 16.1279 7.58195C15.861 7.2483 15.6003 7.05081 15.1742 6.99006C14.7253 6.96009 14.3029 7.13626 14.0039 7.47575ZM11.8359 12.7625C11.3545 13.3498 11.0742 14.0321 11.0742 14.8C13.6846 14.8 16.2949 14.8 18.9844 14.8C18.9143 13.9591 18.7399 13.4065 18.2227 12.7492C18.1859 12.7002 18.1492 12.6513 18.1114 12.6009C17.6433 12.051 16.8879 11.6644 16.1719 11.5773C15.9947 11.5695 15.822 11.5717 15.6445 11.5773C15.643 11.6416 15.6415 11.7059 15.6399 11.7721C15.6367 11.8573 15.6333 11.9425 15.6299 12.0277C15.629 12.07 15.6282 12.1123 15.6274 12.1558C15.6143 12.4413 15.5702 12.6047 15.3516 12.8078C15.129 12.8998 14.9341 12.8876 14.7144 12.7968C14.5154 12.6271 14.4779 12.5025 14.4484 12.2411C14.4438 12.1614 14.4396 12.0818 14.436 12.0021C14.4326 11.9408 14.4326 11.9408 14.4292 11.8783C14.4237 11.778 14.4188 11.6777 14.4141 11.5773C13.3833 11.5178 12.5088 12.0134 11.8359 12.7625Z" fill="white"/>
<path d="M15.2345 3.13979C15.491 3.2772 15.491 3.2772 15.5861 3.43276C15.6328 3.6376 15.6306 3.81359 15.5861 4.0187C15.4388 4.23745 15.3439 4.2969 15.0917 4.37026C14.8519 4.37026 14.7312 4.32456 14.5314 4.19448C14.3744 3.95902 14.3734 3.76813 14.4142 3.49136C14.6251 3.15391 14.8437 3.07899 15.2345 3.13979Z" fill="white"/>
</g>
<defs>
<clipPath id="clip0_224_70">
<rect width="30" height="30" fill="white" transform="translate(0 0.327393)"/>
</clipPath>
</defs>
</svg>
