<svg width="60" height="61" viewBox="0 0 60 61" fill="none" xmlns="http://www.w3.org/2000/svg">
<g clip-path="url(#clip0_377_1151)">
<path d="M15.5902 0.63631C15.741 0.635302 15.8918 0.634294 16.0472 0.633256C16.2154 0.632736 16.3835 0.632232 16.5516 0.631743C16.7279 0.630817 16.9042 0.629848 17.0805 0.628839C17.6606 0.625764 18.2408 0.623972 18.8209 0.622302C19.0206 0.621674 19.2203 0.621043 19.42 0.620411C20.251 0.617876 21.082 0.61568 21.9129 0.614362C23.1035 0.61246 24.2941 0.608576 25.4846 0.601893C26.3218 0.597354 27.159 0.595068 27.9962 0.594449C28.4961 0.594021 28.996 0.592617 29.4959 0.588812C29.9667 0.58528 30.4374 0.58455 30.9081 0.585927C31.0805 0.585953 31.2528 0.584984 31.4251 0.582921C33.1567 0.563325 33.1567 0.563325 33.8676 1.24028C34.2225 1.67759 34.3535 2.05518 34.4064 2.6154C34.4156 2.70933 34.4248 2.80325 34.4343 2.90002C34.4407 2.97106 34.447 3.04209 34.4535 3.11528C34.5704 3.11372 34.5704 3.11372 34.6895 3.11213C35.5052 3.1017 36.3208 3.09467 37.1364 3.08953C37.4403 3.08719 37.7441 3.084 38.0479 3.07992C38.4863 3.07419 38.9246 3.07157 39.363 3.06951C39.5645 3.06588 39.5645 3.06588 39.7701 3.06218C41.2075 3.06178 42.5374 3.54978 43.6166 4.51741C45.0224 5.9926 45.2694 7.63359 45.2721 9.58992C45.2732 9.76903 45.2744 9.94814 45.2757 10.1272C45.2789 10.6107 45.2807 11.0941 45.2822 11.5776C45.284 12.0838 45.2872 12.5901 45.2902 13.0964C45.2956 14.0538 45.3 15.0113 45.3038 15.9687C45.3083 17.0592 45.3141 18.1498 45.32 19.2403C45.3321 21.4825 45.3426 23.7247 45.352 25.9668C45.4807 25.9014 45.6095 25.8359 45.7421 25.7684C45.9127 25.6823 46.0833 25.5961 46.2539 25.51C46.3385 25.4668 46.4232 25.4237 46.5104 25.3793C47.0864 25.0892 47.6181 24.8768 48.2524 24.7437C48.3349 24.7262 48.4174 24.7087 48.5024 24.6907C49.2064 24.548 49.9072 24.4661 50.6254 24.4434C50.7488 24.4387 50.8722 24.434 50.9994 24.4292C51.759 24.4134 52.3846 24.4033 53.0058 24.8902C53.2789 25.2443 53.3432 25.5226 53.2951 25.9712C53.247 26.2596 53.1907 26.545 53.1303 26.8311C53.1085 26.9355 53.0867 27.0398 53.0642 27.1473C52.6111 29.2407 51.8557 31.368 50.2738 32.8809C50.4458 32.9681 50.4458 32.9681 50.6213 33.0571C51.5116 33.5157 52.3214 33.9853 53.0863 34.6387C53.1539 34.6895 53.2214 34.7402 53.291 34.7925C55.7113 36.6707 56.8372 40.1275 57.249 43.0394C57.3092 43.5308 57.3259 44.0161 57.3289 44.5109C57.3296 44.6008 57.3302 44.6907 57.3309 44.7833C57.332 44.973 57.3328 45.1627 57.3332 45.3523C57.3344 45.6349 57.338 45.9174 57.3417 46.2C57.3721 50.6799 55.7469 54.8861 52.6126 58.0863C50.9191 59.694 48.6172 60.6665 46.2822 60.6751C46.1439 60.6763 46.1439 60.6762 46.0029 60.6774C45.6994 60.6797 45.3959 60.6811 45.0924 60.6823C44.9879 60.6828 44.8835 60.6832 44.7758 60.6837C44.2222 60.6862 43.6685 60.6878 43.1148 60.6889C42.5475 60.6902 41.9802 60.6943 41.4129 60.6989C40.9728 60.702 40.5328 60.703 40.0927 60.7034C39.8838 60.7039 39.6749 60.7053 39.4661 60.7075C36.5752 60.736 34.086 59.8486 31.9752 57.8203C31.0049 56.8679 29.8374 55.7024 29.5317 54.3262C29.4183 54.3267 29.305 54.3271 29.1882 54.3275C26.4259 54.338 23.6636 54.3456 20.9014 54.3505C19.5655 54.3529 18.2297 54.3562 16.8939 54.3616C15.7291 54.3663 14.5643 54.3693 13.3995 54.3703C12.7832 54.3709 12.1669 54.3724 11.5506 54.3758C10.9695 54.379 10.3885 54.3799 9.80743 54.3792C9.5951 54.3794 9.38276 54.3803 9.17044 54.3821C7.36054 54.3968 5.67153 54.1724 4.28461 52.8898C3.02767 51.5686 2.66079 50.2657 2.65981 48.4865C2.65883 48.3364 2.65785 48.1864 2.65685 48.0318C2.65429 47.6221 2.65325 47.2125 2.65265 46.8028C2.65222 46.5467 2.65149 46.2905 2.65066 46.0343C2.64779 45.1401 2.64626 44.2459 2.64584 43.3516C2.64542 42.5188 2.64191 41.686 2.63701 40.8532C2.63294 40.1371 2.63113 39.421 2.63105 38.7049C2.63096 38.2776 2.62993 37.8504 2.6266 37.4232C2.62296 36.9471 2.624 36.4711 2.62547 35.995C2.62373 35.8538 2.622 35.7125 2.62021 35.567C2.62957 34.5044 2.62957 34.5044 2.97476 34.1413C3.40168 33.8551 3.67426 33.8523 4.17475 33.8784C4.61029 33.9678 4.79183 34.1621 5.03946 34.5215C5.14509 34.926 5.17127 35.3049 5.17125 35.7217C5.1717 35.9038 5.1717 35.9038 5.17216 36.0895C5.17191 36.2215 5.17167 36.3534 5.17141 36.4893C5.17163 36.6293 5.17185 36.7692 5.17208 36.9134C5.17254 37.2172 5.17279 37.5209 5.17283 37.8247C5.17297 38.306 5.17447 38.7873 5.1763 39.2687C5.17675 39.3907 5.17675 39.3907 5.17721 39.5153C5.17783 39.6817 5.17845 39.8481 5.17907 40.0146C5.18317 41.1344 5.1863 42.2542 5.186 43.3741C5.18582 44.1304 5.18771 44.8866 5.19194 45.6429C5.1941 46.0425 5.19521 46.442 5.19376 46.8416C5.19263 47.2881 5.19512 47.7345 5.19842 48.1811C5.19722 48.3118 5.19603 48.4425 5.1948 48.5773C5.20608 49.4332 5.36546 50.1002 5.85977 50.8106C6.60768 51.5306 7.33779 51.7763 8.37686 51.7807C8.50553 51.7817 8.50553 51.7817 8.6368 51.7828C8.92289 51.7848 9.20895 51.7851 9.49505 51.7855C9.70066 51.7866 9.90627 51.7877 10.1119 51.789C10.6692 51.7922 11.2265 51.794 11.7838 51.7955C12.3666 51.7974 12.9493 51.8005 13.5321 51.8035C14.6352 51.809 15.7383 51.8133 16.8414 51.8172C18.0975 51.8217 19.3535 51.8274 20.6096 51.8333C23.193 51.8454 25.7764 51.8559 28.3598 51.8653C28.3343 51.7705 28.3343 51.7705 28.3083 51.6738C28.2305 51.3836 28.1532 51.0932 28.076 50.8028C28.0492 50.7034 28.0225 50.604 27.995 50.5017C27.7854 49.7118 27.6318 48.9279 27.5395 48.1153C27.5265 48.0046 27.5135 47.8938 27.5001 47.7797C27.0799 43.5831 27.8657 39.2104 30.5131 35.8472C31.8199 34.2984 33.6589 32.9371 35.7206 32.6685C35.9055 32.6576 35.9055 32.6576 36.0942 32.6465C36.0262 32.5142 36.0262 32.5142 35.9568 32.3792C35.5962 31.6437 35.312 30.9349 35.1127 30.1417C35.0931 30.0651 35.0735 29.9886 35.0533 29.9098C34.892 29.228 34.7948 28.6573 35.142 28.0323C35.391 27.7247 35.391 27.7247 35.6254 27.6075C37.6579 27.4198 39.5614 27.6778 41.2504 28.8965C41.5454 29.1544 41.8109 29.4243 42.0707 29.7168C42.7998 28.7845 42.7392 27.7899 42.7306 26.6677C42.7312 26.4663 42.7321 26.2648 42.7331 26.0634C42.7353 25.5186 42.7338 24.9738 42.7315 24.429C42.7296 23.8575 42.7306 23.2859 42.7312 22.7143C42.7317 21.7545 42.7299 20.7948 42.7266 19.835C42.7228 18.7274 42.7228 17.6198 42.7249 16.5122C42.7267 15.4443 42.7259 14.3764 42.7239 13.3085C42.7231 12.8552 42.7233 12.4018 42.7241 11.9485C42.725 11.414 42.7236 10.8795 42.7204 10.3449C42.7196 10.1495 42.7196 9.954 42.7204 9.75853C42.725 8.56603 42.7038 7.48984 41.9096 6.52837C41.2673 6.00843 40.7819 5.68348 39.948 5.66935C39.765 5.66584 39.765 5.66584 39.5784 5.66226C39.4469 5.66031 39.3154 5.65835 39.1799 5.65633C39.0452 5.65389 38.9104 5.65146 38.7716 5.64895C38.3405 5.64128 37.9095 5.63438 37.4784 5.62749C37.1865 5.62243 36.8945 5.61732 36.6025 5.61215C35.8862 5.5996 35.1699 5.58767 34.4535 5.57622C34.448 5.65487 34.4424 5.73351 34.4366 5.81454C34.428 5.91868 34.4194 6.02282 34.4105 6.13011C34.4025 6.23293 34.3945 6.33575 34.3863 6.44168C34.2791 7.0992 33.9527 7.52901 33.4355 7.9294C32.7511 8.30843 31.962 8.21861 31.2022 8.21314C31.0266 8.21358 30.851 8.21423 30.6754 8.21506C30.2001 8.21669 29.7248 8.21539 29.2495 8.21345C28.7514 8.21182 28.2533 8.21259 27.7552 8.213C26.9189 8.21332 26.0827 8.21174 25.2464 8.20902C24.2803 8.2059 23.3143 8.2057 22.3482 8.20707C21.4177 8.20834 20.4872 8.20761 19.5567 8.20595C19.1612 8.20528 18.7657 8.20529 18.3702 8.20584C17.9043 8.2064 17.4385 8.20521 16.9727 8.20269C16.8019 8.20203 16.6312 8.20198 16.4605 8.20256C16.227 8.20326 15.9936 8.20158 15.7601 8.19978C15.6296 8.19949 15.4991 8.19921 15.3646 8.19891C14.751 8.12383 14.2971 7.86955 13.9091 7.39263C13.8515 7.32374 13.794 7.25486 13.7347 7.18389C13.4822 6.82199 13.4635 6.50833 13.4696 6.08159C13.4707 5.98688 13.4718 5.89216 13.4728 5.79457C13.4742 5.72252 13.4756 5.65046 13.477 5.57622C12.6095 5.58111 11.7422 5.5896 10.8749 5.60054C10.58 5.60384 10.2852 5.60633 9.99035 5.60798C9.56558 5.6105 9.14094 5.61597 8.71622 5.622C8.5852 5.62214 8.45418 5.62228 8.31919 5.62243C7.40857 5.63937 6.7697 5.77556 6.06577 6.39241C6.00262 6.4687 5.93948 6.54499 5.87442 6.62358C5.80947 6.69957 5.74451 6.77555 5.67758 6.85384C5.32068 7.37183 5.24447 7.81677 5.24357 8.44012C5.24277 8.59257 5.24197 8.74503 5.24114 8.9021C5.24143 9.07023 5.24173 9.23837 5.24205 9.4065C5.24154 9.58421 5.24091 9.76192 5.24019 9.93963C5.23885 10.3219 5.23821 10.7041 5.2381 11.0864C5.23787 11.6912 5.23575 12.2959 5.23332 12.9007C5.22756 14.4029 5.22394 15.9051 5.22145 17.4073C5.21951 18.5747 5.21684 19.7422 5.21172 20.9096C5.20917 21.5104 5.20823 22.1112 5.20849 22.712C5.20829 23.0863 5.20664 23.4606 5.20459 23.8349C5.20394 24.008 5.20388 24.1812 5.20447 24.3543C5.20952 26.0091 5.20952 26.0091 4.80509 26.67C4.40578 26.9604 4.17807 27.0215 3.68448 27.0215C3.19346 26.8787 3.01694 26.7129 2.69571 26.3184C2.6223 25.9534 2.6223 25.9534 2.6221 25.5359C2.62085 25.4202 2.62085 25.4202 2.61958 25.3022C2.61752 25.0446 2.61964 24.7872 2.62175 24.5296C2.62115 24.3446 2.6203 24.1596 2.61921 23.9745C2.61704 23.4723 2.61856 22.9702 2.62086 22.468C2.62279 21.9415 2.62175 21.415 2.62115 20.8885C2.62062 20.0037 2.62248 19.1189 2.62576 18.234C2.62951 17.2133 2.62952 16.1927 2.62749 15.172C2.62563 14.1884 2.62643 13.2047 2.62842 12.221C2.62922 11.8034 2.62911 11.3858 2.62824 10.9682C2.62734 10.4752 2.62878 9.98215 2.63197 9.48908C2.63277 9.30897 2.6328 9.12885 2.63195 8.94873C2.62446 7.15278 3.07515 5.83297 4.29239 4.49956C5.14363 3.67943 6.40771 3.0833 7.5967 3.08868C7.7937 3.0887 7.7937 3.0887 7.99468 3.08873C8.20456 3.09054 8.20456 3.09054 8.41867 3.09239C8.56334 3.09273 8.70801 3.09306 8.85706 3.0934C9.31793 3.09471 9.77879 3.09765 10.2397 3.10063C10.5526 3.10194 10.8656 3.10288 11.1785 3.10384C11.9447 3.10642 12.7108 3.11034 13.477 3.11528C13.4744 2.96815 13.4718 2.82101 13.4692 2.66942C13.4606 2.18047 13.5496 1.8886 13.8285 1.47466C14.407 0.902903 14.7652 0.640402 15.5902 0.63631ZM15.9379 2.9981C15.9379 3.88755 15.9379 4.777 15.9379 5.69341C21.2359 5.69341 26.534 5.69341 31.9926 5.69341C31.9926 4.80396 31.9926 3.9145 31.9926 2.9981C26.6945 2.9981 21.3965 2.9981 15.9379 2.9981ZM45.0224 29.6363C44.578 30.2337 44.314 30.8951 44.0629 31.5918C44.0189 31.7122 43.975 31.8326 43.9297 31.9567C43.8061 32.311 43.8061 32.311 43.8285 32.7637C44.1777 32.7303 44.5268 32.696 44.8759 32.6612C44.9732 32.652 45.0706 32.6428 45.1709 32.6333C46.8797 32.4604 47.8167 31.97 48.9605 30.6539C49.7569 29.5727 50.2683 28.3409 50.5082 27.0215C48.3193 26.8428 46.3813 28.0156 45.0224 29.6363ZM37.7348 30.0684C37.943 30.8575 38.2515 31.4463 38.7895 32.0606C38.8567 32.1438 38.9239 32.2271 38.9932 32.3128C39.3541 32.6077 39.6485 32.6248 40.1078 32.6758C40.2559 32.6934 40.4039 32.7109 40.5564 32.7289C40.6694 32.7404 40.7824 32.7519 40.8988 32.7637C40.6202 31.8459 40.2148 31.1866 39.3814 30.6777C38.838 30.3977 38.3416 30.1651 37.7348 30.0684ZM32.4311 37.4013C30.2255 40.1415 29.6062 43.8923 29.9377 47.3211C30.326 50.7889 31.503 54.2218 34.2192 56.5528C36.516 58.3666 39.1175 58.3505 41.9073 58.3412C42.3549 58.3399 42.8025 58.3411 43.2501 58.3426C46.1269 58.3794 46.1269 58.3794 48.8676 57.6075C48.9705 57.5622 49.0733 57.5168 49.1793 57.4701C50.6334 56.7588 51.7496 55.5539 52.6176 54.209C52.6797 54.1169 52.7418 54.0247 52.8057 53.9298C53.9781 52.1035 54.6105 49.7895 54.8442 47.6465C54.8585 47.5212 54.8729 47.3958 54.8876 47.2666C55.1839 44.0993 54.6419 40.4232 52.6908 37.8248C52.552 37.6588 52.4103 37.4953 52.266 37.334C52.1879 37.2451 52.1098 37.1561 52.0294 37.0644C50.6747 35.6121 48.8643 34.9152 46.8974 34.8438C45.7314 34.8551 44.5123 35.0626 43.4037 35.4224C42.4755 35.7177 41.8025 35.5509 40.8812 35.2918C37.78 34.4271 34.6149 34.9115 32.4311 37.4013Z" fill="#D7FB00"/>
<path d="M21.7091 34.0379C23.111 35.2143 24.2531 36.8892 24.4923 38.7401C24.682 41.0245 24.3989 43.1424 22.9047 44.9785C21.644 46.4465 19.9867 47.4945 18.0469 47.7635C15.7205 47.9277 13.7261 47.5519 11.8507 46.0863C10.4012 44.8263 9.39655 43.1188 9.14069 41.201C8.99147 38.7764 9.45185 36.6904 11.0899 34.8097C13.9389 31.8478 18.4614 31.5473 21.7091 34.0379ZM12.7785 36.682C11.7687 37.9486 11.4731 39.3809 11.6016 40.9667C11.7946 41.8999 12.1794 42.6863 12.7735 43.4276C12.8382 43.5083 12.9028 43.5889 12.9694 43.672C13.8268 44.6283 15.0774 45.2451 16.3555 45.3305C18.007 45.3612 19.2428 45.0235 20.5079 43.8963C21.1849 43.2 21.6263 42.4796 21.9141 41.5526C21.9365 41.4836 21.9588 41.4145 21.9819 41.3434C22.274 39.81 21.9954 38.363 21.1254 37.0725C20.3575 36.0022 19.2997 35.2494 18.0099 34.921C15.953 34.6066 14.2183 35.1734 12.7785 36.682Z" fill="#D7FB00"/>
<path d="M11.4993 14.452C11.5954 14.4512 11.6914 14.4504 11.7903 14.4495C11.9476 14.4499 11.9476 14.4499 12.1081 14.4504C12.2199 14.4497 12.3318 14.4491 12.4471 14.4485C12.823 14.4467 13.1988 14.4467 13.5747 14.4466C13.8438 14.4457 14.1129 14.4447 14.3819 14.4436C15.1136 14.4411 15.8453 14.44 16.577 14.4394C17.0339 14.439 17.4909 14.4383 17.9478 14.4374C19.213 14.4352 20.4783 14.4332 21.7435 14.4329C21.8245 14.4329 21.9054 14.4328 21.9889 14.4328C22.153 14.4328 22.3171 14.4327 22.4812 14.4327C22.5626 14.4327 22.6441 14.4326 22.728 14.4326C22.8096 14.4326 22.8911 14.4326 22.9751 14.4326C24.297 14.4321 25.6188 14.429 26.9407 14.4246C28.2981 14.4201 29.6554 14.4179 31.0128 14.4178C31.7748 14.4177 32.5368 14.4167 33.2988 14.4134C34.0154 14.4103 34.732 14.41 35.4486 14.4119C35.7117 14.4121 35.9748 14.4113 36.238 14.4095C36.597 14.4071 36.9558 14.4083 37.3148 14.4104C37.4713 14.4081 37.4713 14.4081 37.631 14.4058C38.131 14.4125 38.4552 14.4454 38.8523 14.7649C39.1994 15.1306 39.2523 15.2977 39.2777 15.7802C39.2384 16.2211 39.0208 16.4708 38.7267 16.7809C38.2791 17.0322 37.8488 16.9918 37.3438 16.9881C37.1758 16.9889 37.1758 16.9889 37.0045 16.9897C36.6283 16.9911 36.2522 16.99 35.8761 16.9889C35.6068 16.9894 35.3375 16.99 35.0682 16.9908C34.3361 16.9924 33.6039 16.9918 32.8717 16.9906C32.1063 16.9898 31.3408 16.9906 30.5753 16.9911C29.2072 16.9919 27.8391 16.9907 26.4709 16.9889C25.2305 16.9874 23.9901 16.9876 22.7497 16.9893C21.3094 16.9911 19.8691 16.9918 18.4288 16.9908C17.6664 16.9903 16.9039 16.9902 16.1414 16.9913C15.4245 16.9924 14.7077 16.9917 13.9908 16.9896C13.7274 16.9892 13.4641 16.9893 13.2007 16.9901C12.8417 16.991 12.4827 16.9898 12.1237 16.9881C11.9667 16.9892 11.9667 16.9892 11.8065 16.9904C11.2503 16.9852 10.8819 16.9522 10.4294 16.5919C10.1287 16.1909 10.1524 15.7896 10.1951 15.3028C10.4705 14.6831 10.8272 14.4539 11.4993 14.452Z" fill="#D7FB00"/>
<path d="M12.0075 20.5597C12.1423 20.5592 12.1423 20.5592 12.2798 20.5587C12.5818 20.5577 12.8838 20.5575 13.1858 20.5573C13.402 20.5568 13.6181 20.5562 13.8343 20.5556C14.4222 20.554 15.01 20.5533 15.5979 20.5527C15.965 20.5524 16.3321 20.5519 16.6992 20.5514C17.8473 20.5498 18.9955 20.5487 20.1436 20.5482C21.4698 20.5477 22.7961 20.5456 24.1223 20.5422C25.1469 20.5397 26.1715 20.5385 27.1961 20.5384C27.8083 20.5382 28.4205 20.5375 29.0328 20.5354C29.6085 20.5335 30.1843 20.5333 30.7601 20.5343C30.9715 20.5344 31.1829 20.5339 31.3943 20.5327C31.6827 20.5312 31.9711 20.5319 32.2596 20.5331C32.3434 20.5322 32.4271 20.5312 32.5134 20.5303C33.0243 20.5354 33.3423 20.6175 33.75 20.9278C34.0034 21.2511 34.0945 21.4569 34.1455 21.8653C34.0953 22.2665 33.9915 22.4808 33.75 22.8028C33.321 23.0888 33.0019 23.0706 32.5059 23.0685C32.3683 23.0693 32.3683 23.0693 32.2278 23.0701C31.9193 23.0716 31.6109 23.0714 31.3024 23.0712C31.0816 23.0719 30.8608 23.0727 30.6401 23.0736C30.0396 23.0756 29.4392 23.0762 28.8387 23.0763C28.3378 23.0766 27.8369 23.0774 27.3359 23.0783C26.1543 23.0802 24.9727 23.0807 23.7911 23.0806C22.5714 23.0804 21.3517 23.0829 20.132 23.0866C19.0855 23.0897 18.039 23.0909 16.9925 23.0908C16.3672 23.0907 15.7419 23.0914 15.1166 23.0939C14.5285 23.0961 13.9404 23.0962 13.3523 23.0944C13.1364 23.0942 12.9204 23.0948 12.7045 23.0962C12.4099 23.098 12.1154 23.0969 11.8207 23.0951C11.6923 23.0969 11.6923 23.0969 11.5613 23.0987C11.1442 23.0931 10.9114 23.0453 10.5552 22.8211C10.242 22.4949 10.2019 22.2748 10.1514 21.8286C10.2099 21.2529 10.372 21.0931 10.7812 20.6934C11.1976 20.5546 11.5743 20.5592 12.0075 20.5597Z" fill="#D7FB00"/>
<path d="M11.9993 26.6537C12.1536 26.6531 12.3078 26.6524 12.4668 26.6517C12.6375 26.6516 12.8083 26.6514 12.9791 26.6513C13.1591 26.6508 13.3391 26.6502 13.5191 26.6496C14.008 26.648 14.4968 26.6473 14.9857 26.6467C15.2912 26.6464 15.5967 26.6459 15.9023 26.6454C16.8585 26.6438 17.8148 26.6427 18.7711 26.6422C19.8743 26.6417 20.9776 26.6396 22.0809 26.6362C22.9341 26.6337 23.7873 26.6325 24.6405 26.6324C25.1499 26.6322 25.6593 26.6315 26.1687 26.6295C26.648 26.6275 27.1273 26.6273 27.6066 26.6283C27.7822 26.6284 27.9578 26.6279 28.1334 26.6267C29.8165 26.6163 29.8165 26.6163 30.4687 27.0218C30.7132 27.3885 30.7462 27.5191 30.7617 27.9446C30.7677 28.0434 30.7738 28.1422 30.78 28.244C30.6898 28.5975 30.5513 28.7809 30.2656 29.0064C29.6336 29.3033 28.8626 29.2107 28.176 29.2051C27.9886 29.2057 27.8013 29.2066 27.614 29.2076C27.1062 29.2098 26.5986 29.2083 26.0908 29.206C25.5592 29.2041 25.0275 29.2051 24.4959 29.2057C23.6033 29.2062 22.7107 29.2044 21.8181 29.2011C20.7862 29.1973 19.7545 29.1973 18.7227 29.1994C17.7297 29.2012 16.7367 29.2004 15.7437 29.1984C15.3213 29.1976 14.8988 29.1977 14.4764 29.1986C13.979 29.1995 13.4817 29.1981 12.9843 29.1949C12.8018 29.1941 12.6193 29.1941 12.4368 29.1949C12.1876 29.1959 11.9385 29.1941 11.6893 29.1915C11.5499 29.1911 11.4105 29.1908 11.2669 29.1905C10.8243 29.1192 10.6299 28.9727 10.3125 28.6624C10.123 28.2835 10.1269 27.9001 10.1953 27.4905C10.3806 27.1444 10.6087 26.8508 10.9889 26.7111C11.3283 26.6579 11.6556 26.6546 11.9993 26.6537Z" fill="#D7FB00"/>
<path d="M19.6875 37.217C20.0104 37.4726 20.2073 37.6707 20.3906 38.0373C20.4602 38.6495 20.2857 38.9743 19.9219 39.4436C19.6644 39.74 19.3951 40.0242 19.1235 40.3078C18.976 40.4637 18.8286 40.6196 18.6813 40.7756C18.6116 40.8495 18.5418 40.9233 18.47 40.9994C18.2474 41.2376 18.0322 41.4814 17.8198 41.7287C16.8004 42.8993 16.8004 42.8993 16.2891 43.091C15.4807 43.0573 14.9905 42.6552 14.4507 42.0876C14.3439 41.9766 14.2371 41.8655 14.127 41.7511C14.0284 41.6471 13.9298 41.543 13.8281 41.4357C13.6962 41.3118 13.6962 41.3118 13.5617 41.1853C13.2561 40.8556 13.2498 40.5885 13.2422 40.1467C13.3923 39.6874 13.5205 39.4952 13.916 39.2165C14.3947 39.06 14.6326 39.0671 15.1172 39.2092C15.45 39.4209 15.7543 39.6571 16.0547 39.9123C16.0976 39.8623 16.1405 39.8123 16.1847 39.7608C16.6507 39.2227 17.1267 38.6941 17.6074 38.1691C17.6683 38.1022 17.7291 38.0352 17.7918 37.9663C18.3903 37.3156 18.806 37.0608 19.6875 37.217Z" fill="#D7FB00"/>
<path d="M4.45427 29.2479C4.82048 29.4676 4.82048 29.4676 5.0402 29.8338C5.12044 30.2417 5.12254 30.598 5.0402 31.0057C4.74557 31.4432 4.55579 31.5621 4.05143 31.7088C3.57173 31.7088 3.33036 31.6174 2.93083 31.3572C2.59807 30.8581 2.60975 30.4193 2.69645 29.8338C3.11266 29.1401 3.71069 29.1016 4.45427 29.2479Z" fill="#D7FB00"/>
</g>
<defs>
<clipPath id="clip0_377_1151">
<rect width="60" height="60" fill="white" transform="translate(0 0.654297)"/>
</clipPath>
</defs>
</svg>
