<svg width="30" height="30" viewBox="0 0 30 30" fill="none" xmlns="http://www.w3.org/2000/svg">
<g clip-path="url(#clip0_266_382)">
<path d="M10.4777 -0.0181988C10.5298 -0.0178684 10.582 -0.0175379 10.6357 -0.0171975C11.373 -0.00353966 12.0594 0.260543 12.612 0.763662C12.92 1.10787 13.1949 1.50197 13.3598 1.93371C13.4151 1.93383 13.4151 1.93383 13.4715 1.93396C13.8575 1.93512 14.2434 1.93831 14.6293 1.94265C14.7731 1.944 14.9169 1.94485 15.0607 1.94516C15.2681 1.94571 15.4755 1.94812 15.6829 1.95087C15.7465 1.95064 15.8102 1.95041 15.8757 1.95017C16.351 1.95915 16.7508 2.06301 17.1082 2.39154C17.2918 2.58636 17.3547 2.7244 17.4027 2.98839C17.4745 2.98717 17.5463 2.98594 17.6203 2.98467C17.8886 2.98041 18.1569 2.97773 18.4252 2.97552C18.541 2.97435 18.6567 2.97275 18.7725 2.97071C18.9396 2.96784 19.1067 2.96653 19.2738 2.9655C19.325 2.9643 19.3761 2.96309 19.4287 2.96184C19.8684 2.96168 20.2178 3.07646 20.5558 3.36193C21.0327 3.93415 21.0524 4.39189 21.0468 5.11263C21.0466 5.19737 21.0464 5.2821 21.0463 5.36684C21.046 5.54873 21.0453 5.73061 21.0445 5.91249C21.0432 6.20038 21.0431 6.48826 21.0434 6.77615C21.0435 6.8749 21.0435 6.97365 21.0436 7.0724C21.0436 7.12184 21.0437 7.17128 21.0437 7.22221C21.0441 7.89197 21.0433 8.56172 21.0402 9.23147C21.0381 9.68395 21.0376 10.1364 21.039 10.5889C21.0397 10.8281 21.0395 11.0672 21.0373 11.3063C21.0352 11.5313 21.0353 11.7561 21.037 11.9811C21.0373 12.0634 21.0367 12.1457 21.0353 12.228C21.0216 12.6885 21.0216 12.6885 21.1979 13.1001C21.314 13.2167 21.4332 13.3172 21.5629 13.4181C21.8725 13.7922 22.0815 14.2014 22.266 14.6485C22.3988 14.4808 22.4987 14.3117 22.5956 14.1212C23.2088 12.9829 24.1573 12.0623 25.3129 11.4845C25.5398 11.4593 25.6366 11.4659 25.8292 11.5943C25.9781 11.739 26.0101 11.7929 26.038 11.9972C26.0086 12.2517 25.9109 12.3765 25.723 12.5392C25.6155 12.6129 25.5067 12.6847 25.3971 12.7552C24.9939 13.015 24.6572 13.317 24.3168 13.6525C24.259 13.7091 24.259 13.7091 24.2001 13.7669C23.5083 14.5001 23.1572 15.432 22.9691 16.4064C23.0123 16.3817 23.0554 16.357 23.0998 16.3315C23.157 16.2994 23.2142 16.2673 23.2731 16.2342C23.3577 16.1863 23.3577 16.1863 23.4441 16.1374C23.7516 15.9876 24.0541 15.9855 24.3914 15.9822C24.4383 15.9818 24.4853 15.9813 24.5336 15.9808C24.633 15.98 24.7324 15.9794 24.8318 15.9789C24.9317 15.9782 25.0317 15.977 25.1317 15.9753C26.3876 15.9534 27.4646 16.2438 28.4184 17.1095C28.4678 17.1534 28.5172 17.1974 28.568 17.2427C28.952 17.6033 29.2218 17.9958 29.473 18.4571C29.5155 18.5347 29.5155 18.5347 29.5589 18.6139C30.0537 19.605 30.0378 20.6564 30.0309 21.7357C30.0296 21.9479 30.0304 22.16 30.0318 22.3721C30.0431 24.475 29.5986 26.5104 28.0668 28.0665C27.9154 28.2094 27.7581 28.3436 27.598 28.4767C27.5547 28.5141 27.5113 28.5516 27.4667 28.5902C26.0294 29.7966 24.4115 30.041 22.5936 30.0196C22.4344 30.018 22.2752 30.0175 22.116 30.0171C21.9232 30.0165 21.7303 30.0153 21.5375 30.0141C21.4672 30.0136 21.397 30.0132 21.3246 30.0128C20.956 30.0086 20.5945 29.9915 20.2283 29.9481C20.0878 29.9331 20.0878 29.9331 19.9223 30.0001C19.8176 30.0056 19.7128 30.0077 19.608 30.0078C19.5424 30.008 19.4768 30.0083 19.4092 30.0085C19.3006 30.0084 19.3006 30.0084 19.1898 30.0083C19.1132 30.0085 19.0365 30.0087 18.9575 30.0089C18.7443 30.0093 18.531 30.0094 18.3177 30.0095C18.0879 30.0096 17.8581 30.01 17.6283 30.0104C17.1255 30.0112 16.6227 30.0116 16.1199 30.0118C15.8061 30.012 15.4922 30.0122 15.1784 30.0125C14.3096 30.0132 13.4408 30.0138 12.5721 30.014C12.5165 30.014 12.4608 30.0141 12.4035 30.0141C12.3199 30.0141 12.3199 30.0141 12.2346 30.0141C12.1216 30.0141 12.0086 30.0142 11.8956 30.0142C11.8396 30.0142 11.7836 30.0142 11.7258 30.0142C10.8177 30.0145 9.90957 30.0155 9.00145 30.0168C8.06938 30.0182 7.13732 30.019 6.20525 30.019C5.68181 30.0191 5.15838 30.0194 4.63494 30.0205C4.18922 30.0214 3.7435 30.0217 3.29778 30.0212C3.07036 30.021 2.84294 30.021 2.61552 30.0219C2.36896 30.0227 2.12242 30.0223 1.87586 30.0216C1.80399 30.0221 1.73212 30.0226 1.65808 30.0231C1.08719 30.0197 0.759821 29.9071 0.33616 29.5179C0.0240987 29.1988 -0.00685211 28.9032 -0.00763745 28.4725C-0.00779283 28.4306 -0.00794854 28.3887 -0.00810863 28.3455C-0.00855927 28.2042 -0.00859216 28.0629 -0.00862719 27.9216C-0.00886242 27.8196 -0.00912222 27.7176 -0.00940503 27.6156C-0.0101064 27.3347 -0.0104375 27.0537 -0.010705 26.7728C-0.0110539 26.47 -0.0117341 26.1673 -0.0123626 25.8645C-0.0137997 25.1331 -0.0146568 24.4016 -0.0154132 23.6702C-0.0156307 23.4636 -0.0158633 23.257 -0.0161016 23.0505C-0.0175802 21.768 -0.0188722 20.4856 -0.019601 19.2032C-0.0197727 18.9061 -0.0199465 18.609 -0.0201231 18.312C-0.0201668 18.2381 -0.0202104 18.1643 -0.0202555 18.0882C-0.020997 16.8919 -0.0229438 15.6955 -0.0253847 14.4992C-0.0278697 13.2712 -0.0292511 12.0433 -0.0295574 10.8153C-0.0297575 10.1257 -0.0304474 9.43615 -0.0323764 8.74657C-0.0340163 8.15935 -0.0346616 7.57213 -0.0340054 6.98491C-0.0337013 6.68531 -0.0338714 6.38573 -0.0353214 6.08613C-0.0366384 5.81171 -0.0365965 5.53733 -0.035485 5.26292C-0.0353209 5.16378 -0.0356503 5.06465 -0.0365293 4.96552C-0.0414156 4.3785 -0.0248996 3.8594 0.396216 3.40467C0.783771 3.03569 1.17564 2.96217 1.69206 2.97123C1.7461 2.97148 1.80014 2.97172 1.85582 2.97198C2.02716 2.97296 2.19845 2.97516 2.36978 2.97741C2.48647 2.97829 2.60316 2.97909 2.71985 2.97981C3.00479 2.98174 3.28969 2.98477 3.57461 2.98839C3.59224 2.94259 3.60987 2.89678 3.62804 2.84959C3.69282 2.69294 3.76252 2.58667 3.87124 2.45739C3.90213 2.41924 3.93302 2.3811 3.96485 2.3418C4.38277 1.99086 4.81957 1.95942 5.3473 1.96941C5.44762 1.96991 5.44762 1.96991 5.54997 1.97042C5.76191 1.97172 5.97378 1.97466 6.18569 1.97765C6.33008 1.97883 6.47447 1.9799 6.61885 1.98086C6.97131 1.98343 7.32374 1.98734 7.67617 1.9923C7.68784 1.95598 7.6995 1.91965 7.71152 1.88223C7.72704 1.83464 7.74255 1.78706 7.75854 1.73803C7.77383 1.69083 7.78912 1.64363 7.80487 1.595C8.04146 0.941519 8.72185 0.477997 9.31726 0.189168C9.71171 0.0274735 10.0562 -0.0209762 10.4777 -0.0181988ZM8.90664 1.81652C8.73247 2.06236 8.62095 2.31575 8.52578 2.60021C8.42538 2.84284 8.37619 2.87994 8.14492 2.98839C7.98448 3.01018 7.98448 3.01018 7.80879 3.01001C7.74271 3.01041 7.67662 3.01081 7.60853 3.01123C7.53772 3.01087 7.46691 3.01051 7.39396 3.01014C7.24378 3.01115 7.09359 3.01219 6.94341 3.01323C6.7068 3.01399 6.4702 3.01403 6.2336 3.01393C6.00514 3.01392 5.77671 3.01574 5.54826 3.01746C5.44187 3.01674 5.44187 3.01674 5.33333 3.01601C5.23448 3.01689 5.23448 3.01689 5.13362 3.01779C5.04673 3.01778 5.04673 3.01778 4.95808 3.01776C4.76169 3.05527 4.69356 3.12663 4.5707 3.28136C4.49852 3.4979 4.50148 3.69981 4.50021 3.92544C4.49987 3.97131 4.49954 4.01719 4.4992 4.06445C4.49864 4.16148 4.49826 4.25851 4.49803 4.35553C4.49746 4.50355 4.49565 4.65153 4.4938 4.79953C4.49342 4.89391 4.49311 4.98829 4.49288 5.08266C4.49216 5.12674 4.49144 5.17081 4.49069 5.21623C4.49181 5.48008 4.51883 5.65334 4.68789 5.85949C4.90169 6.00617 5.12407 5.99308 5.37374 5.99156C5.44235 5.99183 5.44235 5.99183 5.51233 5.99211C5.66572 5.99258 5.8191 5.99221 5.97249 5.99184C6.0824 5.992 6.19232 5.99221 6.30223 5.99246C6.60088 5.99299 6.89953 5.99279 7.19818 5.99242C7.51048 5.99212 7.82279 5.99239 8.13509 5.99258C8.65958 5.99279 9.18407 5.99251 9.70856 5.99195C10.3152 5.99131 10.9219 5.99152 11.5286 5.99217C12.0492 5.9927 12.5697 5.99277 13.0903 5.99247C13.4013 5.99228 13.7124 5.99226 14.0235 5.99265C14.3159 5.99298 14.6083 5.99275 14.9007 5.99207C15.0081 5.99192 15.1155 5.99196 15.2229 5.99222C15.3694 5.99254 15.5158 5.99214 15.6622 5.99156C15.7049 5.99182 15.7476 5.99208 15.7916 5.99235C16.0049 5.99069 16.1713 5.98553 16.348 5.85949C16.5012 5.62976 16.4853 5.43101 16.487 5.16414C16.4875 5.11307 16.488 5.06199 16.4886 5.00936C16.4894 4.9013 16.49 4.79324 16.4902 4.68518C16.4909 4.52015 16.4937 4.35525 16.4967 4.19025C16.4973 4.0852 16.4977 3.98014 16.498 3.87508C16.4991 3.82588 16.5003 3.77667 16.5014 3.72598C16.4997 3.49553 16.4797 3.36529 16.3635 3.16223C16.062 2.98052 15.7688 3.00791 15.4234 3.01174C15.3503 3.01127 15.2773 3.0108 15.2021 3.01032C15.0084 3.00919 14.8147 3.00922 14.621 3.00995C14.3482 3.0109 14.0754 3.0106 13.8026 3.00916C13.6575 3.00845 13.5124 3.00861 13.3673 3.00973C13.3014 3.00951 13.2355 3.0093 13.1676 3.00908C13.1098 3.00931 13.052 3.00954 12.9925 3.00978C12.8021 2.98434 12.693 2.92668 12.5395 2.81261C12.4612 2.64736 12.4612 2.64736 12.4003 2.45373C12.1934 1.8731 11.8675 1.44902 11.312 1.17405C10.3924 0.805212 9.54178 1.11357 8.90664 1.81652ZM1.05508 4.33605C1.01145 4.53243 1.01145 4.53243 1.01837 4.75212C1.01797 4.79354 1.01756 4.83496 1.01714 4.87764C1.01612 5.01682 1.0172 5.1559 1.01827 5.29507C1.01797 5.3957 1.01755 5.49633 1.01701 5.59696C1.0159 5.87376 1.01662 6.15054 1.01764 6.42735C1.01842 6.72576 1.01752 7.02416 1.01683 7.32256C1.01575 7.90723 1.01625 8.49189 1.0173 9.07656C1.01812 9.55159 1.01835 10.0266 1.01816 10.5017C1.01813 10.5692 1.0181 10.6367 1.01807 10.7063C1.01801 10.8435 1.01795 10.9807 1.01789 11.1179C1.01738 12.3318 1.01836 13.5456 1.0201 14.7594C1.02179 15.938 1.02221 17.1167 1.0213 18.2953C1.02032 19.578 1.02008 20.8606 1.02111 22.1432C1.02122 22.2799 1.02133 22.4166 1.02143 22.5533C1.02149 22.6205 1.02154 22.6878 1.0216 22.7571C1.02192 23.2318 1.02173 23.7064 1.02134 24.1811C1.02089 24.7592 1.02128 25.3374 1.02276 25.9156C1.02349 26.2107 1.02385 26.5059 1.0232 26.801C1.02261 27.071 1.0231 27.3409 1.02446 27.6108C1.02476 27.7087 1.02467 27.8066 1.02414 27.9045C1.02349 28.0372 1.02427 28.1697 1.02542 28.3024C1.02549 28.3762 1.02556 28.4499 1.02563 28.526C1.04144 28.7142 1.04144 28.7142 1.15596 28.852C1.31272 28.9617 1.39019 28.9746 1.58 28.9743C1.66827 28.975 1.66827 28.975 1.75831 28.9757C1.82283 28.975 1.88735 28.9743 1.95383 28.9736C2.02246 28.9738 2.09109 28.974 2.1618 28.9742C2.35235 28.9745 2.54287 28.9738 2.73341 28.9726C2.93887 28.9716 3.14432 28.972 3.34978 28.9721C3.70576 28.9723 4.06173 28.9715 4.41771 28.9702C4.9324 28.9683 5.44708 28.9677 5.96177 28.9674C6.7968 28.9669 7.63182 28.9653 8.46684 28.9631C9.27804 28.961 10.0892 28.9593 10.9004 28.9583C10.9504 28.9582 11.0004 28.9582 11.0519 28.9581C11.3027 28.9578 11.5535 28.9575 11.8043 28.9572C13.8853 28.9548 15.9663 28.9507 18.0473 28.9454C18.0009 28.9085 17.9546 28.8716 17.9068 28.8335C17.7921 28.7414 17.682 28.6488 17.5739 28.5492C17.5434 28.5212 17.5129 28.4931 17.4815 28.4642C17.4507 28.4357 17.4198 28.4072 17.3881 28.3778C17.3564 28.3486 17.3246 28.3194 17.292 28.2893C17.0638 28.0791 17.0638 28.0791 16.9926 28.0079C16.8097 28.0018 16.6281 27.9996 16.4451 27.9998C16.3869 27.9997 16.3288 27.9995 16.2688 27.9993C16.0722 27.9988 15.8757 27.9988 15.6791 27.9987C15.5388 27.9984 15.3985 27.9981 15.2582 27.9978C14.9553 27.9971 14.6523 27.9966 14.3494 27.9963C13.8706 27.9956 13.3918 27.9944 12.9129 27.9931C12.7492 27.9927 12.5855 27.9923 12.4217 27.9918C12.3604 27.9917 12.3604 27.9917 12.2977 27.9915C11.8316 27.9903 11.3654 27.9892 10.8992 27.9881C10.8566 27.988 10.8139 27.9879 10.77 27.9878C10.0795 27.9863 9.38902 27.9852 8.69853 27.9842C7.98993 27.9832 7.28133 27.9815 6.57273 27.9792C6.13552 27.9779 5.69832 27.9771 5.26111 27.9769C4.92593 27.9768 4.59077 27.9758 4.2556 27.9744C4.11809 27.974 3.98057 27.9738 3.84305 27.974C3.65547 27.9743 3.46793 27.9734 3.28035 27.9723C3.22579 27.9726 3.17122 27.9729 3.115 27.9733C2.81404 27.9702 2.60427 27.9419 2.34414 27.7735C2.09312 27.5022 2.04389 27.3099 2.04331 26.9466C2.04305 26.8712 2.04278 26.7958 2.04252 26.7181C2.04252 26.634 2.04253 26.5498 2.04255 26.4656C2.04236 26.3766 2.04214 26.2875 2.0419 26.1985C2.04131 25.9531 2.04109 25.7078 2.04094 25.4625C2.04071 25.1982 2.04015 24.9338 2.03963 24.6695C2.03848 24.0308 2.03789 23.3922 2.03736 22.7535C2.03711 22.4529 2.03679 22.1523 2.03649 21.8516C2.03549 20.8526 2.03464 19.8535 2.03422 18.8545C2.0341 18.5952 2.03399 18.3359 2.03388 18.0765C2.03385 18.0121 2.03382 17.9476 2.03379 17.8812C2.0333 16.8367 2.03182 15.7922 2.02992 14.7477C2.02798 13.6758 2.02692 12.6038 2.02674 11.5319C2.02661 10.9299 2.0261 10.3279 2.0246 9.72584C2.02333 9.21321 2.02286 8.70059 2.02343 8.18796C2.02369 7.92636 2.02358 7.66477 2.02244 7.40317C2.02141 7.16368 2.02147 6.92421 2.02238 6.68472C2.02252 6.59809 2.02226 6.51146 2.02157 6.42483C2.01549 5.61491 2.01549 5.61491 2.28555 5.27355C2.64398 4.98375 3.00574 4.99921 3.45742 4.98058C3.45742 4.67121 3.45742 4.36183 3.45742 4.04308C3.16229 4.03634 2.86744 4.03051 2.57229 4.02699C2.47198 4.02552 2.37167 4.02352 2.27137 4.02098C2.12693 4.01741 1.98256 4.01576 1.83808 4.01447C1.79345 4.01296 1.74883 4.01145 1.70285 4.00989C1.37795 4.00972 1.2539 4.08432 1.05508 4.33605ZM17.5199 4.04308C17.5199 4.35246 17.5199 4.66183 17.5199 4.98058C17.6976 4.98964 17.6976 4.98964 17.8788 4.99889C18.2535 5.02859 18.4967 5.07467 18.765 5.35045C18.9985 5.70905 19.0025 6.0499 19.0034 6.46416C19.004 6.52422 19.0046 6.58428 19.0052 6.64616C19.007 6.84399 19.008 7.04181 19.009 7.23964C19.0101 7.37708 19.0113 7.51451 19.0125 7.65195C19.0155 8.01317 19.0178 8.37439 19.02 8.73562C19.0223 9.10443 19.0253 9.47323 19.0283 9.84203C19.0339 10.5653 19.0389 11.2886 19.0434 12.0118C19.3502 12.1249 19.6604 12.1867 19.9809 12.2462C19.9836 11.2265 19.9857 10.2069 19.9869 9.1872C19.9875 8.71376 19.9884 8.24032 19.9897 7.76687C19.9909 7.35426 19.9916 6.94164 19.9919 6.52902C19.992 6.31051 19.9924 6.09201 19.9932 5.8735C19.9942 5.62966 19.9942 5.38584 19.9942 5.142C19.9946 5.06942 19.995 4.99685 19.9954 4.92207C19.9953 4.85569 19.9951 4.7893 19.995 4.7209C19.9951 4.63438 19.9951 4.63438 19.9953 4.5461C19.9801 4.38616 19.9518 4.29384 19.8637 4.16027C19.6389 4.0104 19.4567 4.02825 19.1965 4.03164C19.1486 4.0318 19.1007 4.03197 19.0514 4.03214C18.8986 4.03279 18.7458 4.03427 18.5929 4.03576C18.4893 4.03634 18.3856 4.03688 18.282 4.03736C18.0279 4.03855 17.774 4.04084 17.5199 4.04308ZM3.04727 6.03527C3.04727 12.9382 3.04727 19.8411 3.04727 26.9532C7.35918 26.9532 11.6711 26.9532 16.1137 26.9532C15.959 26.6439 15.8043 26.3345 15.6449 26.0157C15.1195 24.7627 15.02 23.5638 15.0284 22.2172C15.0298 22.0008 15.029 21.7844 15.0276 21.568C15.0169 19.5315 15.0169 19.5315 15.5131 18.6146C15.5331 18.5762 15.5532 18.5377 15.5738 18.4981C16.0277 17.6502 16.6135 17.1058 17.4027 16.5821C17.4607 16.5435 17.5187 16.5048 17.5785 16.465C17.5116 16.3067 17.4368 16.2022 17.3233 16.0704C16.5749 15.1822 16.4565 13.9655 16.5398 12.8525C16.586 12.4581 16.586 12.4581 16.641 12.3048C16.7806 12.2288 16.7806 12.2288 16.934 12.1876C16.9956 12.1671 17.0573 12.1465 17.1208 12.1254C17.3524 12.0684 17.5733 12.0438 17.8106 12.0262C17.9296 12.0244 17.9296 12.0244 17.9887 11.9532C17.9943 11.7695 17.996 11.5871 17.9953 11.4033C17.9953 11.3167 17.9953 11.3167 17.9953 11.2284C17.9953 11.0366 17.9949 10.8448 17.9944 10.653C17.9943 10.5204 17.9942 10.3878 17.9941 10.2552C17.9939 9.9054 17.9933 9.55563 17.9927 9.20587C17.9921 8.84927 17.9918 8.49266 17.9915 8.13606C17.9909 7.4358 17.9899 6.73553 17.9887 6.03527C17.8944 6.02943 17.8001 6.02524 17.7058 6.02176C17.6533 6.01926 17.6007 6.01675 17.5466 6.01417C17.3965 6.02102 17.3965 6.02102 17.3073 6.13605C17.2615 6.21651 17.2178 6.29827 17.1759 6.38088C17.0114 6.6872 16.7299 6.82414 16.4176 6.93663C16.2099 6.99521 16.0108 6.99722 15.7962 6.99548C15.7488 6.9958 15.7014 6.99611 15.6525 6.99644C15.4949 6.99727 15.3373 6.99686 15.1796 6.99644C15.0661 6.99678 14.9526 6.99719 14.8391 6.99766C14.5316 6.99871 14.2241 6.99864 13.9166 6.99831C13.6596 6.99813 13.4026 6.99849 13.1456 6.99884C12.5392 6.99966 11.9328 6.99957 11.3263 6.9989C10.7013 6.99823 10.0763 6.99906 9.45135 7.00063C8.91411 7.00192 8.37688 7.00231 7.83965 7.00197C7.51905 7.00177 7.19847 7.00191 6.87788 7.00292C6.57638 7.00383 6.27489 7.00359 5.97339 7.00249C5.86296 7.00228 5.75254 7.00246 5.64212 7.00307C4.56511 7.0086 4.56511 7.0086 4.16055 6.73839C4.12752 6.71673 4.0945 6.69507 4.06047 6.67275C3.82344 6.49663 3.70579 6.29259 3.57461 6.03527C3.40059 6.03527 3.22656 6.03527 3.04727 6.03527ZM17.5785 13.0665C17.3763 13.673 17.5679 14.4672 17.8275 15.0294C18.1095 15.5361 18.5005 15.8153 19.0434 15.9962C19.1942 16.0045 19.3438 16.0099 19.4947 16.0127C19.5612 16.0143 19.5612 16.0143 19.6289 16.016C19.7707 16.0194 19.9124 16.0225 20.0541 16.0255C20.24 16.0295 20.4258 16.0338 20.6117 16.0383C20.6538 16.0391 20.696 16.0399 20.7395 16.0407C20.9996 16.047 21.248 16.072 21.5043 16.1134C21.3363 15.1137 21.0398 14.1841 20.1777 13.5643C19.3365 13.0309 18.5521 12.9741 17.5785 13.0665ZM16.8168 18.3985C16.3642 19.0276 16.0508 19.7819 16.0456 20.5624C16.0451 20.6311 16.0445 20.6998 16.0439 20.7705C16.0437 20.8445 16.0434 20.9184 16.0432 20.9945C16.0428 21.0714 16.0425 21.1482 16.0422 21.2274C16.0415 21.3902 16.0412 21.553 16.041 21.7158C16.0407 21.9219 16.0393 22.128 16.0376 22.3341C16.0365 22.4947 16.0362 22.6553 16.0361 22.8158C16.0359 22.9279 16.0348 23.0401 16.0337 23.1522C16.0372 24.5821 16.5755 25.9029 17.4613 27.0118C17.4885 27.0474 17.5157 27.083 17.5437 27.1196C18.3191 28.1071 19.6303 28.7811 20.8598 28.9454C21.3332 28.9813 21.8076 28.9792 22.2821 28.976C22.5 28.9747 22.7178 28.976 22.9357 28.9775C23.8872 28.9787 24.7887 28.931 25.6535 28.495C25.6943 28.475 25.7352 28.4551 25.7773 28.4346C26.1661 28.238 26.502 27.9947 26.8363 27.715C26.8824 27.6784 26.9285 27.6418 26.9759 27.6042C28.072 26.6952 28.811 25.1991 28.9457 23.7892C28.9562 23.5255 28.9581 23.262 28.9597 22.9982C28.9604 22.8832 28.9604 22.8832 28.9611 22.7658C28.962 22.6037 28.9626 22.4416 28.963 22.2794C28.9635 22.1149 28.9647 21.9503 28.9666 21.7858C28.9822 20.3861 28.9347 19.1875 27.9047 18.1177C27.8615 18.075 27.8183 18.0324 27.7738 17.9884C27.7379 17.9512 27.7019 17.9139 27.6649 17.8756C26.967 17.203 26.0957 17.0275 25.1617 17.0227C25.0279 17.0216 24.8943 17.018 24.7606 17.0143C24.2461 17.0068 23.8424 17.0513 23.4379 17.4025C23.0896 17.7774 23.014 18.204 22.9948 18.7025C22.971 19.2505 22.971 19.2505 22.9105 19.3946C22.7537 19.4469 22.6613 19.4612 22.5004 19.4606C22.4406 19.4608 22.4406 19.4608 22.3795 19.461C22.266 19.4532 22.266 19.4532 22.0902 19.3946C22.0153 19.2168 22.0237 19.0268 22.0176 18.836C21.9961 18.2244 21.9001 17.7525 21.4443 17.313C21.0327 17.0063 20.6319 17.022 20.1411 17.0248C20.0083 17.0253 19.8756 17.0236 19.7427 17.0217C18.5577 17.0159 17.5632 17.4694 16.8168 18.3985Z" fill="black"/>
<path d="M5.60086 17.4471C5.7301 17.4465 5.85928 17.4447 5.98851 17.4428C6.07156 17.4425 6.1546 17.4421 6.23765 17.4419C6.31256 17.4414 6.38748 17.4408 6.46466 17.4403C6.85745 17.4784 7.12364 17.6264 7.38275 17.9299C7.53325 18.1518 7.51887 18.3884 7.51962 18.647C7.52001 18.6938 7.5204 18.7406 7.5208 18.7888C7.52139 18.8878 7.52167 18.9867 7.52165 19.0857C7.5219 19.2362 7.52403 19.3865 7.52626 19.537C7.5266 19.6334 7.52683 19.7298 7.52694 19.8262C7.52778 19.8708 7.52863 19.9153 7.52949 19.9612C7.52674 20.2862 7.45172 20.4748 7.26556 20.7424C6.9426 20.9929 6.69618 21.0449 6.29762 21.0473C6.25448 21.0476 6.21135 21.0479 6.1669 21.0483C6.07564 21.0488 5.98438 21.0492 5.89311 21.0494C5.75422 21.05 5.61538 21.0518 5.4765 21.0537C5.38766 21.0541 5.29882 21.0544 5.20997 21.0546C5.16876 21.0553 5.12755 21.056 5.08509 21.0568C4.762 21.0553 4.5242 20.9793 4.28529 20.7589C4.25727 20.7244 4.22924 20.69 4.20037 20.6545C4.1716 20.6201 4.14282 20.5856 4.11317 20.5501C3.95546 20.3241 3.97394 20.0841 3.97241 19.8202C3.97207 19.7758 3.97174 19.7314 3.9714 19.6856C3.97084 19.5916 3.97046 19.4975 3.97023 19.4035C3.96967 19.2604 3.96785 19.1173 3.966 18.9742C3.96562 18.8827 3.96531 18.7911 3.96508 18.6996C3.96436 18.6571 3.96364 18.6146 3.96289 18.5709C3.96431 18.2439 4.03831 18.0061 4.25874 17.7621C4.29265 17.7341 4.32657 17.7061 4.36151 17.6772C4.39527 17.6484 4.42903 17.6197 4.46382 17.59C4.78742 17.3764 5.22814 17.4481 5.60086 17.4471ZM5.039 18.5158C5.039 18.9992 5.039 19.4826 5.039 19.9807C5.50306 19.9807 5.96712 19.9807 6.44525 19.9807C6.44525 19.4973 6.44525 19.0139 6.44525 18.5158C5.98118 18.5158 5.51712 18.5158 5.039 18.5158Z" fill="black"/>
<path d="M5.18275 21.9588C5.22561 21.9584 5.26846 21.9579 5.31262 21.9574C5.40339 21.9566 5.49416 21.956 5.58494 21.9555C5.67716 21.9548 5.76938 21.9536 5.8616 21.9519C6.81533 21.9339 6.81533 21.9339 7.20721 22.2072C7.49069 22.5052 7.51034 22.7566 7.51414 23.1529C7.51461 23.1998 7.51508 23.2467 7.51557 23.295C7.51638 23.3943 7.51701 23.4936 7.51747 23.5929C7.51814 23.6941 7.51934 23.7952 7.52108 23.8963C7.52359 24.0428 7.52452 24.1893 7.52512 24.3358C7.52615 24.3805 7.52718 24.4253 7.52823 24.4714C7.52693 24.7975 7.45239 24.9853 7.2658 25.254C6.83871 25.5993 6.40139 25.5596 5.8739 25.5611C5.75431 25.5616 5.63478 25.5635 5.5152 25.5653C4.63136 25.5688 4.63136 25.5688 4.27409 25.2705C4.24742 25.2361 4.22076 25.2016 4.19329 25.1661C4.16557 25.1317 4.13785 25.0973 4.10929 25.0618C3.95969 24.834 3.97326 24.598 3.97059 24.336C3.97012 24.2918 3.96964 24.2477 3.96916 24.2022C3.96835 24.1086 3.96772 24.0151 3.96726 23.9216C3.96658 23.8265 3.96539 23.7315 3.96365 23.6364C3.94561 22.6482 3.94561 22.6482 4.21893 22.2658C4.5362 22.0132 4.78809 21.963 5.18275 21.9588ZM5.03924 23.0275C5.03924 23.5109 5.03924 23.9943 5.03924 24.4923C5.5033 24.4923 5.96736 24.4923 6.44549 24.4923C6.44549 24.0089 6.44549 23.5255 6.44549 23.0275C5.98143 23.0275 5.51736 23.0275 5.03924 23.0275Z" fill="black"/>
<path d="M5.73513 12.9308C5.80711 12.9299 5.8791 12.929 5.95326 12.928C6.44338 12.9277 6.87422 12.9458 7.26223 13.2678C7.49301 13.5545 7.51833 13.773 7.51789 14.137C7.51815 14.184 7.5184 14.231 7.51866 14.2793C7.51899 14.3785 7.51902 14.4777 7.51877 14.5769C7.51858 14.728 7.51996 14.879 7.52144 15.0301C7.52158 15.1267 7.52162 15.2233 7.52156 15.3199C7.5221 15.3648 7.52264 15.4097 7.52319 15.4559C7.52078 15.7371 7.4774 15.9272 7.32449 16.1718C7.00763 16.4643 6.76858 16.5417 6.34213 16.5431C6.29805 16.5434 6.25398 16.5438 6.20856 16.5442C6.11539 16.5448 6.02221 16.5451 5.92903 16.5451C5.78768 16.5453 5.64644 16.5475 5.50511 16.5497C4.57413 16.5571 4.57413 16.5571 4.18635 16.2065C3.88773 15.8448 3.94494 15.3459 3.95289 14.903C3.95535 14.7582 3.95529 14.6135 3.95489 14.4687C3.95551 14.3758 3.95626 14.283 3.95718 14.1902C3.95719 14.1473 3.9572 14.1044 3.95722 14.0603C3.9657 13.6898 4.0606 13.4591 4.32156 13.1982C4.75927 12.8951 5.21926 12.9295 5.73513 12.9308ZM5.03933 14.0038C5.03933 14.4872 5.03933 14.9706 5.03933 15.4687C5.5034 15.4687 5.96746 15.4687 6.44558 15.4687C6.44558 14.9853 6.44558 14.5019 6.44558 14.0038C5.98152 14.0038 5.51746 14.0038 5.03933 14.0038Z" fill="black"/>
<path d="M5.16651 8.48211C5.23707 8.4814 5.23707 8.4814 5.30905 8.48068C5.40859 8.47987 5.50813 8.47924 5.60767 8.47878C5.7593 8.47777 5.91086 8.4752 6.06247 8.47261C6.15933 8.47202 6.25618 8.47152 6.35304 8.47113C6.42062 8.46959 6.42062 8.46959 6.48957 8.46802C6.79474 8.46924 6.96371 8.53111 7.207 8.73045C7.47686 9.03678 7.51024 9.22687 7.51393 9.62675C7.5144 9.67517 7.51487 9.72359 7.51536 9.77348C7.51617 9.87613 7.5168 9.97878 7.51726 10.0814C7.51827 10.2378 7.52084 10.3941 7.52342 10.5505C7.52402 10.6503 7.52452 10.7501 7.52491 10.8499C7.52594 10.8964 7.52696 10.9429 7.52802 10.9909C7.52682 11.3004 7.46854 11.4721 7.26559 11.7187C6.96276 11.992 6.72862 12.0218 6.33267 12.0257C6.28707 12.0261 6.24147 12.0266 6.19449 12.0271C6.09796 12.0279 6.00142 12.0285 5.90489 12.029C5.80658 12.0297 5.70827 12.0309 5.60997 12.0326C5.46756 12.0351 5.3252 12.036 5.18276 12.0366C5.13929 12.0377 5.09582 12.0387 5.05103 12.0398C4.68593 12.0383 4.45482 11.9294 4.17433 11.6891C3.90288 11.306 3.9424 10.844 3.94936 10.3945C3.95138 10.2503 3.95057 10.1064 3.94943 9.96218C3.94984 9.86952 3.95041 9.77686 3.95115 9.6842C3.95086 9.64165 3.95057 9.59909 3.95027 9.55525C3.9575 9.23844 4.04052 9.05164 4.21871 8.78904C4.52157 8.50835 4.76733 8.48592 5.16651 8.48211ZM5.03903 9.55076C5.03903 10.0148 5.03903 10.4789 5.03903 10.957C5.50309 10.957 5.96715 10.957 6.44528 10.957C6.44528 10.4929 6.44528 10.0289 6.44528 9.55076C5.98121 9.55076 5.51715 9.55076 5.03903 9.55076Z" fill="black"/>
<path d="M9.19897 9.95277C9.25943 9.95243 9.31989 9.9521 9.38218 9.95176C9.44848 9.95169 9.51478 9.95162 9.58309 9.95156C9.68786 9.95112 9.68786 9.95112 9.79475 9.95068C9.9864 9.94997 10.178 9.94953 10.3697 9.94927C10.4894 9.9491 10.6092 9.94886 10.729 9.94859C11.1037 9.94779 11.4785 9.94723 11.8533 9.947C12.2857 9.94674 12.7182 9.94571 13.1507 9.94401C13.4851 9.94275 13.8195 9.94215 14.1539 9.94208C14.3536 9.94201 14.5532 9.94167 14.7529 9.94062C14.9757 9.93962 15.1984 9.93973 15.4212 9.94011C15.5203 9.9393 15.5203 9.9393 15.6214 9.93848C15.7125 9.93897 15.7125 9.93897 15.8056 9.93947C15.8582 9.93938 15.9109 9.93929 15.9651 9.93921C16.1483 9.96615 16.257 10.0286 16.4062 10.1368C16.5527 10.3565 16.5548 10.4625 16.5234 10.7227C16.4198 10.8801 16.4198 10.8801 16.2304 11.0157C15.9935 11.0599 15.7591 11.0557 15.5187 11.0536C15.4466 11.0541 15.3744 11.0546 15.3001 11.0552C15.1026 11.0562 14.9052 11.056 14.7077 11.055C14.5009 11.0543 14.294 11.055 14.0871 11.0554C13.7398 11.056 13.3925 11.0553 13.0451 11.0539C12.6438 11.0523 12.2425 11.0528 11.8412 11.0544C11.4963 11.0557 11.1515 11.0559 10.8066 11.0552C10.6008 11.0547 10.395 11.0546 10.1892 11.0556C9.95966 11.0566 9.73021 11.0552 9.50072 11.0536C9.39862 11.0545 9.39862 11.0545 9.29445 11.0554C8.782 11.0486 8.782 11.0486 8.60035 10.8745C8.43858 10.6391 8.45592 10.5348 8.49604 10.254C8.69109 9.99167 8.88509 9.95381 9.19897 9.95277Z" fill="black"/>
<path d="M8.55286 3.95476C8.61151 3.9541 8.67016 3.95344 8.73059 3.95276C8.82658 3.95347 8.82658 3.95347 8.9245 3.9542C8.99216 3.95379 9.05983 3.95337 9.12955 3.95295C9.35353 3.95192 9.57747 3.9526 9.80146 3.9534C9.95689 3.95324 10.1123 3.95301 10.2678 3.95272C10.5936 3.95229 10.9195 3.95285 11.2454 3.95397C11.622 3.95524 11.9987 3.95483 12.3753 3.95354C12.6988 3.95248 13.0223 3.95233 13.3458 3.95294C13.539 3.9533 13.7321 3.95326 13.9253 3.95258C14.1406 3.95198 14.3559 3.95289 14.5712 3.9542C14.6352 3.95372 14.6992 3.95325 14.7651 3.95276C14.8531 3.95375 14.8531 3.95375 14.9429 3.95476C15.0192 3.95489 15.0192 3.95489 15.0971 3.95503C15.2799 3.99437 15.3503 4.07757 15.4686 4.2189C15.5522 4.38608 15.5454 4.50217 15.5272 4.68765C15.4011 4.88321 15.3394 4.96507 15.117 5.03921C15.0255 5.0448 14.9337 5.04711 14.842 5.04744C14.7573 5.04794 14.7573 5.04794 14.6708 5.04845C14.6089 5.04852 14.5469 5.04858 14.4832 5.04865C14.3852 5.04909 14.3852 5.04909 14.2853 5.04953C14.0689 5.05039 13.8525 5.05079 13.6361 5.05111C13.486 5.05145 13.3359 5.05179 13.1858 5.05212C12.9111 5.05266 12.6364 5.05303 12.3618 5.05321C11.9577 5.05347 11.5536 5.0545 11.1495 5.0562C10.7993 5.05762 10.4491 5.05807 10.099 5.05817C9.95005 5.05835 9.80114 5.05882 9.65223 5.05959C9.44406 5.06058 9.23592 5.06048 9.02775 5.0601C8.93524 5.06091 8.93524 5.06091 8.84085 5.06173C8.31879 5.05874 8.31879 5.05874 8.08576 4.86343C7.96265 4.70675 7.96866 4.62654 7.9759 4.42398C8.05852 4.09349 8.2119 3.95535 8.55286 3.95476Z" fill="black"/>
<path d="M9.38866 14.4633C9.47284 14.4628 9.47284 14.4628 9.55873 14.4624C9.74501 14.4615 9.93129 14.4611 10.1176 14.4608C10.2468 14.4605 10.3759 14.4601 10.5051 14.4598C10.7763 14.4592 11.0475 14.4588 11.3186 14.4586C11.6662 14.4583 12.0137 14.4569 12.3613 14.4552C12.6283 14.4542 12.8952 14.4538 13.1622 14.4538C13.2903 14.4536 13.4185 14.4531 13.5466 14.4523C13.7259 14.4513 13.9051 14.4515 14.0844 14.4518C14.1374 14.4513 14.1904 14.4508 14.245 14.4502C14.5245 14.4521 14.7155 14.464 14.9413 14.6485C15.0348 14.8355 15.03 15.0314 14.9999 15.2344C14.8903 15.3769 14.8076 15.4478 14.6483 15.5274C14.4675 15.5338 14.288 15.5366 14.1071 15.5368C14.051 15.5371 13.9949 15.5374 13.9371 15.5377C13.7508 15.5386 13.5645 15.539 13.3782 15.5393C13.249 15.5396 13.1199 15.54 12.9907 15.5403C12.7195 15.5409 12.4483 15.5413 12.1772 15.5415C11.8296 15.5418 11.4821 15.5432 11.1345 15.5449C10.8675 15.546 10.6006 15.5463 10.3336 15.5464C10.2055 15.5465 10.0773 15.547 9.94918 15.5478C9.76991 15.5488 9.59067 15.5487 9.4114 15.5483C9.3584 15.5488 9.30539 15.5494 9.25078 15.5499C8.97128 15.5481 8.78025 15.5361 8.55454 15.3516C8.46101 15.1646 8.46579 14.9687 8.49595 14.7657C8.74807 14.4379 9.00115 14.4638 9.38866 14.4633Z" fill="black"/>
<path d="M9.27097 18.9463C9.31854 18.9458 9.36612 18.9453 9.41514 18.9448C9.57196 18.9435 9.72869 18.9444 9.88551 18.9453C9.99474 18.9451 10.104 18.9449 10.2132 18.9445C10.4419 18.9441 10.6707 18.9447 10.8994 18.9461C11.1924 18.9477 11.4853 18.9468 11.7783 18.945C12.0038 18.944 12.2293 18.9443 12.4548 18.9451C12.5628 18.9452 12.6709 18.945 12.7789 18.9443C12.93 18.9436 13.0809 18.9447 13.232 18.9463C13.2765 18.9458 13.321 18.9452 13.3669 18.9445C13.6011 18.9492 13.7022 18.976 13.8866 19.1254C14.0034 19.2747 14.0446 19.3304 14.0383 19.5153C14.0054 19.746 14.0054 19.746 13.8992 19.8888C13.6599 20.0597 13.4316 20.0476 13.1496 20.0475C13.1044 20.0477 13.0591 20.0478 13.0124 20.0481C12.8626 20.0486 12.7128 20.0487 12.563 20.0488C12.4588 20.049 12.3547 20.0492 12.2505 20.0494C12.0321 20.0497 11.8137 20.0498 11.5953 20.0498C11.3156 20.0498 11.0359 20.0506 10.7562 20.0516C10.5411 20.0523 10.3259 20.0524 10.1108 20.0523C10.0077 20.0524 9.90455 20.0527 9.80144 20.0531C9.65712 20.0537 9.51282 20.0535 9.3685 20.0532C9.326 20.0535 9.28349 20.0538 9.2397 20.0542C9.00646 20.0527 8.8208 20.035 8.61476 19.9218C8.491 19.7361 8.47815 19.621 8.46484 19.4022C8.57131 18.9957 8.90517 18.9415 9.27097 18.9463Z" fill="black"/>
<path d="M9.26912 23.4589C9.3167 23.4585 9.36428 23.4581 9.4133 23.4577C9.57012 23.4567 9.72685 23.4578 9.88367 23.4591C9.9929 23.459 10.1021 23.4589 10.2114 23.4586C10.4401 23.4585 10.6688 23.4593 10.8976 23.4609C11.1906 23.4629 11.4835 23.4626 11.7765 23.4615C12.002 23.4609 12.2275 23.4614 12.453 23.4623C12.561 23.4626 12.669 23.4625 12.777 23.4622C12.9281 23.4618 13.0791 23.463 13.2301 23.4646C13.2747 23.4643 13.3192 23.4639 13.365 23.4635C13.5801 23.4674 13.7016 23.4902 13.8848 23.6069C14.0035 23.7303 14.0035 23.7303 14.0404 23.8603C14.0299 24.2199 14.0299 24.2199 13.901 24.4041C13.6473 24.5732 13.3901 24.5593 13.0933 24.5591C13.0271 24.5594 13.0271 24.5594 12.9595 24.5597C12.8138 24.5603 12.6681 24.5604 12.5224 24.5604C12.421 24.5606 12.3196 24.5608 12.2182 24.561C12.0056 24.5614 11.7931 24.5615 11.5806 24.5614C11.3084 24.5614 11.0362 24.5622 10.7641 24.5632C10.5546 24.5639 10.3452 24.564 10.1357 24.564C10.0354 24.5641 9.93503 24.5643 9.83469 24.5648C9.69431 24.5653 9.55394 24.5652 9.41356 24.5648C9.37224 24.5652 9.33093 24.5655 9.28836 24.5658C9.00766 24.564 8.80309 24.5151 8.56531 24.3675C8.47312 24.2219 8.46891 24.0833 8.46094 23.9138C8.57378 23.5085 8.90048 23.4532 9.26912 23.4589Z" fill="black"/>
<path d="M19.219 17.9885C19.3942 18.1053 19.4872 18.1879 19.5419 18.395C19.5531 18.5259 19.5476 18.6236 19.5119 18.7502C19.3618 18.9119 19.2194 19.0076 19.032 19.1205C18.5616 19.4118 18.2966 19.7787 18.1357 20.3089C18.0904 20.521 18.08 20.734 18.0652 20.95C18.0343 21.1956 17.9242 21.3341 17.7541 21.5041C17.3467 21.5509 17.3467 21.5509 17.1254 21.3821C16.8859 21.0742 16.9586 20.7024 16.9924 20.3322C17.1106 19.5873 17.4801 18.8669 18.078 18.4002C18.7715 17.9043 18.7715 17.9043 19.219 17.9885Z" fill="black"/>
<path d="M6.27087 3.95863C6.31256 3.95746 6.35426 3.95628 6.39721 3.95508C6.60048 3.95527 6.71768 3.96797 6.88267 4.09046C7.01164 4.27147 7.02872 4.40803 7.03259 4.62879C6.96246 4.79489 6.90787 4.88842 6.75656 4.98722C6.58127 5.05482 6.43282 5.05661 6.24524 5.05726C6.14746 5.05873 6.14746 5.05873 6.04771 5.06023C5.84014 5.03661 5.73201 4.99063 5.56775 4.86317C5.4775 4.65128 5.43575 4.51816 5.48718 4.29188C5.68248 3.97229 5.91737 3.9551 6.27087 3.95863Z" fill="black"/>
</g>
<defs>
<clipPath id="clip0_266_382">
<rect width="30" height="30" fill="white"/>
</clipPath>
</defs>
</svg>
