<svg width="30" height="30" viewBox="0 0 30 30" fill="none" xmlns="http://www.w3.org/2000/svg">
<g clip-path="url(#clip0_266_365)">
<path d="M19.3447 1.69058C19.4081 1.69038 19.4714 1.69018 19.5367 1.68998C19.7448 1.68943 19.953 1.68931 20.1611 1.68925C20.3068 1.68906 20.4526 1.68886 20.5983 1.68866C20.9034 1.68831 21.2085 1.6882 21.5136 1.68823C21.9029 1.68824 22.2921 1.68744 22.6813 1.68643C22.9822 1.68577 23.2832 1.68566 23.5842 1.68569C23.7276 1.68562 23.871 1.68536 24.0144 1.68491C25.6459 1.68021 27.0862 1.85097 28.3581 2.98815C28.4068 3.03143 28.4556 3.07471 28.5059 3.1193C29.4739 4.02916 29.9837 5.26075 30.0254 6.57913C30.0439 7.99356 29.5573 9.04131 28.9505 10.2876C28.7488 10.7023 28.5544 11.1202 28.3617 11.5392C28.3323 11.6026 28.3029 11.6661 28.2727 11.7315C28.2459 11.7894 28.2192 11.8473 28.1917 11.907C28.1569 11.9823 28.1569 11.9823 28.1214 12.0592C28.06 12.1935 28.06 12.1935 28.0065 12.3632C28.0903 12.5244 28.0903 12.5244 28.2116 12.7001C29.2412 14.3063 29.5847 16.2555 29.2093 18.1261C28.7738 20.1006 27.6473 21.6861 26.0056 22.843C25.7179 23.0207 25.5006 23.1079 25.1597 23.1104C25.0843 23.1113 25.0088 23.1123 24.9311 23.1132C24.8495 23.1133 24.7679 23.1133 24.6863 23.1133C24.602 23.1137 24.5177 23.1141 24.4334 23.1146C24.2571 23.1154 24.0809 23.1155 23.9047 23.1152C23.679 23.1148 23.4534 23.1166 23.2277 23.119C23.0538 23.1205 22.8799 23.1207 22.706 23.1204C22.6228 23.1205 22.5395 23.1211 22.4563 23.1222C22.3401 23.1235 22.2238 23.1227 22.1076 23.1219C22.0415 23.122 21.9755 23.1221 21.9074 23.1222C21.737 23.0858 21.737 23.0858 21.5984 22.9481C21.4804 22.7569 21.4658 22.6623 21.5026 22.4413C21.6009 22.2856 21.6009 22.2856 21.737 22.1483C21.8909 22.1148 21.8909 22.1148 22.0679 22.119C22.1344 22.1197 22.201 22.1204 22.2696 22.1212C22.3414 22.1233 22.4132 22.1253 22.4872 22.1275C22.6403 22.1285 22.7933 22.1295 22.9464 22.1303C23.1869 22.133 23.4275 22.1372 23.668 22.1429C24.8611 22.1973 24.8611 22.1973 25.8701 21.6517C25.9415 21.5785 25.9415 21.5785 26.0143 21.5038C26.1052 21.4297 26.1966 21.3563 26.289 21.284C27.3775 20.2765 28.1704 18.732 28.2492 17.2447C28.3068 15.4357 27.9116 13.877 26.7174 12.4803C26.6914 12.4459 26.6655 12.4115 26.6387 12.376C25.7543 11.2327 24.1379 10.5583 22.755 10.3563C21.3187 10.1906 20.0021 10.4897 18.7487 11.1913C18.6902 11.2238 18.6318 11.2564 18.5715 11.2899C17.4483 11.9609 16.7353 12.9898 16.1479 14.1298C15.9523 14.5069 15.9523 14.5069 15.7421 14.5751C15.5135 14.5963 15.374 14.5265 15.1854 14.4029C15.0724 14.2304 15.1003 14.0896 15.1159 13.8866C15.1717 13.7152 15.2479 13.557 15.3283 13.3959C15.3493 13.3521 15.3704 13.3083 15.3921 13.2632C15.5311 12.9802 15.6846 12.7196 15.8815 12.4721C15.9598 12.3161 15.9227 12.2383 15.8776 12.0702C15.8184 11.9316 15.7572 11.7968 15.6915 11.6614C15.6727 11.6219 15.6538 11.5823 15.6344 11.5416C15.5939 11.4567 15.5533 11.3718 15.5126 11.287C15.405 11.0627 15.2988 10.8376 15.1925 10.6127C15.1711 10.5674 15.1497 10.5221 15.1276 10.4754C14.3027 8.73036 13.5463 7.04044 14.237 5.09753C14.2618 5.02751 14.2867 4.95749 14.3123 4.88535C14.812 3.61445 15.748 2.71261 16.9579 2.12023C17.731 1.79019 18.5122 1.6902 19.3447 1.69058ZM15.9362 4.10143C15.2827 4.87656 14.9885 5.79027 14.973 6.78942C14.9717 6.84127 14.9704 6.89312 14.9691 6.94653C14.9721 7.837 15.3769 8.61424 15.7494 9.4005C15.7957 9.49939 15.842 9.59831 15.8882 9.69725C15.9781 9.88939 16.0683 10.0814 16.1588 10.2732C16.2821 10.5344 16.4044 10.796 16.5265 11.0578C16.544 11.0953 16.5614 11.1329 16.5795 11.1715C16.619 11.2562 16.6584 11.3409 16.6979 11.4257C17.0016 11.2021 17.2929 10.9709 17.5768 10.7225C17.4824 10.411 17.3499 10.1249 17.2108 9.83172C17.1613 9.72606 17.1117 9.62039 17.0622 9.51472C16.9845 9.3497 16.9068 9.18475 16.8288 9.0199C16.7532 8.85977 16.678 8.6994 16.6029 8.53899C16.5798 8.49057 16.5568 8.44215 16.533 8.39226C16.1346 7.53862 15.9855 6.68609 16.277 5.767C16.6052 4.98005 17.1616 4.37377 17.9515 4.04261C18.358 3.89927 18.7583 3.8599 19.1886 3.85762C19.2305 3.85732 19.2724 3.85703 19.3155 3.85673C19.4527 3.85589 19.5898 3.85548 19.7269 3.85515C19.7976 3.85491 19.7976 3.85491 19.8696 3.85465C20.1184 3.85378 20.3672 3.85324 20.616 3.85298C20.8726 3.85266 21.1292 3.85125 21.3858 3.84958C21.5837 3.84849 21.7815 3.84819 21.9793 3.8481C22.074 3.84792 22.1686 3.84745 22.2632 3.84668C22.3954 3.84568 22.5276 3.84579 22.6598 3.84617C22.735 3.84596 22.8101 3.84574 22.8875 3.84552C23.0998 3.86871 23.2108 3.9113 23.3776 4.04284C23.4482 4.27488 23.4392 4.45449 23.3776 4.68737C23.1708 4.7563 23.006 4.75411 22.7877 4.7552C22.7458 4.7555 22.7039 4.7558 22.6606 4.75611C22.5695 4.75673 22.4784 4.75724 22.3873 4.75764C22.2426 4.75833 22.098 4.75947 21.9533 4.76075C21.542 4.76435 21.1307 4.76752 20.7194 4.76948C20.4677 4.77071 20.216 4.77279 19.9642 4.77538C19.8687 4.77621 19.7732 4.77672 19.6777 4.77691C18.9328 4.77852 18.2829 4.82933 17.694 5.3319C17.2095 5.83988 17.0916 6.26502 17.0733 6.95673C17.1294 7.62867 17.5548 8.32149 17.839 8.92409C17.9073 9.06918 17.9746 9.21468 18.0419 9.36022C18.0853 9.45272 18.1288 9.54519 18.1724 9.63763C18.1923 9.68107 18.2123 9.72452 18.2328 9.76929C18.2831 9.87448 18.3396 9.9766 18.3971 10.078C18.5641 10.1551 18.5641 10.1551 18.6873 10.0885C18.7318 10.0633 18.7762 10.0381 18.8219 10.0121C20.3663 9.20514 22.3406 9.0931 23.9999 9.58475C24.5325 9.75408 25.0396 9.95775 25.5456 10.1952C26.0908 9.07409 26.0908 9.07409 26.6149 7.94298C26.6474 7.87141 26.6474 7.87141 26.6806 7.79839C26.7003 7.75434 26.72 7.71028 26.7403 7.66489C26.7573 7.62709 26.7742 7.5893 26.7916 7.55035C26.9731 7.08966 26.9711 6.47739 26.8053 6.01305C26.5238 5.42469 26.0881 5.0953 25.487 4.86315C25.1724 4.77634 24.8397 4.7866 24.5154 4.77938C24.4697 4.77757 24.424 4.77575 24.3769 4.77389C24.3355 4.77273 24.2941 4.77156 24.2514 4.77037C24.1076 4.73907 24.0541 4.68413 23.9635 4.57018C23.9361 4.44384 23.9361 4.44384 23.9342 4.30651C23.9315 4.23853 23.9315 4.23853 23.9287 4.16918C23.9635 4.04284 23.9635 4.04284 24.0819 3.93961C24.3028 3.84783 24.5012 3.84304 24.7362 3.84875C24.7806 3.84941 24.825 3.85007 24.8707 3.85075C25.7485 3.87215 26.4451 4.13675 27.0786 4.75191C27.6227 5.32863 27.8515 5.96278 27.8527 6.74914C27.8541 6.80008 27.8556 6.85103 27.857 6.90352C27.8605 7.6975 27.4636 8.39415 27.1276 9.09289C27.0854 9.18118 27.0433 9.26949 27.0012 9.35782C26.9706 9.42221 26.9706 9.42221 26.9393 9.4879C26.8622 9.64972 26.7854 9.81165 26.7086 9.97359C26.6648 10.0656 26.6201 10.1571 26.5753 10.2487C26.4579 10.4769 26.4579 10.4769 26.4385 10.7258C26.515 10.9215 26.6833 11.0417 26.8383 11.1766C26.8716 11.2063 26.9048 11.236 26.9391 11.2666C27.0211 11.3396 27.1036 11.412 27.1862 11.4842C27.386 11.3216 27.4744 11.0972 27.5805 10.869C27.6012 10.8254 27.6218 10.7818 27.643 10.7369C27.7097 10.5956 27.7757 10.454 27.8417 10.3124C27.8871 10.2155 27.9324 10.1187 27.9778 10.0218C28.4253 9.06375 28.4253 9.06375 28.8268 8.08581C28.8487 8.03173 28.8706 7.97765 28.8932 7.92193C29.2001 7.03147 29.0536 5.91199 28.6778 5.07098C28.1268 3.98667 27.3157 3.28251 26.1775 2.87554C25.6668 2.73009 25.1738 2.67777 24.6442 2.67909C24.5809 2.67879 24.5176 2.67849 24.4525 2.67818C24.2452 2.67737 24.038 2.67742 23.8308 2.67756C23.6854 2.67733 23.5399 2.67708 23.3945 2.6768C23.0903 2.67636 22.7862 2.67638 22.482 2.67669C22.0942 2.67702 21.7065 2.67603 21.3187 2.67467C21.0185 2.67381 20.7183 2.67376 20.4181 2.67394C20.2752 2.67391 20.1324 2.67361 19.9895 2.67301C18.3768 2.66714 17.1098 2.90014 15.9362 4.10143Z" fill="black"/>
<path d="M17.3222 15.7142C17.4633 15.7821 17.6045 15.8499 17.7456 15.9176C17.8377 15.9619 17.9298 16.0062 18.0218 16.0506C18.2659 16.168 18.5109 16.282 18.7591 16.3905C19.803 16.8486 20.5323 17.564 20.9582 18.6439C21.4277 19.967 21.4155 21.4469 21.0356 22.793C21.023 22.8378 21.0104 22.8825 20.9975 22.9285C20.4353 24.8662 19.2454 26.6439 17.4769 27.6712C16.4503 28.2201 15.3864 28.4664 14.2432 28.1636C13.5975 27.9594 12.9809 27.635 12.3679 27.3505C12.2061 27.2754 12.044 27.2007 11.882 27.126C11.7774 27.0776 11.6729 27.0291 11.5683 26.9807C11.5207 26.9587 11.4731 26.9368 11.424 26.9142C10.3276 26.4037 9.53016 25.7043 9.08244 24.5509C8.59796 23.0622 8.72354 21.5223 9.14103 20.0391C9.09501 20.0147 9.049 19.9902 9.00158 19.965C8.82723 19.8721 8.65295 19.7792 8.4787 19.6862C8.40396 19.6463 8.32919 19.6065 8.2544 19.5667C6.61853 18.6966 6.61853 18.6966 6.46151 18.2868C6.30553 17.7425 6.39865 17.2215 6.63844 16.7158C6.90008 16.2512 7.21549 15.923 7.73478 15.7618C8.29773 15.6739 8.72585 15.9765 9.19962 16.2415C9.28303 16.2871 9.3665 16.3326 9.45002 16.3781C10.036 16.6978 10.036 16.6978 10.3049 16.8576C10.351 16.8849 10.3972 16.9122 10.4447 16.9403C10.4825 16.9635 10.5203 16.9867 10.5592 17.0106C10.6979 17.0636 10.7624 17.0478 10.8988 16.9923C10.99 16.9205 10.99 16.9205 11.0703 16.8277C11.102 16.7939 11.1337 16.76 11.1664 16.7252C11.217 16.6707 11.217 16.6707 11.2687 16.6151C13.0232 14.8014 15.1288 14.6513 17.3222 15.7142ZM14.1361 16.0328C14.0752 16.0485 14.0752 16.0485 14.0131 16.0646C12.6149 16.4467 11.5789 17.5538 10.8402 18.7501C10.8186 18.7846 10.7969 18.8191 10.7746 18.8547C10.4849 19.3255 10.2921 19.8203 10.1152 20.3431C10.0956 20.4008 10.076 20.4586 10.0558 20.5181C9.63288 21.8253 9.60481 23.3096 10.1774 24.5728C10.5425 25.2462 11.0602 25.7032 11.7851 25.9498C11.8607 25.972 11.9364 25.994 12.0121 26.0157C11.9917 25.945 11.9712 25.8743 11.9501 25.8015C11.9231 25.7069 11.8962 25.6123 11.8693 25.5177C11.8491 25.4481 11.8491 25.4481 11.8284 25.3771C11.2817 23.4438 11.8423 21.3465 12.7738 19.629C13.549 18.2757 14.7177 17.1694 16.1723 16.6C16.3538 16.5434 16.3538 16.5434 16.4067 16.4063C16.2481 16.3387 16.0894 16.2717 15.9306 16.2049C15.886 16.1858 15.8415 16.1668 15.7955 16.1471C15.2371 15.9136 14.723 15.881 14.1361 16.0328ZM7.73844 16.9007C7.4929 17.1547 7.396 17.4493 7.37223 17.7979C7.58223 18.1958 8.30777 18.4446 8.69059 18.6512C8.76036 18.6894 8.83013 18.7276 8.8999 18.7658C8.96595 18.8014 9.03201 18.8371 9.10006 18.8739C9.15998 18.9064 9.2199 18.9389 9.28163 18.9724C9.43259 19.0554 9.43259 19.0554 9.60978 19.043C9.67585 18.9125 9.74174 18.7819 9.80753 18.6512C9.8354 18.5962 9.8354 18.5962 9.86384 18.5401C9.96463 18.3395 10.0553 18.1386 10.1371 17.9298C10.0982 17.9088 10.0593 17.8879 10.0192 17.8663C9.83871 17.7692 9.65831 17.6719 9.47794 17.5745C9.41362 17.5398 9.3493 17.5051 9.28302 17.4693C8.89816 17.2608 8.51741 17.0486 8.14356 16.8208C7.94159 16.7111 7.92253 16.748 7.73844 16.9007ZM15.059 18.3985C14.9888 18.4549 14.9888 18.4549 14.9171 18.5125C13.6314 19.5893 12.799 21.3663 12.6087 23.018C12.5113 24.1813 12.5822 25.3482 13.3012 26.3087C13.3664 26.3993 13.3664 26.3993 13.433 26.4918C13.9581 27.0408 14.5268 27.2657 15.2751 27.3038C16.4686 27.3095 17.4373 26.5715 18.2597 25.774C19.5806 24.4383 20.3384 22.498 20.3324 20.6251C20.2955 19.6023 20.0236 18.5729 19.2594 17.8492C17.9131 16.7264 16.2484 17.3817 15.059 18.3985Z" fill="black"/>
<path d="M8.15698 10.7299C8.24218 10.7699 8.32742 10.8098 8.4127 10.8496C8.53945 10.9088 8.66615 10.9681 8.79267 11.0278C9.07832 11.1625 9.36647 11.2901 9.65674 11.4145C10.765 11.8929 11.7017 12.611 12.1681 13.76C12.354 14.2703 12.4832 14.746 12.4233 15.2928C12.3051 15.4839 12.2289 15.5145 12.0168 15.5821C11.7993 15.5866 11.7127 15.5456 11.5444 15.41C11.4241 15.2165 11.3956 15.0249 11.3577 14.8021C11.1832 13.957 10.7718 13.2853 10.0517 12.8031C9.50632 12.4772 8.89164 12.401 8.27594 12.5457C8.2379 12.5556 8.19985 12.5654 8.16064 12.5756C8.12003 12.586 8.07941 12.5965 8.03756 12.6073C6.60159 12.9998 5.5114 14.1765 4.79115 15.4353C4.4643 16.0334 4.2153 16.6854 4.0378 17.3432C4.01944 17.411 4.00109 17.4788 3.98218 17.5487C3.9682 17.6073 3.95423 17.6659 3.93983 17.7263C3.84017 17.9288 3.72548 17.9714 3.51709 18.0467C3.27935 18.0145 3.15362 17.9902 3.00508 17.7973C2.80338 17.3589 3.09307 16.7306 3.24678 16.3008C3.61421 15.3207 4.0726 14.4556 4.74756 13.6522C4.78223 13.6089 4.8169 13.5657 4.85261 13.5211C5.56075 12.671 6.55745 12.0932 7.56006 11.66C6.76303 11.2048 5.99409 11.0877 5.11011 11.3108C3.70787 11.7335 2.60037 12.9935 1.9227 14.2386C1.16229 15.6817 0.732336 17.483 1.16785 19.098C1.49746 20.0197 1.97696 20.5956 2.8619 21.0154C2.96274 21.0618 3.06408 21.1072 3.16553 21.1522C3.14997 21.1089 3.13441 21.0657 3.11838 21.0211C2.91989 20.451 2.80558 19.9167 2.78833 19.3138C2.78631 19.2741 2.78429 19.2343 2.78221 19.1934C2.78029 18.9667 2.80838 18.8741 2.95106 18.6947C3.10693 18.5741 3.10693 18.5741 3.28271 18.5411C3.49711 18.5813 3.59629 18.6577 3.75146 18.8085C3.83013 18.9658 3.83032 19.12 3.84491 19.2931C3.92892 20.2734 4.17878 21.22 4.92334 21.9139C5.39898 22.2943 6.01877 22.4562 6.62256 22.4413C6.95565 22.3915 7.28604 22.3295 7.59874 22.2019C7.84871 22.1042 8.09796 22.1018 8.34741 22.2106C8.48541 22.3817 8.49382 22.5171 8.49756 22.7342C8.37994 22.9972 8.25715 23.0816 7.99219 23.1847C7.93463 23.2079 7.87708 23.2311 7.81778 23.255C7.35632 23.4061 6.92462 23.4601 6.43945 23.463C6.38492 23.4649 6.33039 23.4669 6.2742 23.4688C5.39144 23.4754 4.59026 23.032 3.81372 22.6573C3.72406 22.6146 3.63437 22.5719 3.54467 22.5293C3.10716 22.3208 2.67145 22.1085 2.23718 21.8933C2.19879 21.8744 2.1604 21.8556 2.12085 21.8361C1.83683 21.6944 1.58614 21.5387 1.34912 21.328C1.29848 21.2854 1.29848 21.2854 1.24681 21.2419C0.458936 20.526 0.0460739 19.3697 -0.00840643 18.3265C-0.0358894 17.4836 -0.0502852 16.6377 0.177245 15.8202C0.191747 15.7681 0.206249 15.716 0.221191 15.6623C0.850074 13.4812 2.12778 11.6812 4.11996 10.555C5.47079 9.8779 6.84726 10.1028 8.15698 10.7299Z" fill="black"/>
<path d="M24.2473 13.9899C24.9624 14.6267 25.3629 15.4822 25.4404 16.4356C25.4574 17.344 25.167 18.2459 24.5899 18.9551C23.8597 19.7052 23.006 20.0415 21.9815 20.0661C21.7957 20.0391 21.7957 20.0391 21.6556 19.9352C21.5561 19.7975 21.5294 19.7376 21.532 19.5704C21.5314 19.5317 21.5308 19.493 21.5302 19.4532C21.5771 19.2764 21.6499 19.2113 21.7957 19.1016C21.9481 19.0641 22.088 19.0377 22.2425 19.0174C22.9523 18.9023 23.5041 18.6073 23.9513 18.0284C24.3013 17.4914 24.4519 16.8737 24.3463 16.242C24.2172 15.6378 23.9373 15.0859 23.4363 14.7071C22.82 14.339 22.2078 14.125 21.4903 14.2786C20.769 14.4804 20.2231 14.8519 19.8305 15.5006C19.781 15.5917 19.7329 15.6836 19.6868 15.7764C19.6277 15.879 19.6277 15.879 19.5105 15.9376C19.0973 15.9709 19.0973 15.9709 18.8953 15.8497C18.7684 15.6382 18.7566 15.4697 18.8074 15.2344C19.1259 14.4304 19.7518 13.8643 20.5066 13.4766C21.7521 12.9462 23.1975 13.1144 24.2473 13.9899Z" fill="black"/>
</g>
<defs>
<clipPath id="clip0_266_365">
<rect width="30" height="30" fill="white"/>
</clipPath>
</defs>
</svg>
