<svg width="60" height="61" viewBox="0 0 60 61" fill="none" xmlns="http://www.w3.org/2000/svg">
<g clip-path="url(#clip0_377_1145)">
<path d="M30.3279 24.4194C30.5177 24.4184 30.5177 24.4184 30.7114 24.4174C30.9766 24.4163 31.2418 24.4155 31.507 24.4151C31.9122 24.4139 32.3174 24.4103 32.7227 24.4066C32.9815 24.4058 33.2404 24.4052 33.4993 24.4048C33.68 24.4026 33.68 24.4026 33.8644 24.4004C34.4979 24.4024 34.9649 24.4269 35.5075 24.7948C35.671 25.1219 35.6502 25.4044 35.6617 25.7698C35.6691 25.9908 35.6691 25.9908 35.6766 26.2161C35.6812 26.3707 35.6858 26.5252 35.6906 26.6844C35.6956 26.8415 35.7007 26.9985 35.7059 27.1555C35.7184 27.5404 35.7303 27.9254 35.7418 28.3104C35.8284 28.3399 35.915 28.3694 36.0043 28.3998C36.1189 28.44 36.2335 28.4801 36.3516 28.5214C36.4648 28.5606 36.5779 28.5998 36.6946 28.6401C37.7269 29.0668 38.5438 29.9371 39.0427 30.9252C39.4239 31.877 39.4433 32.7925 39.4369 33.8017C39.4372 33.9796 39.4377 34.1575 39.4383 34.3353C39.439 34.7065 39.438 35.0775 39.4358 35.4487C39.4331 35.9192 39.4346 36.3896 39.4374 36.8601C39.4392 37.2271 39.4386 37.5941 39.4374 37.9611C39.4371 38.1343 39.4374 38.3075 39.4385 38.4807C39.4463 40.0373 39.1995 41.4976 38.4591 42.8856C38.4184 42.964 38.3776 43.0423 38.3357 43.123C37.6531 44.4029 36.5914 45.7907 35.2584 46.4232C34.9865 46.5627 34.9865 46.5627 34.8043 46.826C34.6408 47.5141 34.6687 48.233 34.6872 48.9354C34.7721 48.933 34.857 48.9305 34.9445 48.928C35.3372 48.9181 35.7299 48.9121 36.1227 48.9061C36.2562 48.9022 36.3898 48.8983 36.5274 48.8942C38.2392 48.8748 39.5076 49.4585 40.7516 50.6127C41.8584 51.7821 42.2427 53.1314 42.238 54.7087C42.2386 54.8303 42.2392 54.9518 42.2398 55.077C42.2406 55.3319 42.2404 55.5867 42.2394 55.8416C42.2384 56.2309 42.2418 56.6201 42.2455 57.0094C42.2457 57.2582 42.2456 57.5069 42.2453 57.7556C42.2466 57.8713 42.2479 57.9871 42.2493 58.1063C42.2425 58.7784 42.1894 59.1985 41.7184 59.7167C41.182 60.1464 40.7706 60.2534 40.0991 60.2449C39.964 60.246 39.964 60.246 39.8261 60.2472C39.5255 60.249 39.2249 60.2475 38.9242 60.2461C38.7082 60.2467 38.4922 60.2475 38.2762 60.2486C37.6902 60.2507 37.1043 60.2499 36.5184 60.2484C35.905 60.2472 35.2916 60.2483 34.6782 60.249C33.6482 60.2499 32.6181 60.2488 31.5881 60.2465C30.3975 60.244 29.2069 60.2448 28.0162 60.2474C26.9937 60.2495 25.9712 60.2498 24.9487 60.2486C24.3381 60.2479 23.7276 60.2478 23.117 60.2493C22.5429 60.2507 21.9689 60.2497 21.3949 60.247C21.1843 60.2464 20.9737 60.2466 20.7631 60.2476C20.4754 60.2489 20.1879 60.2473 19.9002 60.2449C19.7755 60.2465 19.7755 60.2465 19.6481 60.2481C19.0623 60.2389 18.7342 60.0799 18.2809 59.7167C17.7279 59.1066 17.7434 58.5466 17.7499 57.7638C17.7495 57.6433 17.749 57.5228 17.7485 57.3986C17.7482 57.1439 17.7491 56.8892 17.751 56.6345C17.7535 56.2487 17.7511 55.8631 17.7481 55.4773C17.7452 53.3906 18.0265 51.9477 19.4894 50.371C20.7638 49.1649 22.1573 48.8764 23.862 48.9134C24.002 48.915 24.142 48.9166 24.2863 48.9182C24.6283 48.9224 24.9702 48.9281 25.3122 48.9354C25.4158 47.6558 25.4158 47.6558 24.9496 46.5267C24.7309 46.3802 24.5067 46.2418 24.2785 46.1106C22.4487 45.0203 21.3569 42.9311 20.7955 40.9467C20.5703 40.0322 20.5714 39.1341 20.5738 38.1995C20.5733 38.0139 20.5727 37.8283 20.572 37.6428C20.5709 37.2558 20.5712 36.8688 20.5724 36.4819C20.5737 35.991 20.5714 35.5002 20.5679 35.0094C20.5658 34.6266 20.5658 34.2438 20.5665 33.861C20.5665 33.6803 20.5658 33.4996 20.5643 33.3188C20.548 30.9833 21.1827 28.8628 22.8278 27.1475C24.9619 25.0108 27.3708 24.4318 30.3279 24.4194ZM24.2204 28.5897C23.1314 29.875 22.6087 31.2745 22.5436 32.9393C22.5391 33.0357 22.5345 33.1321 22.5299 33.2314C22.519 33.466 22.5092 33.7007 22.4997 33.9354C22.6682 33.8428 22.8366 33.75 23.005 33.6571C23.0988 33.6054 23.1926 33.5538 23.2893 33.5005C23.4999 33.3805 23.7042 33.2496 23.9059 33.1151C24.7499 33.0561 25.4969 33.2064 26.3156 33.4007C27.6842 33.7191 28.945 33.8459 30.3512 33.8475C30.4322 33.8477 30.5132 33.8478 30.5967 33.848C32.0224 33.8474 33.3306 33.7453 34.6872 33.2689C35.1623 33.1031 35.5964 32.9858 36.0934 33.1151C36.4531 33.3092 36.7862 33.5232 37.122 33.756C37.3458 33.9465 37.3458 33.9465 37.4997 33.9354C37.5387 32.8605 37.4235 31.8376 36.6793 31.0057C35.9587 30.4114 35.1952 30.1913 34.2875 30.0261C34.1874 30.0013 34.0872 29.9766 33.984 29.951C33.8205 29.6239 33.8413 29.3414 33.8298 28.976C33.8249 28.8287 33.8199 28.6814 33.8149 28.5297C33.8103 28.3751 33.8057 28.2206 33.8009 28.0614C33.7959 27.9044 33.7908 27.7474 33.7856 27.5904C33.7731 27.2054 33.7612 26.8204 33.7497 26.4354C33.0933 26.4296 32.4369 26.4253 31.7806 26.4225C31.5579 26.4214 31.3353 26.4198 31.1127 26.4177C28.4865 26.3942 26.1634 26.591 24.2204 28.5897ZM22.9071 35.9345C22.5029 36.3298 22.377 36.636 22.3498 37.197C22.3644 37.5842 22.4025 37.9628 22.4595 38.346C22.4971 38.6051 22.519 38.8598 22.5349 39.121C22.6825 41.1716 23.5775 42.8271 25.0705 44.2333C26.6658 45.5947 28.493 46.1717 30.5737 46.1092C32.7218 45.8885 34.4654 44.9013 35.8636 43.2532C36.9156 41.9057 37.4439 40.3296 37.4997 38.6229C37.5204 38.4453 37.5414 38.2677 37.5628 38.0901C37.6808 37.0932 37.6808 37.0932 37.3495 36.1834C36.7575 35.6043 35.9948 35.1462 35.1559 35.1073C34.8363 35.1691 34.5372 35.238 34.2257 35.327C34.0661 35.3711 33.9063 35.4147 33.7465 35.4579C33.6767 35.4777 33.6069 35.4975 33.535 35.5178C32.5465 35.7442 31.5421 35.7264 30.5343 35.7298C30.4434 35.7302 30.3526 35.7306 30.2589 35.731C28.5886 35.7333 26.878 35.6512 25.2745 35.1373C24.2866 34.8394 23.6666 35.3219 22.9071 35.9345ZM27.1872 47.6464C27.1776 48.0004 27.1707 48.3542 27.1652 48.7084C27.1622 48.8077 27.1593 48.907 27.1563 49.0093C27.1487 49.6656 27.2235 50.114 27.5387 50.6932C28.2627 51.4172 28.97 51.6814 29.9777 51.6893C30.8998 51.6827 31.615 51.494 32.3059 50.8658C32.7409 50.3828 32.8279 49.9696 32.8236 49.3401C32.8232 49.2411 32.8228 49.1422 32.8225 49.0402C32.8215 48.938 32.8205 48.8357 32.8195 48.7303C32.819 48.6263 32.8184 48.5222 32.8179 48.4149C32.8165 48.1587 32.8146 47.9025 32.8122 47.6464C32.7368 47.6629 32.6614 47.6795 32.5837 47.6966C31.7152 47.8728 30.8843 47.9163 29.9997 47.91C29.871 47.9109 29.7422 47.9118 29.6096 47.9128C28.778 47.9108 27.9993 47.825 27.1872 47.6464ZM20.5807 52.1288C19.2339 53.8534 19.6872 56.3238 19.6872 58.3104C26.4934 58.3104 33.2997 58.3104 40.3122 58.3104C40.5438 55.0228 40.5438 55.0228 39.3747 52.0995C38.3351 51.0791 37.2116 50.7939 35.7819 50.8001C35.6938 50.8011 35.6056 50.8021 35.5148 50.8031C35.4235 50.8036 35.3322 50.8041 35.2381 50.8047C35.0154 50.8061 34.7927 50.8082 34.57 50.8104C34.5208 50.9103 34.5208 50.9103 34.4706 51.0123C33.8095 52.2857 32.9665 52.933 31.616 53.4018C30.1539 53.7436 28.4565 53.6498 27.1533 52.8781C26.3664 52.3285 25.8417 51.6714 25.4293 50.8104C22.7719 50.7408 22.7719 50.7408 20.5807 52.1288Z" fill="#D7FB00"/>
<path d="M12.4226 20.5762C12.5389 20.6314 12.6552 20.6865 12.775 20.7433C14.7326 21.7732 15.9689 23.506 16.6775 25.5681C16.8278 26.0903 16.8909 26.5728 16.8946 27.1163C16.8957 27.2506 16.8968 27.3848 16.898 27.5231C16.8987 27.7393 16.8987 27.7393 16.8995 27.9599C16.9002 28.1095 16.9008 28.2591 16.9015 28.4132C16.9026 28.7298 16.9034 29.0464 16.9038 29.363C16.9045 29.7652 16.9073 30.1675 16.9106 30.5697C16.9134 30.9571 16.9136 31.3445 16.9141 31.7319C16.9156 31.8747 16.917 32.0174 16.9185 32.1645C16.9134 34.155 16.1598 36.0129 14.7663 37.4512C14.2825 37.8789 13.7799 38.265 13.2429 38.6231C13.1979 38.948 13.1722 39.2493 13.1623 39.5752C13.1583 39.6636 13.1543 39.752 13.1502 39.843C13.1405 40.0613 13.1329 40.2797 13.1257 40.4981C13.2047 40.4956 13.2838 40.4932 13.3653 40.4907C13.7297 40.4808 14.0941 40.4748 14.4587 40.4688C14.583 40.4649 14.7073 40.4609 14.8354 40.4569C15.9628 40.4431 16.9117 40.6866 17.7509 41.4704C18.5655 42.3764 18.7872 43.2989 18.79 44.4907C18.7912 44.6592 18.7912 44.6592 18.7924 44.8311C18.7936 45.0677 18.7941 45.3043 18.7941 45.5409C18.7946 45.903 18.7989 46.265 18.8033 46.6271C18.804 46.8573 18.8045 47.0876 18.8047 47.3179C18.8064 47.426 18.8081 47.5342 18.8098 47.6456C18.8091 47.7465 18.8084 47.8475 18.8076 47.9515C18.8079 48.0399 18.8083 48.1283 18.8086 48.2195C18.7249 48.5768 18.5658 48.7069 18.2819 48.9356C17.9474 48.9946 17.9474 48.9946 17.5525 48.9951C17.4026 48.9964 17.2528 48.9978 17.0984 48.9991C16.9326 48.9982 16.7668 48.9973 16.601 48.9962C16.4262 48.9969 16.2514 48.9977 16.0766 48.9987C15.6021 49.0009 15.1275 49 14.653 48.9986C14.1565 48.9974 13.66 48.9985 13.1634 48.9992C12.3296 49.0001 11.4958 48.9989 10.662 48.9967C9.69782 48.9942 8.7337 48.995 7.76953 48.9976C6.94189 48.9997 6.11426 49 5.28662 48.9988C4.79223 48.998 4.29785 48.9979 3.80346 48.9995C3.33867 49.0008 2.87394 48.9999 2.40915 48.9972C2.23852 48.9966 2.06788 48.9967 1.89725 48.9978C1.66446 48.9991 1.43166 48.9972 1.19887 48.9951C1.06856 48.9949 0.938245 48.9948 0.803982 48.9946C0.392862 48.9221 0.254786 48.7915 0.00067807 48.4668C-0.0588455 48.2226 -0.0588455 48.2226 -0.0599756 47.9589C-0.0614532 47.8595 -0.0629308 47.7601 -0.0644531 47.6576C-0.0635043 47.551 -0.0625554 47.4443 -0.0615778 47.3343C-0.0620263 47.2233 -0.0624747 47.1123 -0.0629368 46.998C-0.0632556 46.7629 -0.0623916 46.5279 -0.0604334 46.2929C-0.0579414 45.9363 -0.0604008 45.5801 -0.0634089 45.2236C-0.0630988 44.9946 -0.0624975 44.7655 -0.0615778 44.5365C-0.0625267 44.4312 -0.0634755 44.326 -0.0644531 44.2175C-0.0496344 43.1982 0.253587 42.2628 0.956489 41.5061C1.72082 40.8422 2.46563 40.4813 3.47419 40.4867C3.66226 40.4872 3.66226 40.4872 3.85413 40.4878C3.98435 40.4888 4.11456 40.4898 4.24873 40.4908C4.44677 40.4916 4.44677 40.4916 4.64881 40.4924C4.97444 40.4938 5.30006 40.4957 5.62568 40.4981C5.66574 39.8703 5.70401 39.2292 5.50849 38.6231C5.1029 38.1691 4.6142 37.891 4.10224 37.5684C3.45425 37.0098 3.04431 36.3438 2.65937 35.5909C2.62119 35.5164 2.58301 35.4419 2.54367 35.3652C1.87942 33.9912 1.82956 32.7135 1.85371 31.2183C1.85547 31.0266 1.85708 30.8349 1.85851 30.6431C1.86235 30.1781 1.86839 29.7131 1.87568 29.2481C1.78625 29.236 1.69682 29.2239 1.60468 29.2115C1.26295 29.1241 1.14125 29.0633 0.938178 28.7793C0.890828 28.5503 0.890828 28.5503 0.887366 28.29C0.885341 28.1457 0.885341 28.1457 0.883275 27.9984C0.884474 27.896 0.885673 27.7936 0.886909 27.688C0.887881 27.5827 0.888853 27.4773 0.889855 27.3687C0.941543 25.3073 1.84307 23.4526 3.28193 21.9825C5.8397 19.7634 9.3278 19.0771 12.4226 20.5762ZM4.5568 23.6263C3.53607 24.6933 2.90947 26.0065 2.93037 27.4903C5.03472 27.6439 6.99152 27.6217 9.02017 26.9741C9.28385 26.8969 9.54891 26.8402 9.81742 26.7821C10.7457 26.5502 11.3934 26.3118 11.9131 25.4697C12.5306 24.3665 12.5306 24.3665 12.7741 23.1543C10.2922 21.0486 6.81455 21.4683 4.5568 23.6263ZM14.1804 25.0293C13.9899 25.3614 13.9899 25.3614 13.8288 25.7325C13.8675 25.8485 13.9061 25.9645 13.946 26.084C14.3565 26.2851 14.3565 26.2851 14.7663 26.4356C14.7135 26.2449 14.6596 26.0545 14.6052 25.8643C14.5753 25.7583 14.5454 25.6522 14.5145 25.543C14.4311 25.2466 14.4311 25.2466 14.1804 25.0293ZM11.518 28.0858C11.4453 28.111 11.3726 28.1362 11.2977 28.1621C11.0667 28.2422 10.8364 28.3238 10.6061 28.4058C9.05802 28.9567 7.53227 29.3953 5.8747 29.4458C5.78527 29.4499 5.69584 29.4539 5.60371 29.458C4.98584 29.4836 4.36901 29.4855 3.75068 29.4825C3.66269 32.8976 3.66269 32.8976 5.27412 35.8106C6.31426 36.8817 7.55265 37.5823 9.07172 37.613C10.8572 37.6086 12.1264 37.1173 13.4479 35.8912C14.4857 34.7947 14.8667 33.5269 15.0007 32.0606C15.0099 31.9597 15.0192 31.8588 15.0287 31.7549C15.1819 30.3453 15.1819 30.3453 14.764 29.0407C14.2108 28.4211 13.6018 27.872 12.742 27.8176C12.2874 27.8428 11.9459 27.9337 11.518 28.0858ZM10.9379 39.3841C10.5953 39.4585 10.2774 39.4565 9.92683 39.4549C9.78558 39.4545 9.64434 39.4541 9.49882 39.4537C9.35183 39.4527 9.20485 39.4517 9.05341 39.4507C8.90462 39.4502 8.75582 39.4497 8.60252 39.4491C8.23523 39.4477 7.86796 39.4458 7.50068 39.4434C7.48798 39.7634 7.47871 40.0828 7.47138 40.4029C7.46745 40.493 7.46353 40.5831 7.45948 40.6759C7.45167 41.1306 7.46687 41.3775 7.70026 41.7785C8.22048 42.2482 8.6805 42.2903 9.36835 42.2925C9.50718 42.2945 9.64601 42.2965 9.78904 42.2985C10.3357 42.2413 10.7025 42.0742 11.1175 41.7157C11.3286 41.2717 11.2874 40.8359 11.2727 40.3516C11.2711 40.2531 11.2695 40.1546 11.2678 40.0531C11.2637 39.8108 11.2574 39.5685 11.2507 39.3262C11.1182 39.3207 11.1182 39.3207 10.9379 39.3841ZM4.68818 42.3731C4.68818 43.92 4.68818 45.4668 4.68818 47.0606C7.78193 47.0606 10.8757 47.0606 14.0632 47.0606C14.0632 45.5137 14.0632 43.9668 14.0632 42.3731C13.0816 42.2626 13.0816 42.2626 12.7119 42.613C12.6357 42.7175 12.5596 42.822 12.4811 42.9297C11.901 43.648 11.3167 43.9319 10.4304 44.1309C9.1868 44.2504 7.86044 44.2811 6.79755 43.545C6.51531 43.2453 6.26433 42.9452 6.02714 42.6088C5.66911 42.2609 5.66911 42.2609 4.68818 42.3731ZM2.5788 42.8418C1.78329 43.6887 1.84409 44.6077 1.86103 45.7056C1.86209 45.8361 1.86314 45.9665 1.86423 46.1009C1.86698 46.4208 1.87082 46.7407 1.87568 47.0606C2.14638 47.0606 2.41708 47.0606 2.69599 47.0606C2.69599 45.6684 2.69599 44.2762 2.69599 42.8418C2.65732 42.8418 2.61865 42.8418 2.5788 42.8418ZM16.0554 42.8418C16.0554 44.234 16.0554 45.6262 16.0554 47.0606C16.3261 47.0606 16.5968 47.0606 16.8757 47.0606C16.886 46.6138 16.8922 46.1671 16.8977 45.7203C16.9006 45.595 16.9035 45.4697 16.9066 45.3405C16.9134 44.5949 16.9035 43.8572 16.5241 43.1934C16.3694 43.0774 16.2147 42.9614 16.0554 42.8418Z" fill="#D7FB00"/>
<path d="M55.0788 21.1622C56.6255 22.3007 57.8047 24.0536 58.1257 25.9669C58.1609 26.5193 58.1613 27.0706 58.1609 27.624C58.1614 27.7848 58.1619 27.9456 58.1624 28.1064C58.1633 28.4425 58.1633 28.7786 58.1627 29.1146C58.162 29.5414 58.164 29.9682 58.1667 30.395C58.1684 30.727 58.1685 31.059 58.1682 31.391C58.1682 31.6236 58.1699 31.8562 58.1715 32.0888C58.1607 34.2329 57.4361 35.9735 55.9701 37.5304C55.6658 37.8018 55.3681 37.9792 55.0129 38.1763C54.7143 38.3651 54.5298 38.4935 54.431 38.8403C54.3481 39.393 54.3529 39.9409 54.3757 40.4981C54.4547 40.4957 54.5338 40.4932 54.6153 40.4907C54.9797 40.4808 55.3441 40.4748 55.7087 40.4688C55.833 40.4649 55.9573 40.461 56.0854 40.4569C57.2128 40.4431 58.1617 40.6866 59.0009 41.4704C59.8155 42.3765 60.0372 43.2989 60.04 44.4907C60.0412 44.6592 60.0412 44.6592 60.0424 44.8312C60.0436 45.0677 60.0441 45.3043 60.0441 45.5409C60.0446 45.903 60.0489 46.265 60.0533 46.6271C60.054 46.8574 60.0545 47.0876 60.0547 47.3179C60.0564 47.426 60.0581 47.5342 60.0598 47.6456C60.0591 47.7466 60.0584 47.8475 60.0576 47.9515C60.0579 48.0399 60.0583 48.1284 60.0586 48.2195C59.9749 48.5769 59.8158 48.7069 59.5319 48.9356C59.1974 48.9946 59.1974 48.9946 58.8025 48.9951C58.6526 48.9965 58.5028 48.9978 58.3484 48.9991C58.1826 48.9982 58.0168 48.9973 57.851 48.9963C57.6762 48.9969 57.5014 48.9977 57.3266 48.9988C56.8521 49.0009 56.3775 49.0001 55.903 48.9986C55.4065 48.9974 54.91 48.9985 54.4134 48.9992C53.5796 49.0001 52.7458 48.999 51.912 48.9967C50.9478 48.9942 49.9837 48.995 49.0195 48.9976C48.1919 48.9997 47.3643 49 46.5366 48.9988C46.0422 48.9981 45.5479 48.998 45.0535 48.9995C44.5887 49.0009 44.1239 48.9999 43.6591 48.9972C43.4885 48.9966 43.3179 48.9968 43.1472 48.9978C42.9145 48.9991 42.6817 48.9972 42.4489 48.9951C42.3186 48.995 42.1882 48.9948 42.054 48.9946C41.6429 48.9221 41.5048 48.7915 41.2507 48.4669C41.1912 48.2226 41.1912 48.2226 41.19 47.9589C41.1885 47.8595 41.1871 47.7601 41.1855 47.6577C41.1865 47.551 41.1874 47.4443 41.1884 47.3344C41.188 47.2234 41.1875 47.1124 41.1871 46.998C41.1867 46.763 41.1876 46.5279 41.1896 46.2929C41.1921 45.9364 41.1896 45.5801 41.1866 45.2236C41.1869 44.9946 41.1875 44.7655 41.1884 44.5365C41.1875 44.4312 41.1865 44.326 41.1855 44.2175C41.2003 43.2007 41.5009 42.2557 42.2102 41.5057C43.2711 40.5705 44.3845 40.3352 45.7676 40.4079C46.1376 40.4322 46.5065 40.4634 46.8757 40.4981C46.9157 39.8703 46.954 39.2292 46.7585 38.6231C46.4419 38.2688 46.1208 38.0535 45.7198 37.8005C44.8824 37.2718 44.3799 36.508 43.9094 35.6568C43.8521 35.5549 43.8521 35.5549 43.7937 35.451C43.1653 34.2495 43.0718 32.9844 43.0749 31.6509C43.0743 31.4911 43.0737 31.3312 43.073 31.1713C43.072 30.8385 43.0722 30.5058 43.0734 30.173C43.0748 29.7509 43.0724 29.329 43.069 28.9069C43.0668 28.5774 43.0669 28.248 43.0675 27.9185C43.0675 27.6886 43.0656 27.4588 43.0636 27.229C43.0796 25.1442 43.9036 23.3006 45.3651 21.8255C48.0456 19.3586 52.0877 19.1705 55.0788 21.1622ZM46.1726 23.9747C45.6641 24.6847 45.26 25.4481 45.1179 26.3184C45.1565 26.4345 45.1952 26.5505 45.2351 26.67C45.3511 26.612 45.3511 26.612 45.4694 26.5528C46.166 26.5122 46.7021 26.6115 47.3591 26.8311C48.9668 27.335 50.5155 27.4983 52.1784 27.2266C52.3233 27.2037 52.3233 27.2037 52.4711 27.1803C53.1781 27.0616 53.8423 26.8723 54.5226 26.6453C55.0877 26.4829 55.5714 26.4826 56.1335 26.67C55.8911 24.9695 55.0653 23.7339 53.6945 22.7003C51.2065 21.0886 48.0356 21.7099 46.1726 23.9747ZM45.4621 28.9552C44.7296 29.8642 44.8907 30.9649 45.0007 32.0606C45.014 32.2088 45.0273 32.357 45.041 32.5097C45.2516 34.2173 45.9988 35.4273 47.2982 36.5385C48.6237 37.5288 50.0768 37.709 51.6804 37.5684C53.1328 37.2968 54.4173 36.3827 55.2729 35.1881C55.9086 34.1908 56.142 33.2224 56.2507 32.0606C56.2645 31.9192 56.2645 31.9192 56.2787 31.775C56.4147 30.2706 56.4147 30.2706 55.7893 28.9552C55.3671 28.6151 55.1719 28.5393 54.6274 28.5725C54.1932 28.664 53.775 28.8018 53.353 28.9378C52.9185 29.0617 52.4803 29.1133 52.0319 29.1602C51.9053 29.1736 51.9053 29.1736 51.776 29.1872C50.8799 29.2759 50.0553 29.2611 49.1608 29.1602C49.0413 29.1469 49.0413 29.1469 48.9193 29.1332C48.4767 29.0765 48.0666 28.9906 47.642 28.8526C46.5098 28.4798 46.5098 28.4798 45.4621 28.9552ZM48.7507 39.4434C48.741 39.7601 48.7313 40.0767 48.7214 40.4029C48.7171 40.5016 48.7128 40.6003 48.7084 40.7019C48.7019 41.1464 48.7218 41.3861 48.9503 41.7785C49.4705 42.2483 49.9305 42.2903 50.6184 42.2926C50.7572 42.2945 50.896 42.2965 51.039 42.2985C51.5864 42.2412 51.955 42.0753 52.3675 41.7121C52.5733 41.2849 52.5376 40.8769 52.5227 40.4102C52.5154 40.0912 52.5081 39.7721 52.5007 39.4434C51.2632 39.4434 50.0257 39.4434 48.7507 39.4434ZM45.9382 42.3731C45.9382 43.92 45.9382 45.4669 45.9382 47.0606C49.0319 47.0606 52.1257 47.0606 55.3132 47.0606C55.3132 45.5137 55.3132 43.9669 55.3132 42.3731C54.3316 42.2626 54.3316 42.2626 53.9619 42.613C53.8857 42.7175 53.8096 42.8221 53.7311 42.9298C53.151 43.6481 52.5667 43.9319 51.6804 44.1309C50.4368 44.2504 49.1104 44.2811 48.0476 43.545C47.7653 43.2454 47.5143 42.9453 47.2771 42.6089C46.9191 42.2609 46.9191 42.2609 45.9382 42.3731ZM43.8288 42.8419C43.0333 43.6887 43.0941 44.6077 43.111 45.7056C43.1121 45.8361 43.1131 45.9665 43.1142 46.1009C43.117 46.4208 43.1208 46.7407 43.1257 47.0606C43.3964 47.0606 43.6671 47.0606 43.946 47.0606C43.946 45.6684 43.946 44.2762 43.946 42.8419C43.9073 42.8419 43.8686 42.8419 43.8288 42.8419ZM57.3054 42.8419C57.3054 44.2341 57.3054 45.6262 57.3054 47.0606C57.5761 47.0606 57.8468 47.0606 58.1257 47.0606C58.136 46.6139 58.1422 46.1671 58.1477 45.7203C58.1506 45.595 58.1535 45.4697 58.1566 45.3406C58.1634 44.5949 58.1535 43.8572 57.7741 43.1934C57.6194 43.0774 57.4647 42.9614 57.3054 42.8419Z" fill="#D7FB00"/>
<path d="M24.3629 1.44434C25.3276 2.01961 25.9704 2.8377 26.2507 3.93549C26.3679 4.75581 26.3679 4.75581 26.3679 6.74799C28.7655 6.74799 31.1632 6.74799 33.6335 6.74799C33.6335 6.09057 33.6335 5.43315 33.6335 4.75581C33.7843 3.63716 34.1219 2.76216 34.9226 1.94331C36.0039 1.1351 37.1219 0.98885 38.4382 1.12299C39.4431 1.35179 40.1982 1.9079 40.76 2.76362C41.2816 3.61811 41.2803 4.41038 41.2653 5.38569C41.2643 5.51666 41.2632 5.64763 41.2621 5.78257C41.2594 6.1044 41.2555 6.42619 41.2507 6.74799C41.3192 6.74554 41.3878 6.74308 41.4584 6.74055C41.77 6.73079 42.0816 6.72471 42.3933 6.7187C42.5011 6.71477 42.609 6.71084 42.7201 6.70679C42.8243 6.70528 42.9286 6.70377 43.036 6.70222C43.1796 6.69853 43.1796 6.69853 43.3261 6.69478C43.7174 6.77238 43.8376 6.88688 44.0632 7.21674C44.1317 7.56852 44.1289 7.91393 44.1254 8.27143C44.1259 8.3737 44.1263 8.47597 44.1268 8.58134C44.1271 8.79725 44.1262 9.01317 44.1243 9.22907C44.1218 9.55937 44.1243 9.88938 44.1273 10.2197C44.127 10.4296 44.1264 10.6396 44.1254 10.8496C44.1264 10.9482 44.1273 11.0468 44.1283 11.1485C44.1213 11.5891 44.113 11.8313 43.8598 12.2017C43.5534 12.3994 43.3976 12.428 43.036 12.4188C42.8796 12.4165 42.8796 12.4165 42.7201 12.4142C42.6122 12.4103 42.5044 12.4063 42.3933 12.4023C42.2836 12.4002 42.1739 12.3981 42.0609 12.3959C41.7907 12.3904 41.5208 12.3827 41.2507 12.373C41.2531 12.4527 41.2556 12.5323 41.2581 12.6144C41.268 12.9807 41.274 13.347 41.28 13.7133C41.2839 13.8386 41.2878 13.9639 41.2919 14.093C41.3069 15.3207 40.9306 16.2829 40.0788 17.1777C39.0259 18.0074 37.861 18.1303 36.5632 17.998C35.5583 17.7692 34.8032 17.2131 34.2414 16.3574C33.5104 15.0943 33.6335 13.8335 33.6335 12.373C31.2358 12.373 28.8382 12.373 26.3679 12.373C26.3679 13.0304 26.3679 13.6878 26.3679 14.3652C26.217 15.4838 25.8795 16.3588 25.0788 17.1777C23.9975 17.9859 22.8795 18.1321 21.5632 17.998C20.5583 17.7692 19.8032 17.2131 19.2414 16.3574C18.7198 15.5029 18.7211 14.7106 18.736 13.7353C18.7371 13.6043 18.7381 13.4734 18.7392 13.3384C18.742 13.0166 18.7458 12.6948 18.7507 12.373C18.6479 12.3767 18.6479 12.3767 18.543 12.3804C18.2314 12.3902 17.9198 12.3963 17.6081 12.4023C17.5002 12.4062 17.3924 12.4101 17.2813 12.4142C17.1249 12.4165 17.1249 12.4165 16.9654 12.4188C16.8697 12.4212 16.7739 12.4237 16.6753 12.4262C16.284 12.3486 16.1637 12.2341 15.9382 11.9042C15.8697 11.5525 15.8725 11.2071 15.8759 10.8496C15.8755 10.7473 15.875 10.645 15.8746 10.5396C15.8742 10.3237 15.8751 10.1078 15.8771 9.89191C15.8796 9.56161 15.8771 9.23161 15.8741 8.90131C15.8744 8.69135 15.875 8.48139 15.8759 8.27143C15.875 8.17279 15.874 8.07414 15.873 7.97251C15.8801 7.53188 15.8883 7.28964 16.1415 6.91931C16.4479 6.72154 16.6037 6.69294 16.9654 6.70222C17.0696 6.70373 17.1739 6.70524 17.2813 6.70679C17.443 6.71269 17.443 6.71269 17.6081 6.7187C17.7726 6.72187 17.7726 6.72187 17.9404 6.72511C18.2106 6.73062 18.4806 6.73832 18.7507 6.74799C18.747 6.6294 18.747 6.6294 18.7432 6.50841C18.7334 6.14395 18.7274 5.77953 18.7214 5.41499C18.7175 5.29066 18.7135 5.16634 18.7095 5.03825C18.6956 3.91082 18.9392 2.96193 19.723 2.12275C20.9648 1.00623 22.8449 0.715915 24.3629 1.44434ZM20.9618 3.88809C20.6847 4.39304 20.6766 4.75835 20.6822 5.32389C20.6814 5.42573 20.6806 5.52758 20.6797 5.63251C20.6777 5.96775 20.679 6.30288 20.6806 6.63813C20.6803 6.8719 20.6798 7.10568 20.6793 7.33945C20.6786 7.82885 20.6796 8.3182 20.6818 8.80759C20.6844 9.43415 20.6829 10.0606 20.6801 10.6872C20.6784 11.1698 20.6789 11.6523 20.6801 12.1349C20.6805 12.3659 20.6801 12.5969 20.679 12.8278C20.6778 13.151 20.6796 13.474 20.6822 13.7971C20.6813 13.8921 20.6803 13.9871 20.6793 14.0849C20.6885 14.7001 20.8065 15.0481 21.2116 15.5371C21.6663 15.9028 22.0295 16.1112 22.6179 16.123C23.1564 16.0125 23.4933 15.8308 23.8923 15.4492C24.3342 14.7732 24.4106 14.1033 24.4079 13.311C24.4085 13.2211 24.4091 13.1313 24.4097 13.0387C24.4113 12.7438 24.4112 12.449 24.4109 12.1542C24.4114 11.9477 24.4119 11.7412 24.4124 11.5347C24.4133 11.1027 24.4133 10.6706 24.4127 10.2386C24.412 9.68711 24.414 9.13565 24.4167 8.58416C24.4184 8.15788 24.4185 7.73161 24.4182 7.30532C24.4182 7.1021 24.4188 6.89887 24.42 6.69564C24.5009 5.06088 24.5009 5.06088 23.854 3.63114C23.302 3.15033 22.922 3.07348 22.2123 3.08268C21.6279 3.14651 21.322 3.44959 20.9618 3.88809ZM35.9406 3.92817C35.6084 4.53099 35.6079 5.10708 35.6068 5.78337C35.6062 5.8732 35.6056 5.96303 35.605 6.05559C35.6033 6.3517 35.6025 6.6478 35.6019 6.94392C35.6012 7.15074 35.6005 7.35757 35.5998 7.56439C35.5986 7.99783 35.5979 8.43126 35.5975 8.86469C35.5969 9.41804 35.5941 9.97135 35.5907 10.5247C35.5885 10.952 35.5879 11.3792 35.5878 11.8065C35.5874 12.0104 35.5865 12.2143 35.5849 12.4182C35.5217 14.155 35.5217 14.155 36.2922 15.6469C36.8063 15.967 37.251 16.1827 37.8655 16.0827C38.4761 15.8895 38.7776 15.5864 39.1413 15.0683C39.3317 14.6876 39.2779 14.2688 39.2792 13.8503C39.28 13.7485 39.2808 13.6468 39.2816 13.5419C39.2839 13.2041 39.2852 12.8664 39.2864 12.5286C39.2869 12.4134 39.2874 12.2981 39.2879 12.1793C39.2903 11.5691 39.292 10.959 39.2931 10.3488C39.2944 9.71851 39.2984 9.08832 39.3031 8.45809C39.3061 7.97351 39.3071 7.48895 39.3075 7.00437C39.3081 6.77207 39.3095 6.53977 39.3116 6.30747C39.3145 5.98205 39.3144 5.65676 39.3136 5.33133C39.3158 5.18774 39.3158 5.18774 39.3181 5.04125C39.3125 4.4223 39.1959 4.07703 38.7897 3.58393C38.2799 3.12265 37.8619 3.04032 37.1958 3.07032C36.6032 3.1649 36.3002 3.47139 35.9406 3.92817ZM17.9304 8.62299C17.9304 9.24174 17.9304 9.86049 17.9304 10.498C18.2011 10.498 18.4718 10.498 18.7507 10.498C18.7507 9.87924 18.7507 9.26049 18.7507 8.62299C18.48 8.62299 18.2093 8.62299 17.9304 8.62299ZM26.3679 8.62299C26.3679 9.24174 26.3679 9.86049 26.3679 10.498C28.7655 10.498 31.1632 10.498 33.6335 10.498C33.6335 9.87924 33.6335 9.26049 33.6335 8.62299C31.2358 8.62299 28.8382 8.62299 26.3679 8.62299ZM41.2507 8.62299C41.2507 9.24174 41.2507 9.86049 41.2507 10.498C41.5214 10.498 41.7921 10.498 42.071 10.498C42.071 9.87924 42.071 9.26049 42.071 8.62299C41.8003 8.62299 41.5296 8.62299 41.2507 8.62299Z" fill="#D7FB00"/>
</g>
<defs>
<clipPath id="clip0_377_1145">
<rect width="60" height="60" fill="white" transform="translate(0 0.654297)"/>
</clipPath>
</defs>
</svg>
