
<svg id="Layer_1" xmlns="http://www.w3.org/2000/svg" version="1.1" viewBox="0 0 1000 1000">
  <!-- Generator: Adobe Illustrator 29.5.0, SVG Export Plug-In . SVG Version: 2.1.0 Build 137)  -->
  <defs>
    <style>
      .st0 {
        fill: #111;
      }

      .st1 {
        fill: #40f843;
      }
    </style>
  </defs>
  <polygon class="st0" points="912.87 738.23 912.87 261.89 500.35 23.72 87.83 261.89 87.83 738.23 500.35 976.39 912.87 738.23"/>
  <g>
    <polygon class="st1" points="732.24 277 732.24 366.19 654.98 410.79 654.91 410.79 577.65 455.39 500.39 500.06 500.39 856.98 577.65 812.39 654.91 767.79 654.91 678.52 654.91 589.25 577.65 633.92 577.65 544.66 654.91 500.06 732.24 455.39 809.49 410.79 809.49 321.6 732.24 277"/>
    <path class="st1" d="M577.65,366.19l77.26-44.6v-89.27l-77.26-44.6-77.26-44.6-77.26,44.6h-.07l-77.18,44.6h-.07l-77.26,44.6-77.26,44.67h-.07v356.92h.07l77.26,44.6,77.26,44.6,77.26,44.6v-356.92h.07l77.26-44.6,77.26-44.6ZM423.06,366.19l-77.26,44.6v267.73l-77.26-44.6v-267.73l77.26-44.6,77.26-44.6v-.07h.07l77.26-44.6,77.26,44.6-77.26,44.6-77.33,44.67Z"/>
    <polygon class="st1" points="732.24 723.12 809.49 678.52 809.49 500.06 732.24 544.66 732.24 723.12"/>
  </g>
</svg>