<svg width="66" height="50" viewBox="0 0 66 50" fill="none" xmlns="http://www.w3.org/2000/svg">
<path d="M6.39844 26.9187C7.58925 27.4469 8.82727 27.6188 10.0752 27.4501C11.6984 35.8584 16.5503 41.6839 24.6886 45.0587C24.8219 44.3301 24.8898 43.6939 25.0588 43.084C25.5648 41.2586 26.1069 39.4424 26.6416 37.6245C26.9963 36.4187 27.3332 35.2114 27.3958 33.949C27.4594 32.6645 27.199 31.4571 26.518 30.3446C26.0102 29.5151 25.4976 28.6884 24.9832 27.8543C24.5452 28.4407 24.1359 29.0636 23.6487 29.6228C22.9633 30.4095 22.249 31.1777 21.4876 31.8948C21.1732 32.1909 20.7265 32.3981 20.3017 32.5336C19.2652 32.8643 18.3151 32.4707 17.8176 31.5298C17.1165 30.2038 16.7188 28.7861 16.5229 27.3113C16.1189 24.2705 15.7099 21.2304 15.2911 18.1915C15.2775 18.0929 15.1345 17.9337 15.0504 17.9328C13.5547 17.917 12.0587 17.9213 10.5006 17.9213C10.5006 18.1084 10.5007 18.259 10.5006 18.4097C10.4994 20.1587 10.4956 21.9077 10.4983 23.6568C10.4992 24.1829 10.322 24.6324 9.90913 24.9776C9.37386 25.4251 8.76046 25.5646 8.10396 25.281C7.44207 24.9951 7.08647 24.4773 7.0792 23.7679C7.06755 22.6325 7.06733 21.4968 7.06815 20.3613C7.07055 16.9938 7.0756 13.6263 7.08038 10.2588C7.08074 9.9978 7.07359 9.7359 7.09293 9.47603C7.16434 8.51614 7.89085 7.86027 8.8413 7.88679C9.77511 7.91284 10.4938 8.62598 10.5003 9.57523C10.5133 11.4808 10.5065 13.3866 10.5079 15.2923C10.508 15.4211 10.5079 15.55 10.5079 15.7032C10.6205 15.7139 10.71 15.7298 10.7996 15.7298C12.3252 15.7293 13.8507 15.7223 15.3763 15.7293C15.6312 15.7304 15.7973 15.6694 15.9249 15.4383C16.1782 14.98 16.6182 14.7947 17.1352 14.7844C17.783 14.7714 18.4313 14.77 19.0791 14.7806C19.5875 14.7889 20.0081 14.9962 20.2409 15.4391C20.3777 15.6994 20.5605 15.7358 20.8215 15.7347C22.601 15.7275 24.3806 15.7309 26.1602 15.7309C26.1733 15.7667 26.1865 15.8024 26.1997 15.8382C25.5681 16.082 24.9504 16.3711 24.3015 16.559C23.3753 16.8272 22.4973 17.149 21.7214 17.7348C21.4982 17.9033 21.1149 17.8989 20.8009 17.9218C20.5608 17.9392 20.4226 17.9933 20.3101 18.2221C19.9422 18.9699 19.2933 19.4557 18.5136 19.8742C18.8857 20.9733 19.2566 22.0689 19.6275 23.1646C20.1624 20.8769 21.5083 19.2909 23.7824 18.3942C23.7989 18.6859 23.81 18.9296 23.8268 19.1729C23.9516 20.9681 24.9285 22.3038 26.3168 23.3936C26.8057 23.7773 27.3402 24.1317 27.9062 24.3938C30.0717 25.3965 31.2478 27.1272 31.711 29.3121C31.969 30.5295 32.0809 31.7936 32.0944 33.0384C32.141 37.3322 32.1153 41.6268 32.1171 45.9211C32.1171 46.0763 32.1171 46.2316 32.1171 46.4269C32.7213 46.4269 33.2913 46.4269 33.9037 46.4269C33.9124 46.2552 33.9277 46.0914 33.9279 45.9275C33.9317 41.3592 33.9262 36.7908 33.9406 32.2224C33.9459 30.5483 34.2572 28.9283 34.9965 27.3989C35.6002 26.1499 36.5172 25.1975 37.7936 24.5683C38.7826 24.0808 39.7203 23.5253 40.4899 22.7274C41.608 21.5682 42.2352 20.2316 42.1852 18.6268C42.1836 18.576 42.1958 18.5248 42.2065 18.4307C44.5126 19.2788 45.8493 20.8777 46.4008 23.1827C46.7626 22.0981 47.1244 21.0136 47.4947 19.9033C47.3385 19.8064 47.2065 19.7213 47.0713 19.6412C46.4817 19.292 46.0033 18.8389 45.7251 18.2205C45.6151 17.9757 45.4574 17.8735 45.1958 17.9116C44.721 17.9806 44.3579 17.7631 43.9584 17.5486C43.3402 17.2168 42.6735 16.9656 42.016 16.7074C41.3101 16.4302 40.5909 16.1845 39.8775 15.9251C39.8877 15.8798 39.8979 15.8344 39.9081 15.7891C40.0023 15.7776 40.0964 15.7567 40.1906 15.7561C41.8781 15.7438 43.5655 15.7308 45.253 15.7272C45.489 15.7267 45.635 15.6833 45.7514 15.4478C45.9752 14.9946 46.4072 14.7993 46.9102 14.7868C47.5982 14.7698 48.2872 14.7708 48.9754 14.7845C49.4794 14.7945 49.8184 15.0761 50.0898 15.4667C50.1673 15.5784 50.3183 15.7152 50.4369 15.7164C52.1231 15.7326 53.8094 15.7274 55.5642 15.7274C55.5642 15.5329 55.5643 15.3692 55.5642 15.2055C55.5632 13.3781 55.5605 11.5508 55.5618 9.7234C55.5626 8.62646 56.2349 7.90606 57.269 7.88607C58.2367 7.86736 58.9976 8.65679 59.0053 9.72411C59.0169 11.3295 59.0068 12.935 59.0063 14.5405C59.0055 17.5034 58.9987 20.4663 59.0085 23.4292C59.0112 24.2592 58.7422 24.9154 57.9142 25.2647C56.8123 25.7295 55.6084 25.0088 55.5768 23.8361C55.5433 22.5969 55.5652 21.3563 55.5637 20.1164C55.5628 19.4126 55.5636 18.7088 55.5636 17.9619C53.9355 17.9619 52.3408 17.9619 50.726 17.9619C50.6336 18.7427 50.5559 19.5306 50.4448 20.3141C50.0473 23.117 49.6788 25.9248 49.2101 28.7167C49.0633 29.591 48.6904 30.4442 48.3234 31.2664C47.7083 32.6444 46.2941 33.0349 44.9659 32.2484C44.749 32.12 44.5394 31.967 44.3616 31.792C43.2061 30.6548 42.0965 29.4801 41.2445 28.1024C41.1908 28.0154 41.1223 27.9369 41.0399 27.8266C40.4378 28.8447 39.8018 29.8097 39.2788 30.8288C38.3399 32.6583 38.5477 34.5598 39.0825 36.4467C39.6134 38.32 40.2089 40.1762 40.73 42.0518C40.9915 42.9933 41.1507 43.9614 41.3558 44.9158C46.2103 43.4538 54.2726 37.4409 55.8199 27.4539C57.11 27.6135 58.3591 27.4258 59.5621 26.9007C58.5185 37.9884 48.406 50.0617 32.9358 49.9996C17.5436 49.9377 7.40776 38.1975 6.39844 26.9187Z" fill="#171E2E"/>
<path d="M37.084 0.0078125C41.2157 0.698721 44.8752 2.28548 48.2157 4.59187C49.7806 5.67227 51.2028 6.9092 52.5086 8.27344C52.7211 8.49537 52.827 8.71852 52.8226 9.0359C52.8009 10.5886 52.8089 12.1417 52.8064 13.6946C52.8062 13.8458 52.8064 13.9969 52.7192 14.1739C52.5376 13.9403 52.3516 13.7097 52.1752 13.4724C48.9915 9.18982 44.9317 6.0268 39.7132 4.3362C39.5801 4.29309 39.4134 4.13494 39.3931 4.01049C39.1407 2.46577 38.4244 1.17452 37.2039 0.146057C37.1748 0.12155 37.1534 0.0885403 37.084 0.0078125Z" fill="#171E2E"/>
<path d="M13.1876 14.1156C13.1876 13.5205 13.1879 12.9253 13.1875 12.3302C13.1868 11.1692 13.1754 10.008 13.195 8.84728C13.1981 8.66103 13.2922 8.43602 13.4224 8.29781C17.2091 4.2781 21.8585 1.65512 27.3001 0.32712C27.8342 0.196773 28.3781 0.10363 28.8842 0C28.6262 0.272898 28.3431 0.549753 28.0865 0.847974C27.318 1.74123 26.858 2.7735 26.67 3.91678C26.6316 4.15007 26.5452 4.26798 26.2993 4.34352C21.1214 5.93419 17.0577 8.9772 13.9344 13.2396C13.717 13.5362 13.5004 13.8332 13.2835 14.13C13.2515 14.1252 13.2196 14.1204 13.1876 14.1156Z" fill="#171E2E"/>
<path d="M2.60451 15.6543C2.61413 15.4912 2.632 15.3266 2.63229 15.1619C2.63473 13.7796 2.61923 12.397 2.63876 11.0149C2.65465 9.89148 3.59198 9.19949 4.7249 9.44036C5.48418 9.60179 5.97822 10.1758 5.98254 10.956C5.99222 12.7035 5.98318 14.451 5.98315 16.1986C5.98311 18.3374 5.99455 20.4762 5.98139 22.6149C5.97372 23.8614 4.69977 24.6325 3.562 24.0871C2.93677 23.7875 2.63842 23.2722 2.63709 22.5979C2.63469 21.3721 2.63303 20.1462 2.63113 18.9203C2.6309 18.7676 2.63111 18.615 2.63111 18.433C2.20361 18.433 1.82831 18.436 1.45308 18.4324C0.619426 18.4244 0.0248425 17.8634 0.000775539 17.0661C-0.023568 16.2593 0.527016 15.6947 1.39386 15.6572C1.78221 15.6403 2.17197 15.6543 2.60451 15.6543Z" fill="#171E2E"/>
<path d="M63.4126 18.4308C63.4126 19.8633 63.4168 21.2192 63.411 22.5749C63.4078 23.3325 62.9871 23.895 62.2546 24.1515C61.2141 24.5158 60.1288 23.8337 60.0899 22.7643C60.0614 21.9822 60.0862 21.1984 60.0857 20.4153C60.0841 17.283 60.0778 14.1506 60.082 11.0183C60.0836 9.79789 61.1336 9.09552 62.3308 9.49721C62.9668 9.7106 63.4081 10.3147 63.4111 11.0016C63.4174 12.3981 63.4154 13.7946 63.4168 15.191C63.4169 15.3318 63.4168 15.4726 63.4168 15.6518C63.8005 15.6518 64.1463 15.6549 64.4921 15.6512C65.3626 15.642 65.9867 16.1979 66.0006 16.9985C66.0142 17.7848 65.391 18.4062 64.5554 18.4292C64.1949 18.4391 63.8338 18.4308 63.4126 18.4308Z" fill="#171E2E"/>
<path d="M35.9332 11.7083C35.9033 11.2566 35.9136 10.7899 35.9637 10.3091C36.0056 9.90523 36.2203 9.51702 36.3669 9.12568C36.3895 9.06529 36.4732 8.98832 36.5327 8.985C36.9024 8.96431 37.0439 8.69914 37.1378 8.42965C37.3395 7.85 37.5503 7.26642 37.6632 6.66785C37.7116 6.41134 37.6062 6.04144 37.4259 5.85141C37.1647 5.57608 37.1949 5.31423 37.1882 4.99879C37.1745 4.35343 37.2234 3.67055 37.0243 3.07228C36.5191 1.5544 35.2969 0.808561 33.7211 0.541828C32.0167 0.253348 30.2013 1.00442 29.3488 2.32503C28.7603 3.23683 28.7537 4.2235 28.8568 5.239C28.8717 5.38651 28.8439 5.60938 28.7446 5.68398C28.3268 5.99806 28.2646 6.40562 28.3837 6.84316C28.5344 7.39674 28.7109 7.94786 28.9358 8.47632C29.0202 8.6746 29.2709 8.80717 29.4474 8.96809C29.5117 9.02672 29.613 9.06826 29.642 9.13885C29.8058 9.53789 30.036 9.93317 30.0906 10.3485C30.1547 10.8368 30.1703 11.3186 30.1344 11.7916C31.3781 12.2517 33.456 12.6561 35.9332 11.7083Z" fill="#F2F2F2"/>
<path d="M40.924 17.9053C40.124 17.4805 39.2847 17.0894 38.5777 16.5436C37.1658 15.4537 36.3392 14.1101 36.0427 12.5635C35.0681 13.3173 33.2497 13.9037 29.9612 12.8544C29.8133 13.4327 29.5786 13.9943 29.2485 14.5346C28.3029 16.0825 26.9525 17.1891 25.2143 17.8281C24.7965 17.9817 24.6922 18.1955 24.7241 18.6115C24.8411 20.1394 25.6004 21.3246 26.7444 22.3202C27.5271 23.0014 28.4595 23.4454 29.4017 23.873C30.3719 24.3133 31.1245 24.9832 31.6532 25.8849C31.7738 26.0905 31.879 26.3045 32.0177 26.5639C32.173 23.0516 32.351 19.6106 32.4566 16.1676C32.4791 15.4356 32.9095 15.158 33.4943 14.7942C33.6712 18.7017 33.8451 22.5403 34.024 26.4909C34.1092 26.3561 34.1399 26.3164 34.1612 26.2725C34.7271 25.1032 35.5925 24.237 36.8383 23.7286C37.3587 23.5162 37.8728 23.273 38.3518 22.9847C40.0742 21.9479 41.1925 20.5304 41.3068 18.4924C41.3246 18.175 41.1948 18.0491 40.924 17.9053Z" fill="#F2F2F2"/>
<path d="M36.0425 12.5638C35.989 12.2851 35.9529 11.9997 35.9336 11.708C33.4564 12.6558 31.3785 12.2513 30.1348 11.7913C30.1075 12.1512 30.0501 12.506 29.9609 12.8547C33.2495 13.9041 35.0678 13.3176 36.0425 12.5638Z" fill="#171E2E"/>
</svg>
