<svg width="181" height="50" viewBox="0 0 181 50" fill="none" xmlns="http://www.w3.org/2000/svg">
<path d="M6.39941 26.919C7.59023 27.4472 8.82824 27.6192 10.0762 27.4504C11.6994 35.8587 16.5513 41.6842 24.6896 45.059C24.8228 44.3304 24.8908 43.6943 25.0598 43.0843C25.5658 41.2589 26.1078 39.4427 26.6426 37.6248C26.9973 36.419 27.3342 35.2118 27.3968 33.9493C27.4604 32.6648 27.1999 31.4574 26.519 30.345C26.0112 29.5154 25.4985 28.6887 24.9842 27.8546C24.5461 28.4411 24.1369 29.0639 23.6496 29.6232C22.9643 30.4098 22.25 31.1781 21.4886 31.8951C21.1742 32.1912 20.7275 32.3984 20.3027 32.5339C19.2662 32.8646 18.3161 32.471 17.8186 31.5301C17.1175 30.2041 16.7198 28.7864 16.5239 27.3116C16.1199 24.2709 15.7109 21.2307 15.292 18.1919C15.2784 18.0932 15.1355 17.934 15.0514 17.9332C13.5557 17.9173 12.0597 17.9217 10.5016 17.9217C10.5016 18.1087 10.5017 18.2594 10.5016 18.41C10.5003 20.159 10.4966 21.9081 10.4993 23.6571C10.5001 24.1833 10.3229 24.6327 9.9101 24.9779C9.37484 25.4254 8.76144 25.5649 8.10494 25.2813C7.44304 24.9954 7.08744 24.4776 7.08018 23.7683C7.06853 22.6328 7.06831 21.4972 7.06913 20.3616C7.07153 16.9941 7.07658 13.6266 7.08136 10.2591C7.08172 9.99812 7.07457 9.73621 7.09391 9.47635C7.16532 8.51646 7.89183 7.86058 8.84228 7.8871C9.77608 7.91316 10.4948 8.6263 10.5013 9.57555C10.5143 11.4812 10.5075 13.3869 10.5089 15.2926C10.509 15.4215 10.5089 15.5503 10.5089 15.7035C10.6215 15.7142 10.711 15.7301 10.8006 15.7301C12.3261 15.7296 13.8517 15.7226 15.3773 15.7296C15.6321 15.7307 15.7982 15.6697 15.9259 15.4386C16.1791 14.9803 16.6192 14.7951 17.1362 14.7847C17.7839 14.7717 18.4323 14.7703 19.0801 14.7809C19.5884 14.7893 20.0091 14.9966 20.2419 15.4395C20.3787 15.6997 20.5615 15.7361 20.8225 15.735C22.602 15.7278 24.3816 15.7313 26.1612 15.7313C26.1743 15.767 26.1875 15.8027 26.2006 15.8385C25.569 16.0824 24.9514 16.3714 24.3025 16.5593C23.3763 16.8275 22.4983 17.1493 21.7224 17.7351C21.4991 17.9037 21.1158 17.8993 20.8019 17.9221C20.5617 17.9395 20.4236 17.9936 20.3111 18.2224C19.9432 18.9702 19.2943 19.456 18.5146 19.8745C18.8867 20.9736 19.2576 22.0693 19.6285 23.1649C20.1634 20.8772 21.5093 19.2913 23.7834 18.3945C23.7999 18.6862 23.8109 18.9299 23.8278 19.1732C23.9526 20.9684 24.9295 22.3042 26.3178 23.3939C26.8066 23.7776 27.3412 24.132 27.9072 24.3941C30.0726 25.3969 31.2488 27.1276 31.7119 29.3125C31.97 30.5298 32.0819 31.794 32.0954 33.0387C32.142 37.3325 32.1163 41.6271 32.1181 45.9214C32.1181 46.0766 32.1181 46.2319 32.1181 46.4273C32.7223 46.4273 33.2923 46.4273 33.9047 46.4273C33.9134 46.2556 33.9287 46.0917 33.9289 45.9279C33.9327 41.3595 33.9272 36.7911 33.9416 32.2227C33.9469 30.5486 34.2582 28.9286 34.9975 27.3992C35.6012 26.1502 36.5182 25.1978 37.7946 24.5687C38.7836 24.0811 39.7212 23.5256 40.4909 22.7277C41.6089 21.5685 42.2362 20.2319 42.1861 18.6271C42.1846 18.5763 42.1968 18.5251 42.2075 18.431C44.5136 19.2791 45.8503 20.878 46.4018 23.183C46.7636 22.0985 47.1254 21.0139 47.4957 19.9036C47.3395 19.8068 47.2075 19.7216 47.0723 19.6416C46.4826 19.2923 46.0042 18.8392 45.7261 18.2208C45.616 17.9761 45.4583 17.8738 45.1968 17.9119C44.7219 17.981 44.3589 17.7634 43.9594 17.5489C43.3412 17.2172 42.6745 16.9659 42.017 16.7077C41.311 16.4306 40.5919 16.1848 39.8785 15.9254C39.8887 15.8801 39.8988 15.8347 39.909 15.7894C40.0032 15.7779 40.0973 15.7571 40.1916 15.7564C41.879 15.7441 43.5665 15.7311 45.254 15.7276C45.49 15.7271 45.636 15.6837 45.7523 15.4481C45.9762 14.9949 46.4081 14.7996 46.9112 14.7871C47.5992 14.7701 48.2882 14.7711 48.9764 14.7848C49.4804 14.7948 49.8193 15.0764 50.0907 15.467C50.1683 15.5787 50.3193 15.7155 50.4379 15.7167C52.124 15.7329 53.8104 15.7277 55.5652 15.7277C55.5652 15.5332 55.5653 15.3695 55.5652 15.2058C55.5642 13.3785 55.5615 11.5511 55.5628 9.72371C55.5636 8.62677 56.2359 7.90637 57.2699 7.88639C58.2377 7.86768 58.9986 8.65711 59.0063 9.72443C59.0179 11.3298 59.0078 12.9353 59.0073 14.5408C59.0065 17.5037 58.9997 20.4666 59.0095 23.4295C59.0122 24.2595 58.7432 24.9158 57.9152 25.265C56.8133 25.7299 55.6094 25.0091 55.5778 23.8364C55.5443 22.5972 55.5662 21.3567 55.5647 20.1167C55.5638 19.4129 55.5645 18.7091 55.5645 17.9622C53.9365 17.9622 52.3417 17.9622 50.727 17.9622C50.6346 18.743 50.5569 19.5309 50.4458 20.3144C50.0483 23.1174 49.6797 25.9251 49.2111 28.717C49.0643 29.5914 48.6914 30.4446 48.3244 31.2667C47.7093 32.6448 46.2951 33.0352 44.9668 32.2487C44.75 32.1203 44.5404 31.9673 44.3626 31.7923C43.2071 30.6551 42.0974 29.4804 41.2455 28.1027C41.1917 28.0157 41.1233 27.9372 41.0409 27.8269C40.4388 28.845 39.8028 29.81 39.2798 30.8291C38.3409 32.6586 38.5487 34.5601 39.0835 36.4471C39.6144 38.3203 40.2098 40.1765 40.7309 42.0521C40.9925 42.9936 41.1516 43.9617 41.3568 44.9161C46.2113 43.4541 54.2736 37.4412 55.8209 27.4542C57.111 27.6138 58.3601 27.4261 59.5631 26.901C58.5195 37.9887 48.407 50.062 32.9368 49.9999C17.5445 49.9381 7.40874 38.1978 6.39941 26.919Z" fill="#D7FB00"/>
<path d="M37.0835 0.00752068C41.2152 0.69843 44.8747 2.28519 48.2153 4.59158C49.7801 5.67198 51.2023 6.90891 52.5081 8.27315C52.7206 8.49508 52.8265 8.71823 52.8221 9.03561C52.8004 10.5883 52.8084 12.1414 52.806 13.6943C52.8057 13.8455 52.8059 13.9966 52.7187 14.1736C52.5371 13.94 52.3511 13.7094 52.1747 13.4721C48.991 9.18953 44.9312 6.02651 39.7127 4.33591C39.5796 4.2928 39.4129 4.13465 39.3926 4.0102C39.1403 2.46548 38.4239 1.17422 37.2034 0.145765C37.1743 0.121258 37.1529 0.0882485 37.0835 0.00752068Z" fill="#D7FB00"/>
<path d="M13.1886 14.1156C13.1886 13.5205 13.1889 12.9253 13.1885 12.3302C13.1878 11.1692 13.1764 10.008 13.196 8.84727C13.1991 8.66103 13.2931 8.43602 13.4234 8.29781C17.2101 4.2781 21.8595 1.65512 27.3011 0.32712C27.8352 0.196773 28.379 0.10363 28.8852 0C28.6272 0.272898 28.3441 0.549753 28.0875 0.847974C27.3189 1.74123 26.859 2.7735 26.671 3.91678C26.6326 4.15007 26.5462 4.26798 26.3003 4.34352C21.1224 5.93419 17.0587 8.9772 13.9353 13.2396C13.718 13.5362 13.5014 13.8332 13.2844 14.13C13.2525 14.1252 13.2205 14.1204 13.1886 14.1156Z" fill="#D7FB00"/>
<path d="M2.60451 15.6541C2.61413 15.4911 2.632 15.3264 2.63229 15.1617C2.63473 13.7794 2.61923 12.3968 2.63876 11.0147C2.65465 9.8913 3.59198 9.19931 4.7249 9.44018C5.48418 9.60161 5.97822 10.1756 5.98254 10.9558C5.99222 12.7033 5.98318 14.4509 5.98315 16.1984C5.98311 18.3372 5.99455 20.476 5.98139 22.6148C5.97372 23.8613 4.69977 24.6323 3.562 24.087C2.93677 23.7873 2.63842 23.2721 2.63709 22.5978C2.63469 21.3719 2.63303 20.146 2.63113 18.9201C2.6309 18.7674 2.63111 18.6148 2.63111 18.4328C2.20361 18.4328 1.82831 18.4358 1.45308 18.4322C0.619426 18.4242 0.0248425 17.8632 0.000775539 17.0659C-0.023568 16.2591 0.527016 15.6946 1.39386 15.657C1.78221 15.6401 2.17197 15.6541 2.60451 15.6541Z" fill="#D7FB00"/>
<path d="M63.4122 18.4305C63.4122 19.863 63.4163 21.2188 63.4105 22.5746C63.4073 23.3322 62.9867 23.8947 62.2541 24.1512C61.2136 24.5155 60.1283 23.8334 60.0894 22.7639C60.0609 21.9819 60.0857 21.198 60.0853 20.415C60.0836 17.2826 60.0773 14.1503 60.0815 11.018C60.0831 9.79757 61.1331 9.0952 62.3303 9.49689C62.9663 9.71028 63.4076 10.3144 63.4106 11.0013C63.4169 12.3977 63.4149 13.7942 63.4163 15.1907C63.4164 15.3315 63.4163 15.4723 63.4163 15.6515C63.8 15.6515 64.1458 15.6546 64.4916 15.6509C65.3621 15.6417 65.9862 16.1976 66.0001 16.9982C66.0137 17.7845 65.3905 18.4059 64.5549 18.4288C64.1944 18.4388 63.8333 18.4305 63.4122 18.4305Z" fill="#D7FB00"/>
<path d="M35.9327 11.7082C35.9028 11.2565 35.9131 10.7898 35.9632 10.3089C36.0052 9.90509 36.2198 9.51688 36.3664 9.12555C36.389 9.06516 36.4727 8.98819 36.5322 8.98487C36.9019 8.96417 37.0434 8.699 37.1373 8.42951C37.339 7.84986 37.5498 7.26629 37.6627 6.66772C37.7111 6.4112 37.6057 6.04131 37.4254 5.85128C37.1642 5.57594 37.1944 5.31409 37.1877 4.99866C37.174 4.3533 37.2229 3.67041 37.0238 3.07214C36.5186 1.55426 35.2964 0.808427 33.7206 0.541695C32.0162 0.253214 30.2008 1.00429 29.3484 2.3249C28.7598 3.2367 28.7532 4.22336 28.8563 5.23887C28.8712 5.38638 28.8434 5.60925 28.7442 5.68385C28.3263 5.99792 28.2641 6.40549 28.3832 6.84302C28.5339 7.3966 28.7104 7.94772 28.9353 8.47619C29.0197 8.67447 29.2705 8.80704 29.4469 8.96796C29.5112 9.02659 29.6125 9.06813 29.6415 9.13872C29.8053 9.53776 30.0355 9.93303 30.0901 10.3484C30.1542 10.8367 30.1698 11.3184 30.1339 11.7914C31.3776 12.2515 33.4555 12.656 35.9327 11.7082Z" fill="#F2F2F2"/>
<path d="M40.923 17.9057C40.123 17.481 39.2837 17.0898 38.5767 16.544C37.1648 15.4541 36.3382 14.1105 36.0417 12.5639C35.0671 13.3177 33.2488 13.9042 29.9602 12.8548C29.8123 13.4331 29.5776 13.9948 29.2475 14.535C28.3019 16.083 26.9515 17.1895 25.2133 17.8286C24.7955 17.9822 24.6912 18.196 24.7231 18.6119C24.8402 20.1399 25.5995 21.325 26.7434 22.3206C27.5262 23.0019 28.4585 23.4459 29.4007 23.8735C30.3709 24.3137 31.1236 24.9837 31.6522 25.8853C31.7728 26.091 31.8781 26.305 32.0167 26.5644C32.172 23.052 32.35 19.6111 32.4557 16.168C32.4781 15.4361 32.9085 15.1584 33.4933 14.7947C33.6703 18.7021 33.8441 22.5407 34.023 26.4913C34.1082 26.3565 34.139 26.3169 34.1602 26.2729C34.7261 25.1037 35.5915 24.2375 36.8373 23.729C37.3578 23.5166 37.8719 23.2735 38.3508 22.9852C40.0732 21.9484 41.1916 20.5309 41.3058 18.4929C41.3236 18.1755 41.1938 18.0495 40.923 17.9057Z" fill="#F2F2F2"/>
<path d="M36.042 12.5639C35.9885 12.2851 35.9524 11.9997 35.9332 11.7081C33.4559 12.6559 31.378 12.2514 30.1343 11.7913C30.107 12.1512 30.0496 12.5061 29.9604 12.8548C33.249 13.9041 35.0673 13.3177 36.042 12.5639Z" fill="#D7FB00"/>
<path d="M85.1305 34H82.5805C82.1605 34 81.9505 33.79 81.9505 33.37V15.34C81.9505 14.92 82.1605 14.71 82.5805 14.71H92.1505C92.5505 14.71 92.7505 14.92 92.7505 15.34V17.38C92.7505 17.8 92.5505 18.01 92.1505 18.01H86.1205C85.8805 18.01 85.7605 18.12 85.7605 18.34V22.99C85.7605 23.23 85.8805 23.35 86.1205 23.35H91.2505C91.6705 23.35 91.8805 23.56 91.8805 23.98V25.99C91.8805 26.43 91.6705 26.65 91.2505 26.65H86.1205C85.8805 26.65 85.7605 26.76 85.7605 26.98V33.37C85.7605 33.79 85.5505 34 85.1305 34ZM99.4163 15.34V33.37C99.4163 33.79 99.2063 34 98.7863 34H96.2363C95.8163 34 95.6063 33.79 95.6063 33.37V15.34C95.6063 14.92 95.8163 14.71 96.2363 14.71H98.7863C99.2063 14.71 99.4163 14.92 99.4163 15.34ZM109.424 34H106.904C106.464 34 106.244 33.79 106.244 33.37V18.34C106.244 18.12 106.134 18.01 105.914 18.01H102.494C102.074 18.01 101.864 17.8 101.864 17.38V15.34C101.864 14.92 102.074 14.71 102.494 14.71H113.834C114.254 14.71 114.464 14.92 114.464 15.34V17.38C114.464 17.8 114.254 18.01 113.834 18.01H110.414C110.174 18.01 110.054 18.12 110.054 18.34V33.37C110.054 33.79 109.844 34 109.424 34ZM123.415 34H119.215C118.775 34 118.525 33.79 118.465 33.37L115.255 15.34C115.195 14.92 115.405 14.71 115.885 14.71H119.005C119.465 14.71 119.705 14.92 119.725 15.34L121.465 30.13H121.675L124.555 15.25C124.615 14.89 124.825 14.71 125.185 14.71H128.545C128.925 14.71 129.145 14.88 129.205 15.22L132.145 30.13H132.385L134.095 15.37C134.115 14.93 134.355 14.71 134.815 14.71H137.935C138.415 14.71 138.625 14.93 138.565 15.37L135.325 33.37C135.265 33.79 135.035 34 134.635 34H130.405C129.985 34 129.745 33.79 129.685 33.37L126.985 19.3H126.865L124.135 33.37C124.055 33.79 123.815 34 123.415 34ZM151.394 34H141.584C141.164 34 140.954 33.79 140.954 33.37V15.34C140.954 14.92 141.164 14.71 141.584 14.71H151.394C151.794 14.71 151.994 14.92 151.994 15.34V17.38C151.994 17.8 151.794 18.01 151.394 18.01H145.124C144.884 18.01 144.764 18.12 144.764 18.34V22.24C144.764 22.46 144.884 22.57 145.124 22.57H150.254C150.674 22.57 150.884 22.78 150.884 23.2V25.24C150.884 25.66 150.674 25.87 150.254 25.87H145.124C144.884 25.87 144.764 25.98 144.764 26.2V30.37C144.764 30.59 144.884 30.7 145.124 30.7H151.394C151.794 30.7 151.994 30.91 151.994 31.33V33.37C151.994 33.79 151.794 34 151.394 34ZM165.81 34H155.94C155.52 34 155.31 33.79 155.31 33.37V15.34C155.31 14.92 155.52 14.71 155.94 14.71H158.49C158.91 14.71 159.12 14.92 159.12 15.34V30.34C159.12 30.56 159.24 30.67 159.48 30.67H165.81C166.21 30.67 166.41 30.89 166.41 31.33V33.37C166.41 33.79 166.21 34 165.81 34ZM179.286 34H169.416C168.996 34 168.786 33.79 168.786 33.37V15.34C168.786 14.92 168.996 14.71 169.416 14.71H171.966C172.386 14.71 172.596 14.92 172.596 15.34V30.34C172.596 30.56 172.716 30.67 172.956 30.67H179.286C179.686 30.67 179.886 30.89 179.886 31.33V33.37C179.886 33.79 179.686 34 179.286 34Z" fill="white"/>
</svg>
