<?xml version="1.0" encoding="UTF-8"?>
<svg id="Layer_1" data-name="Layer 1" xmlns="http://www.w3.org/2000/svg" viewBox="0 0 984.68 227.64">
  <defs>
    <style>
      .cls-1 {
        fill: #111;
      }

      .cls-2 {
        fill: #40f843;
      }
    </style>
  </defs>
  <g>
    <polygon class="cls-2" points="197.14 170.73 197.14 56.91 98.57 0 0 56.91 0 170.73 98.57 227.64 197.14 170.73"/>
    <g>
      <polygon class="cls-1" points="153.98 60.52 153.98 81.83 135.52 92.49 135.5 92.49 117.04 103.15 98.58 113.82 98.58 199.11 117.04 188.45 135.5 177.79 135.5 156.46 135.5 135.13 117.04 145.81 117.04 124.48 135.5 113.82 153.98 103.15 172.44 92.49 172.44 71.18 153.98 60.52"/>
      <path class="cls-1" d="M117.04,81.83l18.46-10.66v-21.33l-18.46-10.66-18.46-10.66-18.46,10.66h-.02l-18.44,10.66h-.02l-18.46,10.66-18.46,10.67h-.02v85.29h.02l18.46,10.66,18.46,10.66,18.46,10.66v-85.29h.02l18.46-10.66,18.46-10.66ZM80.1,81.83l-18.46,10.66v63.97l-18.46-10.66v-63.97l18.46-10.66,18.46-10.66v-.02h.02l18.46-10.66,18.46,10.66-18.46,10.66-18.48,10.67Z"/>
      <polygon class="cls-1" points="153.98 167.12 172.44 156.46 172.44 113.82 153.98 124.48 153.98 167.12"/>
    </g>
  </g>
  <g>
    <path class="cls-2" d="M245.56,169.17V58.12h18.59v111.05h-18.59Z"/>
    <path class="cls-2" d="M303.64,126.96h-7.13v42.21h-18.8V58.12h39.49c13.23.09,19.85,6.73,19.85,19.92v29c0,11.14-4.68,17.59-14.05,19.36l17.05,43.05h-19.92l-16.49-42.49ZM318.18,85.1c.14-5.36-2.52-8.04-7.97-8.04h-13.56v31.1h13.56c5.45,0,8.11-3.61,7.97-10.83v-12.23Z"/>
    <path class="cls-2" d="M350.05,169.24V58.12h54.86v18.59h-36.27v23.34h23.62v18.59h-23.62v50.6h-18.59Z"/>
    <path class="cls-2" d="M422.71,147.86l-5.24,21.25h-20.9l28.72-110.64h19.64l28.86,110.64h-21.6l-5.03-21.25h-24.46ZM442.98,129.83l-7.76-32.92-8.11,32.92h15.86Z"/>
    <path class="cls-2" d="M507.22,58.05l30.68,66.19V58.05h18.59v111.19h-19.08l-31.45-67.79v67.79h-18.59V58.05h19.85Z"/>
    <path class="cls-2" d="M612.33,169.17v-92.39h-22.29v-18.59h62.48v18.59h-21.6v92.39h-18.59Z"/>
    <path class="cls-2" d="M661.58,78.04c0-13.19,6.62-19.82,19.85-19.92h19.64c13.23.09,19.85,6.73,19.85,19.92v71.15c0,13.19-6.62,19.83-19.85,19.92h-19.64c-13.23-.09-19.85-6.73-19.85-19.92v-71.15ZM702.05,85.1c.14-5.36-2.52-8.04-7.97-8.04h-5.59c-5.45,0-8.11,2.68-7.97,8.04v57.1c-.14,5.36,2.52,8.04,7.97,8.04h5.59c5.45,0,8.11-2.68,7.97-8.04v-57.1Z"/>
    <path class="cls-2" d="M771.87,156.24l-18.17-49.34v62.69h-18.8V58.05h19.92l23.2,61.5,23.13-61.5h19.92v111.54h-18.38v-62.55l-18.1,49.2h-12.72Z"/>
    <path class="cls-2" d="M860.14,147.86l-5.24,21.25h-20.9l28.72-110.64h19.64l28.86,110.64h-21.6l-5.03-21.25h-24.46ZM880.41,129.83l-7.76-32.92-8.11,32.92h15.86Z"/>
    <path class="cls-2" d="M948.27,126.96h-7.13v42.21h-18.8V58.12h39.49c13.23.09,19.85,6.73,19.85,19.92v29c0,11.14-4.68,17.59-14.05,19.36l17.05,43.05h-19.92l-16.49-42.49ZM962.81,85.1c.14-5.36-2.52-8.04-7.97-8.04h-13.56v31.1h13.56c5.45,0,8.11-3.61,7.97-10.83v-12.23Z"/>
  </g>
</svg>