<?xml version="1.0" encoding="UTF-8"?>
<svg id="Layer_1" xmlns="http://www.w3.org/2000/svg" version="1.1" viewBox="0 0 812.07 218">
  <!-- Generator: Adobe Illustrator 29.4.0, SVG Export Plug-In . SVG Version: 2.1.0 Build 152)  -->
  <defs>
    <style>
      .st0 {
        fill: #111;
      }

      .st1 {
        fill: #40f843;
      }
    </style>
  </defs>
  <g>
    <polygon class="st1" points="188.17 163.32 188.17 54.68 94.09 .36 0 54.68 0 163.32 94.09 217.64 188.17 163.32"/>
    <g>
      <polygon class="st0" points="146.98 58.12 146.98 78.47 129.35 88.64 129.34 88.64 111.72 98.81 94.1 109 94.1 190.41 111.72 180.23 129.34 170.06 129.34 149.7 129.34 129.34 111.72 139.53 111.72 119.17 129.34 109 146.98 98.81 164.6 88.64 164.6 68.3 146.98 58.12"/>
      <path class="st0" d="M111.72,78.47l17.62-10.17v-20.36l-17.62-10.17-17.62-10.17-17.62,10.17h-.02l-17.6,10.17h-.02l-17.62,10.17-17.62,10.19h-.02v81.41h.02l17.62,10.17,17.62,10.17,17.62,10.17v-81.41h.02l17.62-10.17,17.62-10.17h0ZM76.46,78.47l-17.62,10.17v61.06l-17.62-10.17v-61.06l17.62-10.17,17.62-10.17v-.02h.02l17.62-10.17,17.62,10.17-17.62,10.17-17.64,10.19h0Z"/>
      <polygon class="st0" points="146.98 159.87 164.6 149.7 164.6 109 146.98 119.17 146.98 159.87"/>
    </g>
  </g>
  <g>
    <path class="st0" d="M236.16,152.13v-86.53h14.48v86.53h-14.48Z"/>
    <path class="st0" d="M281.41,119.24h-5.55v32.89h-14.65v-86.53h30.77c10.31.07,15.47,5.25,15.47,15.52v22.6c0,8.68-3.65,13.71-10.95,15.08l13.29,33.54h-15.52l-12.85-33.11h-.01ZM292.74,86.62c.11-4.18-1.96-6.26-6.21-6.26h-10.56v24.23h10.56c4.25,0,6.32-2.81,6.21-8.44v-9.53Z"/>
    <path class="st0" d="M317.57,152.18v-86.59h42.75v14.48h-28.26v18.19h18.41v14.48h-18.41v39.43h-14.49Z"/>
    <path class="st0" d="M374.19,135.52l-4.08,16.56h-16.28l22.38-86.2h15.3l22.49,86.2h-16.83l-3.92-16.56h-19.06ZM389.98,121.47l-6.04-25.65-6.32,25.65h12.36Z"/>
    <path class="st0" d="M440.04,65.54l23.91,51.57v-51.57h14.48v86.64h-14.87l-24.51-52.82v52.82h-14.48v-86.64h15.47Z"/>
    <path class="st0" d="M521.93,152.13v-71.99h-17.37v-14.48h48.68v14.48h-16.83v71.99h-14.49.01Z"/>
    <path class="st0" d="M560.31,81.12c0-10.27,5.15-15.45,15.47-15.52h15.3c10.31.07,15.47,5.25,15.47,15.52v55.44c0,10.27-5.15,15.45-15.47,15.52h-15.3c-10.31-.07-15.47-5.25-15.47-15.52v-55.44h0ZM591.84,86.62c.11-4.18-1.96-6.26-6.21-6.26h-4.36c-4.25,0-6.32,2.09-6.21,6.26v44.49c-.11,4.18,1.96,6.26,6.21,6.26h4.36c4.25,0,6.32-2.09,6.21-6.26v-44.49h0Z"/>
    <path class="st0" d="M646.25,142.06l-14.16-38.45v48.85h-14.65v-86.91h15.52l18.08,47.92,18.03-47.92h15.52v86.91h-14.32v-48.74l-14.11,38.34h-9.91Z"/>
    <path class="st0" d="M715.02,135.52l-4.08,16.56h-16.28l22.38-86.2h15.3l22.49,86.2h-16.83l-3.92-16.56h-19.06,0ZM730.82,121.47l-6.04-25.65-6.32,25.65h12.36Z"/>
    <path class="st0" d="M783.69,119.24h-5.55v32.89h-14.65v-86.53h30.77c10.31.07,15.47,5.25,15.47,15.52v22.6c0,8.68-3.65,13.71-10.95,15.08l13.29,33.54h-15.52l-12.85-33.11h0ZM795.02,86.62c.11-4.18-1.96-6.26-6.21-6.26h-10.56v24.23h10.56c4.25,0,6.32-2.81,6.21-8.44v-9.53Z"/>
  </g>
</svg>