<svg width="92" height="69" viewBox="0 0 92 69" fill="none" xmlns="http://www.w3.org/2000/svg">
<path d="M8.83008 37.1482C10.4734 37.8772 12.1819 38.1144 13.904 37.8815C16.144 49.4849 22.8396 57.5241 34.0705 62.1814C34.2543 61.1759 34.3481 60.298 34.5814 59.4563C35.2796 56.9372 36.0276 54.4309 36.7656 51.9221C37.2551 50.2582 37.72 48.5922 37.8063 46.85C37.8942 45.0774 37.5347 43.4112 36.595 41.876C35.8943 40.7313 35.1868 39.5904 34.477 38.4393C33.8725 39.2486 33.3077 40.1081 32.6353 40.8799C31.6895 41.9655 30.7038 43.0257 29.6531 44.0152C29.2192 44.4238 28.6027 44.7097 28.0165 44.8968C26.5862 45.3531 25.275 44.8099 24.5885 43.5115C23.621 41.6817 23.0722 39.7253 22.8018 37.69C22.2443 33.4938 21.6799 29.2984 21.1019 25.1048C21.0831 24.9686 20.8859 24.749 20.7698 24.7478C18.7057 24.7259 16.6412 24.7319 14.4911 24.7319C14.4911 24.99 14.4912 25.1979 14.4911 25.4058C14.4894 27.8194 14.4842 30.2331 14.4879 32.6468C14.4891 33.3729 14.2445 33.9931 13.6748 34.4695C12.9362 35.0871 12.0897 35.2795 11.1837 34.8882C10.2703 34.4937 9.77955 33.7791 9.76953 32.8002C9.75345 31.2332 9.75315 29.6661 9.75428 28.099C9.75759 23.4519 9.76456 18.8047 9.77115 14.1576C9.77166 13.7974 9.76179 13.436 9.78847 13.0774C9.88703 11.7528 10.8896 10.8477 12.2012 10.8843C13.4899 10.9202 14.4817 11.9043 14.4906 13.2143C14.5086 15.844 14.4993 18.4739 14.5011 21.1038C14.5013 21.2816 14.5012 21.4595 14.5012 21.6708C14.6565 21.6856 14.7801 21.7076 14.9036 21.7075C17.0089 21.7069 19.1142 21.6972 21.2195 21.7068C21.5712 21.7085 21.8004 21.6242 21.9766 21.3053C22.3261 20.6728 22.9334 20.4172 23.6468 20.4029C24.5407 20.385 25.4354 20.3831 26.3294 20.3977C27.0309 20.4092 27.6113 20.6953 27.9326 21.3065C28.1214 21.6656 28.3737 21.7158 28.7339 21.7143C31.1896 21.7044 33.6454 21.7092 36.1012 21.7092C36.1194 21.7585 36.1375 21.8078 36.1557 21.8571C35.2841 22.1937 34.4318 22.5926 33.5362 22.8519C32.2581 23.222 31.0464 23.6661 29.9757 24.4745C29.6676 24.7071 29.1387 24.701 28.7054 24.7325C28.374 24.7566 28.1834 24.8312 28.0281 25.1469C27.5205 26.1789 26.6249 26.8493 25.549 27.4268C26.0624 28.9436 26.5743 30.4556 27.0862 31.9676C27.8243 28.8105 29.6817 26.6219 32.8199 25.3844C32.8426 25.787 32.8579 26.1233 32.8812 26.459C33.0533 28.9364 34.4015 30.7797 36.3174 32.2836C36.992 32.8131 37.7297 33.3021 38.5108 33.6639C41.499 35.0477 43.1221 37.436 43.7613 40.4512C44.1174 42.1311 44.2718 43.8756 44.2904 45.5934C44.3547 51.5188 44.3192 57.4454 44.3217 63.3715C44.3218 63.5857 44.3217 63.7999 44.3217 64.0695C45.1555 64.0695 45.9421 64.0695 46.7873 64.0695C46.7992 63.8326 46.8204 63.6065 46.8206 63.3804C46.8259 57.076 46.8183 50.7716 46.8382 44.4674C46.8455 42.157 47.2751 39.9215 48.2953 37.8109C49.1285 36.0872 50.3939 34.773 52.1553 33.9047C53.5202 33.232 54.8141 32.4653 55.8762 31.3642C57.4191 29.7646 58.2847 27.9201 58.2156 25.7054C58.2135 25.6353 58.2303 25.5647 58.2451 25.4348C61.4275 26.6052 63.2721 28.8117 64.0333 31.9926C64.5325 30.4959 65.0318 28.9992 65.5428 27.467C65.3273 27.3333 65.1451 27.2159 64.9585 27.1054C64.1448 26.6234 63.4846 25.9981 63.1008 25.1447C62.9489 24.807 62.7312 24.6659 62.3703 24.7184C61.715 24.8137 61.214 24.5135 60.6627 24.2176C59.8096 23.7597 58.8896 23.4129 57.9822 23.0567C57.008 22.6742 56.0156 22.3351 55.0311 21.9771C55.0451 21.9145 55.0592 21.852 55.0732 21.7894C55.2032 21.7736 55.3331 21.7448 55.4632 21.7438C57.7918 21.7269 60.1205 21.7089 62.4492 21.704C62.7749 21.7034 62.9764 21.6435 63.137 21.3184C63.4459 20.693 64.042 20.4234 64.7362 20.4063C65.6856 20.3828 66.6365 20.3841 67.5861 20.403C68.2817 20.4169 68.7494 20.8054 69.1239 21.3445C69.231 21.4986 69.4394 21.6875 69.603 21.689C71.9299 21.7114 74.257 21.7043 76.6787 21.7043C76.6787 21.4358 76.6788 21.2099 76.6787 20.984C76.6773 18.4623 76.6736 15.9405 76.6754 13.4188C76.6764 11.905 77.6043 10.9108 79.0312 10.8833C80.3667 10.8574 81.4168 11.9469 81.4274 13.4198C81.4434 15.6352 81.4294 17.8508 81.4288 20.0663C81.4277 24.1551 81.4183 28.2439 81.4317 32.3327C81.4355 33.4782 81.0643 34.3837 79.9216 34.8657C78.401 35.5072 76.7397 34.5125 76.696 32.8943C76.6498 31.1842 76.6801 29.4722 76.678 27.761C76.6768 26.7898 76.6778 25.8186 76.6778 24.7878C74.4311 24.7878 72.2303 24.7878 70.002 24.7878C69.8744 25.8653 69.7672 26.9527 69.6139 28.0339C69.0653 31.902 68.5568 35.7766 67.91 39.6295C67.7075 40.836 67.1929 42.0135 66.6864 43.148C65.8375 45.0497 63.886 45.5886 62.053 44.5032C61.7537 44.326 61.4645 44.1148 61.2191 43.8733C59.6245 42.3041 58.0932 40.6829 56.9176 38.7817C56.8433 38.6617 56.7489 38.5533 56.6352 38.4011C55.8043 39.8061 54.9267 41.1378 54.2049 42.5442C52.9092 45.0689 53.196 47.6929 53.934 50.2969C54.6666 52.8819 55.4883 55.4435 56.2074 58.0319C56.5684 59.3311 56.788 60.667 57.0711 61.9841C63.7703 59.9665 74.8963 51.6688 77.0315 37.8867C78.8118 38.1071 80.5357 37.848 82.1957 37.1234C80.7556 52.4243 66.8003 69.0854 45.4516 68.9998C24.2103 68.9144 10.2229 52.7129 8.83008 37.1482Z" fill="#D7FB00"/>
<path d="M51.1758 0.010498C56.8775 0.96395 61.9276 3.15367 66.5376 6.33648C68.6971 7.82743 70.6596 9.53439 72.4617 11.417C72.7549 11.7233 72.9011 12.0312 72.895 12.4692C72.8651 14.6119 72.8761 16.7552 72.8727 18.8982C72.8724 19.1068 72.8727 19.3154 72.7523 19.5597C72.5017 19.2372 72.245 18.919 72.0016 18.5916C67.6081 12.6816 62.0056 8.31668 54.8041 5.98366C54.6204 5.92416 54.3904 5.70592 54.3624 5.53418C54.0141 3.40247 53.0255 1.62055 51.3412 0.201275C51.3011 0.167455 51.2716 0.121902 51.1758 0.010498Z" fill="#D7FB00"/>
<path d="M18.1989 19.4794C18.1989 18.6582 18.1994 17.8369 18.1988 17.0157C18.1978 15.4134 18.1821 13.811 18.2091 12.2092C18.2134 11.9522 18.3432 11.6417 18.5229 11.4509C23.7486 5.90376 30.1648 2.28407 37.6741 0.451425C38.4112 0.271546 39.1617 0.143009 39.8602 0C39.5041 0.376598 39.1134 0.758657 38.7593 1.1702C37.6987 2.40289 37.064 3.82743 36.8045 5.40515C36.7516 5.72708 36.6324 5.88979 36.293 5.99405C29.1475 8.18916 23.5396 12.3885 19.2294 18.2706C18.9295 18.6799 18.6306 19.0898 18.3312 19.4994C18.2871 19.4927 18.243 19.4861 18.1989 19.4794Z" fill="#D7FB00"/>
<path d="M3.59421 21.6027C3.60749 21.3777 3.63214 21.1505 3.63255 20.9232C3.63592 19.0156 3.61452 17.1076 3.64149 15.2003C3.66341 13.65 4.95692 12.6951 6.52035 13.0275C7.56815 13.2503 8.24992 14.0424 8.25589 15.1191C8.26925 17.5306 8.25677 19.9422 8.25673 22.3538C8.25667 25.3053 8.27246 28.2569 8.2543 31.2084C8.24371 32.9285 6.48567 33.9925 4.91555 33.24C4.05273 32.8265 3.641 32.1154 3.63918 31.1849C3.63586 29.4932 3.63357 27.8015 3.63096 26.1097C3.63063 25.8991 3.63092 25.6884 3.63092 25.4373C3.04097 25.4373 2.52306 25.4415 2.00524 25.4365C0.854806 25.4254 0.0342826 24.6512 0.00107024 23.551C-0.0325238 22.4376 0.727281 21.6585 1.92353 21.6066C2.45944 21.5834 2.99731 21.6027 3.59421 21.6027Z" fill="#D7FB00"/>
<path d="M87.5086 25.434C87.5086 27.4108 87.5143 29.2819 87.5064 31.1528C87.5019 32.1983 86.9214 32.9745 85.9105 33.3285C84.4746 33.8312 82.9769 32.8899 82.9232 31.4141C82.8839 30.3349 82.9181 29.2532 82.9175 28.1725C82.9152 23.8499 82.9065 19.5273 82.9123 15.2047C82.9146 13.5206 84.3636 12.5513 86.0157 13.1056C86.8934 13.4001 87.5023 14.2337 87.5065 15.1817C87.5151 17.1088 87.5124 19.0359 87.5143 20.9631C87.5145 21.1574 87.5143 21.3517 87.5143 21.599C88.0438 21.599 88.5211 21.6032 88.9983 21.5982C90.1996 21.5854 91.0608 22.3526 91.08 23.4574C91.0988 24.5425 90.2387 25.4 89.0857 25.4317C88.5881 25.4454 88.0898 25.434 87.5086 25.434Z" fill="#D7FB00"/>
<path d="M49.588 16.1573C49.5467 15.5339 49.561 14.8898 49.63 14.2263C49.688 13.669 49.9842 13.1332 50.1864 12.5932C50.2176 12.5099 50.3332 12.4036 50.4152 12.3991C50.9255 12.3705 51.1208 12.0046 51.2503 11.6327C51.5287 10.8328 51.8195 10.0274 51.9754 9.20141C52.0421 8.84742 51.8967 8.33696 51.6479 8.07472C51.2875 7.69476 51.3291 7.33341 51.3199 6.89811C51.301 6.00752 51.3685 5.06514 51.0936 4.23953C50.3965 2.14486 48.7098 1.11561 46.5353 0.747518C44.1833 0.349416 41.678 1.38589 40.5016 3.20833C39.6894 4.46661 39.6803 5.8282 39.8225 7.2296C39.8432 7.43316 39.8047 7.74072 39.6678 7.84367C39.0912 8.27709 39.0053 8.83953 39.1697 9.44333C39.3776 10.2073 39.6212 10.9678 39.9316 11.6971C40.0481 11.9707 40.3941 12.1537 40.6376 12.3757C40.7264 12.4566 40.8661 12.514 40.9061 12.6114C41.1322 13.162 41.4499 13.7075 41.5252 14.2807C41.6136 14.9546 41.6353 15.6194 41.5857 16.2721C43.302 16.9071 46.1694 17.4652 49.588 16.1573Z" fill="#F2F2F2"/>
<path d="M56.4745 24.7099C55.3706 24.1238 54.2123 23.584 53.2366 22.8308C51.2882 21.3267 50.1475 19.4725 49.7383 17.3383C48.3934 18.3785 45.8841 19.1878 41.3458 17.7397C41.1418 18.5377 40.8179 19.3128 40.3624 20.0583C39.0574 22.1945 37.1939 23.7215 34.7952 24.6035C34.2186 24.8154 34.0747 25.1105 34.1187 25.6845C34.2802 27.7931 35.328 29.4285 36.9067 30.8024C37.9869 31.7426 39.2735 32.3553 40.5738 32.9454C41.9127 33.553 42.9513 34.4775 43.6808 35.7218C43.8472 36.0055 43.9925 36.3008 44.1838 36.6588C44.3981 31.8118 44.6437 27.0633 44.7896 22.3119C44.8206 21.3018 45.4145 20.9186 46.2215 20.4167C46.4657 25.809 46.7056 31.1062 46.9525 36.558C47.0701 36.372 47.1125 36.3173 47.1419 36.2566C47.9228 34.6431 49.117 33.4477 50.8362 32.7461C51.5545 32.4529 52.2639 32.1174 52.9249 31.7195C55.3018 30.2887 56.8451 28.3326 57.0028 25.5202C57.0273 25.0822 56.8481 24.9083 56.4745 24.7099Z" fill="#F2F2F2"/>
<path d="M49.7382 17.338C49.6645 16.9533 49.6146 16.5595 49.588 16.157C46.1694 17.4649 43.302 16.9068 41.5856 16.2719C41.5479 16.7685 41.4687 17.2582 41.3457 17.7394C45.8839 19.1875 48.3932 18.3782 49.7382 17.338Z" fill="#D7FB00"/>
</svg>
